<svg width="244" height="163" viewBox="0 0 244 163" fill="none" xmlns="http://www.w3.org/2000/svg">
<g filter="url(#filter0_d_458_4586)">
<rect width="240" height="159" rx="5" fill="black"/>
<path d="M26.61 140.7C26.61 141.013 26.5833 141.317 26.53 141.61C26.4767 141.903 26.3667 142.167 26.2 142.4C26.04 142.633 25.8033 142.82 25.49 142.96C25.1833 143.1 24.7733 143.17 24.26 143.17C23.88 143.17 23.5567 143.113 23.29 143C23.0233 142.88 22.8033 142.72 22.63 142.52C22.4567 142.313 22.33 142.07 22.25 141.79C22.17 141.51 22.13 141.207 22.13 140.88V140.5H23.38V140.87C23.38 141.277 23.4467 141.593 23.58 141.82C23.72 142.04 23.98 142.15 24.36 142.15C24.56 142.15 24.7233 142.12 24.85 142.06C24.9833 142 25.0867 141.913 25.16 141.8C25.24 141.68 25.2933 141.533 25.32 141.36C25.3467 141.187 25.36 140.99 25.36 140.77V135.86H26.61V140.7ZM32.3011 141.85C32.3011 141.99 32.3178 142.09 32.3511 142.15C32.3911 142.21 32.4644 142.24 32.5711 142.24C32.6044 142.24 32.6444 142.24 32.6911 142.24C32.7378 142.24 32.7911 142.233 32.8511 142.22V143.01C32.8111 143.023 32.7578 143.037 32.6911 143.05C32.6311 143.07 32.5678 143.087 32.5011 143.1C32.4344 143.113 32.3678 143.123 32.3011 143.13C32.2344 143.137 32.1778 143.14 32.1311 143.14C31.8978 143.14 31.7044 143.093 31.5511 143C31.3978 142.907 31.2978 142.743 31.2511 142.51C31.0244 142.73 30.7444 142.89 30.4111 142.99C30.0844 143.09 29.7678 143.14 29.4611 143.14C29.2278 143.14 29.0044 143.107 28.7911 143.04C28.5778 142.98 28.3878 142.89 28.2211 142.77C28.0611 142.643 27.9311 142.487 27.8311 142.3C27.7378 142.107 27.6911 141.883 27.6911 141.63C27.6911 141.31 27.7478 141.05 27.8611 140.85C27.9811 140.65 28.1344 140.493 28.3211 140.38C28.5144 140.267 28.7278 140.187 28.9611 140.14C29.2011 140.087 29.4411 140.047 29.6811 140.02C29.8878 139.98 30.0844 139.953 30.2711 139.94C30.4578 139.92 30.6211 139.89 30.7611 139.85C30.9078 139.81 31.0211 139.75 31.1011 139.67C31.1878 139.583 31.2311 139.457 31.2311 139.29C31.2311 139.143 31.1944 139.023 31.1211 138.93C31.0544 138.837 30.9678 138.767 30.8611 138.72C30.7611 138.667 30.6478 138.633 30.5211 138.62C30.3944 138.6 30.2744 138.59 30.1611 138.59C29.8411 138.59 29.5778 138.657 29.3711 138.79C29.1644 138.923 29.0478 139.13 29.0211 139.41H27.8811C27.9011 139.077 27.9811 138.8 28.1211 138.58C28.2611 138.36 28.4378 138.183 28.6511 138.05C28.8711 137.917 29.1178 137.823 29.3911 137.77C29.6644 137.717 29.9444 137.69 30.2311 137.69C30.4844 137.69 30.7344 137.717 30.9811 137.77C31.2278 137.823 31.4478 137.91 31.6411 138.03C31.8411 138.15 32.0011 138.307 32.1211 138.5C32.2411 138.687 32.3011 138.917 32.3011 139.19V141.85ZM31.1611 140.41C30.9878 140.523 30.7744 140.593 30.5211 140.62C30.2678 140.64 30.0144 140.673 29.7611 140.72C29.6411 140.74 29.5244 140.77 29.4111 140.81C29.2978 140.843 29.1978 140.893 29.1111 140.96C29.0244 141.02 28.9544 141.103 28.9011 141.21C28.8544 141.31 28.8311 141.433 28.8311 141.58C28.8311 141.707 28.8678 141.813 28.9411 141.9C29.0144 141.987 29.1011 142.057 29.2011 142.11C29.3078 142.157 29.4211 142.19 29.5411 142.21C29.6678 142.23 29.7811 142.24 29.8811 142.24C30.0078 142.24 30.1444 142.223 30.2911 142.19C30.4378 142.157 30.5744 142.1 30.7011 142.02C30.8344 141.94 30.9444 141.84 31.0311 141.72C31.1178 141.593 31.1611 141.44 31.1611 141.26V140.41ZM33.5277 137.83H34.6077V138.59L34.6277 138.61C34.8011 138.323 35.0277 138.1 35.3077 137.94C35.5877 137.773 35.8977 137.69 36.2377 137.69C36.8044 137.69 37.2511 137.837 37.5777 138.13C37.9044 138.423 38.0677 138.863 38.0677 139.45V143H36.9277V139.75C36.9144 139.343 36.8277 139.05 36.6677 138.87C36.5077 138.683 36.2577 138.59 35.9177 138.59C35.7244 138.59 35.5511 138.627 35.3977 138.7C35.2444 138.767 35.1144 138.863 35.0077 138.99C34.9011 139.11 34.8177 139.253 34.7577 139.42C34.6977 139.587 34.6677 139.763 34.6677 139.95V143H33.5277V137.83Z" fill="white"/>
<path d="M53.76 135.86H58.69V136.94H55.01V138.81H58.24V139.83H55.01V143H53.76V135.86ZM63.0777 139.96C63.0644 139.78 63.0244 139.607 62.9577 139.44C62.8977 139.273 62.8111 139.13 62.6977 139.01C62.5911 138.883 62.4577 138.783 62.2977 138.71C62.1444 138.63 61.9711 138.59 61.7777 138.59C61.5777 138.59 61.3944 138.627 61.2277 138.7C61.0677 138.767 60.9277 138.863 60.8077 138.99C60.6944 139.11 60.6011 139.253 60.5277 139.42C60.4611 139.587 60.4244 139.767 60.4177 139.96H63.0777ZM60.4177 140.71C60.4177 140.91 60.4444 141.103 60.4977 141.29C60.5577 141.477 60.6444 141.64 60.7577 141.78C60.8711 141.92 61.0144 142.033 61.1877 142.12C61.3611 142.2 61.5677 142.24 61.8077 142.24C62.1411 142.24 62.4077 142.17 62.6077 142.03C62.8144 141.883 62.9677 141.667 63.0677 141.38H64.1477C64.0877 141.66 63.9844 141.91 63.8377 142.13C63.6911 142.35 63.5144 142.537 63.3077 142.69C63.1011 142.837 62.8677 142.947 62.6077 143.02C62.3544 143.1 62.0877 143.14 61.8077 143.14C61.4011 143.14 61.0411 143.073 60.7277 142.94C60.4144 142.807 60.1477 142.62 59.9277 142.38C59.7144 142.14 59.5511 141.853 59.4377 141.52C59.3311 141.187 59.2777 140.82 59.2777 140.42C59.2777 140.053 59.3344 139.707 59.4477 139.38C59.5677 139.047 59.7344 138.757 59.9477 138.51C60.1677 138.257 60.4311 138.057 60.7377 137.91C61.0444 137.763 61.3911 137.69 61.7777 137.69C62.1844 137.69 62.5477 137.777 62.8677 137.95C63.1944 138.117 63.4644 138.34 63.6777 138.62C63.8911 138.9 64.0444 139.223 64.1377 139.59C64.2377 139.95 64.2644 140.323 64.2177 140.71H60.4177ZM65.1144 135.86H66.2544V138.5H66.2744C66.3544 138.373 66.451 138.26 66.5644 138.16C66.6777 138.06 66.801 137.977 66.9344 137.91C67.0744 137.837 67.2177 137.783 67.3644 137.75C67.5177 137.71 67.6677 137.69 67.8144 137.69C68.221 137.69 68.5744 137.763 68.8744 137.91C69.181 138.05 69.4344 138.247 69.6344 138.5C69.8344 138.747 69.9844 139.037 70.0844 139.37C70.1844 139.703 70.2344 140.06 70.2344 140.44C70.2344 140.787 70.1877 141.123 70.0944 141.45C70.0077 141.777 69.871 142.067 69.6844 142.32C69.5044 142.567 69.2744 142.767 68.9944 142.92C68.7144 143.067 68.3844 143.14 68.0044 143.14C67.831 143.14 67.6544 143.127 67.4744 143.1C67.301 143.08 67.1344 143.037 66.9744 142.97C66.8144 142.903 66.6677 142.817 66.5344 142.71C66.4077 142.603 66.301 142.463 66.2144 142.29H66.1944V143H65.1144V135.86ZM69.0944 140.42C69.0944 140.187 69.0644 139.96 69.0044 139.74C68.9444 139.52 68.8544 139.327 68.7344 139.16C68.6144 138.987 68.4644 138.85 68.2844 138.75C68.1044 138.643 67.8977 138.59 67.6644 138.59C67.1844 138.59 66.821 138.757 66.5744 139.09C66.3344 139.423 66.2144 139.867 66.2144 140.42C66.2144 140.68 66.2444 140.923 66.3044 141.15C66.371 141.37 66.4677 141.56 66.5944 141.72C66.721 141.88 66.871 142.007 67.0444 142.1C67.2244 142.193 67.431 142.24 67.6644 142.24C67.9244 142.24 68.1444 142.187 68.3244 142.08C68.5044 141.973 68.651 141.837 68.7644 141.67C68.8844 141.497 68.9677 141.303 69.0144 141.09C69.0677 140.87 69.0944 140.647 69.0944 140.42Z" fill="white"/>
<path d="M84.74 135.86H86.5L88.47 141.45H88.49L90.41 135.86H92.15V143H90.96V137.49H90.94L88.96 143H87.93L85.95 137.49H85.93V143H84.74V135.86ZM97.8167 141.85C97.8167 141.99 97.8334 142.09 97.8667 142.15C97.9067 142.21 97.9801 142.24 98.0867 142.24C98.1201 142.24 98.1601 142.24 98.2067 142.24C98.2534 142.24 98.3067 142.233 98.3667 142.22V143.01C98.3267 143.023 98.2734 143.037 98.2067 143.05C98.1467 143.07 98.0834 143.087 98.0167 143.1C97.9501 143.113 97.8834 143.123 97.8167 143.13C97.7501 143.137 97.6934 143.14 97.6467 143.14C97.4134 143.14 97.2201 143.093 97.0667 143C96.9134 142.907 96.8134 142.743 96.7667 142.51C96.5401 142.73 96.2601 142.89 95.9267 142.99C95.6001 143.09 95.2834 143.14 94.9767 143.14C94.7434 143.14 94.5201 143.107 94.3067 143.04C94.0934 142.98 93.9034 142.89 93.7367 142.77C93.5767 142.643 93.4467 142.487 93.3467 142.3C93.2534 142.107 93.2067 141.883 93.2067 141.63C93.2067 141.31 93.2634 141.05 93.3767 140.85C93.4967 140.65 93.6501 140.493 93.8367 140.38C94.0301 140.267 94.2434 140.187 94.4767 140.14C94.7167 140.087 94.9567 140.047 95.1967 140.02C95.4034 139.98 95.6001 139.953 95.7867 139.94C95.9734 139.92 96.1367 139.89 96.2767 139.85C96.4234 139.81 96.5367 139.75 96.6167 139.67C96.7034 139.583 96.7467 139.457 96.7467 139.29C96.7467 139.143 96.7101 139.023 96.6367 138.93C96.5701 138.837 96.4834 138.767 96.3767 138.72C96.2767 138.667 96.1634 138.633 96.0367 138.62C95.9101 138.6 95.7901 138.59 95.6767 138.59C95.3567 138.59 95.0934 138.657 94.8867 138.79C94.6801 138.923 94.5634 139.13 94.5367 139.41H93.3967C93.4167 139.077 93.4967 138.8 93.6367 138.58C93.7767 138.36 93.9534 138.183 94.1667 138.05C94.3867 137.917 94.6334 137.823 94.9067 137.77C95.1801 137.717 95.4601 137.69 95.7467 137.69C96.0001 137.69 96.2501 137.717 96.4967 137.77C96.7434 137.823 96.9634 137.91 97.1567 138.03C97.3567 138.15 97.5167 138.307 97.6367 138.5C97.7567 138.687 97.8167 138.917 97.8167 139.19V141.85ZM96.6767 140.41C96.5034 140.523 96.2901 140.593 96.0367 140.62C95.7834 140.64 95.5301 140.673 95.2767 140.72C95.1567 140.74 95.0401 140.77 94.9267 140.81C94.8134 140.843 94.7134 140.893 94.6267 140.96C94.5401 141.02 94.4701 141.103 94.4167 141.21C94.3701 141.31 94.3467 141.433 94.3467 141.58C94.3467 141.707 94.3834 141.813 94.4567 141.9C94.5301 141.987 94.6167 142.057 94.7167 142.11C94.8234 142.157 94.9367 142.19 95.0567 142.21C95.1834 142.23 95.2967 142.24 95.3967 142.24C95.5234 142.24 95.6601 142.223 95.8067 142.19C95.9534 142.157 96.0901 142.1 96.2167 142.02C96.3501 141.94 96.4601 141.84 96.5467 141.72C96.6334 141.593 96.6767 141.44 96.6767 141.26V140.41ZM99.0434 137.83H100.113V138.83H100.133C100.167 138.69 100.23 138.553 100.323 138.42C100.423 138.287 100.54 138.167 100.673 138.06C100.813 137.947 100.967 137.857 101.133 137.79C101.3 137.723 101.47 137.69 101.643 137.69C101.777 137.69 101.867 137.693 101.913 137.7C101.967 137.707 102.02 137.713 102.073 137.72V138.82C101.993 138.807 101.91 138.797 101.823 138.79C101.743 138.777 101.663 138.77 101.583 138.77C101.39 138.77 101.207 138.81 101.033 138.89C100.867 138.963 100.72 139.077 100.593 139.23C100.467 139.377 100.367 139.56 100.293 139.78C100.22 140 100.183 140.253 100.183 140.54V143H99.0434V137.83Z" fill="white"/>
<rect x="111" y="131" width="23" height="18" rx="3" fill="url(#paint0_linear_458_4586)"/>
<path d="M116.67 136.86H118L120.75 144H119.41L118.74 142.11H115.89L115.22 144H113.93L116.67 136.86ZM116.23 141.16H118.41L117.34 138.09H117.31L116.23 141.16ZM121.3 138.83H122.38V139.53H122.4C122.56 139.23 122.783 139.017 123.07 138.89C123.357 138.757 123.667 138.69 124 138.69C124.407 138.69 124.76 138.763 125.06 138.91C125.367 139.05 125.62 139.247 125.82 139.5C126.02 139.747 126.17 140.037 126.27 140.37C126.37 140.703 126.42 141.06 126.42 141.44C126.42 141.787 126.373 142.123 126.28 142.45C126.193 142.777 126.057 143.067 125.87 143.32C125.69 143.567 125.46 143.767 125.18 143.92C124.9 144.067 124.57 144.14 124.19 144.14C124.023 144.14 123.857 144.123 123.69 144.09C123.523 144.063 123.363 144.017 123.21 143.95C123.057 143.883 122.913 143.8 122.78 143.7C122.653 143.593 122.547 143.47 122.46 143.33H122.44V145.91H121.3V138.83ZM125.28 141.42C125.28 141.187 125.25 140.96 125.19 140.74C125.13 140.52 125.04 140.327 124.92 140.16C124.8 139.987 124.65 139.85 124.47 139.75C124.29 139.643 124.083 139.59 123.85 139.59C123.37 139.59 123.007 139.757 122.76 140.09C122.52 140.423 122.4 140.867 122.4 141.42C122.4 141.68 122.43 141.923 122.49 142.15C122.557 142.37 122.653 142.56 122.78 142.72C122.907 142.88 123.057 143.007 123.23 143.1C123.41 143.193 123.617 143.24 123.85 143.24C124.11 143.24 124.33 143.187 124.51 143.08C124.69 142.973 124.837 142.837 124.95 142.67C125.07 142.497 125.153 142.303 125.2 142.09C125.253 141.87 125.28 141.647 125.28 141.42ZM127.383 138.83H128.453V139.83H128.473C128.507 139.69 128.57 139.553 128.663 139.42C128.763 139.287 128.88 139.167 129.013 139.06C129.153 138.947 129.307 138.857 129.473 138.79C129.64 138.723 129.81 138.69 129.983 138.69C130.117 138.69 130.207 138.693 130.253 138.7C130.307 138.707 130.36 138.713 130.413 138.72V139.82C130.333 139.807 130.25 139.797 130.163 139.79C130.083 139.777 130.003 139.77 129.923 139.77C129.73 139.77 129.547 139.81 129.373 139.89C129.207 139.963 129.06 140.077 128.933 140.23C128.807 140.377 128.707 140.56 128.633 140.78C128.56 141 128.523 141.253 128.523 141.54V144H127.383V138.83Z" fill="white"/>
<path d="M146.74 135.86H148.5L150.47 141.45H150.49L152.41 135.86H154.15V143H152.96V137.49H152.94L150.96 143H149.93L147.95 137.49H147.93V143H146.74V135.86ZM159.817 141.85C159.817 141.99 159.833 142.09 159.867 142.15C159.907 142.21 159.98 142.24 160.087 142.24C160.12 142.24 160.16 142.24 160.207 142.24C160.253 142.24 160.307 142.233 160.367 142.22V143.01C160.327 143.023 160.273 143.037 160.207 143.05C160.147 143.07 160.083 143.087 160.017 143.1C159.95 143.113 159.883 143.123 159.817 143.13C159.75 143.137 159.693 143.14 159.647 143.14C159.413 143.14 159.22 143.093 159.067 143C158.913 142.907 158.813 142.743 158.767 142.51C158.54 142.73 158.26 142.89 157.927 142.99C157.6 143.09 157.283 143.14 156.977 143.14C156.743 143.14 156.52 143.107 156.307 143.04C156.093 142.98 155.903 142.89 155.737 142.77C155.577 142.643 155.447 142.487 155.347 142.3C155.253 142.107 155.207 141.883 155.207 141.63C155.207 141.31 155.263 141.05 155.377 140.85C155.497 140.65 155.65 140.493 155.837 140.38C156.03 140.267 156.243 140.187 156.477 140.14C156.717 140.087 156.957 140.047 157.197 140.02C157.403 139.98 157.6 139.953 157.787 139.94C157.973 139.92 158.137 139.89 158.277 139.85C158.423 139.81 158.537 139.75 158.617 139.67C158.703 139.583 158.747 139.457 158.747 139.29C158.747 139.143 158.71 139.023 158.637 138.93C158.57 138.837 158.483 138.767 158.377 138.72C158.277 138.667 158.163 138.633 158.037 138.62C157.91 138.6 157.79 138.59 157.677 138.59C157.357 138.59 157.093 138.657 156.887 138.79C156.68 138.923 156.563 139.13 156.537 139.41H155.397C155.417 139.077 155.497 138.8 155.637 138.58C155.777 138.36 155.953 138.183 156.167 138.05C156.387 137.917 156.633 137.823 156.907 137.77C157.18 137.717 157.46 137.69 157.747 137.69C158 137.69 158.25 137.717 158.497 137.77C158.743 137.823 158.963 137.91 159.157 138.03C159.357 138.15 159.517 138.307 159.637 138.5C159.757 138.687 159.817 138.917 159.817 139.19V141.85ZM158.677 140.41C158.503 140.523 158.29 140.593 158.037 140.62C157.783 140.64 157.53 140.673 157.277 140.72C157.157 140.74 157.04 140.77 156.927 140.81C156.813 140.843 156.713 140.893 156.627 140.96C156.54 141.02 156.47 141.103 156.417 141.21C156.37 141.31 156.347 141.433 156.347 141.58C156.347 141.707 156.383 141.813 156.457 141.9C156.53 141.987 156.617 142.057 156.717 142.11C156.823 142.157 156.937 142.19 157.057 142.21C157.183 142.23 157.297 142.24 157.397 142.24C157.523 142.24 157.66 142.223 157.807 142.19C157.953 142.157 158.09 142.1 158.217 142.02C158.35 141.94 158.46 141.84 158.547 141.72C158.633 141.593 158.677 141.44 158.677 141.26V140.41ZM160.473 137.83H161.723L163.073 141.69H163.093L164.403 137.83H165.593L163.583 143.28C163.49 143.513 163.397 143.737 163.303 143.95C163.217 144.163 163.107 144.35 162.973 144.51C162.847 144.677 162.687 144.807 162.493 144.9C162.3 145 162.053 145.05 161.753 145.05C161.487 145.05 161.223 145.03 160.963 144.99V144.03C161.057 144.043 161.147 144.057 161.233 144.07C161.32 144.09 161.41 144.1 161.503 144.1C161.637 144.1 161.747 144.083 161.833 144.05C161.92 144.017 161.99 143.967 162.043 143.9C162.103 143.84 162.153 143.767 162.193 143.68C162.233 143.593 162.27 143.493 162.303 143.38L162.433 142.98L160.473 137.83Z" fill="white"/>
<path d="M181.61 140.7C181.61 141.013 181.583 141.317 181.53 141.61C181.477 141.903 181.367 142.167 181.2 142.4C181.04 142.633 180.803 142.82 180.49 142.96C180.183 143.1 179.773 143.17 179.26 143.17C178.88 143.17 178.557 143.113 178.29 143C178.023 142.88 177.803 142.72 177.63 142.52C177.457 142.313 177.33 142.07 177.25 141.79C177.17 141.51 177.13 141.207 177.13 140.88V140.5H178.38V140.87C178.38 141.277 178.447 141.593 178.58 141.82C178.72 142.04 178.98 142.15 179.36 142.15C179.56 142.15 179.723 142.12 179.85 142.06C179.983 142 180.087 141.913 180.16 141.8C180.24 141.68 180.293 141.533 180.32 141.36C180.347 141.187 180.36 140.99 180.36 140.77V135.86H181.61V140.7ZM187.511 143H186.391V142.28H186.371C186.231 142.54 186.021 142.75 185.741 142.91C185.468 143.063 185.188 143.14 184.901 143.14C184.221 143.14 183.728 142.973 183.421 142.64C183.121 142.3 182.971 141.79 182.971 141.11V137.83H184.111V141C184.111 141.453 184.198 141.773 184.371 141.96C184.544 142.147 184.788 142.24 185.101 142.24C185.341 142.24 185.541 142.203 185.701 142.13C185.861 142.057 185.991 141.96 186.091 141.84C186.191 141.713 186.261 141.563 186.301 141.39C186.348 141.217 186.371 141.03 186.371 140.83V137.83H187.511V143ZM188.713 137.83H189.793V138.59L189.813 138.61C189.987 138.323 190.213 138.1 190.493 137.94C190.773 137.773 191.083 137.69 191.423 137.69C191.99 137.69 192.437 137.837 192.763 138.13C193.09 138.423 193.253 138.863 193.253 139.45V143H192.113V139.75C192.1 139.343 192.013 139.05 191.853 138.87C191.693 138.683 191.443 138.59 191.103 138.59C190.91 138.59 190.737 138.627 190.583 138.7C190.43 138.767 190.3 138.863 190.193 138.99C190.087 139.11 190.003 139.253 189.943 139.42C189.883 139.587 189.853 139.763 189.853 139.95V143H188.713V137.83Z" fill="white"/>
<path d="M209.61 141.7C209.61 142.013 209.583 142.317 209.53 142.61C209.477 142.903 209.367 143.167 209.2 143.4C209.04 143.633 208.803 143.82 208.49 143.96C208.183 144.1 207.773 144.17 207.26 144.17C206.88 144.17 206.557 144.113 206.29 144C206.023 143.88 205.803 143.72 205.63 143.52C205.457 143.313 205.33 143.07 205.25 142.79C205.17 142.51 205.13 142.207 205.13 141.88V141.5H206.38V141.87C206.38 142.277 206.447 142.593 206.58 142.82C206.72 143.04 206.98 143.15 207.36 143.15C207.56 143.15 207.723 143.12 207.85 143.06C207.983 143 208.087 142.913 208.16 142.8C208.24 142.68 208.293 142.533 208.32 142.36C208.347 142.187 208.36 141.99 208.36 141.77V136.86H209.61V141.7ZM215.511 144H214.391V143.28H214.371C214.231 143.54 214.021 143.75 213.741 143.91C213.468 144.063 213.188 144.14 212.901 144.14C212.221 144.14 211.728 143.973 211.421 143.64C211.121 143.3 210.971 142.79 210.971 142.11V138.83H212.111V142C212.111 142.453 212.198 142.773 212.371 142.96C212.544 143.147 212.788 143.24 213.101 143.24C213.341 143.24 213.541 143.203 213.701 143.13C213.861 143.057 213.991 142.96 214.091 142.84C214.191 142.713 214.261 142.563 214.301 142.39C214.348 142.217 214.371 142.03 214.371 141.83V138.83H215.511V144ZM216.743 136.86H217.883V144H216.743V136.86Z" fill="white"/>
<path d="M11.897 10.718H18.839V12.434H13.938V14.423H18.436V16.009H13.938V18.284H18.943V20H11.897V10.718ZM21.8477 16.464L19.6377 13.279H21.7437L22.9267 15.034L24.0967 13.279H26.1377L23.9277 16.425L26.4107 20H24.3047L22.9007 17.881L21.4967 20H19.4297L21.8477 16.464ZM30.5071 18.791C30.8104 18.791 31.0618 18.7303 31.2611 18.609C31.4691 18.4877 31.6338 18.3317 31.7551 18.141C31.8851 17.9417 31.9761 17.712 32.0281 17.452C32.0801 17.192 32.1061 16.9277 32.1061 16.659C32.1061 16.3903 32.0758 16.126 32.0151 15.866C31.9631 15.606 31.8721 15.3763 31.7421 15.177C31.6121 14.969 31.4431 14.8043 31.2351 14.683C31.0358 14.553 30.7888 14.488 30.4941 14.488C30.1908 14.488 29.9351 14.553 29.7271 14.683C29.5278 14.8043 29.3631 14.9647 29.2331 15.164C29.1118 15.3633 29.0251 15.593 28.9731 15.853C28.9211 16.113 28.8951 16.3817 28.8951 16.659C28.8951 16.9277 28.9211 17.192 28.9731 17.452C29.0338 17.712 29.1248 17.9417 29.2461 18.141C29.3761 18.3317 29.5451 18.4877 29.7531 18.609C29.9611 18.7303 30.2124 18.791 30.5071 18.791ZM27.1141 13.279H28.8691V14.137H28.8951C29.1204 13.773 29.4064 13.5087 29.7531 13.344C30.0998 13.1793 30.4811 13.097 30.8971 13.097C31.4258 13.097 31.8808 13.1967 32.2621 13.396C32.6434 13.5953 32.9598 13.8597 33.2111 14.189C33.4624 14.5183 33.6488 14.904 33.7701 15.346C33.8914 15.7793 33.9521 16.2343 33.9521 16.711C33.9521 17.1617 33.8914 17.595 33.7701 18.011C33.6488 18.427 33.4624 18.7953 33.2111 19.116C32.9684 19.4367 32.6608 19.6923 32.2881 19.883C31.9241 20.0737 31.4951 20.169 31.0011 20.169C30.5851 20.169 30.1994 20.0867 29.8441 19.922C29.4974 19.7487 29.2114 19.4973 28.9861 19.168H28.9601V22.353H27.1141V13.279ZM39.5854 15.918C39.4987 15.45 39.3427 15.0947 39.1174 14.852C38.9007 14.6093 38.567 14.488 38.1164 14.488C37.8217 14.488 37.5747 14.54 37.3754 14.644C37.1847 14.7393 37.0287 14.8607 36.9074 15.008C36.7947 15.1553 36.7124 15.3113 36.6604 15.476C36.617 15.6407 36.591 15.788 36.5824 15.918H39.5854ZM36.5824 17.088C36.6084 17.686 36.76 18.1193 37.0374 18.388C37.3147 18.6567 37.7134 18.791 38.2334 18.791C38.606 18.791 38.9267 18.7 39.1954 18.518C39.464 18.3273 39.6287 18.128 39.6894 17.92H41.3144C41.0544 18.726 40.6557 19.3023 40.1184 19.649C39.581 19.9957 38.931 20.169 38.1684 20.169C37.6397 20.169 37.163 20.0867 36.7384 19.922C36.3137 19.7487 35.954 19.506 35.6594 19.194C35.3647 18.882 35.135 18.5093 34.9704 18.076C34.8144 17.6427 34.7364 17.166 34.7364 16.646C34.7364 16.1433 34.8187 15.6753 34.9834 15.242C35.148 14.8087 35.382 14.436 35.6854 14.124C35.9887 13.8033 36.3484 13.552 36.7644 13.37C37.189 13.188 37.657 13.097 38.1684 13.097C38.7404 13.097 39.2387 13.2097 39.6634 13.435C40.088 13.6517 40.4347 13.9463 40.7034 14.319C40.9807 14.6917 41.18 15.1163 41.3014 15.593C41.4227 16.0697 41.466 16.568 41.4314 17.088H36.5824ZM42.5262 13.279H44.2812V14.215H44.3202C44.5542 13.825 44.8576 13.5433 45.2302 13.37C45.6029 13.188 45.9842 13.097 46.3742 13.097C46.8682 13.097 47.2712 13.1663 47.5832 13.305C47.9039 13.435 48.1552 13.6213 48.3372 13.864C48.5192 14.098 48.6449 14.3883 48.7142 14.735C48.7922 15.073 48.8312 15.45 48.8312 15.866V20H46.9852V16.204C46.9852 15.6493 46.8986 15.2377 46.7252 14.969C46.5519 14.6917 46.2442 14.553 45.8022 14.553C45.2996 14.553 44.9356 14.7047 44.7102 15.008C44.4849 15.3027 44.3722 15.7923 44.3722 16.477V20H42.5262V13.279ZM51.6623 17.816C51.6623 18.0153 51.7013 18.1887 51.7793 18.336C51.8659 18.4747 51.9743 18.5917 52.1043 18.687C52.2343 18.7737 52.3816 18.8387 52.5463 18.882C52.7196 18.9253 52.8973 18.947 53.0793 18.947C53.2093 18.947 53.3436 18.934 53.4823 18.908C53.6296 18.8733 53.7596 18.8257 53.8723 18.765C53.9936 18.6957 54.0933 18.609 54.1713 18.505C54.2493 18.3923 54.2883 18.2537 54.2883 18.089C54.2883 17.8117 54.1019 17.6037 53.7293 17.465C53.3653 17.3263 52.8539 17.1877 52.1953 17.049C51.9266 16.9883 51.6623 16.919 51.4023 16.841C51.1509 16.7543 50.9256 16.646 50.7263 16.516C50.5269 16.3773 50.3666 16.2083 50.2453 16.009C50.1239 15.801 50.0633 15.5497 50.0633 15.255C50.0633 14.8217 50.1456 14.4663 50.3103 14.189C50.4836 13.9117 50.7089 13.695 50.9863 13.539C51.2636 13.3743 51.5756 13.2617 51.9223 13.201C52.2689 13.1317 52.6243 13.097 52.9883 13.097C53.3523 13.097 53.7033 13.1317 54.0413 13.201C54.3879 13.2703 54.6956 13.3873 54.9643 13.552C55.2329 13.7167 55.4539 13.9377 55.6273 14.215C55.8093 14.4837 55.9176 14.826 55.9523 15.242H54.1973C54.1713 14.8867 54.0369 14.6483 53.7943 14.527C53.5516 14.397 53.2656 14.332 52.9363 14.332C52.8323 14.332 52.7196 14.3407 52.5983 14.358C52.4769 14.3667 52.3643 14.3927 52.2603 14.436C52.1649 14.4793 52.0826 14.5443 52.0133 14.631C51.9439 14.709 51.9093 14.8173 51.9093 14.956C51.9093 15.1207 51.9699 15.255 52.0913 15.359C52.2126 15.463 52.3686 15.5497 52.5593 15.619C52.7586 15.6797 52.9839 15.736 53.2353 15.788C53.4866 15.84 53.7423 15.8963 54.0023 15.957C54.2709 16.0177 54.5309 16.0913 54.7823 16.178C55.0423 16.2647 55.2719 16.3817 55.4713 16.529C55.6706 16.6677 55.8309 16.8453 55.9523 17.062C56.0736 17.27 56.1343 17.53 56.1343 17.842C56.1343 18.284 56.0433 18.6567 55.8613 18.96C55.6879 19.2547 55.4583 19.493 55.1723 19.675C54.8863 19.857 54.5569 19.9827 54.1843 20.052C53.8203 20.13 53.4476 20.169 53.0663 20.169C52.6763 20.169 52.2949 20.13 51.9223 20.052C51.5496 19.974 51.2159 19.844 50.9213 19.662C50.6353 19.48 50.3969 19.2417 50.2063 18.947C50.0243 18.6437 49.9246 18.2667 49.9073 17.816H51.6623ZM61.7387 15.918C61.652 15.45 61.496 15.0947 61.2707 14.852C61.054 14.6093 60.7204 14.488 60.2697 14.488C59.975 14.488 59.728 14.54 59.5287 14.644C59.338 14.7393 59.182 14.8607 59.0607 15.008C58.948 15.1553 58.8657 15.3113 58.8137 15.476C58.7704 15.6407 58.7444 15.788 58.7357 15.918H61.7387ZM58.7357 17.088C58.7617 17.686 58.9134 18.1193 59.1907 18.388C59.468 18.6567 59.8667 18.791 60.3867 18.791C60.7594 18.791 61.08 18.7 61.3487 18.518C61.6174 18.3273 61.782 18.128 61.8427 17.92H63.4677C63.2077 18.726 62.809 19.3023 62.2717 19.649C61.7344 19.9957 61.0844 20.169 60.3217 20.169C59.793 20.169 59.3164 20.0867 58.8917 19.922C58.467 19.7487 58.1074 19.506 57.8127 19.194C57.518 18.882 57.2884 18.5093 57.1237 18.076C56.9677 17.6427 56.8897 17.166 56.8897 16.646C56.8897 16.1433 56.972 15.6753 57.1367 15.242C57.3014 14.8087 57.5354 14.436 57.8387 14.124C58.142 13.8033 58.5017 13.552 58.9177 13.37C59.3424 13.188 59.8104 13.097 60.3217 13.097C60.8937 13.097 61.392 13.2097 61.8167 13.435C62.2414 13.6517 62.588 13.9463 62.8567 14.319C63.134 14.6917 63.3334 15.1163 63.4547 15.593C63.576 16.0697 63.6194 16.568 63.5847 17.088H58.7357ZM14.237 32.412H16.642L15.472 29.006H15.446L14.237 32.412ZM14.432 26.718H16.525L19.996 36H17.877L17.175 33.933H13.704L12.976 36H10.922L14.432 26.718ZM20.6014 29.279H22.3564V30.215H22.3954C22.6294 29.825 22.9327 29.5433 23.3054 29.37C23.6781 29.188 24.0594 29.097 24.4494 29.097C24.9434 29.097 25.3464 29.1663 25.6584 29.305C25.9791 29.435 26.2304 29.6213 26.4124 29.864C26.5944 30.098 26.7201 30.3883 26.7894 30.735C26.8674 31.073 26.9064 31.45 26.9064 31.866V36H25.0604V32.204C25.0604 31.6493 24.9737 31.2377 24.8004 30.969C24.6271 30.6917 24.3194 30.553 23.8774 30.553C23.3747 30.553 23.0107 30.7047 22.7854 31.008C22.5601 31.3027 22.4474 31.7923 22.4474 32.477V36H20.6014V29.279ZM28.2295 31.346C28.2555 30.9127 28.3638 30.553 28.5545 30.267C28.7451 29.981 28.9878 29.7513 29.2825 29.578C29.5771 29.4047 29.9065 29.2833 30.2705 29.214C30.6431 29.136 31.0158 29.097 31.3885 29.097C31.7265 29.097 32.0688 29.123 32.4155 29.175C32.7621 29.2183 33.0785 29.3093 33.3645 29.448C33.6505 29.5867 33.8845 29.7817 34.0665 30.033C34.2485 30.2757 34.3395 30.6007 34.3395 31.008V34.505C34.3395 34.8083 34.3568 35.0987 34.3915 35.376C34.4261 35.6533 34.4868 35.8613 34.5735 36H32.7015C32.6668 35.896 32.6365 35.792 32.6105 35.688C32.5931 35.5753 32.5801 35.4627 32.5715 35.35C32.2768 35.6533 31.9301 35.8657 31.5315 35.987C31.1328 36.1083 30.7255 36.169 30.3095 36.169C29.9888 36.169 29.6898 36.13 29.4125 36.052C29.1351 35.974 28.8925 35.8527 28.6845 35.688C28.4765 35.5233 28.3118 35.3153 28.1905 35.064C28.0778 34.8127 28.0215 34.5137 28.0215 34.167C28.0215 33.7857 28.0865 33.4737 28.2165 33.231C28.3551 32.9797 28.5285 32.7803 28.7365 32.633C28.9531 32.4857 29.1958 32.3773 29.4645 32.308C29.7418 32.23 30.0191 32.1693 30.2965 32.126C30.5738 32.0827 30.8468 32.048 31.1155 32.022C31.3841 31.996 31.6225 31.957 31.8305 31.905C32.0385 31.853 32.2031 31.7793 32.3245 31.684C32.4458 31.58 32.5021 31.4327 32.4935 31.242C32.4935 31.0427 32.4588 30.8867 32.3895 30.774C32.3288 30.6527 32.2421 30.5617 32.1295 30.501C32.0255 30.4317 31.8998 30.3883 31.7525 30.371C31.6138 30.345 31.4621 30.332 31.2975 30.332C30.9335 30.332 30.6475 30.41 30.4395 30.566C30.2315 30.722 30.1101 30.982 30.0755 31.346H28.2295ZM32.4935 32.711C32.4155 32.7803 32.3158 32.8367 32.1945 32.88C32.0818 32.9147 31.9561 32.945 31.8175 32.971C31.6875 32.997 31.5488 33.0187 31.4015 33.036C31.2541 33.0533 31.1068 33.075 30.9595 33.101C30.8208 33.127 30.6821 33.1617 30.5435 33.205C30.4135 33.2483 30.2965 33.309 30.1925 33.387C30.0971 33.4563 30.0191 33.5473 29.9585 33.66C29.8978 33.7727 29.8675 33.9157 29.8675 34.089C29.8675 34.2537 29.8978 34.3923 29.9585 34.505C30.0191 34.6177 30.1015 34.7087 30.2055 34.778C30.3095 34.8387 30.4308 34.882 30.5695 34.908C30.7081 34.934 30.8511 34.947 30.9985 34.947C31.3625 34.947 31.6441 34.8863 31.8435 34.765C32.0428 34.6437 32.1901 34.5007 32.2855 34.336C32.3808 34.1627 32.4371 33.9893 32.4545 33.816C32.4805 33.6427 32.4935 33.504 32.4935 33.4V32.711ZM35.8243 26.718H37.6703V36H35.8243V26.718ZM42.4389 36.832C42.2395 37.378 41.9622 37.768 41.6069 38.002C41.2515 38.236 40.7575 38.353 40.1249 38.353C39.9342 38.353 39.7435 38.3443 39.5529 38.327C39.3709 38.3183 39.1845 38.3053 38.9939 38.288V36.767C39.1672 36.7843 39.3449 36.8017 39.5269 36.819C39.7089 36.8363 39.8909 36.8407 40.0729 36.832C40.3155 36.806 40.4932 36.7107 40.6059 36.546C40.7272 36.3813 40.7879 36.1993 40.7879 36C40.7879 35.8527 40.7619 35.714 40.7099 35.584L38.3569 29.279H40.3199L41.8409 33.881H41.8669L43.3359 29.279H45.2469L42.4389 36.832ZM47.2951 33.816C47.2951 34.0153 47.3341 34.1887 47.4121 34.336C47.4988 34.4747 47.6071 34.5917 47.7371 34.687C47.8671 34.7737 48.0144 34.8387 48.1791 34.882C48.3524 34.9253 48.5301 34.947 48.7121 34.947C48.8421 34.947 48.9764 34.934 49.1151 34.908C49.2624 34.8733 49.3924 34.8257 49.5051 34.765C49.6264 34.6957 49.7261 34.609 49.8041 34.505C49.8821 34.3923 49.9211 34.2537 49.9211 34.089C49.9211 33.8117 49.7348 33.6037 49.3621 33.465C48.9981 33.3263 48.4868 33.1877 47.8281 33.049C47.5594 32.9883 47.2951 32.919 47.0351 32.841C46.7838 32.7543 46.5584 32.646 46.3591 32.516C46.1598 32.3773 45.9994 32.2083 45.8781 32.009C45.7568 31.801 45.6961 31.5497 45.6961 31.255C45.6961 30.8217 45.7784 30.4663 45.9431 30.189C46.1164 29.9117 46.3418 29.695 46.6191 29.539C46.8964 29.3743 47.2084 29.2617 47.5551 29.201C47.9018 29.1317 48.2571 29.097 48.6211 29.097C48.9851 29.097 49.3361 29.1317 49.6741 29.201C50.0208 29.2703 50.3284 29.3873 50.5971 29.552C50.8658 29.7167 51.0868 29.9377 51.2601 30.215C51.4421 30.4837 51.5504 30.826 51.5851 31.242H49.8301C49.8041 30.8867 49.6698 30.6483 49.4271 30.527C49.1844 30.397 48.8984 30.332 48.5691 30.332C48.4651 30.332 48.3524 30.3407 48.2311 30.358C48.1098 30.3667 47.9971 30.3927 47.8931 30.436C47.7978 30.4793 47.7154 30.5443 47.6461 30.631C47.5768 30.709 47.5421 30.8173 47.5421 30.956C47.5421 31.1207 47.6028 31.255 47.7241 31.359C47.8454 31.463 48.0014 31.5497 48.1921 31.619C48.3914 31.6797 48.6168 31.736 48.8681 31.788C49.1194 31.84 49.3751 31.8963 49.6351 31.957C49.9038 32.0177 50.1638 32.0913 50.4151 32.178C50.6751 32.2647 50.9048 32.3817 51.1041 32.529C51.3034 32.6677 51.4638 32.8453 51.5851 33.062C51.7064 33.27 51.7671 33.53 51.7671 33.842C51.7671 34.284 51.6761 34.6567 51.4941 34.96C51.3208 35.2547 51.0911 35.493 50.8051 35.675C50.5191 35.857 50.1898 35.9827 49.8171 36.052C49.4531 36.13 49.0804 36.169 48.6991 36.169C48.3091 36.169 47.9278 36.13 47.5551 36.052C47.1824 35.974 46.8488 35.844 46.5541 35.662C46.2681 35.48 46.0298 35.2417 45.8391 34.947C45.6571 34.6437 45.5574 34.2667 45.5401 33.816H47.2951ZM54.7455 28.239H52.8995V26.718H54.7455V28.239ZM52.8995 29.279H54.7455V36H52.8995V29.279ZM57.6291 33.816C57.6291 34.0153 57.6681 34.1887 57.7461 34.336C57.8327 34.4747 57.9411 34.5917 58.0711 34.687C58.2011 34.7737 58.3484 34.8387 58.5131 34.882C58.6864 34.9253 58.8641 34.947 59.0461 34.947C59.1761 34.947 59.3104 34.934 59.4491 34.908C59.5964 34.8733 59.7264 34.8257 59.8391 34.765C59.9604 34.6957 60.0601 34.609 60.1381 34.505C60.2161 34.3923 60.2551 34.2537 60.2551 34.089C60.2551 33.8117 60.0687 33.6037 59.6961 33.465C59.3321 33.3263 58.8207 33.1877 58.1621 33.049C57.8934 32.9883 57.6291 32.919 57.3691 32.841C57.1177 32.7543 56.8924 32.646 56.6931 32.516C56.4937 32.3773 56.3334 32.2083 56.2121 32.009C56.0907 31.801 56.0301 31.5497 56.0301 31.255C56.0301 30.8217 56.1124 30.4663 56.2771 30.189C56.4504 29.9117 56.6757 29.695 56.9531 29.539C57.2304 29.3743 57.5424 29.2617 57.8891 29.201C58.2357 29.1317 58.5911 29.097 58.9551 29.097C59.3191 29.097 59.6701 29.1317 60.0081 29.201C60.3547 29.2703 60.6624 29.3873 60.9311 29.552C61.1997 29.7167 61.4207 29.9377 61.5941 30.215C61.7761 30.4837 61.8844 30.826 61.9191 31.242H60.1641C60.1381 30.8867 60.0037 30.6483 59.7611 30.527C59.5184 30.397 59.2324 30.332 58.9031 30.332C58.7991 30.332 58.6864 30.3407 58.5651 30.358C58.4437 30.3667 58.3311 30.3927 58.2271 30.436C58.1317 30.4793 58.0494 30.5443 57.9801 30.631C57.9107 30.709 57.8761 30.8173 57.8761 30.956C57.8761 31.1207 57.9367 31.255 58.0581 31.359C58.1794 31.463 58.3354 31.5497 58.5261 31.619C58.7254 31.6797 58.9507 31.736 59.2021 31.788C59.4534 31.84 59.7091 31.8963 59.9691 31.957C60.2377 32.0177 60.4977 32.0913 60.7491 32.178C61.0091 32.2647 61.2387 32.3817 61.4381 32.529C61.6374 32.6677 61.7977 32.8453 61.9191 33.062C62.0404 33.27 62.1011 33.53 62.1011 33.842C62.1011 34.284 62.0101 34.6567 61.8281 34.96C61.6547 35.2547 61.4251 35.493 61.1391 35.675C60.8531 35.857 60.5237 35.9827 60.1511 36.052C59.7871 36.13 59.4144 36.169 59.0331 36.169C58.6431 36.169 58.2617 36.13 57.8891 36.052C57.5164 35.974 57.1827 35.844 56.8881 35.662C56.6021 35.48 56.3637 35.2417 56.1731 34.947C55.9911 34.6437 55.8914 34.2667 55.8741 33.816H57.6291Z" fill="white"/>
<path d="M19.108 47.288H20.108V53H19.108V47.288ZM21.2066 48.864H22.0706V49.472L22.0866 49.488C22.2252 49.2587 22.4066 49.08 22.6306 48.952C22.8546 48.8187 23.1026 48.752 23.3746 48.752C23.8279 48.752 24.1852 48.8693 24.4466 49.104C24.7079 49.3387 24.8386 49.6907 24.8386 50.16V53H23.9266V50.4C23.9159 50.0747 23.8466 49.84 23.7186 49.696C23.5906 49.5467 23.3906 49.472 23.1186 49.472C22.9639 49.472 22.8252 49.5013 22.7026 49.56C22.5799 49.6133 22.4759 49.6907 22.3906 49.792C22.3052 49.888 22.2386 50.0027 22.1906 50.136C22.1426 50.2693 22.1186 50.4107 22.1186 50.56V53H21.2066V48.864ZM28.5923 50.248C28.555 49.992 28.451 49.8 28.2803 49.672C28.115 49.5387 27.9043 49.472 27.6483 49.472C27.531 49.472 27.4056 49.4933 27.2723 49.536C27.139 49.5733 27.0163 49.648 26.9043 49.76C26.7923 49.8667 26.699 50.0187 26.6243 50.216C26.5496 50.408 26.5123 50.6613 26.5123 50.976C26.5123 51.1467 26.531 51.3173 26.5683 51.488C26.611 51.6587 26.675 51.8107 26.7603 51.944C26.851 52.0773 26.9656 52.1867 27.1043 52.272C27.243 52.352 27.411 52.392 27.6083 52.392C27.875 52.392 28.0936 52.3093 28.2643 52.144C28.4403 51.9787 28.5496 51.7467 28.5923 51.448H29.5043C29.419 51.9867 29.2136 52.4 28.8883 52.688C28.5683 52.9707 28.1416 53.112 27.6083 53.112C27.283 53.112 26.995 53.0587 26.7443 52.952C26.499 52.84 26.291 52.6907 26.1203 52.504C25.9496 52.312 25.819 52.0853 25.7283 51.824C25.643 51.5627 25.6003 51.28 25.6003 50.976C25.6003 50.6667 25.643 50.376 25.7283 50.104C25.8136 49.832 25.9416 49.5973 26.1123 49.4C26.283 49.1973 26.4936 49.04 26.7443 48.928C27.0003 48.8107 27.299 48.752 27.6403 48.752C27.8803 48.752 28.107 48.784 28.3203 48.848C28.539 48.9067 28.731 48.9973 28.8963 49.12C29.067 49.2427 29.2056 49.3973 29.3123 49.584C29.419 49.7707 29.483 49.992 29.5043 50.248H28.5923ZM32.1416 53.112C31.811 53.112 31.515 53.0587 31.2536 52.952C30.9976 52.84 30.779 52.688 30.5976 52.496C30.4216 52.304 30.2856 52.0747 30.1896 51.808C30.099 51.5413 30.0536 51.248 30.0536 50.928C30.0536 50.6133 30.099 50.3227 30.1896 50.056C30.2856 49.7893 30.4216 49.56 30.5976 49.368C30.779 49.176 30.9976 49.0267 31.2536 48.92C31.515 48.808 31.811 48.752 32.1416 48.752C32.4723 48.752 32.7656 48.808 33.0216 48.92C33.283 49.0267 33.5016 49.176 33.6776 49.368C33.859 49.56 33.995 49.7893 34.0856 50.056C34.1816 50.3227 34.2296 50.6133 34.2296 50.928C34.2296 51.248 34.1816 51.5413 34.0856 51.808C33.995 52.0747 33.859 52.304 33.6776 52.496C33.5016 52.688 33.283 52.84 33.0216 52.952C32.7656 53.0587 32.4723 53.112 32.1416 53.112ZM32.1416 52.392C32.3443 52.392 32.5203 52.3493 32.6696 52.264C32.819 52.1787 32.9416 52.0667 33.0376 51.928C33.1336 51.7893 33.203 51.6347 33.2456 51.464C33.2936 51.288 33.3176 51.1093 33.3176 50.928C33.3176 50.752 33.2936 50.576 33.2456 50.4C33.203 50.224 33.1336 50.0693 33.0376 49.936C32.9416 49.7973 32.819 49.6853 32.6696 49.6C32.5203 49.5147 32.3443 49.472 32.1416 49.472C31.939 49.472 31.763 49.5147 31.6136 49.6C31.4643 49.6853 31.3416 49.7973 31.2456 49.936C31.1496 50.0693 31.0776 50.224 31.0296 50.4C30.987 50.576 30.9656 50.752 30.9656 50.928C30.9656 51.1093 30.987 51.288 31.0296 51.464C31.0776 51.6347 31.1496 51.7893 31.2456 51.928C31.3416 52.0667 31.4643 52.1787 31.6136 52.264C31.763 52.3493 31.939 52.392 32.1416 52.392ZM34.9878 48.864H35.8518V49.44H35.8758C35.9451 49.3387 36.0198 49.2453 36.0998 49.16C36.1798 49.0747 36.2678 49.0027 36.3638 48.944C36.4651 48.8853 36.5798 48.84 36.7078 48.808C36.8358 48.7707 36.9825 48.752 37.1478 48.752C37.3985 48.752 37.6305 48.808 37.8438 48.92C38.0625 49.032 38.2171 49.2053 38.3078 49.44C38.4625 49.2267 38.6411 49.0587 38.8438 48.936C39.0465 48.8133 39.2998 48.752 39.6038 48.752C40.0411 48.752 40.3798 48.8587 40.6198 49.072C40.8651 49.2853 40.9878 49.6427 40.9878 50.144V53H40.0758V50.584C40.0758 50.4187 40.0705 50.2693 40.0598 50.136C40.0491 49.9973 40.0171 49.88 39.9638 49.784C39.9158 49.6827 39.8411 49.6053 39.7398 49.552C39.6385 49.4987 39.4998 49.472 39.3238 49.472C39.0145 49.472 38.7905 49.568 38.6518 49.76C38.5131 49.952 38.4438 50.224 38.4438 50.576V53H37.5318V50.344C37.5318 50.056 37.4785 49.84 37.3718 49.696C37.2705 49.5467 37.0811 49.472 36.8038 49.472C36.6865 49.472 36.5718 49.496 36.4598 49.544C36.3531 49.592 36.2571 49.6613 36.1718 49.752C36.0918 49.8427 36.0251 49.9547 35.9718 50.088C35.9238 50.2213 35.8998 50.3733 35.8998 50.544V53H34.9878V48.864ZM44.7888 50.568C44.7781 50.424 44.7461 50.2853 44.6928 50.152C44.6448 50.0187 44.5754 49.904 44.4848 49.808C44.3994 49.7067 44.2928 49.6267 44.1648 49.568C44.0421 49.504 43.9034 49.472 43.7488 49.472C43.5888 49.472 43.4421 49.5013 43.3088 49.56C43.1808 49.6133 43.0688 49.6907 42.9728 49.792C42.8821 49.888 42.8074 50.0027 42.7488 50.136C42.6954 50.2693 42.6661 50.4133 42.6608 50.568H44.7888ZM42.6608 51.168C42.6608 51.328 42.6821 51.4827 42.7248 51.632C42.7728 51.7813 42.8421 51.912 42.9328 52.024C43.0234 52.136 43.1381 52.2267 43.2768 52.296C43.4154 52.36 43.5808 52.392 43.7728 52.392C44.0394 52.392 44.2528 52.336 44.4128 52.224C44.5781 52.1067 44.7008 51.9333 44.7808 51.704H45.6448C45.5968 51.928 45.5141 52.128 45.3968 52.304C45.2794 52.48 45.1381 52.6293 44.9728 52.752C44.8074 52.8693 44.6208 52.9573 44.4128 53.016C44.2101 53.08 43.9968 53.112 43.7728 53.112C43.4474 53.112 43.1594 53.0587 42.9088 52.952C42.6581 52.8453 42.4448 52.696 42.2688 52.504C42.0981 52.312 41.9674 52.0827 41.8768 51.816C41.7914 51.5493 41.7488 51.256 41.7488 50.936C41.7488 50.6427 41.7941 50.3653 41.8848 50.104C41.9808 49.8373 42.1141 49.6053 42.2848 49.408C42.4608 49.2053 42.6714 49.0453 42.9168 48.928C43.1621 48.8107 43.4394 48.752 43.7488 48.752C44.0741 48.752 44.3648 48.8213 44.6208 48.96C44.8821 49.0933 45.0981 49.272 45.2688 49.496C45.4394 49.72 45.5621 49.9787 45.6368 50.272C45.7168 50.56 45.7381 50.8587 45.7008 51.168H42.6608Z" fill="url(#paint1_linear_458_4586)"/>
<path d="M19.9474 60.1338H20.5249V58.4013H21.1024L22.0899 60.1338H23.4124V58.4013H23.9898V60.1338H24.5673V60.7113H23.9898V61.2888H24.5673V61.8663H23.9898V63.5988H23.4124L22.422 61.8663H21.1024V63.5988H20.5249V61.8663H19.9474V61.2888H20.5249V60.7113H19.9474V60.1338ZM21.1024 60.1338H21.4287L21.1024 59.565V60.1338ZM21.1024 60.7113V61.2888H22.0899L21.7607 60.7113H21.1024ZM23.4124 62.4438V61.8663H23.0803L23.4124 62.4438ZM22.4191 60.7113L22.7511 61.2888H23.4124V60.7113H22.4191Z" fill="url(#paint2_linear_458_4586)"/>
<path d="M27.5486 59.242C27.703 59.242 27.8532 59.2291 27.999 59.2034C28.1449 59.1776 28.2757 59.1347 28.3915 59.0747C28.5117 59.0146 28.6125 58.9374 28.694 58.843C28.7798 58.7487 28.8356 58.6328 28.8613 58.4955H29.4597V63H28.6554V59.8211H27.5486V59.242ZM33.325 59.6345C33.3078 59.4501 33.2413 59.3021 33.1255 59.1905C33.014 59.0747 32.8617 59.0168 32.6686 59.0168C32.5356 59.0168 32.4198 59.0425 32.3211 59.094C32.2268 59.1412 32.1452 59.2055 32.0766 59.287C32.0123 59.3685 31.9586 59.4629 31.9157 59.5702C31.8771 59.6731 31.8449 59.7825 31.8192 59.8984C31.7935 60.0142 31.7742 60.13 31.7613 60.2458C31.7527 60.3574 31.7441 60.4625 31.7356 60.5612L31.7484 60.574C31.8471 60.3938 31.9822 60.2609 32.1538 60.1751C32.3297 60.085 32.5185 60.0399 32.7201 60.0399C32.9432 60.0399 33.1427 60.0785 33.3185 60.1558C33.4944 60.233 33.6424 60.3402 33.7626 60.4775C33.887 60.6105 33.9813 60.7692 34.0457 60.9537C34.11 61.1382 34.1422 61.3376 34.1422 61.5521C34.1422 61.7709 34.1058 61.9747 34.0328 62.1635C33.9642 62.3479 33.8634 62.5109 33.7304 62.6525C33.5974 62.7898 33.4387 62.897 33.2542 62.9743C33.0697 63.0515 32.866 63.0901 32.6429 63.0901C32.3126 63.0901 32.0401 63.03 31.8256 62.9099C31.6154 62.7855 31.4481 62.6182 31.3237 62.408C31.2036 62.1935 31.1199 61.9447 31.0728 61.6615C31.0256 61.3741 31.002 61.0652 31.002 60.7349C31.002 60.4646 31.0299 60.1922 31.0856 59.9177C31.1457 59.6431 31.2422 59.3943 31.3752 59.1712C31.5082 58.9438 31.6819 58.7594 31.8964 58.6178C32.1152 58.4762 32.3833 58.4055 32.7008 58.4055C32.881 58.4055 33.0504 58.4355 33.2092 58.4955C33.3679 58.5556 33.5073 58.6393 33.6274 58.7465C33.7518 58.8538 33.8526 58.9825 33.9299 59.1326C34.0071 59.2828 34.05 59.4501 34.0586 59.6345H33.325ZM32.6171 62.4788C32.7501 62.4788 32.866 62.453 32.9646 62.4016C33.0633 62.3458 33.1448 62.275 33.2092 62.1892C33.2778 62.1034 33.3271 62.0047 33.3572 61.8932C33.3915 61.7774 33.4086 61.6594 33.4086 61.5393C33.4086 61.4191 33.3915 61.3033 33.3572 61.1918C33.3271 61.0802 33.2778 60.9837 33.2092 60.9022C33.1448 60.8164 33.0633 60.7478 32.9646 60.6963C32.866 60.6448 32.7501 60.6191 32.6171 60.6191C32.4842 60.6191 32.3662 60.6448 32.2632 60.6963C32.1646 60.7435 32.0809 60.81 32.0123 60.8958C31.9436 60.9773 31.8921 61.0738 31.8578 61.1853C31.8235 61.2969 31.8063 61.4149 31.8063 61.5393C31.8063 61.6637 31.8235 61.7817 31.8578 61.8932C31.8921 62.0047 31.9436 62.1055 32.0123 62.1956C32.0809 62.2814 32.1646 62.3501 32.2632 62.4016C32.3662 62.453 32.4842 62.4788 32.6171 62.4788ZM34.8029 62.1313H35.6973V63H34.8029V62.1313ZM36.8705 61.3527H38.2347V59.3707H38.2219L36.8705 61.3527ZM39.5089 61.9318H38.9297V63H38.2347V61.9318H36.3043V61.2047L38.2347 58.4955H38.9297V61.3527H39.5089V61.9318ZM40.2017 58.4055H41.3342L42.6019 62.0026H42.6148L43.8503 58.4055H44.97V63H44.2042V59.4543H44.1913L42.9172 63H42.2544L40.9803 59.4543H40.9674V63H40.2017V58.4055Z" fill="url(#paint3_linear_458_4586)"/>
<path d="M192.108 47.288H196.22V48.152H193.108V49.648H195.988V50.464H193.108V52.136H196.276V53H192.108V47.288ZM198.131 50.824L196.699 48.864H197.803L198.667 50.136L199.571 48.864H200.627L199.219 50.776L200.803 53H199.707L198.659 51.472L197.643 53H196.571L198.131 50.824ZM201.34 48.864H202.204V49.424H202.22C202.348 49.184 202.527 49.0133 202.756 48.912C202.985 48.8053 203.233 48.752 203.5 48.752C203.825 48.752 204.108 48.8107 204.348 48.928C204.593 49.04 204.796 49.1973 204.956 49.4C205.116 49.5973 205.236 49.8293 205.316 50.096C205.396 50.3627 205.436 50.648 205.436 50.952C205.436 51.2293 205.399 51.4987 205.324 51.76C205.255 52.0213 205.145 52.2533 204.996 52.456C204.852 52.6533 204.668 52.8133 204.444 52.936C204.22 53.0533 203.956 53.112 203.652 53.112C203.519 53.112 203.385 53.0987 203.252 53.072C203.119 53.0507 202.991 53.0133 202.868 52.96C202.745 52.9067 202.631 52.84 202.524 52.76C202.423 52.6747 202.337 52.576 202.268 52.464H202.252V54.528H201.34V48.864ZM204.524 50.936C204.524 50.7493 204.5 50.568 204.452 50.392C204.404 50.216 204.332 50.0613 204.236 49.928C204.14 49.7893 204.02 49.68 203.876 49.6C203.732 49.5147 203.567 49.472 203.38 49.472C202.996 49.472 202.705 49.6053 202.508 49.872C202.316 50.1387 202.22 50.4933 202.22 50.936C202.22 51.144 202.244 51.3387 202.292 51.52C202.345 51.696 202.423 51.848 202.524 51.976C202.625 52.104 202.745 52.2053 202.884 52.28C203.028 52.3547 203.193 52.392 203.38 52.392C203.588 52.392 203.764 52.3493 203.908 52.264C204.052 52.1787 204.169 52.0693 204.26 51.936C204.356 51.7973 204.423 51.6427 204.46 51.472C204.503 51.296 204.524 51.1173 204.524 50.936ZM209.047 50.568C209.036 50.424 209.004 50.2853 208.951 50.152C208.903 50.0187 208.833 49.904 208.743 49.808C208.657 49.7067 208.551 49.6267 208.423 49.568C208.3 49.504 208.161 49.472 208.007 49.472C207.847 49.472 207.7 49.5013 207.567 49.56C207.439 49.6133 207.327 49.6907 207.231 49.792C207.14 49.888 207.065 50.0027 207.007 50.136C206.953 50.2693 206.924 50.4133 206.919 50.568H209.047ZM206.919 51.168C206.919 51.328 206.94 51.4827 206.983 51.632C207.031 51.7813 207.1 51.912 207.191 52.024C207.281 52.136 207.396 52.2267 207.535 52.296C207.673 52.36 207.839 52.392 208.031 52.392C208.297 52.392 208.511 52.336 208.671 52.224C208.836 52.1067 208.959 51.9333 209.039 51.704H209.903C209.855 51.928 209.772 52.128 209.655 52.304C209.537 52.48 209.396 52.6293 209.231 52.752C209.065 52.8693 208.879 52.9573 208.671 53.016C208.468 53.08 208.255 53.112 208.031 53.112C207.705 53.112 207.417 53.0587 207.167 52.952C206.916 52.8453 206.703 52.696 206.527 52.504C206.356 52.312 206.225 52.0827 206.135 51.816C206.049 51.5493 206.007 51.256 206.007 50.936C206.007 50.6427 206.052 50.3653 206.143 50.104C206.239 49.8373 206.372 49.6053 206.543 49.408C206.719 49.2053 206.929 49.0453 207.175 48.928C207.42 48.8107 207.697 48.752 208.007 48.752C208.332 48.752 208.623 48.8213 208.879 48.96C209.14 49.0933 209.356 49.272 209.527 49.496C209.697 49.72 209.82 49.9787 209.895 50.272C209.975 50.56 209.996 50.8587 209.959 51.168H206.919ZM210.652 48.864H211.516V49.472L211.532 49.488C211.671 49.2587 211.852 49.08 212.076 48.952C212.3 48.8187 212.548 48.752 212.82 48.752C213.273 48.752 213.631 48.8693 213.892 49.104C214.153 49.3387 214.284 49.6907 214.284 50.16V53H213.372V50.4C213.361 50.0747 213.292 49.84 213.164 49.696C213.036 49.5467 212.836 49.472 212.564 49.472C212.409 49.472 212.271 49.5013 212.148 49.56C212.025 49.6133 211.921 49.6907 211.836 49.792C211.751 49.888 211.684 50.0027 211.636 50.136C211.588 50.2693 211.564 50.4107 211.564 50.56V53H210.652V48.864ZM215.934 51.672C215.96 51.9387 216.062 52.1253 216.238 52.232C216.414 52.3387 216.624 52.392 216.87 52.392C216.955 52.392 217.051 52.3867 217.158 52.376C217.27 52.36 217.374 52.3333 217.47 52.296C217.566 52.2587 217.643 52.2053 217.702 52.136C217.766 52.0613 217.795 51.9653 217.79 51.848C217.784 51.7307 217.742 51.6347 217.662 51.56C217.582 51.4853 217.478 51.4267 217.35 51.384C217.227 51.336 217.086 51.296 216.926 51.264C216.766 51.232 216.603 51.1973 216.438 51.16C216.267 51.1227 216.102 51.0773 215.942 51.024C215.787 50.9707 215.646 50.8987 215.518 50.808C215.395 50.7173 215.296 50.6027 215.222 50.464C215.147 50.32 215.11 50.144 215.11 49.936C215.11 49.712 215.163 49.5253 215.27 49.376C215.382 49.2213 215.52 49.0987 215.686 49.008C215.856 48.912 216.043 48.8453 216.246 48.808C216.454 48.7707 216.651 48.752 216.838 48.752C217.051 48.752 217.254 48.776 217.446 48.824C217.643 48.8667 217.819 48.9387 217.974 49.04C218.134 49.1413 218.264 49.2747 218.366 49.44C218.472 49.6 218.539 49.7947 218.566 50.024H217.614C217.571 49.8053 217.47 49.6587 217.31 49.584C217.155 49.5093 216.976 49.472 216.774 49.472C216.71 49.472 216.632 49.4773 216.542 49.488C216.456 49.4987 216.374 49.52 216.294 49.552C216.219 49.5787 216.155 49.6213 216.102 49.68C216.048 49.7333 216.022 49.8053 216.022 49.896C216.022 50.008 216.059 50.0987 216.134 50.168C216.214 50.2373 216.315 50.296 216.438 50.344C216.566 50.3867 216.71 50.424 216.87 50.456C217.03 50.488 217.195 50.5227 217.366 50.56C217.531 50.5973 217.694 50.6427 217.854 50.696C218.014 50.7493 218.155 50.8213 218.278 50.912C218.406 51.0027 218.507 51.1173 218.582 51.256C218.662 51.3947 218.702 51.5653 218.702 51.768C218.702 52.0133 218.646 52.2213 218.534 52.392C218.422 52.5627 218.275 52.7013 218.094 52.808C217.918 52.9147 217.72 52.992 217.502 53.04C217.283 53.088 217.067 53.112 216.854 53.112C216.592 53.112 216.35 53.0827 216.126 53.024C215.907 52.9653 215.715 52.8773 215.55 52.76C215.39 52.6373 215.262 52.488 215.166 52.312C215.075 52.1307 215.027 51.9173 215.022 51.672H215.934ZM222.234 50.568C222.223 50.424 222.191 50.2853 222.138 50.152C222.09 50.0187 222.021 49.904 221.93 49.808C221.845 49.7067 221.738 49.6267 221.61 49.568C221.487 49.504 221.349 49.472 221.194 49.472C221.034 49.472 220.887 49.5013 220.754 49.56C220.626 49.6133 220.514 49.6907 220.418 49.792C220.327 49.888 220.253 50.0027 220.194 50.136C220.141 50.2693 220.111 50.4133 220.106 50.568H222.234ZM220.106 51.168C220.106 51.328 220.127 51.4827 220.17 51.632C220.218 51.7813 220.287 51.912 220.378 52.024C220.469 52.136 220.583 52.2267 220.722 52.296C220.861 52.36 221.026 52.392 221.218 52.392C221.485 52.392 221.698 52.336 221.858 52.224C222.023 52.1067 222.146 51.9333 222.226 51.704H223.09C223.042 51.928 222.959 52.128 222.842 52.304C222.725 52.48 222.583 52.6293 222.418 52.752C222.253 52.8693 222.066 52.9573 221.858 53.016C221.655 53.08 221.442 53.112 221.218 53.112C220.893 53.112 220.605 53.0587 220.354 52.952C220.103 52.8453 219.89 52.696 219.714 52.504C219.543 52.312 219.413 52.0827 219.322 51.816C219.237 51.5493 219.194 51.256 219.194 50.936C219.194 50.6427 219.239 50.3653 219.33 50.104C219.426 49.8373 219.559 49.6053 219.73 49.408C219.906 49.2053 220.117 49.0453 220.362 48.928C220.607 48.8107 220.885 48.752 221.194 48.752C221.519 48.752 221.81 48.8213 222.066 48.96C222.327 49.0933 222.543 49.272 222.714 49.496C222.885 49.72 223.007 49.9787 223.082 50.272C223.162 50.56 223.183 50.8587 223.146 51.168H220.106Z" fill="url(#paint4_linear_458_4586)"/>
<path d="M196.948 60.1338H197.525V58.4013H198.102L199.09 60.1338H200.412V58.4013H200.99V60.1338H201.567V60.7113H200.99V61.2888H201.567V61.8663H200.99V63.5988H200.412L199.422 61.8663H198.102V63.5988H197.525V61.8663H196.948V61.2888H197.525V60.7113H196.948V60.1338ZM198.102 60.1338H198.429L198.102 59.565V60.1338ZM198.102 60.7113V61.2888H199.09L198.761 60.7113H198.102ZM200.412 62.4438V61.8663H200.08L200.412 62.4438ZM199.419 60.7113L199.751 61.2888H200.412V60.7113H199.419Z" fill="url(#paint5_linear_458_4586)"/>
<path d="M207.534 63H204.458C204.463 62.6268 204.553 62.3007 204.729 62.0219C204.905 61.743 205.145 61.5007 205.449 61.2947C205.595 61.1875 205.748 61.0845 205.906 60.9859C206.065 60.8829 206.211 60.7735 206.344 60.6577C206.477 60.5419 206.586 60.4174 206.672 60.2845C206.758 60.1472 206.803 59.9906 206.807 59.8147C206.807 59.7332 206.797 59.6474 206.775 59.5573C206.758 59.4629 206.721 59.3771 206.666 59.2999C206.61 59.2184 206.533 59.1519 206.434 59.1004C206.335 59.0447 206.207 59.0168 206.048 59.0168C205.902 59.0168 205.78 59.0468 205.681 59.1069C205.587 59.1626 205.51 59.242 205.449 59.345C205.394 59.4436 205.351 59.5616 205.321 59.6989C205.295 59.8362 205.28 59.9842 205.276 60.1429H204.542C204.542 59.8941 204.574 59.6646 204.639 59.4543C204.707 59.2399 204.808 59.0554 204.941 58.9009C205.074 58.7465 205.235 58.6264 205.424 58.5406C205.617 58.4505 205.84 58.4055 206.093 58.4055C206.368 58.4055 206.597 58.4505 206.781 58.5406C206.966 58.6307 207.114 58.7444 207.226 58.8816C207.341 59.0189 207.423 59.1691 207.47 59.3321C207.517 59.4908 207.541 59.6431 207.541 59.789C207.541 59.9691 207.513 60.1322 207.457 60.278C207.401 60.4239 207.326 60.559 207.232 60.6834C207.138 60.8035 207.03 60.9151 206.91 61.018C206.79 61.121 206.666 61.2175 206.537 61.3076C206.408 61.3977 206.28 61.4835 206.151 61.565C206.022 61.6465 205.902 61.728 205.791 61.8095C205.683 61.891 205.589 61.9768 205.507 62.0669C205.426 62.1527 205.37 62.245 205.34 62.3436H207.534V63ZM208.227 62.1313H209.122V63H208.227V62.1313ZM210.366 58.4955H212.695V59.1519H210.913L210.681 60.2973L210.694 60.3102C210.793 60.1987 210.917 60.115 211.067 60.0592C211.222 59.9992 211.374 59.9691 211.524 59.9691C211.747 59.9691 211.947 60.0078 212.122 60.085C212.298 60.1579 212.446 60.263 212.566 60.4003C212.687 60.5333 212.777 60.692 212.837 60.8765C212.901 61.0609 212.933 61.2604 212.933 61.4749C212.933 61.6551 212.903 61.8417 212.843 62.0348C212.787 62.2235 212.695 62.3973 212.566 62.556C212.442 62.7104 212.281 62.8391 212.084 62.9421C211.886 63.0408 211.65 63.0901 211.376 63.0901C211.157 63.0901 210.953 63.0601 210.765 63C210.58 62.9442 210.417 62.8584 210.276 62.7426C210.134 62.6268 210.02 62.4852 209.935 62.3179C209.853 62.1463 209.808 61.9468 209.799 61.7194H210.533C210.554 61.964 210.638 62.1527 210.784 62.2857C210.93 62.4144 211.123 62.4788 211.363 62.4788C211.518 62.4788 211.648 62.453 211.756 62.4016C211.863 62.3501 211.949 62.2793 212.013 62.1892C212.082 62.0991 212.129 61.994 212.155 61.8739C212.185 61.7538 212.2 61.6251 212.2 61.4878C212.2 61.3634 212.182 61.2454 212.148 61.1339C212.114 61.018 212.062 60.9172 211.994 60.8314C211.925 60.7456 211.835 60.677 211.723 60.6255C211.616 60.574 211.49 60.5483 211.344 60.5483C211.189 60.5483 211.043 60.5783 210.906 60.6384C210.773 60.6941 210.677 60.8014 210.617 60.9601H209.883L210.366 58.4955ZM213.626 58.4055H214.759L216.026 62.0026H216.039L217.275 58.4055H218.394V63H217.629V59.4543H217.616L216.342 63H215.679L214.405 59.4543H214.392V63H213.626V58.4055Z" fill="url(#paint6_linear_458_4586)"/>
<path d="M30 126C38.8372 126 48.1345 119.84 55.514 117.22C62.9123 114.593 71.6274 116.949 79.4579 117.22C87.4958 117.497 94.0406 112.753 98.8878 108.988C100.3 107.891 107.912 109.537 110.565 109.537C118.181 109.537 126.746 110.885 132.449 107.341C139.107 103.204 145.243 95.1463 154.528 95.1463C158.543 95.1463 162.337 93.6027 166.893 94.2317C171.622 94.8847 175.08 96.3659 180.14 96.3659C188.603 96.3659 198.452 94.2285 203.103 89.1707C206.026 85.9923 213.531 82.6993 219 81" stroke="url(#paint7_linear_458_4586)" stroke-linecap="round"/>
<rect x="195.088" y="14.0884" width="28.1087" height="8.66242" rx="1.67945" stroke="white" stroke-width="0.176784"/>
<g clip-path="url(#clip0_458_4586)">
<path fill-rule="evenodd" clip-rule="evenodd" d="M200.294 19.2934C200.25 19.3376 200.19 19.3624 200.128 19.3624C200.065 19.3624 200.005 19.3376 199.961 19.2934L198.628 17.96C198.605 17.9383 198.587 17.9123 198.575 17.8835C198.562 17.8547 198.556 17.8238 198.556 17.7925C198.555 17.7612 198.561 17.7302 198.573 17.7012C198.585 17.6722 198.602 17.6459 198.625 17.6238C198.647 17.6017 198.673 17.5842 198.702 17.5723C198.731 17.5604 198.762 17.5545 198.793 17.5548C198.825 17.555 198.856 17.5615 198.884 17.5739C198.913 17.5862 198.939 17.6042 198.961 17.6267L200.128 18.7935L201.294 17.6267C201.339 17.5838 201.398 17.56 201.46 17.5606C201.522 17.5611 201.581 17.5859 201.625 17.6296C201.668 17.6733 201.693 17.7324 201.694 17.7942C201.694 17.856 201.671 17.9155 201.628 17.96L200.294 19.2934Z" fill="white"/>
</g>
<path d="M205.572 17.178H204.73V16.8951H206.749V17.178H205.908V19.4196H205.572V17.178ZM206.98 16.8951H207.28V17.8604H207.288C207.311 17.8038 207.344 17.7567 207.387 17.719C207.429 17.6789 207.476 17.6471 207.528 17.6235C207.582 17.5976 207.638 17.5787 207.694 17.5669C207.753 17.5551 207.81 17.5492 207.864 17.5492C207.984 17.5492 208.084 17.5657 208.164 17.5987C208.245 17.6317 208.309 17.6777 208.359 17.7366C208.408 17.7956 208.443 17.8663 208.461 17.9488C208.483 18.0289 208.493 18.1185 208.493 18.2175V19.4196H208.193V18.1821C208.193 18.069 208.16 17.9794 208.094 17.9134C208.028 17.8474 207.937 17.8144 207.821 17.8144C207.729 17.8144 207.649 17.8286 207.581 17.8568C207.515 17.8851 207.46 17.9252 207.415 17.9771C207.37 18.0289 207.336 18.0902 207.312 18.1609C207.291 18.2293 207.28 18.3047 207.28 18.3872V19.4196H206.98V16.8951ZM209.263 17.2629H208.962V16.8951H209.263V17.2629ZM208.962 17.5917H209.263V19.4196H208.962V17.5917ZM209.912 18.8433C209.915 18.9093 209.93 18.9659 209.958 19.013C209.986 19.0578 210.023 19.0943 210.068 19.1226C210.115 19.1485 210.167 19.1674 210.223 19.1792C210.282 19.191 210.342 19.1969 210.404 19.1969C210.451 19.1969 210.5 19.1933 210.552 19.1863C210.604 19.1792 210.651 19.1662 210.694 19.1474C210.738 19.1285 210.775 19.1014 210.803 19.066C210.831 19.0283 210.846 18.9812 210.846 18.9246C210.846 18.8468 210.816 18.7879 210.757 18.7478C210.698 18.7078 210.624 18.6759 210.535 18.6524C210.447 18.6264 210.352 18.6041 210.248 18.5852C210.144 18.564 210.048 18.5357 209.958 18.5003C209.871 18.4626 209.798 18.4108 209.739 18.3448C209.68 18.2788 209.651 18.1868 209.651 18.069C209.651 17.9771 209.671 17.8981 209.711 17.8321C209.753 17.7661 209.806 17.7131 209.87 17.673C209.936 17.6306 210.009 17.5999 210.089 17.5811C210.172 17.5598 210.253 17.5492 210.333 17.5492C210.437 17.5492 210.532 17.5587 210.619 17.5775C210.707 17.594 210.783 17.6247 210.849 17.6695C210.918 17.7119 210.972 17.7708 211.012 17.8462C211.052 17.9193 211.075 18.0112 211.083 18.122H210.782C210.777 18.0631 210.762 18.0148 210.736 17.9771C210.71 17.937 210.677 17.9052 210.637 17.8816C210.597 17.858 210.552 17.8415 210.503 17.8321C210.456 17.8203 210.407 17.8144 210.358 17.8144C210.313 17.8144 210.267 17.818 210.22 17.825C210.175 17.8321 210.134 17.8451 210.096 17.8639C210.058 17.8804 210.028 17.904 210.004 17.9346C209.981 17.9629 209.969 18.0006 209.969 18.0478C209.969 18.0996 209.986 18.1432 210.022 18.1786C210.06 18.2116 210.107 18.2399 210.163 18.2634C210.22 18.2847 210.283 18.3035 210.354 18.32C210.425 18.3342 210.496 18.3495 210.566 18.366C210.642 18.3825 210.715 18.4025 210.786 18.4261C210.859 18.4497 210.922 18.4815 210.976 18.5216C211.033 18.5593 211.078 18.6076 211.111 18.6665C211.146 18.7254 211.164 18.7985 211.164 18.8857C211.164 18.9965 211.14 19.0884 211.093 19.1615C211.048 19.2346 210.988 19.2935 210.913 19.3383C210.84 19.3831 210.756 19.4137 210.662 19.4302C210.57 19.4491 210.478 19.4585 210.386 19.4585C210.285 19.4585 210.188 19.4479 210.096 19.4267C210.004 19.4055 209.923 19.3713 209.852 19.3242C209.781 19.2747 209.725 19.211 209.682 19.1332C209.64 19.0531 209.616 18.9564 209.612 18.8433H209.912ZM213.198 19.6636C213.163 19.7531 213.127 19.8286 213.092 19.8899C213.059 19.9511 213.021 20.0006 212.979 20.0384C212.939 20.0784 212.893 20.1067 212.841 20.1232C212.791 20.1421 212.734 20.1515 212.668 20.1515C212.632 20.1515 212.597 20.1491 212.562 20.1444C212.526 20.1397 212.492 20.1315 212.459 20.1197V19.8439C212.485 19.8557 212.514 19.8651 212.547 19.8722C212.583 19.8816 212.612 19.8863 212.636 19.8863C212.697 19.8863 212.748 19.871 212.788 19.8404C212.83 19.8121 212.862 19.7708 212.883 19.7166L213.007 19.409L212.282 17.5917H212.622L213.156 19.0873H213.163L213.675 17.5917H213.994L213.198 19.6636ZM215.517 18.3306C215.513 18.2599 215.496 18.1927 215.468 18.1291C215.442 18.0655 215.405 18.0112 215.358 17.9665C215.314 17.9193 215.259 17.8828 215.196 17.8568C215.134 17.8286 215.066 17.8144 214.991 17.8144C214.913 17.8144 214.842 17.8286 214.778 17.8568C214.717 17.8828 214.664 17.9193 214.619 17.9665C214.575 18.0136 214.539 18.069 214.513 18.1326C214.487 18.1939 214.472 18.2599 214.467 18.3306H215.517ZM215.807 18.8398C215.767 19.0448 215.679 19.1992 215.542 19.3029C215.405 19.4067 215.233 19.4585 215.026 19.4585C214.88 19.4585 214.753 19.4349 214.644 19.3878C214.538 19.3407 214.448 19.2747 214.375 19.1898C214.302 19.1049 214.247 19.0036 214.209 18.8857C214.174 18.7679 214.154 18.6394 214.149 18.5003C214.149 18.3613 214.17 18.234 214.213 18.1185C214.255 18.003 214.314 17.9028 214.39 17.818C214.467 17.7331 214.558 17.6671 214.662 17.62C214.768 17.5728 214.883 17.5492 215.008 17.5492C215.171 17.5492 215.305 17.5834 215.411 17.6518C215.52 17.7178 215.606 17.8026 215.669 17.9063C215.735 18.0101 215.78 18.1232 215.804 18.2458C215.83 18.3683 215.84 18.485 215.836 18.5958H214.467C214.465 18.6759 214.474 18.7526 214.496 18.8256C214.517 18.8963 214.551 18.96 214.598 19.0165C214.645 19.0708 214.705 19.1144 214.778 19.1474C214.852 19.1804 214.938 19.1969 215.037 19.1969C215.164 19.1969 215.268 19.1674 215.348 19.1085C215.43 19.0495 215.484 18.96 215.51 18.8398H215.807ZM217.766 19.4125C217.715 19.4432 217.643 19.4585 217.551 19.4585C217.473 19.4585 217.411 19.4373 217.363 19.3949C217.319 19.3501 217.296 19.2782 217.296 19.1792C217.214 19.2782 217.117 19.3501 217.006 19.3949C216.898 19.4373 216.78 19.4585 216.653 19.4585C216.57 19.4585 216.491 19.4491 216.416 19.4302C216.343 19.4114 216.279 19.3819 216.225 19.3418C216.171 19.3018 216.127 19.2499 216.094 19.1863C216.063 19.1203 216.048 19.0413 216.048 18.9494C216.048 18.8457 216.066 18.7608 216.101 18.6948C216.137 18.6288 216.183 18.5758 216.239 18.5357C216.298 18.4933 216.364 18.4614 216.437 18.4402C216.512 18.419 216.589 18.4013 216.667 18.3872C216.749 18.3707 216.827 18.3589 216.9 18.3518C216.976 18.3424 217.042 18.3306 217.098 18.3165C217.155 18.3 217.2 18.2776 217.233 18.2493C217.266 18.2187 217.282 18.1751 217.282 18.1185C217.282 18.0525 217.269 17.9995 217.243 17.9594C217.22 17.9193 217.188 17.8887 217.148 17.8675C217.11 17.8462 217.066 17.8321 217.017 17.825C216.97 17.818 216.923 17.8144 216.875 17.8144C216.748 17.8144 216.642 17.8392 216.557 17.8887C216.472 17.9358 216.426 18.0266 216.419 18.1609H216.119C216.124 18.0478 216.147 17.9523 216.19 17.8745C216.232 17.7967 216.289 17.7343 216.359 17.6871C216.43 17.6376 216.51 17.6023 216.6 17.5811C216.692 17.5598 216.789 17.5492 216.893 17.5492C216.976 17.5492 217.057 17.5551 217.137 17.5669C217.22 17.5787 217.294 17.6035 217.36 17.6412C217.426 17.6765 217.479 17.7272 217.519 17.7932C217.559 17.8592 217.579 17.9452 217.579 18.0513V18.9918C217.579 19.0625 217.583 19.1144 217.59 19.1474C217.599 19.1804 217.627 19.1969 217.675 19.1969C217.7 19.1969 217.731 19.191 217.766 19.1792V19.4125ZM217.279 18.4756C217.241 18.5039 217.191 18.5251 217.13 18.5392C217.069 18.551 217.004 18.5616 216.936 18.5711C216.87 18.5781 216.802 18.5876 216.734 18.5993C216.666 18.6088 216.604 18.6253 216.55 18.6488C216.496 18.6724 216.451 18.7066 216.416 18.7514C216.383 18.7938 216.366 18.8527 216.366 18.9282C216.366 18.9777 216.376 19.0201 216.395 19.0554C216.416 19.0884 216.442 19.1155 216.472 19.1368C216.505 19.158 216.543 19.1733 216.586 19.1827C216.628 19.1922 216.673 19.1969 216.72 19.1969C216.819 19.1969 216.904 19.1839 216.974 19.158C217.045 19.1297 217.103 19.0955 217.148 19.0554C217.193 19.013 217.226 18.9682 217.247 18.9211C217.268 18.8716 217.279 18.8256 217.279 18.7832V18.4756ZM218.036 17.5917H218.318V17.9771H218.326C218.399 17.8286 218.488 17.719 218.594 17.6482C218.7 17.5775 218.835 17.5445 218.997 17.5492V17.8675C218.877 17.8675 218.775 17.884 218.69 17.917C218.605 17.95 218.536 17.9983 218.485 18.0619C218.433 18.1256 218.395 18.2033 218.371 18.2953C218.348 18.3848 218.336 18.4886 218.336 18.6064V19.4196H218.036V17.5917Z" fill="white"/>
</g>
<defs>
<filter id="filter0_d_458_4586" x="0" y="0" width="244" height="163" filterUnits="userSpaceOnUse" color-interpolation-filters="sRGB">
<feFlood flood-opacity="0" result="BackgroundImageFix"/>
<feColorMatrix in="SourceAlpha" type="matrix" values="0 0 0 0 0 0 0 0 0 0 0 0 0 0 0 0 0 0 127 0" result="hardAlpha"/>
<feOffset dx="2" dy="2"/>
<feGaussianBlur stdDeviation="1"/>
<feComposite in2="hardAlpha" operator="out"/>
<feColorMatrix type="matrix" values="0 0 0 0 0 0 0 0 0 0 0 0 0 0 0 0 0 0 0.25 0"/>
<feBlend mode="normal" in2="BackgroundImageFix" result="effect1_dropShadow_458_4586"/>
<feBlend mode="normal" in="SourceGraphic" in2="effect1_dropShadow_458_4586" result="shape"/>
</filter>
<linearGradient id="paint0_linear_458_4586" x1="111" y1="131" x2="134" y2="149" gradientUnits="userSpaceOnUse">
<stop stop-color="#DBBFFF"/>
<stop offset="1" stop-color="#9747FF"/>
</linearGradient>
<linearGradient id="paint1_linear_458_4586" x1="21.7" y1="47.0833" x2="39.4448" y2="52.8907" gradientUnits="userSpaceOnUse">
<stop stop-color="#DBBFFF"/>
<stop offset="1" stop-color="#9747FF"/>
</linearGradient>
<linearGradient id="paint2_linear_458_4586" x1="19.9999" y1="59.5" x2="24.5673" y2="61" gradientUnits="userSpaceOnUse">
<stop stop-color="#DBBFFF"/>
<stop offset="1" stop-color="#6404E0"/>
</linearGradient>
<linearGradient id="paint3_linear_458_4586" x1="43.1815" y1="61" x2="26.5759" y2="57.2882" gradientUnits="userSpaceOnUse">
<stop stop-color="#9747FF"/>
<stop offset="1" stop-color="#DBBFFF"/>
</linearGradient>
<linearGradient id="paint4_linear_458_4586" x1="195.157" y1="47.0833" x2="214.854" y2="54.4503" gradientUnits="userSpaceOnUse">
<stop stop-color="#DBBFFF"/>
<stop offset="1" stop-color="#9747FF"/>
</linearGradient>
<linearGradient id="paint5_linear_458_4586" x1="197" y1="59.5" x2="201.567" y2="61" gradientUnits="userSpaceOnUse">
<stop stop-color="#DBBFFF"/>
<stop offset="1" stop-color="#6404E0"/>
</linearGradient>
<linearGradient id="paint6_linear_458_4586" x1="216.819" y1="61" x2="203.47" y2="58.6443" gradientUnits="userSpaceOnUse">
<stop stop-color="#9747FF"/>
<stop offset="1" stop-color="#DBBFFF"/>
</linearGradient>
<linearGradient id="paint7_linear_458_4586" x1="30" y1="126" x2="179.438" y2="31.3356" gradientUnits="userSpaceOnUse">
<stop offset="0.334656" stop-color="#DBBFFF"/>
<stop offset="0.576815" stop-color="#9747FF"/>
</linearGradient>
<clipPath id="clip0_458_4586">
<rect width="5.65709" height="5.65709" fill="white" transform="translate(197.298 15.5911)"/>
</clipPath>
</defs>
</svg>
