<svg width="286" height="367" viewBox="0 0 286 367" fill="none" xmlns="http://www.w3.org/2000/svg">
<rect x="0.0957031" y="27.6079" width="285.881" height="338.79" rx="25.6013" fill="url(#paint0_linear_968_1517)"/>
<path d="M135.936 119.201H131.088V103.703H125.081V100.051C125.923 100.074 126.731 100.017 127.504 99.8802C128.301 99.721 129.006 99.4593 129.621 99.0951C130.258 98.7083 130.793 98.2076 131.225 97.5932C131.657 96.9788 131.942 96.2164 132.078 95.3062H135.936V119.201ZM142.785 104.488C142.74 103.123 142.899 101.86 143.263 100.699C143.627 99.5161 144.173 98.4921 144.902 97.6273C145.63 96.7398 146.54 96.0571 147.632 95.5792C148.748 95.0786 150.022 94.8283 151.456 94.8283C152.548 94.8283 153.583 94.9989 154.562 95.3403C155.563 95.6816 156.439 96.1709 157.19 96.8081C157.941 97.4453 158.533 98.2304 158.965 99.1634C159.42 100.096 159.648 101.143 159.648 102.304C159.648 103.51 159.455 104.545 159.068 105.41C158.681 106.275 158.169 107.049 157.532 107.731C156.894 108.391 156.166 108.994 155.347 109.54C154.551 110.087 153.743 110.633 152.923 111.179C152.104 111.702 151.308 112.271 150.534 112.886C149.76 113.5 149.078 114.217 148.486 115.036H159.785V119.201H142.239C142.239 117.813 142.433 116.606 142.819 115.582C143.229 114.558 143.775 113.648 144.458 112.852C145.141 112.032 145.937 111.281 146.847 110.599C147.78 109.916 148.759 109.222 149.783 108.516C150.306 108.152 150.864 107.788 151.456 107.424C152.047 107.037 152.582 106.616 153.06 106.161C153.561 105.706 153.97 105.194 154.289 104.625C154.63 104.056 154.801 103.408 154.801 102.679C154.801 101.519 154.459 100.62 153.777 99.9827C153.117 99.3227 152.263 98.9927 151.217 98.9927C150.511 98.9927 149.908 99.1634 149.407 99.5048C148.93 99.8234 148.543 100.256 148.247 100.802C147.951 101.325 147.735 101.917 147.598 102.577C147.485 103.214 147.428 103.851 147.428 104.488H142.785Z" fill="white"/>
<path d="M86.2198 136.41H89.7698L95.9142 152.794L102.086 136.41H105.636V155.907H103.178V139.686H103.123L97.0338 155.907H94.8218L88.7321 139.686H88.6775V155.907H86.2198V136.41ZM111.455 146.159C111.455 147.142 111.582 148.116 111.837 149.08C112.092 150.027 112.493 150.883 113.039 151.647C113.585 152.412 114.286 153.031 115.142 153.504C115.997 153.959 117.017 154.187 118.2 154.187C119.383 154.187 120.403 153.959 121.259 153.504C122.114 153.031 122.815 152.412 123.361 151.647C123.907 150.883 124.308 150.027 124.563 149.08C124.818 148.116 124.945 147.142 124.945 146.159C124.945 145.175 124.818 144.211 124.563 143.264C124.308 142.299 123.907 141.434 123.361 140.67C122.815 139.905 122.114 139.295 121.259 138.84C120.403 138.367 119.383 138.13 118.2 138.13C117.017 138.13 115.997 138.367 115.142 138.84C114.286 139.295 113.585 139.905 113.039 140.67C112.493 141.434 112.092 142.299 111.837 143.264C111.582 144.211 111.455 145.175 111.455 146.159ZM108.861 146.159C108.861 144.83 109.052 143.555 109.434 142.335C109.835 141.097 110.426 140.005 111.209 139.058C111.992 138.112 112.966 137.356 114.131 136.792C115.296 136.227 116.653 135.945 118.2 135.945C119.748 135.945 121.104 136.227 122.269 136.792C123.434 137.356 124.408 138.112 125.191 139.058C125.974 140.005 126.556 141.097 126.939 142.335C127.339 143.555 127.539 144.83 127.539 146.159C127.539 147.487 127.339 148.771 126.939 150.009C126.556 151.229 125.974 152.312 125.191 153.259C124.408 154.205 123.434 154.961 122.269 155.525C121.104 156.071 119.748 156.344 118.2 156.344C116.653 156.344 115.296 156.071 114.131 155.525C112.966 154.961 111.992 154.205 111.209 153.259C110.426 152.312 109.835 151.229 109.434 150.009C109.052 148.771 108.861 147.487 108.861 146.159ZM130.673 136.41H133.432L143.699 152.221H143.754V136.41H146.212V155.907H143.372L133.186 140.26H133.131V155.907H130.673V136.41ZM154.832 138.594H148.333V136.41H163.926V138.594H157.427V155.907H154.832V138.594ZM166.089 136.41H168.683V144.793H178.951V136.41H181.546V155.907H178.951V146.978H168.683V155.907H166.089V136.41ZM197.075 142.117C196.929 140.715 196.42 139.705 195.546 139.086C194.69 138.449 193.589 138.13 192.242 138.13C191.695 138.13 191.158 138.185 190.63 138.294C190.102 138.403 189.629 138.585 189.21 138.84C188.81 139.095 188.482 139.441 188.227 139.878C187.991 140.296 187.872 140.824 187.872 141.462C187.872 142.062 188.045 142.554 188.391 142.936C188.755 143.3 189.229 143.601 189.811 143.837C190.412 144.074 191.085 144.274 191.832 144.438C192.578 144.584 193.334 144.748 194.098 144.93C194.881 145.112 195.646 145.33 196.392 145.585C197.139 145.822 197.803 146.149 198.386 146.568C198.987 146.987 199.46 147.515 199.806 148.152C200.17 148.789 200.352 149.59 200.352 150.555C200.352 151.593 200.115 152.485 199.642 153.231C199.187 153.959 198.595 154.56 197.867 155.034C197.139 155.489 196.32 155.816 195.409 156.017C194.517 156.235 193.625 156.344 192.733 156.344C191.641 156.344 190.603 156.208 189.62 155.935C188.655 155.662 187.799 155.252 187.053 154.706C186.325 154.142 185.742 153.432 185.305 152.576C184.887 151.702 184.677 150.673 184.677 149.49H187.135C187.135 150.309 187.29 151.019 187.599 151.62C187.927 152.203 188.346 152.685 188.855 153.067C189.383 153.45 189.993 153.732 190.685 153.914C191.377 154.096 192.087 154.187 192.815 154.187C193.398 154.187 193.98 154.132 194.563 154.023C195.163 153.914 195.701 153.732 196.174 153.477C196.647 153.204 197.03 152.84 197.321 152.385C197.612 151.93 197.758 151.347 197.758 150.637C197.758 149.963 197.576 149.417 197.212 148.999C196.866 148.58 196.392 148.243 195.792 147.988C195.209 147.715 194.545 147.497 193.798 147.333C193.052 147.169 192.287 147.005 191.504 146.841C190.74 146.659 189.984 146.459 189.238 146.24C188.491 146.004 187.818 145.703 187.217 145.339C186.634 144.957 186.161 144.475 185.797 143.892C185.451 143.291 185.278 142.545 185.278 141.653C185.278 140.67 185.478 139.823 185.879 139.113C186.279 138.385 186.807 137.793 187.463 137.338C188.136 136.865 188.892 136.519 189.729 136.3C190.585 136.064 191.459 135.945 192.351 135.945C193.352 135.945 194.281 136.064 195.136 136.3C195.992 136.537 196.738 136.91 197.375 137.42C198.031 137.93 198.541 138.576 198.905 139.359C199.287 140.123 199.496 141.043 199.533 142.117H197.075Z" fill="white"/>
<path d="M56.3262 202.737H58.8405V195.195H61.3548L65.6542 202.737H71.412V195.195H73.9263V202.737H76.4406V205.252H73.9263V207.766H76.4406V210.28H73.9263V217.823H71.412L67.0999 210.28H61.3548V217.823H58.8405V210.28H56.3262V207.766H58.8405V205.252H56.3262V202.737ZM61.3548 202.737H62.7753L61.3548 200.261V202.737ZM61.3548 205.252V207.766H65.6542L64.2211 205.252H61.3548ZM71.412 212.795V210.28H69.9662L71.412 212.795ZM67.0874 205.252L68.5331 207.766H71.412V205.252H67.0874Z" fill="white"/>
<path d="M95.6117 202.512C94.4921 204.103 93.5541 205.744 92.7978 207.433C92.1987 208.759 91.6586 210.379 91.1773 212.294C90.6961 214.21 90.4554 215.781 90.4554 217.009H86.0947C86.2224 213.178 87.4795 209.196 89.8661 205.061C91.4081 202.498 92.6996 200.71 93.7407 199.698H83.0893L83.1482 195.927H98.234V199.212C97.6055 199.831 96.7313 200.931 95.6117 202.512ZM105.129 218.511C104.952 219.238 104.623 219.867 104.142 220.397C103.621 220.967 103.007 221.394 102.3 221.679C101.603 221.974 101.122 222.121 100.856 222.121V220.5C101.701 220.265 102.32 219.872 102.713 219.322C103.115 218.772 103.346 218.001 103.405 217.009H100.856V212.619H105.394V216.42C105.394 217.087 105.305 217.785 105.129 218.511ZM118.005 199.993C117.504 199.394 116.787 199.094 115.854 199.094C114.577 199.094 113.708 199.571 113.246 200.523C112.981 201.073 112.824 201.948 112.775 203.146H108.694C108.763 201.329 109.092 199.86 109.681 198.741C110.801 196.61 112.789 195.544 115.648 195.544C117.906 195.544 119.704 196.173 121.04 197.43C122.375 198.677 123.043 200.332 123.043 202.394C123.043 203.976 122.572 205.38 121.629 206.608C121.01 207.423 119.994 208.332 118.579 209.333L116.9 210.527C115.849 211.273 115.127 211.813 114.734 212.147C114.351 212.481 114.027 212.869 113.762 213.311H123.087V217.009H108.458C108.497 215.477 108.826 214.077 109.445 212.81C110.044 211.386 111.459 209.878 113.688 208.287C115.623 206.902 116.875 205.911 117.445 205.311C118.319 204.378 118.756 203.357 118.756 202.247C118.756 201.344 118.506 200.592 118.005 199.993ZM132.619 217.539C129.898 217.539 127.988 216.586 126.888 214.681C125.798 212.776 125.253 210.06 125.253 206.534C125.253 203.008 125.798 200.288 126.888 198.373C127.988 196.457 129.898 195.5 132.619 195.5C135.34 195.5 137.25 196.457 138.35 198.373C139.44 200.288 139.985 203.008 139.985 206.534C139.985 210.06 139.435 212.776 138.335 214.681C137.245 216.586 135.34 217.539 132.619 217.539ZM135.079 212.162C135.462 210.865 135.654 208.99 135.654 206.534C135.654 203.961 135.457 202.056 135.065 200.818C134.682 199.581 133.866 198.962 132.619 198.962C131.372 198.962 130.547 199.581 130.144 200.818C129.741 202.056 129.54 203.961 129.54 206.534C129.54 208.99 129.741 210.87 130.144 212.177C130.547 213.473 131.372 214.121 132.619 214.121C133.866 214.121 134.686 213.468 135.079 212.162ZM149.414 217.539C146.693 217.539 144.783 216.586 143.683 214.681C142.593 212.776 142.048 210.06 142.048 206.534C142.048 203.008 142.593 200.288 143.683 198.373C144.783 196.457 146.693 195.5 149.414 195.5C152.134 195.5 154.045 196.457 155.145 198.373C156.235 200.288 156.78 203.008 156.78 206.534C156.78 210.06 156.23 212.776 155.13 214.681C154.04 216.586 152.134 217.539 149.414 217.539ZM151.874 212.162C152.257 210.865 152.449 208.99 152.449 206.534C152.449 203.961 152.252 202.056 151.859 200.818C151.476 199.581 150.661 198.962 149.414 198.962C148.166 198.962 147.341 199.581 146.939 200.818C146.536 202.056 146.335 203.961 146.335 206.534C146.335 208.99 146.536 210.87 146.939 212.177C147.341 213.473 148.166 214.121 149.414 214.121C150.661 214.121 151.481 213.468 151.874 212.162Z" fill="white"/>
<path d="M170.378 196.051H173.726L164.909 219.031H161.56L170.378 196.051Z" fill="white"/>
<path d="M177.529 199.885H180.192L184.8 212.174L189.429 199.885H192.091V214.509H190.248V202.343H190.207L185.64 214.509H183.981L179.413 202.343H179.372V214.509H177.529V199.885ZM196.312 209.225C196.312 209.866 196.394 210.44 196.558 210.945C196.735 211.437 196.974 211.853 197.275 212.194C197.575 212.522 197.923 212.775 198.319 212.952C198.729 213.13 199.159 213.218 199.61 213.218C200.06 213.218 200.483 213.13 200.879 212.952C201.289 212.775 201.644 212.522 201.944 212.194C202.245 211.853 202.477 211.437 202.641 210.945C202.818 210.44 202.907 209.866 202.907 209.225C202.907 208.583 202.818 208.016 202.641 207.525C202.477 207.02 202.245 206.596 201.944 206.255C201.644 205.914 201.289 205.654 200.879 205.477C200.483 205.299 200.06 205.21 199.61 205.21C199.159 205.21 198.729 205.299 198.319 205.477C197.923 205.654 197.575 205.914 197.275 206.255C196.974 206.596 196.735 207.02 196.558 207.525C196.394 208.016 196.312 208.583 196.312 209.225ZM194.469 209.225C194.469 208.446 194.578 207.723 194.797 207.054C195.015 206.371 195.343 205.784 195.78 205.292C196.217 204.787 196.756 204.391 197.398 204.104C198.039 203.818 198.777 203.674 199.61 203.674C200.456 203.674 201.193 203.818 201.822 204.104C202.463 204.391 203.003 204.787 203.44 205.292C203.876 205.784 204.204 206.371 204.423 207.054C204.641 207.723 204.75 208.446 204.75 209.225C204.75 210.003 204.641 210.727 204.423 211.396C204.204 212.065 203.876 212.652 203.44 213.157C203.003 213.649 202.463 214.038 201.822 214.324C201.193 214.598 200.456 214.734 199.61 214.734C198.777 214.734 198.039 214.598 197.398 214.324C196.756 214.038 196.217 213.649 195.78 213.157C195.343 212.652 195.015 212.065 194.797 211.396C194.578 210.727 194.469 210.003 194.469 209.225ZM206.803 203.92H208.441V205.6H208.482C209.206 204.316 210.353 203.674 211.923 203.674C212.62 203.674 213.2 203.77 213.664 203.961C214.128 204.152 214.504 204.418 214.79 204.76C215.077 205.101 215.275 205.511 215.384 205.989C215.507 206.453 215.569 206.972 215.569 207.545V214.509H213.828V207.34C213.828 206.685 213.637 206.166 213.254 205.784C212.872 205.402 212.346 205.21 211.677 205.21C211.145 205.21 210.681 205.292 210.285 205.456C209.902 205.62 209.581 205.852 209.322 206.153C209.063 206.453 208.865 206.808 208.728 207.218C208.605 207.614 208.544 208.05 208.544 208.528V214.509H206.803V203.92ZM220.6 203.92H222.71V205.456H220.6V212.031C220.6 212.235 220.614 212.399 220.641 212.522C220.682 212.645 220.75 212.741 220.846 212.809C220.942 212.877 221.071 212.925 221.235 212.952C221.413 212.966 221.638 212.973 221.911 212.973H222.71V214.509H221.378C220.928 214.509 220.539 214.481 220.211 214.427C219.897 214.359 219.638 214.243 219.433 214.079C219.242 213.915 219.098 213.683 219.003 213.382C218.907 213.082 218.859 212.686 218.859 212.194V205.456H217.057V203.92H218.859V200.746H220.6V203.92ZM224.644 199.885H226.385V205.477H226.426C226.562 205.149 226.753 204.876 226.999 204.657C227.245 204.425 227.518 204.241 227.818 204.104C228.132 203.954 228.453 203.845 228.781 203.777C229.122 203.708 229.45 203.674 229.764 203.674C230.46 203.674 231.041 203.77 231.505 203.961C231.969 204.152 232.345 204.418 232.631 204.76C232.918 205.101 233.116 205.511 233.225 205.989C233.348 206.453 233.41 206.972 233.41 207.545V214.509H231.669V207.34C231.669 206.685 231.478 206.166 231.095 205.784C230.713 205.402 230.187 205.21 229.518 205.21C228.986 205.21 228.522 205.292 228.126 205.456C227.743 205.62 227.422 205.852 227.163 206.153C226.904 206.453 226.706 206.808 226.569 207.218C226.446 207.614 226.385 208.05 226.385 208.528V214.509H224.644V199.885Z" fill="white"/>
<path d="M100.45 259.461H101.883V255.162H103.316L105.766 259.461H109.047V255.162H110.48V259.461H111.913V260.894H110.48V262.327H111.913V263.759H110.48V268.058H109.047L106.59 263.759H103.316V268.058H101.883V263.759H100.45V262.327H101.883V260.894H100.45V259.461ZM103.316 259.461H104.126L103.316 258.049V259.461ZM103.316 260.894V262.327H105.766L104.949 260.894H103.316ZM109.047 265.192V263.759H108.224L109.047 265.192ZM106.583 260.894L107.407 262.327H109.047V260.894H106.583Z" fill="white"/>
<path d="M120.521 259.709C121.602 259.709 122.486 260.076 123.174 260.809C123.868 261.543 124.216 262.48 124.216 263.622C124.216 264.758 123.877 265.76 123.2 266.628C122.522 267.495 121.47 267.929 120.043 267.929C118.509 267.929 117.379 267.288 116.651 266.006C116.086 265.004 115.803 263.711 115.803 262.127C115.803 261.198 115.842 260.443 115.92 259.861C116.06 258.825 116.332 257.963 116.735 257.275C117.082 256.687 117.535 256.214 118.095 255.856C118.66 255.498 119.335 255.318 120.118 255.318C121.249 255.318 122.15 255.609 122.822 256.192C123.493 256.768 123.871 257.538 123.955 258.5H121.571C121.571 258.305 121.495 258.089 121.344 257.854C121.087 257.473 120.698 257.283 120.177 257.283C119.399 257.283 118.845 257.72 118.515 258.593C118.336 259.074 118.213 259.785 118.145 260.725C118.442 260.373 118.786 260.115 119.178 259.953C119.57 259.791 120.018 259.709 120.521 259.709ZM118.909 261.993C118.439 262.357 118.204 262.945 118.204 263.756C118.204 264.411 118.38 264.946 118.733 265.36C119.086 265.774 119.533 265.981 120.076 265.981C120.608 265.981 121.025 265.782 121.327 265.385C121.635 264.982 121.789 264.461 121.789 263.823C121.789 263.113 121.616 262.57 121.269 262.195C120.922 261.814 120.496 261.624 119.992 261.624C119.584 261.624 119.223 261.747 118.909 261.993ZM129.572 267.912C128.022 267.912 126.933 267.369 126.306 266.283C125.685 265.197 125.374 263.65 125.374 261.64C125.374 259.631 125.685 258.081 126.306 256.989C126.933 255.898 128.022 255.352 129.572 255.352C131.122 255.352 132.211 255.898 132.838 256.989C133.459 258.081 133.77 259.631 133.77 261.64C133.77 263.65 133.456 265.197 132.83 266.283C132.208 267.369 131.122 267.912 129.572 267.912ZM130.974 264.848C131.192 264.109 131.302 263.04 131.302 261.64C131.302 260.174 131.19 259.088 130.966 258.383C130.747 257.678 130.283 257.325 129.572 257.325C128.861 257.325 128.391 257.678 128.162 258.383C127.932 259.088 127.817 260.174 127.817 261.64C127.817 263.04 127.932 264.112 128.162 264.856C128.391 265.595 128.861 265.964 129.572 265.964C130.283 265.964 130.75 265.592 130.974 264.848ZM139.143 267.912C137.593 267.912 136.504 267.369 135.877 266.283C135.256 265.197 134.945 263.65 134.945 261.64C134.945 259.631 135.256 258.081 135.877 256.989C136.504 255.898 137.593 255.352 139.143 255.352C140.694 255.352 141.782 255.898 142.409 256.989C143.03 258.081 143.341 259.631 143.341 261.64C143.341 263.65 143.028 265.197 142.401 266.283C141.779 267.369 140.694 267.912 139.143 267.912ZM140.545 264.848C140.764 264.109 140.873 263.04 140.873 261.64C140.873 260.174 140.761 259.088 140.537 258.383C140.319 257.678 139.854 257.325 139.143 257.325C138.432 257.325 137.962 257.678 137.733 258.383C137.503 259.088 137.389 260.174 137.389 261.64C137.389 263.04 137.503 264.112 137.733 264.856C137.962 265.595 138.432 265.964 139.143 265.964C139.854 265.964 140.321 265.592 140.545 264.848Z" fill="white"/>
<path d="M151.344 255.312H153.252L148.227 268.407H146.319L151.344 255.312Z" fill="white"/>
<path d="M155.42 257.276H156.937L159.564 264.279L162.202 257.276H163.719V265.61H162.668V258.677H162.645L160.042 265.61H159.097L156.494 258.677H156.471V265.61H155.42V257.276ZM166.124 262.598C166.124 262.964 166.171 263.291 166.264 263.579C166.366 263.859 166.502 264.096 166.673 264.291C166.844 264.478 167.043 264.622 167.268 264.723C167.502 264.824 167.747 264.875 168.004 264.875C168.26 264.875 168.502 264.824 168.727 264.723C168.961 264.622 169.163 264.478 169.334 264.291C169.505 264.096 169.638 263.859 169.731 263.579C169.832 263.291 169.883 262.964 169.883 262.598C169.883 262.233 169.832 261.91 169.731 261.63C169.638 261.342 169.505 261.101 169.334 260.906C169.163 260.712 168.961 260.564 168.727 260.463C168.502 260.361 168.26 260.311 168.004 260.311C167.747 260.311 167.502 260.361 167.268 260.463C167.043 260.564 166.844 260.712 166.673 260.906C166.502 261.101 166.366 261.342 166.264 261.63C166.171 261.91 166.124 262.233 166.124 262.598ZM165.074 262.598C165.074 262.155 165.136 261.743 165.261 261.361C165.385 260.972 165.572 260.638 165.821 260.357C166.07 260.07 166.377 259.844 166.743 259.68C167.109 259.517 167.529 259.435 168.004 259.435C168.486 259.435 168.906 259.517 169.264 259.68C169.63 259.844 169.937 260.07 170.186 260.357C170.435 260.638 170.622 260.972 170.746 261.361C170.871 261.743 170.933 262.155 170.933 262.598C170.933 263.042 170.871 263.454 170.746 263.836C170.622 264.217 170.435 264.552 170.186 264.84C169.937 265.12 169.63 265.341 169.264 265.505C168.906 265.66 168.486 265.738 168.004 265.738C167.529 265.738 167.109 265.66 166.743 265.505C166.377 265.341 166.07 265.12 165.821 264.84C165.572 264.552 165.385 264.217 165.261 263.836C165.136 263.454 165.074 263.042 165.074 262.598ZM172.103 259.575H173.037V260.533H173.06C173.473 259.801 174.126 259.435 175.021 259.435C175.418 259.435 175.749 259.49 176.013 259.599C176.278 259.708 176.492 259.859 176.655 260.054C176.818 260.249 176.931 260.482 176.994 260.754C177.064 261.019 177.099 261.315 177.099 261.641V265.61H176.106V261.525C176.106 261.151 175.998 260.855 175.78 260.638C175.562 260.42 175.262 260.311 174.881 260.311C174.577 260.311 174.313 260.357 174.087 260.451C173.869 260.544 173.686 260.677 173.539 260.848C173.391 261.019 173.278 261.221 173.2 261.455C173.13 261.68 173.095 261.929 173.095 262.202V265.61H172.103V259.575ZM179.966 259.575H181.168V260.451H179.966V264.198C179.966 264.314 179.974 264.408 179.989 264.478C180.013 264.548 180.052 264.602 180.106 264.641C180.161 264.68 180.234 264.707 180.328 264.723C180.429 264.731 180.557 264.734 180.713 264.734H181.168V265.61H180.41C180.153 265.61 179.931 265.594 179.744 265.563C179.565 265.524 179.417 265.458 179.301 265.365C179.192 265.271 179.11 265.139 179.056 264.968C179.001 264.797 178.974 264.571 178.974 264.291V260.451H177.947V259.575H178.974V257.766H179.966V259.575ZM182.27 257.276H183.263V260.463H183.286C183.364 260.276 183.473 260.12 183.613 259.996C183.753 259.863 183.908 259.758 184.08 259.68C184.259 259.595 184.441 259.533 184.628 259.494C184.823 259.455 185.009 259.435 185.188 259.435C185.585 259.435 185.916 259.49 186.181 259.599C186.445 259.708 186.659 259.859 186.822 260.054C186.986 260.249 187.099 260.482 187.161 260.754C187.231 261.019 187.266 261.315 187.266 261.641V265.61H186.274V261.525C186.274 261.151 186.165 260.855 185.947 260.638C185.729 260.42 185.43 260.311 185.048 260.311C184.745 260.311 184.48 260.357 184.255 260.451C184.037 260.544 183.854 260.677 183.706 260.848C183.558 261.019 183.445 261.221 183.368 261.455C183.298 261.68 183.263 261.929 183.263 262.202V265.61H182.27V257.276Z" fill="white"/>
<rect x="53.0039" y="0.299805" width="179.209" height="53.7627" rx="8.53376" fill="#6404E0"/>
<path d="M88.0526 18.1145H100.904V21.4939H92.072V25.7181H99.7268V28.8414H92.072V36.3938H88.0526V18.1145ZM102.844 23.1579H106.301V25.6157H106.352C106.522 25.206 106.753 24.8306 107.043 24.4892C107.333 24.1308 107.666 23.8321 108.041 23.5932C108.417 23.3371 108.818 23.1409 109.245 23.0043C109.671 22.8678 110.115 22.7995 110.576 22.7995C110.815 22.7995 111.079 22.8422 111.37 22.9275V26.3069C111.199 26.2728 110.994 26.2472 110.755 26.2301C110.516 26.196 110.286 26.1789 110.064 26.1789C109.398 26.1789 108.835 26.2898 108.374 26.5117C107.913 26.7336 107.538 27.0408 107.248 27.4334C106.975 27.8088 106.778 28.2526 106.659 28.7646C106.539 29.2766 106.48 29.8313 106.48 30.4287V36.3938H102.844V23.1579ZM121.254 28.355C121.083 27.4334 120.776 26.7336 120.332 26.2557C119.906 25.7778 119.249 25.5389 118.361 25.5389C117.781 25.5389 117.294 25.6413 116.902 25.8461C116.526 26.0338 116.219 26.2728 115.98 26.5629C115.758 26.8531 115.596 27.1603 115.494 27.4846C115.408 27.8088 115.357 28.099 115.34 28.355H121.254ZM115.34 30.6591C115.391 31.8368 115.69 32.6901 116.236 33.2192C116.782 33.7483 117.567 34.0129 118.592 34.0129C119.325 34.0129 119.957 33.8337 120.486 33.4753C121.015 33.0998 121.339 32.7072 121.459 32.2976H124.659C124.147 33.8849 123.362 35.0199 122.304 35.7026C121.246 36.3853 119.965 36.7266 118.464 36.7266C117.422 36.7266 116.484 36.5645 115.647 36.2402C114.811 35.8988 114.103 35.421 113.522 34.8065C112.942 34.1921 112.49 33.4582 112.166 32.6048C111.858 31.7514 111.705 30.8127 111.705 29.7887C111.705 28.7988 111.867 27.8771 112.191 27.0237C112.516 26.1704 112.976 25.4365 113.574 24.822C114.171 24.1905 114.879 23.6956 115.699 23.3371C116.535 22.9787 117.457 22.7995 118.464 22.7995C119.59 22.7995 120.571 23.0214 121.408 23.4652C122.244 23.8918 122.927 24.4721 123.456 25.206C124.002 25.9399 124.395 26.7763 124.633 27.715C124.872 28.6537 124.958 29.6351 124.889 30.6591H115.34ZM135.955 28.355C135.784 27.4334 135.477 26.7336 135.033 26.2557C134.606 25.7778 133.949 25.5389 133.062 25.5389C132.482 25.5389 131.995 25.6413 131.603 25.8461C131.227 26.0338 130.92 26.2728 130.681 26.5629C130.459 26.8531 130.297 27.1603 130.195 27.4846C130.109 27.8088 130.058 28.099 130.041 28.355H135.955ZM130.041 30.6591C130.092 31.8368 130.391 32.6901 130.937 33.2192C131.483 33.7483 132.268 34.0129 133.292 34.0129C134.026 34.0129 134.658 33.8337 135.187 33.4753C135.716 33.0998 136.04 32.7072 136.16 32.2976H139.36C138.848 33.8849 138.063 35.0199 137.004 35.7026C135.946 36.3853 134.666 36.7266 133.164 36.7266C132.123 36.7266 131.184 36.5645 130.348 36.2402C129.512 35.8988 128.804 35.421 128.223 34.8065C127.643 34.1921 127.191 33.4582 126.866 32.6048C126.559 31.7514 126.406 30.8127 126.406 29.7887C126.406 28.7988 126.568 27.8771 126.892 27.0237C127.216 26.1704 127.677 25.4365 128.274 24.822C128.872 24.1905 129.58 23.6956 130.399 23.3371C131.236 22.9787 132.157 22.7995 133.164 22.7995C134.291 22.7995 135.272 23.0214 136.108 23.4652C136.945 23.8918 137.627 24.4721 138.157 25.206C138.703 25.9399 139.095 26.7763 139.334 27.715C139.573 28.6537 139.658 29.6351 139.59 30.6591H130.041ZM153.301 21.4939H147.822V18.1145H162.799V21.4939H157.32V36.3938H153.301V21.4939ZM162.172 23.1579H165.629V25.6157H165.68C165.85 25.206 166.081 24.8306 166.371 24.4892C166.661 24.1308 166.994 23.8321 167.369 23.5932C167.745 23.3371 168.146 23.1409 168.573 23.0043C168.999 22.8678 169.443 22.7995 169.904 22.7995C170.143 22.7995 170.407 22.8422 170.698 22.9275V26.3069C170.527 26.2728 170.322 26.2472 170.083 26.2301C169.844 26.196 169.614 26.1789 169.392 26.1789C168.726 26.1789 168.163 26.2898 167.702 26.5117C167.241 26.7336 166.866 27.0408 166.576 27.4334C166.303 27.8088 166.106 28.2526 165.987 28.7646C165.867 29.2766 165.808 29.8313 165.808 30.4287V36.3938H162.172V23.1579ZM175.861 21.1098H172.225V18.1145H175.861V21.1098ZM172.225 23.1579H175.861V36.3938H172.225V23.1579ZM178.57 27.2285C178.621 26.3752 178.834 25.6669 179.21 25.1036C179.585 24.5404 180.063 24.0881 180.643 23.7468C181.224 23.4054 181.872 23.1665 182.589 23.0299C183.323 22.8763 184.057 22.7995 184.791 22.7995C185.456 22.7995 186.13 22.8507 186.813 22.9531C187.496 23.0385 188.119 23.2177 188.682 23.4908C189.245 23.7638 189.706 24.1479 190.065 24.6428C190.423 25.1207 190.602 25.7607 190.602 26.5629V33.4497C190.602 34.047 190.636 34.6188 190.705 35.1649C190.773 35.7111 190.892 36.1207 191.063 36.3938H187.376C187.308 36.189 187.248 35.9842 187.197 35.7794C187.163 35.5575 187.137 35.3356 187.12 35.1137C186.54 35.7111 185.857 36.1293 185.072 36.3682C184.287 36.6071 183.485 36.7266 182.666 36.7266C182.034 36.7266 181.445 36.6498 180.899 36.4962C180.353 36.3426 179.875 36.1037 179.466 35.7794C179.056 35.4551 178.732 35.0455 178.493 34.5505C178.271 34.0555 178.16 33.4667 178.16 32.784C178.16 32.033 178.288 31.4186 178.544 30.9407C178.817 30.4458 179.158 30.0532 179.568 29.7631C179.995 29.4729 180.473 29.2596 181.002 29.123C181.548 28.9694 182.094 28.85 182.64 28.7646C183.186 28.6793 183.724 28.611 184.253 28.5598C184.782 28.5086 185.251 28.4318 185.661 28.3294C186.071 28.227 186.395 28.0819 186.634 27.8942C186.873 27.6894 186.984 27.3992 186.967 27.0237C186.967 26.6312 186.899 26.324 186.762 26.1021C186.642 25.8631 186.472 25.6839 186.25 25.5645C186.045 25.4279 185.798 25.3426 185.507 25.3084C185.234 25.2572 184.936 25.2316 184.611 25.2316C183.895 25.2316 183.331 25.3852 182.922 25.6925C182.512 25.9997 182.273 26.5117 182.205 27.2285H178.57ZM186.967 29.9167C186.813 30.0532 186.617 30.1642 186.378 30.2495C186.156 30.3178 185.909 30.3775 185.636 30.4287C185.379 30.4799 185.106 30.5226 184.816 30.5567C184.526 30.5908 184.236 30.6335 183.946 30.6847C183.673 30.7359 183.4 30.8042 183.127 30.8895C182.871 30.9749 182.64 31.0943 182.435 31.2479C182.248 31.3845 182.094 31.5637 181.975 31.7856C181.855 32.0074 181.795 32.2891 181.795 32.6304C181.795 32.9547 181.855 33.2278 181.975 33.4497C182.094 33.6715 182.256 33.8507 182.461 33.9873C182.666 34.1068 182.905 34.1921 183.178 34.2433C183.451 34.2945 183.732 34.3201 184.023 34.3201C184.739 34.3201 185.294 34.2006 185.687 33.9617C186.079 33.7227 186.369 33.4411 186.557 33.1168C186.745 32.7755 186.856 32.4341 186.89 32.0928C186.941 31.7514 186.967 31.4784 186.967 31.2735V29.9167ZM193.526 18.1145H197.162V36.3938H193.526V18.1145Z" fill="white"/>
<defs>
<linearGradient id="paint0_linear_968_1517" x1="22.3309" y1="27.6079" x2="268.475" y2="387.594" gradientUnits="userSpaceOnUse">
<stop offset="0.08" stop-color="#9C58F5"/>
<stop offset="0.54" stop-color="#605CFD"/>
<stop offset="0.86" stop-color="#6404E0" stop-opacity="0.305882"/>
</linearGradient>
</defs>
</svg>
