<svg width="190" height="168" viewBox="0 0 190 168" fill="none" xmlns="http://www.w3.org/2000/svg">
<path d="M111.209 167.955C154.448 167.955 189.5 147.366 189.5 121.969C189.5 96.5712 154.448 75.9825 111.209 75.9825C67.9708 75.9825 32.9189 96.5712 32.9189 121.969C32.9189 147.366 67.9708 167.955 111.209 167.955Z" fill="#F0EAEA"/>
<path d="M59.0322 131.541L100.126 155.266C100.596 155.505 101.116 155.629 101.643 155.629C102.171 155.629 102.691 155.505 103.161 155.266L172.725 115.104C173.563 114.621 173.563 113.836 172.725 113.352L131.631 89.6232C131.161 89.3846 130.641 89.2603 130.114 89.2603C129.587 89.2603 129.067 89.3846 128.597 89.6232L59.0322 129.788C58.1911 130.272 58.1911 131.057 59.0322 131.541Z" fill="#E0E0E0"/>
<path d="M162.744 106.596L159.881 104.941C159.881 104.941 158.174 97.8588 158.854 91.4876C159.811 82.5301 164.63 78.6296 167.949 79.9228C170.156 80.7919 170.84 83.3011 167.128 88.6385C164.942 91.796 162.254 98.3494 162.744 106.596Z" fill="#6404E0"/>
<g opacity="0.3">
<path d="M162.744 106.596L159.881 104.941C159.881 104.941 158.174 97.8588 158.854 91.4876C159.811 82.5301 164.63 78.6296 167.949 79.9228C170.156 80.7919 170.84 83.3011 167.128 88.6384C164.942 91.796 162.254 98.3494 162.744 106.596Z" fill="black"/>
</g>
<path d="M161.557 103.133H161.596C161.621 103.128 161.646 103.119 161.668 103.105C161.689 103.09 161.708 103.072 161.723 103.05C161.738 103.029 161.748 103.005 161.753 102.979C161.758 102.954 161.758 102.927 161.753 102.902C160.183 94.6416 163.071 85.3547 166.66 81.4927C166.694 81.4534 166.711 81.4024 166.708 81.3505C166.705 81.2986 166.682 81.2499 166.643 81.2148C166.605 81.1797 166.555 81.1609 166.503 81.1624C166.451 81.1639 166.401 81.1856 166.365 81.2229C162.728 85.1584 159.784 94.5925 161.378 102.975C161.386 103.018 161.408 103.056 161.44 103.085C161.473 103.114 161.514 103.131 161.557 103.133Z" fill="white"/>
<path d="M170.244 110.927C170.696 111.155 171.898 110.125 172.235 109.876C172.809 109.44 173.261 108.865 173.549 108.204C173.869 107.453 173.948 106.622 173.777 105.824C173.689 105.403 173.572 104.989 173.426 104.584L173.016 103.385C172.854 102.999 172.772 102.585 172.774 102.166C172.838 101.325 173.549 100.704 174.197 100.168C174.898 99.5725 175.648 98.798 175.599 97.7957C175.505 97.0191 175.156 96.2957 174.607 95.7385C174.099 95.1568 173.5 94.6486 173.034 94.0283C172.671 93.5979 172.465 93.0564 172.452 92.4934C172.481 92.1465 172.58 91.8091 172.743 91.5016C173.119 90.8604 173.442 90.1901 173.71 89.497C173.92 88.7961 173.84 87.9095 173.269 87.4364C172.796 87.0474 172.126 87.0229 171.516 87.0859C170.95 87.1846 170.412 87.4045 169.939 87.7308C168.39 88.698 167.577 90.6325 165.92 91.3965C165.26 91.6397 164.586 91.8422 163.901 92.0027C163.228 92.2165 162.552 92.5985 162.271 93.2398C161.711 94.512 162.941 95.9804 162.569 97.3191C162.243 98.5036 161.136 99.0047 160.554 100.088C160.316 100.563 160.238 101.103 160.333 101.626C160.433 102.513 160.694 103.374 161.104 104.167C161.565 104.982 162.077 105.767 162.636 106.518C162.636 106.518 170.174 110.892 170.244 110.927Z" fill="#6404E0"/>
<g opacity="0.15">
<path d="M170.244 110.927C170.696 111.155 171.898 110.125 172.235 109.876C172.809 109.44 173.261 108.865 173.549 108.204C173.869 107.453 173.948 106.622 173.777 105.824C173.689 105.403 173.572 104.989 173.426 104.584L173.016 103.385C172.854 102.999 172.772 102.585 172.774 102.166C172.838 101.325 173.549 100.704 174.197 100.168C174.898 99.5725 175.648 98.798 175.599 97.7957C175.505 97.0191 175.156 96.2957 174.607 95.7385C174.099 95.1568 173.5 94.6486 173.034 94.0283C172.671 93.5979 172.465 93.0564 172.452 92.4934C172.481 92.1465 172.58 91.8091 172.743 91.5016C173.119 90.8604 173.442 90.1901 173.71 89.497C173.92 88.7961 173.84 87.9095 173.269 87.4364C172.796 87.0474 172.126 87.0229 171.516 87.0859C170.95 87.1846 170.412 87.4045 169.939 87.7308C168.39 88.698 167.577 90.6325 165.92 91.3965C165.26 91.6397 164.586 91.8422 163.901 92.0027C163.228 92.2165 162.552 92.5985 162.271 93.2398C161.711 94.512 162.941 95.9804 162.569 97.3191C162.243 98.5036 161.136 99.0047 160.554 100.088C160.316 100.563 160.238 101.103 160.333 101.626C160.433 102.513 160.694 103.374 161.104 104.167C161.565 104.982 162.077 105.767 162.636 106.518C162.636 106.518 170.174 110.892 170.244 110.927Z" fill="black"/>
</g>
<path d="M165.861 108.642C165.887 108.64 165.912 108.633 165.936 108.62C165.959 108.608 165.98 108.592 165.997 108.571C166.014 108.551 166.027 108.528 166.035 108.503C166.042 108.478 166.045 108.451 166.043 108.425C165.317 100.568 168.591 91.6873 171.159 89.0239C171.181 89.0062 171.2 88.984 171.212 88.9588C171.225 88.9336 171.233 88.906 171.234 88.8777C171.235 88.8495 171.231 88.8213 171.22 88.7949C171.21 88.7686 171.194 88.7448 171.174 88.725C171.154 88.7053 171.129 88.69 171.103 88.6803C171.076 88.6706 171.048 88.6667 171.02 88.6688C170.992 88.6709 170.964 88.6789 170.939 88.6924C170.914 88.7059 170.893 88.7245 170.876 88.7471C168.251 91.463 164.918 100.494 165.647 108.46C165.651 108.512 165.676 108.561 165.716 108.595C165.756 108.629 165.808 108.646 165.861 108.642Z" fill="white"/>
<path d="M166.642 98.9522H166.701C168.54 98.3419 170.441 97.9364 172.368 97.7431C172.421 97.7378 172.469 97.712 172.502 97.6713C172.536 97.6306 172.552 97.5783 172.547 97.5258C172.546 97.4997 172.539 97.474 172.527 97.4506C172.516 97.4271 172.499 97.4063 172.479 97.3895C172.459 97.3727 172.436 97.3603 172.411 97.353C172.386 97.3457 172.359 97.3437 172.333 97.3471C170.372 97.5468 168.437 97.9593 166.565 98.5772C166.521 98.5944 166.485 98.6263 166.463 98.6674C166.44 98.7086 166.433 98.7562 166.442 98.8021C166.452 98.848 166.477 98.8893 166.513 98.9186C166.549 98.9479 166.595 98.9635 166.642 98.9627V98.9522Z" fill="white"/>
<path d="M60.4336 127.181C60.4766 127.763 60.6561 128.327 60.9575 128.827C61.2588 129.327 61.6736 129.748 62.1683 130.058L99.9153 151.846C100.453 152.116 101.046 152.257 101.648 152.257C102.25 152.257 102.844 152.116 103.381 151.846L169.83 113.482C170.354 113.206 170.793 112.792 171.099 112.285C171.405 111.778 171.566 111.197 171.566 110.605C171.566 110.013 171.405 109.432 171.099 108.925C170.793 108.417 170.354 108.004 169.83 107.728L132.09 85.9331C131.553 85.6601 130.959 85.5178 130.357 85.5178C129.755 85.5178 129.161 85.6601 128.624 85.9331L62.1683 124.3C61.6736 124.611 61.2588 125.033 60.9574 125.534C60.6561 126.034 60.4766 126.598 60.4336 127.181Z" fill="#37474F"/>
<path d="M62.1687 126.301L99.9157 148.096C100.453 148.369 101.046 148.511 101.649 148.511C102.251 148.511 102.845 148.369 103.382 148.096L169.831 109.729C170.791 109.175 170.791 108.278 169.831 107.728L132.091 85.9331C131.554 85.6601 130.96 85.5178 130.358 85.5178C129.755 85.5178 129.161 85.6601 128.625 85.9331L62.1687 124.3C61.212 124.861 61.212 125.751 62.1687 126.301Z" fill="#455A64"/>
<path d="M101.642 148.513V152.266C101.033 152.282 100.429 152.139 99.8902 151.853L62.1678 130.058C61.6594 129.791 61.231 129.394 60.9264 128.907C60.6219 128.42 60.452 127.861 60.4342 127.286C60.4164 126.712 60.5512 126.144 60.825 125.639C61.0988 125.134 61.5017 124.711 61.9926 124.412C61.2146 124.97 61.2917 125.786 62.1678 126.305L99.9148 148.099C100.447 148.38 101.041 148.523 101.642 148.513Z" fill="#263238"/>
<path d="M58.8075 124.363C57.9104 123.845 57.9595 122.962 57.9595 121.865V69.7352C57.9958 69.1323 58.1734 68.5465 58.4777 68.0248C58.7821 67.5031 59.2048 67.0602 59.7117 66.7319L126.15 28.3646C126.665 28.0915 127.238 27.9434 127.821 27.9325C128.404 27.9215 128.982 28.0479 129.507 28.3015C130.408 28.8202 130.359 29.7033 130.359 30.8037V82.9297C130.326 83.5314 130.152 84.1169 129.851 84.6387C129.549 85.1606 129.129 85.604 128.624 85.933L62.1684 124.3C61.6526 124.574 61.0794 124.723 60.4955 124.734C59.9116 124.745 59.3333 124.618 58.8075 124.363Z" fill="#37474F"/>
<path d="M130.359 30.8002C130.359 29.6963 129.581 29.2512 128.624 29.8014L62.168 68.1722C61.6545 68.4904 61.232 68.9358 60.9414 69.4654L58.4707 68.0285C58.7618 67.4984 59.1842 67.052 59.6973 66.7319L126.146 28.3646C126.662 28.0906 127.235 27.9421 127.819 27.9312C128.403 27.9202 128.981 28.0471 129.507 28.3015C130.404 28.8377 130.359 29.6963 130.359 30.8002Z" fill="#455A64"/>
<path d="M61.965 124.405C61.4682 124.63 60.9283 124.742 60.3833 124.735C59.8383 124.727 59.3016 124.601 58.811 124.363C57.9138 123.845 57.9594 122.962 57.9594 121.865V69.7352C57.979 69.1321 58.154 68.5442 58.4675 68.0285L60.9417 69.4619C60.6302 69.9784 60.4553 70.5658 60.4335 71.1686V123.302C60.4335 124.325 61.1029 124.787 61.965 124.405Z" fill="#263238"/>
<path d="M63.1178 70.1698L127.173 33.1868C127.748 32.8363 128.224 33.1237 128.224 33.786V79.3025C128.204 79.6644 128.098 80.0164 127.915 80.3295C127.732 80.6426 127.478 80.9079 127.173 81.1038L63.1178 118.076C62.543 118.406 62.0664 118.139 62.0664 117.474V71.9711C62.0875 71.6093 62.1937 71.2576 62.3764 70.9446C62.5591 70.6315 62.8131 70.3661 63.1178 70.1698Z" fill="#FAFAFA"/>
<path d="M66.9731 124.405L128.652 88.7892C128.92 88.6526 129.217 88.5814 129.518 88.5814C129.819 88.5814 130.115 88.6526 130.384 88.7892L131.41 89.3534C131.891 89.6303 131.891 90.0789 131.41 90.3557L69.7312 125.961C69.4601 126.101 69.1598 126.173 68.855 126.173C68.5503 126.173 68.25 126.101 67.9789 125.961L66.9626 125.404C66.486 125.127 66.486 124.679 66.9731 124.405Z" fill="#263238"/>
<path d="M71.8026 127.279L133.482 91.6664C133.721 91.5296 133.988 91.4504 134.263 91.4352C134.538 91.42 134.813 91.4691 135.066 91.5788L151.12 100.852C151.516 101.08 151.449 101.49 150.973 101.766L89.3671 137.33C89.1274 137.466 88.8594 137.546 88.584 137.562C88.3087 137.577 88.0333 137.529 87.7796 137.421L71.6589 128.194C71.2594 127.966 71.326 127.556 71.8026 127.279Z" fill="#263238"/>
<path d="M125.254 106.638L127.188 105.523C127.269 105.478 127.276 105.404 127.188 105.362L125.341 104.311C125.298 104.289 125.25 104.278 125.201 104.278C125.152 104.278 125.104 104.289 125.061 104.311L123.13 105.429C123.046 105.474 123.039 105.548 123.13 105.59L124.977 106.641C125.02 106.662 125.067 106.673 125.116 106.673C125.164 106.672 125.211 106.66 125.254 106.638ZM122.45 102.783L120.519 103.897C120.435 103.943 120.428 104.016 120.501 104.058L122.348 105.11C122.392 105.131 122.44 105.143 122.489 105.143C122.537 105.143 122.585 105.131 122.629 105.11L124.56 103.992C124.644 103.946 124.651 103.873 124.577 103.831L122.73 102.779C122.685 102.755 122.634 102.742 122.583 102.743C122.531 102.744 122.481 102.757 122.436 102.783H122.45ZM116.208 106.385L112.942 108.271C112.858 108.316 112.851 108.39 112.925 108.432L114.772 109.501C114.815 109.522 114.863 109.534 114.912 109.534C114.96 109.534 115.008 109.522 115.052 109.501L118.322 107.612C118.402 107.566 118.409 107.493 118.322 107.451L116.471 106.399C116.431 106.373 116.384 106.357 116.336 106.352C116.288 106.347 116.24 106.354 116.194 106.371L116.208 106.385ZM119.625 104.412L117.694 105.527C117.614 105.572 117.607 105.646 117.677 105.688L119.527 106.739C119.571 106.761 119.619 106.772 119.667 106.772C119.716 106.772 119.764 106.761 119.808 106.739L121.739 105.621C121.819 105.576 121.826 105.502 121.739 105.46L119.888 104.409C119.846 104.385 119.799 104.372 119.751 104.37C119.703 104.368 119.655 104.378 119.611 104.398L119.625 104.412ZM112.049 108.786L110.118 109.9C110.037 109.949 110.03 110.02 110.1 110.062L111.95 111.113C111.994 111.134 112.042 111.145 112.091 111.145C112.139 111.145 112.187 111.134 112.231 111.113L114.162 109.998C114.242 109.949 114.249 109.879 114.179 109.834L112.329 108.782C112.285 108.756 112.235 108.741 112.183 108.739C112.132 108.737 112.081 108.749 112.035 108.772L112.049 108.786ZM109.227 110.416L107.275 111.516C107.191 111.565 107.184 111.635 107.275 111.677L109.122 112.746C109.166 112.768 109.214 112.779 109.263 112.779C109.311 112.779 109.359 112.768 109.403 112.746L111.334 111.632C111.418 111.583 111.425 111.512 111.351 111.467L109.504 110.416C109.461 110.389 109.411 110.374 109.361 110.372C109.31 110.369 109.259 110.379 109.213 110.401L109.227 110.416ZM116.468 114.768L118.402 113.654C118.483 113.605 118.49 113.535 118.402 113.492L116.555 112.441C116.512 112.419 116.464 112.407 116.415 112.407C116.366 112.407 116.318 112.419 116.275 112.441L114.344 113.556C114.26 113.605 114.253 113.675 114.327 113.717L116.173 114.786C116.219 114.802 116.269 114.808 116.317 114.803C116.366 114.797 116.413 114.781 116.454 114.754L116.468 114.768ZM113.647 116.398L115.578 115.283C115.658 115.234 115.669 115.164 115.595 115.122L113.748 114.053C113.704 114.031 113.656 114.019 113.606 114.019C113.557 114.019 113.508 114.031 113.464 114.053L111.533 115.168C111.453 115.217 111.446 115.287 111.533 115.329L113.38 116.38C113.42 116.398 113.463 116.408 113.506 116.408C113.55 116.409 113.593 116.4 113.633 116.384L113.647 116.398ZM110.822 118.027L112.757 116.913C112.837 116.864 112.844 116.794 112.757 116.752L110.91 115.683C110.866 115.66 110.818 115.649 110.769 115.649C110.721 115.649 110.673 115.66 110.629 115.683L108.698 116.801C108.614 116.85 108.607 116.92 108.681 116.962L110.528 118.031C110.572 118.051 110.621 118.059 110.67 118.056C110.719 118.053 110.766 118.038 110.808 118.013L110.822 118.027ZM107.976 119.643L109.907 118.528C109.991 118.479 109.998 118.409 109.907 118.367L108.06 117.298C108.017 117.276 107.969 117.264 107.92 117.264C107.872 117.264 107.823 117.276 107.78 117.298L105.874 118.423C105.793 118.472 105.786 118.542 105.874 118.585L107.721 119.653C107.761 119.67 107.805 119.678 107.85 119.676C107.894 119.674 107.937 119.663 107.976 119.643ZM122.422 108.253L124.353 107.139C124.434 107.093 124.444 107.02 124.37 106.978L122.524 105.926C122.48 105.905 122.432 105.893 122.383 105.893C122.335 105.893 122.287 105.905 122.243 105.926L120.309 107.044C120.228 107.09 120.221 107.163 120.309 107.205L122.156 108.257C122.199 108.278 122.246 108.289 122.294 108.288C122.343 108.288 122.39 108.276 122.432 108.253H122.422ZM119.268 113.125L123.575 110.636C123.659 110.591 123.666 110.517 123.575 110.475L119.089 107.885C119.045 107.864 118.996 107.852 118.947 107.852C118.898 107.852 118.849 107.864 118.805 107.885L116.58 109.171C116.496 109.22 116.489 109.294 116.562 109.336L118.938 110.706C119.012 110.748 119.002 110.822 118.921 110.868L117.165 111.894C117.085 111.943 117.078 112.014 117.165 112.056L119.012 113.125C119.054 113.144 119.099 113.154 119.145 113.154C119.191 113.154 119.237 113.144 119.278 113.125H119.268ZM106.378 112.031L104.472 113.146C104.391 113.195 104.384 113.265 104.472 113.307L106.319 114.376C106.362 114.397 106.41 114.408 106.459 114.408C106.508 114.408 106.556 114.397 106.599 114.376L108.53 113.261C108.611 113.212 108.618 113.142 108.548 113.1L106.697 112.031C106.65 112.004 106.597 111.989 106.543 111.989C106.489 111.989 106.436 112.004 106.389 112.031H106.378ZM103.568 113.647L101.637 114.761C101.553 114.81 101.546 114.88 101.637 114.922L103.484 115.991C103.527 116.014 103.575 116.025 103.624 116.025C103.673 116.025 103.721 116.014 103.764 115.991L105.695 114.877C105.779 114.828 105.786 114.758 105.712 114.716L103.848 113.647C103.805 113.624 103.757 113.613 103.708 113.613C103.659 113.613 103.611 113.624 103.568 113.647ZM87.9482 131.047C87.9915 131.069 88.0396 131.081 88.0883 131.081C88.1371 131.081 88.1852 131.069 88.2285 131.047L90.1595 129.932C90.2401 129.887 90.2471 129.813 90.177 129.771L88.3266 128.72C88.2833 128.697 88.2353 128.685 88.1865 128.685C88.1377 128.685 88.0896 128.697 88.0463 128.72L86.1153 129.834C86.0347 129.883 86.0277 129.957 86.0978 129.999L87.9482 131.047ZM80.9917 126.697L79.0608 127.812C78.9801 127.861 78.9696 127.935 79.0432 127.977L80.8936 129.028C80.9369 129.05 80.985 129.062 81.0338 129.062C81.0826 129.062 81.1306 129.05 81.174 129.028L83.1049 127.913C83.1855 127.868 83.1926 127.794 83.1049 127.752L81.2581 126.701C81.2168 126.68 81.1714 126.669 81.1253 126.669C81.0792 126.668 81.0335 126.678 80.9917 126.697ZM84.5698 129.967C84.6141 129.989 84.6626 130 84.7118 130C84.7609 130 84.8094 129.989 84.8537 129.967L86.7847 128.853C86.8653 128.804 86.8723 128.73 86.7847 128.688L84.9378 127.637C84.8945 127.614 84.8464 127.603 84.7976 127.603C84.7488 127.603 84.7008 127.614 84.6574 127.637L82.744 128.737C82.6634 128.783 82.6529 128.856 82.7265 128.898L84.5698 129.967ZM92.3603 131.719L94.2913 130.605C94.3719 130.559 94.3789 130.486 94.2913 130.444L92.4409 129.392C92.3974 129.371 92.3494 129.36 92.3008 129.36C92.2521 129.36 92.2041 129.371 92.1606 129.392L90.2296 130.51C90.149 130.556 90.142 130.629 90.2296 130.672L92.0765 131.723C92.1199 131.744 92.1676 131.754 92.2157 131.753C92.2639 131.751 92.311 131.739 92.3533 131.716L92.3603 131.719ZM89.2553 133.359C89.2987 133.382 89.3467 133.394 89.3955 133.394C89.4443 133.394 89.4924 133.382 89.5357 133.359L91.4667 132.245C91.5508 132.2 91.5578 132.126 91.4667 132.084L89.6198 131.032C89.5762 131.011 89.5283 131 89.4796 131C89.431 131 89.383 131.011 89.3395 131.032L87.4085 132.15C87.3244 132.196 87.3174 132.27 87.3909 132.312L89.2553 133.359ZM83.7953 125.068L81.8608 126.182C81.7802 126.231 81.7732 126.305 81.8608 126.347L83.7077 127.398C83.751 127.421 83.7991 127.432 83.8479 127.432C83.8967 127.432 83.9448 127.421 83.9881 127.398L85.9191 126.284C86.0032 126.238 86.0102 126.165 85.9366 126.123L84.0897 125.054C84.0432 125.032 83.9921 125.022 83.9408 125.024C83.8895 125.027 83.8395 125.042 83.7953 125.068ZM97.908 116.92L95.977 118.034C95.8929 118.083 95.8859 118.153 95.9595 118.196L97.8063 119.247C97.8496 119.269 97.8977 119.281 97.9465 119.281C97.9953 119.281 98.0434 119.269 98.0867 119.247L100.021 118.132C100.102 118.083 100.109 118.013 100.021 117.971L98.1743 116.902C98.1334 116.887 98.0898 116.881 98.0462 116.884C98.0027 116.887 97.9603 116.899 97.922 116.92H97.908ZM86.6165 123.438L84.6855 124.553C84.6049 124.602 84.5944 124.675 84.668 124.717L86.5148 125.769C86.5588 125.791 86.6074 125.803 86.6568 125.803C86.7061 125.803 86.7547 125.791 86.7987 125.769L88.7297 124.654C88.8103 124.605 88.8173 124.535 88.7297 124.493L86.8828 123.442C86.8432 123.424 86.8004 123.414 86.757 123.414C86.7136 123.413 86.6705 123.421 86.6305 123.438H86.6165ZM100.729 115.29L98.7981 116.405C98.7175 116.454 98.7105 116.524 98.7981 116.566L100.645 117.635C100.688 117.657 100.736 117.669 100.785 117.669C100.834 117.669 100.882 117.657 100.925 117.635L102.856 116.52C102.937 116.471 102.944 116.401 102.874 116.359L101.023 115.308C100.982 115.283 100.934 115.268 100.885 115.265C100.837 115.262 100.788 115.271 100.743 115.29H100.729ZM95.0973 118.553L93.1664 119.667C93.0858 119.716 93.0788 119.787 93.1664 119.829L95.0132 120.897C95.0566 120.92 95.1046 120.932 95.1534 120.932C95.2022 120.932 95.2503 120.92 95.2936 120.897L97.2246 119.783C97.3052 119.734 97.3157 119.664 97.2421 119.622L95.3812 118.553C95.3373 118.531 95.2886 118.519 95.2393 118.519C95.1899 118.519 95.1413 118.531 95.0973 118.553ZM92.2762 120.183L90.3452 121.297C90.2611 121.346 90.2541 121.416 90.3277 121.458L92.1746 122.527C92.2179 122.55 92.266 122.561 92.3148 122.561C92.3636 122.561 92.4116 122.55 92.455 122.527L94.3894 121.413C94.47 121.364 94.477 121.293 94.3894 121.251L92.5566 120.169C92.5122 120.149 92.4638 120.139 92.4152 120.141C92.3665 120.143 92.319 120.156 92.2762 120.179V120.183ZM89.4726 121.812L87.5381 122.927C87.4575 122.976 87.4505 123.049 87.5381 123.091L89.385 124.143C89.4283 124.165 89.4764 124.177 89.5252 124.177C89.574 124.177 89.622 124.165 89.6654 124.143L91.5963 123.028C91.6805 122.979 91.6875 122.909 91.6139 122.867L89.753 121.798C89.7063 121.775 89.6547 121.764 89.6027 121.766C89.5507 121.768 89.5 121.782 89.4551 121.809L89.4726 121.812ZM102.359 122.906L104.29 121.791C104.374 121.742 104.381 121.672 104.29 121.63L102.443 120.579C102.399 120.557 102.351 120.546 102.303 120.546C102.254 120.546 102.206 120.557 102.162 120.579L100.228 121.693C100.147 121.742 100.14 121.812 100.228 121.854L102.075 122.923C102.118 122.94 102.164 122.947 102.21 122.943C102.257 122.94 102.301 122.926 102.341 122.902L102.359 122.906ZM128.691 99.1696L126.761 100.284C126.68 100.33 126.673 100.403 126.743 100.445L128.593 101.497C128.637 101.518 128.685 101.529 128.734 101.529C128.782 101.529 128.83 101.518 128.874 101.497L130.805 100.379C130.885 100.333 130.892 100.259 130.822 100.217L128.972 99.1661C128.926 99.1406 128.875 99.1272 128.823 99.1272C128.771 99.1272 128.719 99.1406 128.674 99.1661L128.691 99.1696ZM125.275 101.139L123.344 102.257C123.263 102.303 123.256 102.376 123.326 102.418L125.176 103.47C125.22 103.491 125.268 103.502 125.317 103.502C125.365 103.502 125.413 103.491 125.457 103.47L127.388 102.352C127.468 102.306 127.475 102.233 127.405 102.19L125.555 101.139C125.509 101.114 125.458 101.101 125.406 101.1C125.355 101.099 125.303 101.112 125.257 101.136L125.275 101.139ZM131.499 97.526L129.568 98.6404C129.484 98.6859 129.477 98.7595 129.55 98.8016L131.397 99.853C131.441 99.8746 131.489 99.8858 131.537 99.8858C131.586 99.8858 131.634 99.8746 131.677 99.853L133.608 98.735C133.692 98.6895 133.699 98.6159 133.626 98.5738L131.779 97.5225C131.735 97.5006 131.687 97.4895 131.638 97.4901C131.59 97.4907 131.542 97.503 131.499 97.526ZM115.897 112.028L117.828 110.913C117.908 110.868 117.915 110.794 117.845 110.752L115.995 109.701C115.951 109.679 115.903 109.668 115.855 109.668C115.806 109.668 115.758 109.679 115.714 109.701L113.783 110.819C113.703 110.864 113.696 110.938 113.766 110.98L115.616 112.031C115.66 112.053 115.708 112.064 115.757 112.063C115.806 112.063 115.854 112.051 115.897 112.028ZM134.6 95.9069C134.557 95.8853 134.509 95.874 134.46 95.874C134.411 95.874 134.363 95.8853 134.32 95.9069L132.389 97.0248C132.308 97.0704 132.301 97.144 132.371 97.186L134.222 98.2374C134.265 98.259 134.313 98.2702 134.362 98.2702C134.41 98.2702 134.458 98.259 134.502 98.2374L136.433 97.1194C136.514 97.0739 136.521 97.0003 136.45 96.9582L134.6 95.9069ZM105.162 121.283L107.093 120.169C107.174 120.119 107.181 120.049 107.093 120.007L105.246 118.938C105.203 118.916 105.155 118.904 105.106 118.904C105.057 118.904 105.009 118.916 104.966 118.938L103.07 120.053C102.989 120.102 102.979 120.172 103.07 120.214L104.917 121.283C104.958 121.299 105.002 121.307 105.046 121.305C105.09 121.303 105.133 121.292 105.173 121.272L105.162 121.283ZM139.776 101.307L141.707 100.193C141.791 100.147 141.798 100.074 141.725 100.032L139.867 98.9278C139.824 98.9061 139.776 98.8949 139.727 98.8949C139.679 98.8949 139.631 98.9061 139.587 98.9278L137.656 100.042C137.572 100.091 137.565 100.165 137.638 100.207L139.485 101.258C139.528 101.288 139.577 101.305 139.629 101.31C139.68 101.315 139.732 101.307 139.78 101.286L139.776 101.307ZM134.313 101.412L136.247 100.298C136.328 100.252 136.335 100.179 136.247 100.137L134.4 99.0855C134.357 99.0639 134.309 99.0526 134.26 99.0526C134.212 99.0526 134.164 99.0639 134.12 99.0855L132.189 100.203C132.105 100.249 132.098 100.323 132.171 100.365L134.018 101.416C134.067 101.436 134.12 101.444 134.172 101.438C134.224 101.431 134.274 101.412 134.316 101.381L134.313 101.412ZM137.235 97.4419C137.192 97.4202 137.144 97.409 137.095 97.409C137.047 97.409 136.999 97.4202 136.955 97.4419L135.024 98.5598C134.944 98.6054 134.937 98.6789 135.024 98.721L136.871 99.7723C136.914 99.7948 136.962 99.8065 137.011 99.8065C137.06 99.8065 137.108 99.7948 137.151 99.7723L139.082 98.6579C139.163 98.6124 139.173 98.5388 139.082 98.4967L137.235 97.4419ZM137.831 97.0914L142.317 99.6812C142.361 99.7037 142.41 99.7154 142.459 99.7154C142.508 99.7154 142.557 99.7037 142.601 99.6812L144.532 98.5668C144.612 98.5212 144.619 98.4476 144.532 98.4056L140.046 95.8158C140.003 95.7941 139.955 95.7829 139.906 95.7829C139.857 95.7829 139.809 95.7941 139.766 95.8158L137.835 96.9302C137.765 96.9617 137.765 97.0353 137.835 97.0774L137.831 97.0914ZM131.313 100.68L129.382 101.798C129.301 101.844 129.294 101.917 129.382 101.959L131.229 103.011C131.272 103.033 131.32 103.045 131.369 103.045C131.418 103.045 131.466 103.033 131.509 103.011L133.44 101.896C133.521 101.851 133.531 101.777 133.458 101.735L131.611 100.684C131.565 100.659 131.514 100.646 131.462 100.645C131.41 100.645 131.359 100.657 131.313 100.68ZM110.079 112.946L108.148 114.064C108.068 114.109 108.06 114.183 108.148 114.225L109.998 115.276C110.042 115.299 110.09 115.31 110.139 115.31C110.187 115.31 110.236 115.299 110.279 115.276L112.182 114.172C112.262 114.127 112.269 114.053 112.199 114.011L110.349 112.96C110.308 112.938 110.262 112.925 110.216 112.922C110.169 112.92 110.122 112.928 110.079 112.946ZM136.689 102.919C136.732 102.942 136.78 102.954 136.829 102.954C136.878 102.954 136.926 102.942 136.969 102.919L138.9 101.805C138.981 101.759 138.988 101.686 138.9 101.644L137.064 100.571C137.02 100.55 136.972 100.539 136.924 100.539C136.875 100.539 136.827 100.55 136.783 100.571L134.852 101.686C134.772 101.735 134.765 101.808 134.835 101.851L136.689 102.919ZM112.904 111.33L110.973 112.448C110.889 112.494 110.882 112.567 110.973 112.609L112.82 113.661C112.863 113.683 112.911 113.695 112.96 113.695C113.009 113.695 113.057 113.683 113.1 113.661L115.031 112.546C115.115 112.501 115.122 112.427 115.048 112.385L113.202 111.334C113.154 111.304 113.1 111.287 113.044 111.285C112.988 111.283 112.932 111.296 112.883 111.323L112.904 111.33ZM90.7693 129.417C90.8126 129.439 90.8607 129.451 90.9095 129.451C90.9583 129.451 91.0063 129.439 91.0496 129.417L92.9806 128.302C93.0647 128.257 93.0717 128.183 92.9806 128.141L91.1548 127.076C91.1112 127.054 91.0632 127.043 91.0146 127.043C90.966 127.043 90.918 127.054 90.8744 127.076L88.9434 128.19C88.8593 128.239 88.8523 128.313 88.9259 128.355L90.7693 129.417ZM87.4891 125.979L85.5476 127.107C85.467 127.153 85.46 127.227 85.5476 127.269L87.3945 128.32C87.4378 128.342 87.4858 128.354 87.5346 128.354C87.5834 128.354 87.6315 128.342 87.6748 128.32L89.6058 127.206C89.6899 127.157 89.6969 127.083 89.6233 127.041L87.7764 125.99C87.7319 125.966 87.6824 125.955 87.6323 125.955C87.5822 125.956 87.533 125.969 87.4891 125.993V125.979ZM93.8743 127.777L95.8053 126.662C95.8859 126.617 95.8929 126.543 95.8053 126.501L93.9584 125.446C93.9148 125.425 93.8668 125.413 93.8182 125.413C93.7696 125.413 93.7216 125.425 93.678 125.446L91.747 126.561C91.6664 126.61 91.6594 126.683 91.747 126.725L93.5974 127.777C93.6392 127.801 93.686 127.815 93.7342 127.817C93.7823 127.82 93.8303 127.811 93.8743 127.791V127.777ZM96.6954 126.147L98.6264 125.033C98.7105 124.984 98.7175 124.914 98.6439 124.872L96.797 123.81C96.7535 123.788 96.7055 123.777 96.6568 123.777C96.6082 123.777 96.5602 123.788 96.5167 123.81L94.5857 124.924C94.5016 124.973 94.4946 125.047 94.5857 125.089L96.4326 126.14C96.472 126.163 96.5161 126.177 96.5616 126.181C96.6071 126.184 96.6528 126.178 96.6954 126.161V126.147ZM99.52 124.518L101.451 123.403C101.532 123.354 101.539 123.284 101.451 123.242L99.6041 122.173C99.5606 122.151 99.5126 122.14 99.464 122.14C99.4153 122.14 99.3673 122.151 99.3238 122.173L97.3928 123.288C97.3122 123.337 97.3017 123.41 97.3753 123.449L99.2256 124.5C99.268 124.53 99.3172 124.548 99.3688 124.554C99.4203 124.56 99.4723 124.552 99.52 124.532V124.518ZM90.3102 124.349L88.3792 125.464C88.2986 125.509 88.2881 125.583 88.3617 125.625L90.2086 126.676C90.2527 126.698 90.3013 126.709 90.3505 126.709C90.3997 126.709 90.4483 126.698 90.4924 126.676L92.4234 125.562C92.504 125.513 92.511 125.439 92.4234 125.397L90.5765 124.346C90.5337 124.328 90.4875 124.321 90.4413 124.324C90.3952 124.327 90.3504 124.34 90.3102 124.363V124.349ZM93.1348 122.72L91.2003 123.834C91.1197 123.88 91.1127 123.953 91.2003 123.995L93.0472 125.047C93.0908 125.068 93.1388 125.08 93.1874 125.08C93.236 125.08 93.284 125.068 93.3276 125.047L95.2586 123.929C95.3392 123.883 95.3497 123.81 95.2761 123.768L93.4292 122.716C93.3827 122.694 93.3312 122.684 93.2798 122.687C93.2283 122.69 93.1784 122.706 93.1348 122.734V122.72ZM104.423 116.201L102.492 117.316C102.411 117.361 102.404 117.435 102.492 117.477L104.339 118.528C104.382 118.55 104.43 118.561 104.479 118.561C104.528 118.561 104.576 118.55 104.619 118.528L106.55 117.41C106.631 117.365 106.638 117.291 106.568 117.249L104.717 116.198C104.671 116.176 104.619 116.166 104.568 116.169C104.516 116.172 104.466 116.188 104.423 116.215V116.201ZM101.602 117.852L99.6707 118.966C99.5866 119.012 99.5796 119.086 99.6532 119.128L101.5 120.179C101.544 120.201 101.592 120.212 101.64 120.212C101.689 120.212 101.737 120.201 101.78 120.179L103.711 119.061C103.796 119.016 103.803 118.942 103.711 118.9L101.865 117.849C101.823 117.83 101.778 117.82 101.733 117.821C101.687 117.821 101.642 117.832 101.602 117.852ZM107.247 114.589L105.316 115.707C105.232 115.753 105.225 115.826 105.316 115.869L107.163 116.92C107.207 116.941 107.255 116.953 107.304 116.953C107.352 116.953 107.4 116.941 107.444 116.92L109.375 115.802C109.459 115.756 109.466 115.683 109.392 115.641L107.545 114.589C107.5 114.564 107.449 114.55 107.397 114.548C107.345 114.547 107.294 114.559 107.247 114.582V114.589ZM95.9559 121.104L94.025 122.219C93.9409 122.264 93.9339 122.338 94.0074 122.38L95.8543 123.431C95.8979 123.453 95.9459 123.464 95.9945 123.464C96.0431 123.464 96.0911 123.453 96.1347 123.431L98.0692 122.313C98.1498 122.268 98.1568 122.194 98.0692 122.152L96.2223 121.101C96.1805 121.081 96.1349 121.071 96.0887 121.072C96.0426 121.072 95.9972 121.084 95.9559 121.104ZM98.7771 119.475L96.8461 120.589C96.7655 120.635 96.7585 120.708 96.8461 120.75L98.693 121.802C98.7365 121.823 98.7845 121.835 98.8331 121.835C98.8818 121.835 98.9298 121.823 98.9733 121.802L100.904 120.684C100.985 120.638 100.995 120.565 100.922 120.522L99.0714 119.471C99.0261 119.447 98.9753 119.434 98.9238 119.435C98.8723 119.436 98.8219 119.449 98.7771 119.475ZM95.1744 130.086L97.1054 128.972C97.1895 128.926 97.1965 128.853 97.1229 128.811L95.2761 127.759C95.2325 127.738 95.1845 127.726 95.1359 127.726C95.0873 127.726 95.0393 127.738 94.9957 127.759L93.0647 128.874C92.9806 128.923 92.9736 128.996 93.0647 129.038L94.9116 130.09C94.9529 130.109 94.9979 130.118 95.0434 130.118C95.0889 130.117 95.1337 130.106 95.1744 130.086ZM80.2908 129.385L78.444 128.334C78.4006 128.312 78.3526 128.3 78.3038 128.3C78.255 128.3 78.2069 128.312 78.1636 128.334L76.2326 129.448C76.1485 129.498 76.1415 129.571 76.2326 129.613L78.0795 130.665C78.1228 130.687 78.1709 130.699 78.2197 130.699C78.2685 130.699 78.3165 130.687 78.3599 130.665L80.2908 129.55C80.3574 129.501 80.3644 129.417 80.2908 129.385ZM83.9706 130.307L82.1237 129.256C82.0804 129.233 82.0323 129.222 81.9835 129.222C81.9347 129.222 81.8866 129.233 81.8433 129.256L78.889 130.966C78.8049 131.015 78.7979 131.089 78.889 131.131L80.7359 132.182C80.7792 132.204 80.8273 132.216 80.8761 132.216C80.9249 132.216 80.9729 132.204 81.0163 132.182L83.9881 130.468C84.0371 130.423 84.0441 130.349 83.9706 130.307ZM77.5328 127.279L75.6859 126.228C75.6426 126.205 75.5945 126.194 75.5457 126.194C75.497 126.194 75.4489 126.205 75.4056 126.228L73.026 127.602C72.9454 127.647 72.9384 127.721 73.026 127.763L74.8729 128.814C74.9164 128.836 74.9644 128.847 75.0131 128.847C75.0617 128.847 75.1097 128.836 75.1532 128.814L77.5293 127.44C77.5994 127.391 77.6064 127.314 77.5328 127.279ZM79.3551 126.228C79.3985 126.25 79.4465 126.262 79.4953 126.262C79.5441 126.262 79.5922 126.25 79.6355 126.228L81.5665 125.113C81.6506 125.064 81.6576 124.991 81.584 124.949L79.7371 123.897C79.6938 123.875 79.6457 123.863 79.5969 123.863C79.5482 123.863 79.5001 123.875 79.4568 123.897L77.5258 125.012C77.4417 125.057 77.4347 125.131 77.5083 125.173L79.3551 126.228ZM87.3524 131.407L85.5055 130.356C85.462 130.335 85.414 130.323 85.3653 130.323C85.3167 130.323 85.2687 130.335 85.2252 130.356L81.5104 132.501C81.4298 132.55 81.4193 132.62 81.5104 132.662L83.3573 133.713C83.4012 133.736 83.4499 133.748 83.4992 133.748C83.5485 133.748 83.5972 133.736 83.6411 133.713L87.3524 131.569C87.419 131.52 87.426 131.446 87.3524 131.404V131.407ZM88.6561 133.703L86.8057 132.652C86.7621 132.63 86.7142 132.619 86.6655 132.619C86.6169 132.619 86.5689 132.63 86.5253 132.652L84.1458 134.015C84.0652 134.064 84.0582 134.134 84.1458 134.176L85.9962 135.245C86.0398 135.266 86.0877 135.277 86.1363 135.277C86.1849 135.277 86.2329 135.266 86.2765 135.245L88.6526 133.871C88.7192 133.815 88.7297 133.741 88.6561 133.699V133.703ZM100.344 114.113C100.387 114.135 100.435 114.147 100.484 114.147C100.533 114.147 100.581 114.135 100.624 114.113L102.555 112.998C102.636 112.949 102.643 112.879 102.572 112.837L100.722 111.786C100.678 111.764 100.63 111.753 100.582 111.753C100.533 111.753 100.485 111.764 100.442 111.786L98.5142 112.879C98.4336 112.928 98.4266 112.998 98.4967 113.04L100.344 114.113ZM94.6978 117.372C94.7412 117.394 94.7892 117.406 94.838 117.406C94.8868 117.406 94.9349 117.394 94.9782 117.372L96.9092 116.258C96.9898 116.212 97.0003 116.138 96.9267 116.096L95.0763 115.027C95.0327 115.006 94.9847 114.995 94.9361 114.995C94.8875 114.995 94.8396 115.006 94.796 115.027L92.865 116.142C92.7844 116.191 92.7774 116.265 92.865 116.307L94.6978 117.372ZM82.1763 124.598C82.2204 124.62 82.269 124.631 82.3182 124.631C82.3674 124.631 82.4159 124.62 82.4601 124.598L84.3911 123.459C84.4717 123.41 84.4787 123.337 84.3911 123.295L82.5442 122.243C82.5009 122.221 82.4528 122.209 82.404 122.209C82.3553 122.209 82.3072 122.221 82.2639 122.243L80.3329 123.358C80.2523 123.403 80.2418 123.477 80.3329 123.519L82.1763 124.598ZM97.519 115.749C97.5623 115.772 97.6104 115.784 97.6591 115.784C97.7079 115.784 97.756 115.772 97.7993 115.749L99.7303 114.635C99.8144 114.589 99.8214 114.516 99.7478 114.474L97.9009 113.405C97.8574 113.383 97.8094 113.372 97.7608 113.372C97.7121 113.372 97.6642 113.383 97.6206 113.405L95.6896 114.519C95.6055 114.568 95.5985 114.642 95.6721 114.684L97.519 115.749ZM91.8732 119.009C91.9165 119.031 91.9646 119.043 92.0134 119.043C92.0622 119.043 92.1102 119.031 92.1536 119.009L94.0845 117.894C94.1687 117.849 94.1757 117.775 94.0845 117.733L92.2377 116.664C92.1941 116.642 92.1461 116.631 92.0975 116.631C92.0489 116.631 92.0009 116.642 91.9573 116.664L90.0263 117.778C89.9422 117.828 89.9352 117.901 90.0088 117.943L91.8732 119.009ZM90.0404 133.826C89.9968 133.804 89.9488 133.793 89.9002 133.793C89.8515 133.793 89.8036 133.804 89.76 133.826L86.7882 135.543C86.7076 135.588 86.7006 135.662 86.7882 135.704L88.635 136.755C88.6784 136.778 88.7264 136.789 88.7752 136.789C88.824 136.789 88.8721 136.778 88.9154 136.755L91.8872 135.038C91.9678 134.993 91.9748 134.919 91.8872 134.877L90.0404 133.826ZM87.822 121.346C87.8656 121.368 87.9135 121.379 87.9622 121.379C88.0108 121.379 88.0588 121.368 88.1024 121.346L90.0368 120.228C90.1174 120.183 90.1245 120.109 90.0368 120.067L88.19 119.016C88.1466 118.993 88.0986 118.981 88.0498 118.981C88.001 118.981 87.9529 118.993 87.9096 119.016L85.9786 120.13C85.8945 120.176 85.8875 120.249 85.9611 120.291L87.822 121.346ZM85.0009 122.976C85.0444 122.997 85.0924 123.009 85.1411 123.009C85.1897 123.009 85.2377 122.997 85.2812 122.976L87.2122 121.858C87.2963 121.812 87.3033 121.739 87.2297 121.697L85.3829 120.645C85.3395 120.623 85.2915 120.611 85.2427 120.611C85.1939 120.611 85.1458 120.623 85.1025 120.645L83.168 121.76C83.0874 121.805 83.0804 121.879 83.168 121.921L85.0009 122.976ZM142.338 103.631C142.295 103.608 142.247 103.597 142.198 103.597C142.149 103.597 142.101 103.608 142.058 103.631L137.302 106.375C137.221 106.424 137.211 106.494 137.285 106.536L139.135 107.605C139.178 107.627 139.226 107.639 139.275 107.639C139.324 107.639 139.372 107.627 139.415 107.605L144.167 104.861C144.251 104.812 144.258 104.742 144.185 104.7L142.338 103.631ZM136.097 107.233C136.053 107.211 136.005 107.199 135.956 107.199C135.908 107.199 135.859 107.211 135.816 107.233L133.885 108.348C133.805 108.397 133.794 108.467 133.868 108.509L135.715 109.578C135.758 109.6 135.807 109.612 135.856 109.612C135.906 109.612 135.954 109.6 135.998 109.578L137.929 108.464C138.01 108.414 138.017 108.344 137.929 108.302L136.097 107.233ZM97.9991 128.457L99.9301 127.342C100.011 127.297 100.018 127.223 99.9476 127.181L98.0972 126.13C98.0536 126.108 98.0057 126.097 97.957 126.097C97.9084 126.097 97.8604 126.108 97.8168 126.13L95.8859 127.244C95.8053 127.293 95.7982 127.367 95.8859 127.409L97.7327 128.46C97.7745 128.48 97.8202 128.49 97.8663 128.489C97.9124 128.488 97.9578 128.477 97.9991 128.457ZM130.451 110.493C130.407 110.471 130.359 110.46 130.311 110.46C130.262 110.46 130.214 110.471 130.17 110.493L128.239 111.607C128.159 111.656 128.148 111.726 128.222 111.768L130.072 112.837C130.116 112.86 130.164 112.871 130.212 112.871C130.261 112.871 130.309 112.86 130.353 112.837L132.284 111.723C132.364 111.674 132.371 111.604 132.284 111.561L130.451 110.493ZM145.17 102.001C145.126 101.979 145.078 101.967 145.029 101.967C144.981 101.967 144.933 101.979 144.889 102.001L142.948 103.133C142.867 103.182 142.857 103.252 142.93 103.294L144.777 104.346C144.821 104.367 144.869 104.379 144.917 104.379C144.966 104.379 145.014 104.367 145.058 104.346L146.992 103.231C147.073 103.182 147.08 103.112 146.992 103.07L145.17 102.001ZM149.841 101.44L145.352 98.8472C145.309 98.8247 145.261 98.813 145.212 98.813C145.163 98.813 145.115 98.8247 145.072 98.8472L143.13 99.9791C143.049 100.028 143.042 100.098 143.113 100.14L147.602 102.734C147.645 102.755 147.693 102.767 147.742 102.767C147.791 102.767 147.839 102.755 147.882 102.734L149.813 101.619C149.894 101.542 149.904 101.472 149.831 101.43L149.841 101.44ZM119.892 116.573C119.848 116.55 119.8 116.539 119.752 116.539C119.703 116.539 119.655 116.55 119.611 116.573L117.235 117.943C117.155 117.992 117.144 118.066 117.218 118.108L119.065 119.159C119.109 119.182 119.157 119.193 119.207 119.193C119.256 119.193 119.305 119.182 119.349 119.159L121.725 117.789C121.805 117.74 121.812 117.666 121.742 117.624L119.892 116.573ZM127.023 112.455C126.98 112.433 126.932 112.421 126.883 112.421C126.834 112.421 126.786 112.433 126.743 112.455L123.771 114.169C123.691 114.218 123.684 114.291 123.754 114.334L125.604 115.385C125.647 115.407 125.695 115.419 125.744 115.419C125.793 115.419 125.841 115.407 125.884 115.385L128.856 113.671C128.937 113.622 128.944 113.552 128.856 113.51L127.023 112.455ZM113.356 120.347C113.312 120.325 113.264 120.313 113.216 120.313C113.167 120.313 113.119 120.325 113.075 120.347L97.179 129.526C97.0984 129.571 97.0879 129.645 97.1615 129.687L99.0084 130.738C99.0517 130.761 99.0998 130.772 99.1485 130.772C99.1973 130.772 99.2454 130.761 99.2887 130.738L115.189 121.563C115.269 121.514 115.276 121.441 115.189 121.399L113.356 120.347ZM96.5692 130.041C96.5257 130.019 96.4777 130.008 96.4291 130.008C96.3804 130.008 96.3324 130.019 96.2889 130.041L93.9093 131.414C93.8287 131.464 93.8217 131.534 93.9093 131.576L95.7562 132.645C95.7998 132.666 95.8477 132.677 95.8964 132.677C95.945 132.677 95.993 132.666 96.0366 132.645L98.4126 131.271C98.4932 131.225 98.5037 131.152 98.4301 131.11L96.5692 130.041ZM116.625 118.476C116.582 118.453 116.534 118.442 116.485 118.442C116.437 118.442 116.388 118.453 116.345 118.476L113.966 119.85C113.885 119.895 113.878 119.969 113.966 120.011L115.812 121.062C115.856 121.085 115.904 121.096 115.953 121.096C116.001 121.096 116.049 121.085 116.093 121.062L118.469 119.688C118.553 119.643 118.56 119.569 118.486 119.527L116.625 118.476ZM93.2995 131.94C93.2562 131.918 93.2081 131.906 93.1594 131.906C93.1106 131.906 93.0625 131.918 93.0192 131.94L90.6431 133.31C90.559 133.359 90.552 133.433 90.6431 133.475L92.49 134.526C92.5333 134.549 92.5814 134.561 92.6302 134.561C92.679 134.561 92.727 134.549 92.7704 134.526L95.1464 133.156C95.2305 133.107 95.2375 133.037 95.1464 132.995L93.2995 131.94ZM123.172 114.698C123.128 114.676 123.08 114.665 123.032 114.665C122.983 114.665 122.935 114.676 122.892 114.698L120.515 116.072C120.431 116.117 120.424 116.191 120.515 116.233L122.362 117.302C122.406 117.323 122.454 117.335 122.503 117.335C122.551 117.335 122.599 117.323 122.643 117.302L125.019 115.928C125.103 115.883 125.11 115.809 125.036 115.767L123.172 114.698ZM133.275 108.863C133.232 108.841 133.184 108.829 133.135 108.829C133.086 108.829 133.038 108.841 132.995 108.863L131.061 109.977C130.98 110.027 130.973 110.097 131.061 110.139L132.893 111.194C132.937 111.216 132.985 111.228 133.034 111.228C133.082 111.228 133.13 111.216 133.174 111.194L135.105 110.079C135.189 110.03 135.196 109.96 135.105 109.918L133.275 108.863ZM139.583 104.451L141.514 103.336C141.595 103.287 141.606 103.217 141.532 103.175L139.682 102.124C139.638 102.103 139.59 102.091 139.541 102.091C139.493 102.091 139.445 102.103 139.401 102.124L137.47 103.238C137.39 103.287 137.383 103.357 137.47 103.403L139.317 104.454C139.362 104.475 139.41 104.484 139.459 104.482C139.508 104.479 139.555 104.465 139.598 104.44L139.583 104.451ZM128.064 105.005L129.995 103.89C130.076 103.845 130.086 103.771 130.013 103.729L128.166 102.678C128.122 102.656 128.073 102.645 128.024 102.645C127.975 102.645 127.926 102.656 127.882 102.678L125.951 103.796C125.87 103.841 125.863 103.915 125.951 103.957L127.798 105.008C127.842 105.028 127.891 105.038 127.94 105.035C127.989 105.033 128.036 105.019 128.078 104.994L128.064 105.005ZM120.593 115.42L126.235 112.161C126.319 112.112 126.326 112.042 126.252 112L124.405 110.931C124.362 110.909 124.314 110.898 124.265 110.898C124.217 110.898 124.169 110.909 124.125 110.931L118.479 114.19C118.399 114.239 118.388 114.309 118.462 114.351L120.309 115.402C120.351 115.428 120.399 115.442 120.449 115.445C120.498 115.448 120.547 115.44 120.593 115.42ZM136.503 106.08C136.546 106.103 136.594 106.115 136.643 106.115C136.692 106.115 136.74 106.103 136.783 106.08L138.714 104.966C138.798 104.917 138.805 104.847 138.732 104.805L136.885 103.736C136.841 103.714 136.793 103.703 136.745 103.703C136.696 103.703 136.648 103.714 136.605 103.736L134.674 104.85C134.59 104.899 134.583 104.973 134.674 105.015L136.503 106.08ZM134.134 104.535L136.065 103.421C136.149 103.375 136.156 103.301 136.082 103.259L134.236 102.208C134.192 102.186 134.144 102.175 134.095 102.175C134.047 102.175 133.999 102.186 133.955 102.208L132.024 103.322C131.94 103.371 131.933 103.445 132.007 103.487L133.854 104.538C133.897 104.56 133.945 104.571 133.994 104.571C134.043 104.57 134.091 104.558 134.134 104.535ZM117.757 117.039L119.688 115.925C119.773 115.876 119.78 115.805 119.706 115.763L117.859 114.698C117.816 114.676 117.768 114.664 117.719 114.664C117.67 114.664 117.622 114.676 117.579 114.698L115.644 115.812C115.564 115.862 115.557 115.932 115.644 115.974L117.491 117.043C117.532 117.064 117.577 117.075 117.623 117.077C117.67 117.078 117.715 117.069 117.757 117.05V117.039ZM130.255 109.68C130.298 109.702 130.346 109.714 130.395 109.714C130.443 109.714 130.492 109.702 130.535 109.68L132.466 108.565C132.546 108.516 132.553 108.446 132.483 108.404L130.633 107.353C130.589 107.331 130.541 107.32 130.493 107.32C130.444 107.32 130.396 107.331 130.353 107.353L128.422 108.467C128.341 108.516 128.334 108.586 128.422 108.632L130.255 109.68ZM103.645 125.212L105.576 124.097C105.656 124.052 105.663 123.978 105.576 123.936L103.725 122.867C103.682 122.846 103.634 122.835 103.585 122.835C103.537 122.835 103.489 122.846 103.445 122.867L101.514 123.981C101.433 124.031 101.426 124.104 101.497 124.146L103.347 125.198C103.391 125.225 103.442 125.241 103.494 125.243C103.546 125.246 103.598 125.235 103.645 125.212ZM106.466 123.582L108.397 122.468C108.481 122.422 108.488 122.348 108.414 122.306L106.575 121.223C106.531 121.202 106.483 121.191 106.434 121.191C106.386 121.191 106.338 121.202 106.294 121.223L104.363 122.338C104.279 122.387 104.272 122.46 104.363 122.503L106.21 123.554C106.249 123.575 106.292 123.587 106.336 123.589C106.381 123.591 106.425 123.584 106.466 123.568V123.582ZM100.82 126.841L102.751 125.727C102.835 125.681 102.842 125.608 102.751 125.565L100.904 124.514C100.861 124.493 100.813 124.481 100.764 124.481C100.715 124.481 100.668 124.493 100.624 124.514L98.693 125.629C98.6089 125.678 98.6019 125.751 98.6754 125.793L100.522 126.845C100.569 126.867 100.621 126.878 100.674 126.875C100.726 126.872 100.776 126.855 100.82 126.827V126.841ZM112.112 120.305L114.043 119.191C114.127 119.142 114.134 119.072 114.06 119.03L112.213 117.961C112.17 117.939 112.122 117.928 112.073 117.928C112.025 117.928 111.977 117.939 111.933 117.961L110.002 119.075C109.918 119.124 109.911 119.194 110.002 119.236L111.831 120.305C111.875 120.328 111.923 120.339 111.972 120.339C112.02 120.339 112.068 120.328 112.112 120.305ZM109.291 121.935L111.222 120.82C111.302 120.775 111.309 120.701 111.239 120.659L109.378 119.604C109.335 119.583 109.287 119.571 109.238 119.571C109.189 119.571 109.141 119.583 109.098 119.604L107.167 120.719C107.086 120.768 107.079 120.841 107.149 120.883L109 121.935C109.044 121.96 109.094 121.973 109.145 121.973C109.195 121.974 109.246 121.962 109.291 121.938V121.935ZM114.936 118.676L116.867 117.561C116.948 117.512 116.955 117.442 116.867 117.4L115.02 116.331C114.977 116.309 114.929 116.297 114.88 116.297C114.831 116.297 114.783 116.309 114.74 116.331L112.809 117.446C112.728 117.495 112.718 117.565 112.792 117.607L114.642 118.676C114.687 118.701 114.737 118.715 114.789 118.715C114.84 118.716 114.891 118.703 114.936 118.679V118.676ZM130.339 96.005C130.382 96.0274 130.43 96.0391 130.479 96.0391C130.528 96.0391 130.576 96.0274 130.619 96.005L132.55 94.8906C132.634 94.8415 132.641 94.7714 132.567 94.7294L132.077 94.4455C132.033 94.4239 131.985 94.4126 131.937 94.4126C131.888 94.4126 131.84 94.4239 131.796 94.4455L129.862 95.5634C129.781 95.609 129.774 95.6826 129.862 95.7246L130.339 96.005ZM116.321 104.889C116.364 104.91 116.412 104.921 116.461 104.921C116.509 104.921 116.557 104.91 116.601 104.889L118.532 103.774C118.613 103.725 118.62 103.652 118.532 103.61L116.685 102.558C116.642 102.536 116.594 102.524 116.545 102.524C116.496 102.524 116.448 102.536 116.405 102.558L114.474 103.673C114.393 103.718 114.386 103.792 114.456 103.834L116.321 104.889ZM121.966 101.63C122.01 101.651 122.058 101.662 122.107 101.662C122.155 101.662 122.203 101.651 122.247 101.63L124.178 100.515C124.258 100.466 124.265 100.393 124.178 100.351L122.345 99.2782C122.302 99.2558 122.253 99.2441 122.205 99.2441C122.156 99.2441 122.108 99.2558 122.064 99.2782L120.134 100.393C120.053 100.438 120.042 100.512 120.116 100.554L121.966 101.63ZM112.872 106.886C112.916 106.908 112.964 106.919 113.012 106.919C113.061 106.919 113.109 106.908 113.153 106.886L115.084 105.769C115.168 105.723 115.175 105.649 115.101 105.607L113.233 104.535C113.19 104.513 113.142 104.501 113.093 104.501C113.044 104.501 112.996 104.513 112.953 104.535L111.022 105.649C110.938 105.695 110.931 105.769 111.004 105.811L112.872 106.886ZM119.142 103.27C119.185 103.291 119.233 103.303 119.282 103.303C119.331 103.303 119.379 103.291 119.422 103.27L121.353 102.155C121.437 102.106 121.444 102.033 121.371 101.991L119.524 100.939C119.48 100.917 119.432 100.905 119.384 100.905C119.335 100.905 119.287 100.917 119.243 100.939L117.312 102.054C117.228 102.099 117.221 102.173 117.295 102.215L119.142 103.27ZM107.226 110.149C107.27 110.17 107.318 110.18 107.367 110.18C107.415 110.18 107.463 110.17 107.507 110.149L109.438 109.035C109.522 108.986 109.529 108.912 109.455 108.87L107.608 107.819C107.565 107.796 107.517 107.785 107.468 107.785C107.419 107.785 107.371 107.796 107.328 107.819L105.397 108.933C105.313 108.979 105.306 109.052 105.38 109.094L107.226 110.149ZM110.051 108.516C110.095 108.538 110.143 108.549 110.191 108.549C110.24 108.549 110.288 108.538 110.331 108.516L112.262 107.402C112.343 107.353 112.35 107.279 112.262 107.237L110.416 106.186C110.372 106.163 110.324 106.151 110.275 106.151C110.227 106.151 110.178 106.163 110.135 106.186L108.204 107.3C108.124 107.346 108.117 107.419 108.187 107.461L110.051 108.516ZM124.693 99.2782C124.736 99.3006 124.784 99.3123 124.833 99.3123C124.882 99.3123 124.93 99.3006 124.973 99.2782L126.904 98.1638C126.988 98.1147 126.995 98.0446 126.922 98.0026L126.431 97.7187C126.388 97.6971 126.34 97.6858 126.291 97.6858C126.242 97.6858 126.194 97.6971 126.151 97.7187L124.22 98.8366C124.136 98.8822 124.129 98.9558 124.202 98.9979L124.693 99.2782ZM133.163 94.3719C133.207 94.3943 133.255 94.406 133.303 94.406C133.352 94.406 133.4 94.3943 133.444 94.3719L135.375 93.2575C135.455 93.2084 135.462 93.1383 135.375 93.0963L134.884 92.8124C134.84 92.7908 134.792 92.7795 134.744 92.7795C134.695 92.7795 134.647 92.7908 134.604 92.8124L132.673 93.9303C132.589 93.9759 132.582 94.0495 132.655 94.0916L133.163 94.3719ZM137.043 96.6113C137.086 96.6329 137.134 96.6441 137.183 96.6441C137.232 96.6441 137.28 96.6329 137.323 96.6113L139.254 95.4934C139.338 95.4478 139.345 95.3742 139.272 95.3321L137.425 94.2808C137.381 94.2592 137.333 94.2479 137.285 94.2479C137.236 94.2479 137.188 94.2592 137.144 94.2808L135.213 95.3987C135.129 95.4443 135.122 95.5179 135.196 95.5599L137.043 96.6113ZM142.419 102.804L144.35 101.689C144.434 101.64 144.441 101.57 144.35 101.528L142.503 100.459C142.459 100.438 142.411 100.426 142.363 100.426C142.314 100.426 142.266 100.438 142.222 100.459L140.291 101.574C140.207 101.623 140.2 101.693 140.274 101.735L142.121 102.804C142.166 102.83 142.217 102.845 142.269 102.846C142.321 102.847 142.373 102.835 142.419 102.811V102.804ZM127.517 97.6311C127.561 97.6535 127.609 97.6652 127.658 97.6652C127.706 97.6652 127.755 97.6535 127.798 97.6311L129.729 96.5167C129.809 96.4676 129.816 96.3975 129.729 96.3555L129.238 96.0716C129.195 96.05 129.147 96.0387 129.098 96.0387C129.049 96.0387 129.001 96.05 128.958 96.0716L127.027 97.1895C126.946 97.2351 126.936 97.3087 127.027 97.3507L127.517 97.6311ZM104.388 111.765C104.431 111.786 104.479 111.797 104.528 111.797C104.577 111.797 104.624 111.786 104.668 111.765L106.599 110.65C106.68 110.601 106.687 110.528 106.617 110.486L104.766 109.434C104.723 109.412 104.675 109.4 104.626 109.4C104.577 109.4 104.529 109.412 104.486 109.434L102.555 110.549C102.474 110.594 102.467 110.668 102.537 110.71L104.388 111.765Z" fill="#455A64"/>
<path d="M112.745 126.329L113.141 126.557L123.662 132.627L142.365 121.83L142.754 121.605L131.841 115.308L112.745 126.329Z" fill="#37474F"/>
<path d="M113.142 126.557L123.662 132.627L142.366 121.83L131.842 115.756L113.142 126.557Z" fill="#263238"/>
<path d="M86.0801 94.0118L132.823 67.0271L134.695 68.1065C134.95 68.2736 135.162 68.4983 135.315 68.7624C135.468 69.0265 135.557 69.3228 135.574 69.6274V104.112C135.557 104.416 135.469 104.713 135.316 104.977C135.163 105.241 134.95 105.466 134.695 105.633L89.7107 131.601C89.439 131.738 89.1389 131.81 88.8346 131.81C88.5303 131.81 88.2302 131.738 87.9585 131.601L86.9667 131.03C86.7114 130.863 86.4989 130.638 86.3461 130.374C86.1933 130.11 86.1046 129.813 86.0871 129.509L86.0801 94.0118Z" fill="#6404E0"/>
<path opacity="0.2" d="M86.0801 94.0118L132.823 67.0271L134.695 68.1065C134.95 68.2736 135.162 68.4983 135.315 68.7624C135.468 69.0265 135.557 69.3228 135.574 69.6274V104.112C135.557 104.416 135.469 104.713 135.316 104.977C135.163 105.241 134.95 105.466 134.695 105.633L89.7107 131.601C89.439 131.738 89.1389 131.81 88.8346 131.81C88.5303 131.81 88.2302 131.738 87.9585 131.601L86.9667 131.03C86.7114 130.863 86.4989 130.638 86.3461 130.374C86.1933 130.11 86.1046 129.813 86.0871 129.509L86.0801 94.0118Z" fill="black"/>
<path d="M132.567 63.9922L132.757 63.8871L132.031 63.4665C131.97 63.4298 131.905 63.3993 131.838 63.3754L111.267 55.7496C110.984 55.6573 110.679 55.6564 110.395 55.747C110.112 55.8375 109.864 56.015 109.686 56.2543L86.6758 89.8589C86.3159 90.4375 86.1108 91.0988 86.0801 91.7794V94.0083L86.781 94.4253L132.809 67.0236V64.7912C132.805 64.5074 132.722 64.2305 132.567 63.9922Z" fill="#6404E0"/>
<path opacity="0.1" d="M110.64 56.4225C110.548 56.4942 110.468 56.5793 110.401 56.6748L87.3872 90.2795C87.1982 90.5767 87.0541 90.9003 86.9597 91.2397L86.2588 90.8262C86.3107 90.6533 86.3727 90.4836 86.4445 90.318C86.4761 90.2479 86.5076 90.1813 86.5427 90.1148L86.5602 90.0832C86.5966 90.0129 86.6376 89.945 86.6828 89.88L109.693 56.2753C109.728 56.2255 109.767 56.1786 109.809 56.1351L109.932 56.023L110.64 56.4225Z" fill="black"/>
<path opacity="0.35" d="M132.749 63.8836C132.687 63.8457 132.621 63.814 132.553 63.7889L111.978 56.1631C111.752 56.0879 111.51 56.0716 111.276 56.1157C111.042 56.1599 110.823 56.2631 110.639 56.4155L109.938 56.0019C110.123 55.851 110.343 55.7488 110.577 55.7047C110.812 55.6606 111.054 55.6761 111.281 55.7496L131.852 63.3719C131.919 63.397 131.984 63.4287 132.045 63.4665L132.749 63.8836Z" fill="white"/>
<path opacity="0.2" d="M109.687 56.2553C109.722 56.2058 109.761 56.1586 109.803 56.1141C109.76 56.1571 109.721 56.2044 109.687 56.2553Z" fill="black"/>
<path d="M110.401 56.6678L87.3872 90.2725C87.0299 90.8519 86.8261 91.5129 86.7949 92.1929V94.4253L133.538 67.4406V65.2118C133.521 64.9094 133.42 64.6177 133.246 64.37C133.072 64.1222 132.832 63.9282 132.553 63.81L111.978 56.1667C111.696 56.072 111.391 56.0696 111.108 56.1597C110.824 56.2498 110.577 56.4277 110.401 56.6678Z" fill="#6404E0"/>
<path opacity="0.05" d="M133.538 65.2047C133.529 64.9252 133.443 64.6536 133.29 64.4197L86.96 91.2327C86.8616 91.5412 86.8074 91.8621 86.7988 92.1859V94.4183L133.542 67.4336L133.538 65.2047Z" fill="black"/>
<path d="M131.54 55.7216C131.55 55.628 131.534 55.5335 131.496 55.4475C131.458 55.3615 131.398 55.2869 131.323 55.2309L129.893 54.4074C129.807 54.3685 129.712 54.3533 129.617 54.3631C129.523 54.373 129.433 54.4076 129.357 54.4634L91.0176 76.6084C90.7963 76.7521 90.6121 76.946 90.4799 77.1744C90.3478 77.4028 90.2714 77.6591 90.2571 77.9226V123.832C90.2467 123.926 90.2617 124.021 90.3005 124.107C90.3393 124.193 90.4006 124.268 90.4779 124.322L91.9007 125.146C91.987 125.184 92.0818 125.2 92.1758 125.191C92.2698 125.181 92.3598 125.148 92.4369 125.093L130.783 102.962C131.003 102.818 131.187 102.624 131.318 102.395C131.45 102.167 131.526 101.911 131.54 101.648V55.7216Z" fill="#F0F0F0"/>
<path d="M92.4406 125.111L130.783 102.962C131.004 102.818 131.187 102.624 131.318 102.395C131.45 102.167 131.526 101.911 131.54 101.648V55.7216C131.54 55.2379 131.19 55.0417 130.783 55.2835L92.4406 77.4284C92.2203 77.5729 92.037 77.7671 91.9056 77.9954C91.7741 78.2236 91.6981 78.4796 91.6836 78.7426V124.652C91.6836 125.146 92.0235 125.342 92.4406 125.111Z" fill="#FAFAFA"/>
<path d="M117.014 81.6549C116.978 82.1736 116.881 82.6863 116.727 83.1829C116.589 83.629 116.403 84.0591 116.173 84.4655C115.974 84.8213 115.732 85.151 115.451 85.4468C115.219 85.694 114.948 85.9012 114.649 86.0601C114.323 86.2741 113.933 86.3683 113.545 86.3264C113.319 86.28 113.117 86.156 112.974 85.976C112.89 86.1582 112.802 86.3404 112.711 86.5227C112.613 86.7173 112.495 86.9017 112.36 87.0729C112.209 87.268 112.036 87.4455 111.845 87.602C111.614 87.7941 111.361 87.9588 111.092 88.0927C110.805 88.2624 110.469 88.3291 110.139 88.2819C109.849 88.2166 109.597 88.0389 109.438 87.7878C109.22 87.4499 109.076 87.0703 109.014 86.6734C108.921 86.1201 108.889 85.5584 108.919 84.9982C108.942 84.3807 109.019 83.7663 109.147 83.1618C109.263 82.618 109.431 82.0864 109.648 81.5743C109.839 81.1257 110.091 80.7058 110.398 80.3267C110.662 79.9936 110.993 79.7192 111.369 79.5207C111.493 79.4327 111.635 79.3709 111.784 79.3389C111.934 79.307 112.088 79.3057 112.238 79.3349C112.429 79.4206 112.587 79.5672 112.686 79.752V79.5627C112.694 79.403 112.739 79.2472 112.816 79.1071C112.877 78.978 112.974 78.8695 113.096 78.7952L113.846 78.4132C113.887 78.3862 113.936 78.3743 113.984 78.3794C114.033 78.3845 114.078 78.4064 114.113 78.4413C114.153 78.4895 114.183 78.5456 114.2 78.6059C114.218 78.6662 114.222 78.7295 114.214 78.7917L114.046 83.246C114.032 83.5824 114.095 83.8032 114.235 83.9083C114.309 83.9591 114.396 83.9863 114.486 83.9863C114.575 83.9863 114.663 83.9591 114.736 83.9083C114.956 83.7839 115.134 83.5957 115.245 83.3686C115.413 83.0329 115.508 82.6647 115.521 82.2892C115.556 81.9002 115.581 81.5007 115.599 81.0872C115.616 80.6737 115.616 80.2917 115.599 79.9412C115.59 79.3122 115.495 78.6874 115.318 78.0838C115.208 77.6584 114.962 77.2805 114.617 77.0079C114.273 76.7769 113.853 76.6855 113.443 76.7521C112.843 76.8459 112.265 77.0439 111.733 77.3374C111.173 77.6269 110.662 78.003 110.219 78.4518C109.765 78.918 109.369 79.4382 109.042 80.0008C108.702 80.5945 108.427 81.2231 108.222 81.8757C108.006 82.5492 107.855 83.2415 107.769 83.9433C107.745 84.1361 107.724 84.3814 107.706 84.6863C107.689 84.9912 107.675 85.3066 107.661 85.636C107.647 85.9654 107.636 86.2844 107.629 86.5928C107.622 86.9011 107.629 87.143 107.629 87.3287C107.645 87.8945 107.747 88.4546 107.931 88.9898C108.063 89.4039 108.306 89.7744 108.632 90.0622C108.94 90.3183 109.331 90.4551 109.732 90.4477C110.253 90.4302 110.761 90.2871 111.214 90.0307C111.57 89.8508 111.913 89.6471 112.241 89.4209C112.511 89.2337 112.768 89.0276 113.009 88.8041C113.209 88.6117 113.399 88.4081 113.576 88.1943C113.734 87.9946 113.878 87.8018 114.007 87.6126C114.137 87.4233 114.204 87.3217 114.27 87.2411C114.338 87.1541 114.426 87.0845 114.526 87.0378L115.578 86.4911C115.617 86.4615 115.665 86.4456 115.714 86.4456C115.763 86.4456 115.811 86.4615 115.851 86.4911C115.928 86.5542 115.96 86.6769 115.942 86.8661C115.93 86.9896 115.892 87.1092 115.83 87.2166C115.616 87.6126 115.374 88.0331 115.108 88.4712C114.829 88.9268 114.513 89.3582 114.162 89.7608C113.766 90.2086 113.333 90.6224 112.869 90.9979C112.326 91.4325 111.738 91.8084 111.116 92.1193C110.452 92.5024 109.7 92.7065 108.933 92.7116C108.358 92.6948 107.807 92.4708 107.384 92.0808C106.937 91.6383 106.613 91.0878 106.441 90.4827C106.214 89.7362 106.096 88.9607 106.091 88.1803C106.091 87.991 106.091 87.7317 106.091 87.4023C106.091 87.0764 106.108 86.7329 106.122 86.3755C106.136 86.018 106.154 85.6746 106.171 85.3522C106.189 85.0297 106.206 84.7704 106.224 84.5847C106.312 83.6555 106.493 82.7374 106.764 81.8442C107.037 80.9185 107.411 80.0254 107.878 79.1807C108.34 78.3423 108.905 77.5652 109.56 76.8678C110.2 76.1783 110.955 75.6065 111.793 75.1786C112.548 74.7431 113.393 74.4865 114.263 74.4286C114.857 74.4048 115.438 74.6092 115.886 74.9999C116.335 75.4439 116.646 76.0088 116.78 76.6259C116.975 77.4114 117.079 78.2171 117.088 79.0265C117.088 79.377 117.088 79.801 117.063 80.2846C117.039 80.7683 117.046 81.2519 117.014 81.6549ZM110.433 84.2202C110.372 84.7162 110.444 85.2195 110.643 85.6781C110.808 85.9654 111.06 86.0285 111.397 85.8498C111.78 85.6381 112.072 85.2943 112.22 84.8826C112.432 84.3223 112.543 83.7292 112.55 83.1303C112.608 82.6304 112.538 82.1238 112.346 81.6584C112.185 81.364 111.926 81.308 111.572 81.4902C111.196 81.7078 110.911 82.0537 110.769 82.4644C110.558 83.0214 110.444 83.6106 110.433 84.2062V84.2202Z" fill="#6404E0"/>
<path d="M91.6797 124.662C91.6728 124.748 91.6853 124.834 91.7163 124.914C91.7472 124.994 91.7958 125.066 91.8584 125.125L90.4812 124.333C90.4032 124.279 90.3413 124.204 90.3018 124.118C90.2623 124.032 90.2468 123.936 90.2569 123.842V77.9331C90.2655 77.669 90.3428 77.4118 90.4812 77.1866L91.904 78.0067C91.7655 78.233 91.6882 78.4915 91.6797 78.7567V124.662Z" fill="#E0E0E0"/>
<path d="M134.39 104.567C134.376 104.592 134.36 104.616 134.341 104.637L114.859 98.4765C114.12 98.1501 113.287 98.1015 112.515 98.3397C111.742 98.5779 111.081 99.0869 110.654 99.7732L89.8267 130.718L89.0557 131.163C88.9699 131.223 88.8704 131.26 88.7663 131.272C88.6622 131.284 88.5569 131.269 88.46 131.23L109.876 99.3386C110.305 98.654 110.965 98.1461 111.737 97.9075C112.509 97.6688 113.341 97.7153 114.081 98.0384L134.39 104.567Z" fill="#6404E0"/>
<path opacity="0.4" d="M108.733 102.794L108.783 102.752L89.8267 130.718L89.0557 131.163C88.9695 131.222 88.87 131.259 88.7662 131.271C88.6623 131.282 88.5571 131.268 88.46 131.23L107.984 102.331L108.733 102.794Z" fill="white"/>
<path opacity="0.4" d="M134.39 104.567C134.376 104.592 134.359 104.616 134.341 104.637L114.859 98.4765C114.12 98.1493 113.287 98.1004 112.514 98.3386C111.741 98.5769 111.081 99.0864 110.654 99.7732L109.883 99.3246C110.312 98.6407 110.973 98.1341 111.746 97.8973C112.518 97.6605 113.349 97.7094 114.088 98.0349L134.39 104.567Z" fill="white"/>
<path d="M135.556 69.4066C135.514 69.1543 135.381 69.0842 135.206 69.2034C135.119 69.268 135.043 69.3461 134.981 69.4347L134.883 69.5714L115.661 98.7919L112.791 102.791C112.606 103.024 112.361 103.202 112.083 103.306C111.805 103.41 111.503 103.437 111.21 103.383L108.733 102.794L89.8085 95.8341C89.6813 95.8081 89.5502 95.8081 89.423 95.8341C89.3736 95.8441 89.3254 95.8593 89.2793 95.8796L89.9802 95.4661L108.112 102.125L110.499 102.976C110.791 103.031 111.093 103.005 111.372 102.901C111.651 102.796 111.895 102.618 112.08 102.384L114.95 98.3889L134.267 69.0317C134.325 68.9517 134.399 68.8839 134.484 68.8319L132.812 67.8682L133.513 67.4651L134.67 68.131C134.895 68.2739 135.089 68.4604 135.242 68.6794C135.394 68.8985 135.501 69.1457 135.556 69.4066Z" fill="#6404E0"/>
<path opacity="0.4" d="M115.662 98.7919L112.792 102.791C112.607 103.024 112.362 103.202 112.084 103.306C111.805 103.41 111.503 103.437 111.211 103.383L108.733 102.794L108.782 102.752L108.902 102.563L110.524 102.948C110.817 103.003 111.119 102.977 111.397 102.873C111.676 102.768 111.92 102.59 112.105 102.356L114.947 98.4029L115.662 98.7919Z" fill="white"/>
<path opacity="0.1" d="M134.694 68.0995L133.538 67.4336L132.837 67.8366L134.508 68.8004C134.423 68.8516 134.349 68.9196 134.291 69.0001L114.974 98.3573L114.946 98.3959L115.647 98.7849L134.869 69.5609L134.968 69.4242C135.029 69.3356 135.105 69.2575 135.192 69.1929C135.364 69.0737 135.497 69.1438 135.542 69.3961C135.494 69.1346 135.394 68.8852 135.249 68.6626C135.103 68.4399 134.914 68.2485 134.694 68.0995Z" fill="black"/>
<path d="M90.2156 96.3913L86.0908 94.0118V129.509C86.1084 129.813 86.1971 130.11 86.3498 130.374C86.5026 130.638 86.7152 130.863 86.9705 131.03L87.9622 131.601C88.2339 131.738 88.534 131.81 88.8384 131.81C89.1427 131.81 89.4428 131.738 89.7145 131.601L90.2086 131.317L90.2156 96.3913Z" fill="#6404E0"/>
<path opacity="0.15" d="M90.2156 96.3913L86.0908 94.0118V129.509C86.1084 129.813 86.1971 130.11 86.3498 130.374C86.5026 130.638 86.7152 130.863 86.9705 131.03L87.9622 131.601C88.2339 131.738 88.534 131.81 88.8384 131.81C89.1427 131.81 89.4428 131.738 89.7145 131.601L90.2086 131.317L90.2156 96.3913Z" fill="black"/>
<path d="M135.574 69.6274V104.108C135.563 104.424 135.469 104.731 135.301 104.998C135.17 105.224 134.995 105.421 134.785 105.577L134.75 105.594C134.733 105.608 134.714 105.621 134.694 105.633L89.7106 131.601C89.6246 131.662 89.5247 131.701 89.4199 131.713C89.3152 131.725 89.2091 131.711 89.1113 131.671C89.0367 131.628 88.9738 131.567 88.928 131.493C88.8822 131.42 88.8549 131.337 88.8485 131.251C88.8448 131.198 88.8448 131.145 88.8485 131.093V96.6086C88.8407 96.4851 88.863 96.3616 88.9135 96.2486C88.964 96.1357 89.0412 96.0367 89.1384 95.9601C89.2356 95.8836 89.3499 95.8318 89.4716 95.8093C89.5932 95.7867 89.7186 95.794 89.8368 95.8306L108.761 102.791L111.239 103.379C111.531 103.433 111.833 103.407 112.111 103.303C112.39 103.198 112.634 103.02 112.819 102.787L115.689 98.7884L134.912 69.5678L135.01 69.4312C135.308 68.9826 135.574 69.0667 135.574 69.6274Z" fill="#6404E0"/>
<path d="M134.694 105.633L134.754 105.594L134.786 105.573C134.996 105.42 135.171 105.224 135.301 104.998C135.466 104.735 135.561 104.433 135.574 104.122L115.665 98.7954L128.982 108.92L134.694 105.633Z" fill="#6404E0"/>
<path opacity="0.2" d="M134.694 105.633L134.754 105.594L134.786 105.573C134.996 105.42 135.171 105.224 135.301 104.998C135.466 104.735 135.561 104.433 135.574 104.122L115.665 98.7954L128.982 108.92L134.694 105.633Z" fill="black"/>
<path d="M88.8311 131.093C88.8182 131.205 88.837 131.319 88.8853 131.421C88.9336 131.523 89.0095 131.61 89.1044 131.671C89.2018 131.712 89.3079 131.727 89.4127 131.715C89.5175 131.703 89.6176 131.665 89.7037 131.605L105.197 122.658L108.737 102.791L88.8311 130.518V131.093Z" fill="#6404E0"/>
<path opacity="0.15" d="M110.643 99.7521L89.1044 131.671C89.0095 131.61 88.9336 131.523 88.8853 131.421C88.837 131.319 88.8182 131.205 88.8311 131.093V130.522L109.858 99.3316L110.643 99.7521Z" fill="black"/>
<path d="M135.301 104.998C135.171 105.224 134.995 105.42 134.785 105.573L134.754 105.594L89.7106 131.601C89.6245 131.662 89.5243 131.7 89.4195 131.712C89.3147 131.723 89.2087 131.708 89.1113 131.668L110.653 99.7451C111.085 99.0555 111.75 98.5445 112.528 98.3057C113.305 98.0669 114.143 98.1163 114.887 98.445L135.301 104.998Z" fill="#6404E0"/>
<path opacity="0.15" d="M86.2448 90.8192L86.9457 91.2327C86.8463 91.5435 86.7909 91.8667 86.781 92.1929V94.4218L86.0801 94.0083V91.7759C86.0903 91.4509 86.1458 91.1289 86.2448 90.8192Z" fill="black"/>
<path d="M90.0056 95.4521L89.2907 95.8656L88.5688 95.4486L86.792 94.4253L87.4824 94.0152L90.0056 95.4521Z" fill="#6404E0"/>
<path opacity="0.1" d="M90.036 95.4661L87.4812 94.0152L86.7803 94.4253L88.5571 95.4486L89.279 95.8656L89.4157 95.8236C89.5428 95.7976 89.674 95.7976 89.8012 95.8236L91.266 96.3738L107.776 102.454L108.035 102.072L90.036 95.4661Z" fill="black"/>
<path d="M74.4122 40.0766L71.7418 41.6186C71.7555 41.5022 71.7625 41.3852 71.7628 41.2681V40.4971C71.7628 39.1198 70.7955 38.5626 69.604 39.2495C69.0927 39.5664 68.6544 39.988 68.3179 40.4866C68.1251 38.7554 66.7654 38.1105 65.1147 39.0638C63.3345 40.0941 61.8871 42.5963 61.8871 44.671V45.8275C61.8756 46.2898 61.9691 46.7487 62.1605 47.1697L59.9421 48.4488C59.5942 48.6768 59.3048 48.9833 59.0972 49.3437C58.8896 49.7041 58.7697 50.1082 58.7471 50.5235C58.7471 51.2875 59.2833 51.5959 59.9421 51.2244L74.4122 42.8556C74.76 42.6285 75.0494 42.3226 75.257 41.9628C75.4646 41.6029 75.5846 41.1993 75.6072 40.7845C75.6177 40.0065 75.0816 39.7016 74.4122 40.0766Z" fill="#EEEAEA"/>
<path d="M61.4949 31.2907L58.2077 33.1867C58.2256 33.0425 58.235 32.8974 58.2357 32.7521V31.7849C58.2357 30.0922 57.0477 29.4053 55.5793 30.2534C54.9484 30.6411 54.4082 31.1598 53.9953 31.7744C53.7569 29.6436 52.0853 28.8516 50.0527 30.0221C47.8589 31.2907 46.0786 34.3747 46.0786 36.898V38.3208C46.0687 38.8904 46.1886 39.4549 46.429 39.9714L43.699 41.5484C43.27 41.8279 42.9128 42.2045 42.6565 42.6478C42.4001 43.091 42.2519 43.5884 42.2236 44.0997C42.2236 45.0424 42.886 45.4209 43.699 44.9513L61.5089 34.6691C61.9385 34.3902 62.2961 34.0138 62.5526 33.5704C62.809 33.127 62.9569 32.6293 62.9843 32.1178C62.9703 31.1856 62.3114 30.8071 61.4949 31.2907Z" fill="#EEEAEA"/>
<path d="M153.379 62.0323L165.774 54.0946L171.238 55.8469L153.379 62.0323Z" fill="#6404E0"/>
<path d="M153.379 62.0323L164.092 53.0959L161.713 50.3483L153.379 62.0323Z" fill="#6404E0"/>
<path d="M164.092 53.0958V55.1705L153.379 62.0323L164.092 53.0958Z" fill="#6404E0"/>
<path opacity="0.25" d="M164.092 53.0958V55.1705L153.379 62.0323L164.092 53.0958Z" fill="black"/>
<path d="M165.88 52.9241C165.827 52.9241 165.775 52.9082 165.732 52.8784C165.688 52.8487 165.654 52.8064 165.635 52.7573C165.616 52.7081 165.612 52.6542 165.623 52.6027C165.635 52.5512 165.662 52.5044 165.701 52.4685C166.068 52.1289 166.407 51.7597 166.714 51.3646C166.734 51.3352 166.76 51.3103 166.79 51.2912C166.82 51.2722 166.854 51.2595 166.889 51.2539C166.924 51.2483 166.96 51.2499 166.995 51.2586C167.029 51.2674 167.062 51.283 167.09 51.3047C167.118 51.3263 167.142 51.3535 167.159 51.3846C167.177 51.4156 167.188 51.4499 167.192 51.4853C167.195 51.5208 167.192 51.5566 167.182 51.5907C167.171 51.6248 167.154 51.6563 167.131 51.6835C166.806 52.1024 166.447 52.4939 166.058 52.854C166.009 52.8982 165.946 52.9231 165.88 52.9241ZM167.853 50.3062C167.811 50.307 167.77 50.2973 167.733 50.2782C167.703 50.263 167.675 50.2417 167.653 50.2158C167.63 50.1899 167.613 50.1597 167.602 50.1271C167.592 50.0945 167.588 50.0601 167.59 50.0259C167.593 49.9917 167.602 49.9583 167.618 49.9278C167.924 49.3176 168.159 48.6744 168.319 48.0108C168.335 47.9429 168.378 47.8843 168.437 47.8479C168.497 47.8114 168.568 47.8 168.636 47.8163C168.704 47.8326 168.762 47.8751 168.799 47.9346C168.835 47.9941 168.847 48.0656 168.83 48.1335C168.665 48.8362 168.418 49.5172 168.094 50.1626C168.072 50.207 168.037 50.244 167.994 50.2695C167.952 50.2949 167.902 50.3077 167.853 50.3062ZM168.813 46.602C168.778 46.6006 168.744 46.5925 168.713 46.578C168.682 46.5635 168.653 46.543 168.63 46.5176C168.607 46.4922 168.588 46.4625 168.576 46.43C168.565 46.3976 168.559 46.3632 168.561 46.3286C168.561 46.185 168.561 46.0448 168.561 45.9046C168.56 45.3632 168.515 44.8228 168.424 44.289C168.418 44.255 168.419 44.22 168.426 44.1863C168.434 44.1525 168.448 44.1205 168.467 44.0922C168.487 44.0639 168.513 44.0397 168.542 44.0212C168.571 44.0026 168.604 43.99 168.638 43.9841C168.707 43.9729 168.778 43.9895 168.835 44.0302C168.892 44.0708 168.931 44.1324 168.943 44.2014C169.037 44.7642 169.085 45.3339 169.086 45.9046C169.086 46.0518 169.086 46.2025 169.086 46.3497C169.085 46.3842 169.077 46.4181 169.062 46.4495C169.048 46.4809 169.027 46.5091 169.002 46.5325C168.976 46.5559 168.947 46.5741 168.914 46.5861C168.882 46.598 168.847 46.6034 168.813 46.602ZM168.249 42.8136C168.194 42.8136 168.14 42.7963 168.096 42.7643C168.051 42.7322 168.017 42.687 168 42.6349C167.773 41.9888 167.488 41.3648 167.148 40.7705C167.118 40.7104 167.111 40.6411 167.129 40.5762C167.147 40.5114 167.189 40.4557 167.246 40.42C167.306 40.3889 167.376 40.3817 167.441 40.3999C167.506 40.4181 167.562 40.4604 167.597 40.5182C167.952 41.1412 168.249 41.7959 168.483 42.4737C168.497 42.5071 168.504 42.5431 168.503 42.5793C168.503 42.6155 168.495 42.6512 168.479 42.6841C168.464 42.717 168.443 42.7465 168.415 42.7705C168.388 42.7946 168.357 42.8129 168.322 42.8241C168.296 42.8235 168.27 42.82 168.245 42.8136H168.249ZM166.405 39.4458C166.365 39.4457 166.326 39.4365 166.29 39.4188C166.254 39.4012 166.223 39.3757 166.199 39.3442C165.778 38.8002 165.316 38.2894 164.818 37.8162C164.786 37.7954 164.759 37.7679 164.738 37.7355C164.718 37.7032 164.705 37.6668 164.7 37.6289C164.695 37.591 164.699 37.5525 164.71 37.5161C164.722 37.4796 164.741 37.4462 164.767 37.418C164.793 37.3899 164.825 37.3677 164.86 37.353C164.895 37.3384 164.933 37.3316 164.971 37.3331C165.01 37.3346 165.047 37.3445 165.081 37.3619C165.115 37.3794 165.145 37.4041 165.168 37.4342C165.687 37.9264 166.167 38.4571 166.605 39.0217C166.642 39.0758 166.657 39.1417 166.648 39.2065C166.639 39.2713 166.606 39.3304 166.556 39.3722C166.514 39.4134 166.46 39.4394 166.402 39.4458H166.405ZM163.661 36.7543C163.604 36.7546 163.549 36.7361 163.504 36.7018C162.951 36.2872 162.374 35.9069 161.776 35.5628C161.719 35.5272 161.677 35.4712 161.66 35.4062C161.642 35.3412 161.65 35.2719 161.681 35.2124C161.716 35.1539 161.772 35.1112 161.837 35.0935C161.903 35.0758 161.972 35.0845 162.032 35.1177C162.649 35.4722 163.243 35.8643 163.812 36.2917C163.856 36.3248 163.889 36.371 163.905 36.4236C163.922 36.4763 163.921 36.5328 163.904 36.5851C163.886 36.6375 163.853 36.683 163.808 36.7152C163.763 36.7475 163.709 36.7649 163.654 36.7649L163.661 36.7543ZM136.119 35.738C136.061 35.7385 136.005 35.7197 135.958 35.6846C135.912 35.6495 135.879 35.6001 135.864 35.5441C135.848 35.488 135.852 35.4285 135.874 35.3748C135.897 35.3212 135.936 35.2764 135.986 35.2474C136.596 34.897 137.227 34.5675 137.868 34.2626C137.899 34.2478 137.933 34.2394 137.968 34.2377C138.002 34.236 138.037 34.2412 138.07 34.2529C138.102 34.2646 138.132 34.2827 138.158 34.306C138.183 34.3293 138.204 34.3575 138.219 34.3888C138.234 34.42 138.243 34.4539 138.245 34.4886C138.247 34.5233 138.241 34.558 138.23 34.5907C138.218 34.6234 138.2 34.6534 138.176 34.6789C138.153 34.7044 138.124 34.7249 138.092 34.7392C137.465 35.0371 136.845 35.3595 136.249 35.703C136.209 35.7265 136.163 35.7386 136.116 35.738H136.119ZM160.357 34.7953C160.318 34.796 160.279 34.7876 160.244 34.7708C159.621 34.4694 158.979 34.1925 158.334 33.9437C158.301 33.9314 158.27 33.9124 158.244 33.8878C158.218 33.8633 158.198 33.8337 158.184 33.8009C158.17 33.7681 158.162 33.7328 158.162 33.6971C158.162 33.6614 158.17 33.6261 158.184 33.5933C158.196 33.5598 158.215 33.5291 158.24 33.5032C158.264 33.4773 158.294 33.4567 158.327 33.4426C158.359 33.4285 158.395 33.4212 158.43 33.4212C158.466 33.4212 158.501 33.4285 158.534 33.4426C159.19 33.6949 159.845 33.9788 160.483 34.2872C160.535 34.3137 160.578 34.3571 160.603 34.4104C160.628 34.4638 160.634 34.5241 160.621 34.5815C160.607 34.6389 160.575 34.6902 160.529 34.727C160.483 34.7639 160.426 34.7843 160.367 34.7848L160.357 34.7953ZM139.585 34.0944C139.532 34.0935 139.481 34.0771 139.437 34.0472C139.394 34.0173 139.36 33.9752 139.34 33.9262C139.326 33.8934 139.319 33.8581 139.319 33.8224C139.319 33.7867 139.326 33.7514 139.34 33.7186C139.354 33.6858 139.375 33.6562 139.401 33.6317C139.427 33.6071 139.457 33.5881 139.491 33.5758C140.146 33.3199 140.822 33.0851 141.499 32.8749C141.566 32.8549 141.638 32.8623 141.699 32.8955C141.761 32.9287 141.806 32.9849 141.826 33.0518C141.846 33.1188 141.839 33.1909 141.806 33.2523C141.773 33.3138 141.716 33.3595 141.649 33.3795C140.987 33.5758 140.325 33.8071 139.683 34.0559C139.652 34.0683 139.619 34.0742 139.585 34.0734V34.0944ZM156.757 33.3935C156.732 33.3985 156.706 33.3985 156.68 33.3935C156.021 33.1938 155.345 33.0185 154.669 32.8714C154.634 32.8631 154.601 32.848 154.572 32.8271C154.543 32.8061 154.519 32.7797 154.5 32.7492C154.462 32.6878 154.45 32.6139 154.467 32.5437C154.484 32.4735 154.528 32.4129 154.589 32.3751C154.651 32.3373 154.725 32.3254 154.795 32.3422C155.496 32.4929 156.176 32.6716 156.849 32.8784C156.882 32.8884 156.913 32.9048 156.939 32.9269C156.966 32.9489 156.988 32.976 157.005 33.0066C157.021 33.0372 157.031 33.0708 157.034 33.1053C157.038 33.1398 157.034 33.1746 157.024 33.2078C157.007 33.2614 156.973 33.3083 156.928 33.3417C156.882 33.375 156.828 33.3932 156.771 33.3935H156.757ZM143.265 32.9344C143.206 32.9344 143.148 32.9143 143.102 32.8774C143.055 32.8405 143.023 32.7889 143.009 32.7312C142.995 32.6629 143.007 32.5916 143.045 32.5326C143.082 32.4736 143.141 32.4317 143.209 32.4158C143.892 32.2581 144.593 32.1249 145.294 32.0233C145.329 32.0154 145.366 32.015 145.401 32.0219C145.437 32.0288 145.47 32.0429 145.5 32.0633C145.53 32.0838 145.555 32.1101 145.574 32.1407C145.593 32.1713 145.606 32.2055 145.611 32.2412C145.616 32.2769 145.614 32.3133 145.605 32.3481C145.596 32.383 145.579 32.4155 145.557 32.4437C145.534 32.4719 145.506 32.4952 145.474 32.5121C145.442 32.529 145.407 32.5392 145.371 32.5419C144.67 32.6436 143.998 32.7732 143.325 32.9309L143.265 32.9344ZM153.015 32.5314H152.976C152.293 32.4298 151.595 32.3562 150.905 32.3106C150.868 32.3116 150.832 32.305 150.798 32.2911C150.764 32.2772 150.734 32.2564 150.708 32.23C150.683 32.2036 150.663 32.1722 150.651 32.1378C150.638 32.1034 150.633 32.0668 150.635 32.0303C150.638 31.9938 150.648 31.9582 150.665 31.9258C150.682 31.8933 150.706 31.8648 150.734 31.8421C150.763 31.8193 150.796 31.8028 150.831 31.7936C150.867 31.7843 150.904 31.7826 150.94 31.7885C151.641 31.834 152.342 31.9076 153.043 32.0092C153.107 32.0199 153.166 32.0544 153.207 32.106C153.247 32.1576 153.267 32.2225 153.262 32.288C153.257 32.3534 153.228 32.4147 153.18 32.4598C153.133 32.5049 153.07 32.5304 153.004 32.5314H153.015ZM147.085 32.3422C147.015 32.345 146.947 32.3199 146.896 32.2726C146.845 32.2253 146.814 32.1596 146.812 32.0898C146.809 32.0201 146.834 31.9522 146.881 31.9009C146.928 31.8496 146.994 31.8193 147.064 31.8165C147.765 31.7604 148.483 31.7289 149.188 31.7289C149.257 31.7289 149.324 31.7566 149.374 31.8059C149.423 31.8552 149.451 31.922 149.451 31.9917C149.451 32.0614 149.423 32.1283 149.374 32.1776C149.324 32.2269 149.257 32.2546 149.188 32.2546C148.487 32.2546 147.786 32.2861 147.106 32.3422H147.085Z" fill="#EAE2E2"/>
<path d="M144.809 95.6387L141.477 93.7074L141.449 93.6899C139.995 92.8682 137.997 92.9876 135.788 94.2693C131.343 96.8361 127.736 103.08 127.736 108.213C127.736 110.777 128.639 112.578 130.089 113.421L133.126 115.177L133.829 113.986C134.64 113.806 135.42 113.503 136.139 113.087C140.585 110.52 144.191 104.277 144.191 99.1432C144.19 98.4496 144.105 97.7586 143.938 97.0855L144.809 95.6387Z" fill="#F28F8F"/>
<path opacity="0.15" d="M128.031 105.513C127.835 106.401 127.732 107.307 127.726 108.217C127.726 110.78 128.628 112.582 130.078 113.424L133.116 115.18L133.818 113.99C134.63 113.81 135.409 113.507 136.129 113.091C136.915 112.63 137.651 112.088 138.323 111.472L128.031 105.513Z" fill="black"/>
<path d="M138.948 96.0987C134.503 98.6656 130.896 104.909 130.896 110.043C130.896 115.177 134.503 117.259 138.948 114.692C143.394 112.125 147 105.882 147 100.748C147 95.6141 143.397 93.5318 138.948 96.0987Z" fill="#FFA8A7"/>
<path d="M142.129 103.245V101.271C142.129 99.0203 140.759 97.9844 139.074 98.9606C137.385 99.9368 136.015 102.549 136.015 104.8V106.556C135.979 107.774 135.624 108.962 134.987 110.001C134.83 110.276 134.744 110.586 134.737 110.903C134.737 111.468 135.088 111.732 135.506 111.486L142.645 107.364C142.879 107.195 143.071 106.975 143.204 106.719C143.338 106.464 143.41 106.18 143.414 105.892C143.425 105.782 143.41 105.671 143.372 105.568C143.333 105.464 143.27 105.371 143.189 105.295C142.543 105.021 142.129 104.298 142.129 103.245Z" fill="white"/>
<path d="M140.54 109.214C140.54 110.296 139.883 111.549 139.075 112.023C138.268 112.497 137.607 111.995 137.607 110.917L140.54 109.214Z" fill="white"/>
</svg>
