<svg width="185" height="130" viewBox="0 0 185 130" fill="none" xmlns="http://www.w3.org/2000/svg">
<path d="M25.9543 118.497C57.825 133.712 109.494 133.712 141.36 118.497C173.227 103.283 173.231 78.6127 141.36 63.3978C109.49 48.1829 57.8212 48.1829 25.9543 63.3978C-5.91256 78.6127 -5.91636 103.283 25.9543 118.497Z" fill="#EEE7E7"/>
<path d="M17.8838 26.16L40.5685 19.1053L23.1167 31.1953L17.8838 26.16Z" fill="#6404E0"/>
<path d="M40.5677 19.1056L16.1343 23.1355L10.9014 18.0959L40.5677 19.1056Z" fill="#6404E0"/>
<path d="M16.1348 23.1353V29.1803L17.8834 26.16L40.5681 19.1053L16.1348 23.1353Z" fill="#455A64"/>
<path d="M16.1348 29.1804L19.6277 27.8399L17.8834 26.16L16.1348 29.1804Z" fill="#6404E0"/>
<path d="M17.8838 26.16L19.6281 27.8399L19.0696 28.0504L17.8838 26.16Z" fill="#455A64"/>
<path d="M12.3751 28.2695C12.3029 28.2709 12.2323 28.2479 12.1747 28.2043C12.1171 28.1607 12.0758 28.099 12.0574 28.0291C12.0391 27.9593 12.0448 27.8852 12.0736 27.819C12.1023 27.7527 12.1526 27.698 12.2162 27.6637C12.6028 27.4489 12.9938 27.2341 13.3805 27.0666C13.4188 27.0458 13.461 27.0331 13.5044 27.0291C13.5478 27.0251 13.5916 27.03 13.633 27.0434C13.6745 27.0568 13.7128 27.0785 13.7457 27.1072C13.7785 27.1359 13.8052 27.1709 13.8241 27.2102C13.843 27.2495 13.8538 27.2922 13.8557 27.3357C13.8576 27.3793 13.8507 27.4228 13.8353 27.4636C13.82 27.5043 13.7965 27.5416 13.7663 27.5731C13.7361 27.6045 13.6999 27.6295 13.6597 27.6466C13.286 27.827 12.9036 28.0203 12.5298 28.2309C12.482 28.2557 12.429 28.2689 12.3751 28.2695Z" fill="#E0E0E0"/>
<path d="M8.4097 62.9669C8.34386 62.9676 8.27939 62.9481 8.22496 62.9111C7.52622 62.4185 6.86426 61.8757 6.24434 61.287C6.20505 61.2615 6.1718 61.2278 6.14689 61.1881C6.12198 61.1485 6.10602 61.1038 6.10012 61.0574C6.09421 61.0109 6.09851 60.9637 6.11271 60.9191C6.12691 60.8744 6.15067 60.8334 6.18234 60.7989C6.214 60.7644 6.25281 60.7372 6.29605 60.7192C6.3393 60.7013 6.38595 60.6929 6.43275 60.6948C6.47955 60.6967 6.52538 60.7088 6.56704 60.7302C6.6087 60.7516 6.64519 60.7818 6.67398 60.8187C7.27193 61.3864 7.91095 61.9091 8.58585 62.3826C8.64147 62.4224 8.683 62.4789 8.70441 62.5438C8.72582 62.6087 8.72602 62.6788 8.70497 62.7439C8.68392 62.809 8.64271 62.8656 8.58731 62.9057C8.53192 62.9458 8.4652 62.9673 8.39681 62.9669H8.4097ZM5.04136 59.8392C4.99379 59.8397 4.94671 59.8296 4.90358 59.8095C4.86046 59.7894 4.82238 59.7599 4.79217 59.7232C4.2508 59.0624 3.75828 58.3632 3.31852 57.6309C3.27409 57.5574 3.26066 57.4692 3.28121 57.3858C3.30175 57.3024 3.35459 57.2306 3.42808 57.1862C3.50158 57.1417 3.58972 57.1283 3.67311 57.1489C3.7565 57.1694 3.82832 57.2222 3.87275 57.2957C4.29636 58.0019 4.77018 58.6768 5.29055 59.315C5.34422 59.3807 5.36981 59.465 5.36176 59.5494C5.35372 59.6339 5.31269 59.7117 5.24759 59.7661C5.19004 59.8148 5.1167 59.8408 5.04136 59.8392ZM2.62252 55.9295C2.5601 55.9301 2.49886 55.9125 2.44624 55.879C2.39361 55.8454 2.35186 55.7973 2.32607 55.7405C1.97498 54.9627 1.67363 54.1634 1.42383 53.3474C1.4055 53.268 1.41792 53.1846 1.45859 53.114C1.49926 53.0434 1.56517 52.9909 1.64303 52.9669C1.7209 52.9429 1.80496 52.9494 1.87828 52.9849C1.9516 53.0204 2.00875 53.0824 2.03821 53.1583C2.27572 53.9475 2.56271 54.721 2.89748 55.4741C2.91549 55.5127 2.92565 55.5545 2.9274 55.5971C2.92914 55.6396 2.92243 55.6821 2.90765 55.7221C2.89286 55.762 2.8703 55.7987 2.84127 55.8298C2.81224 55.861 2.77732 55.8861 2.73852 55.9037C2.70195 55.9199 2.66251 55.9287 2.62252 55.9295ZM1.2262 51.5429C1.15168 51.5422 1.0797 51.5158 1.02251 51.468C0.965329 51.4202 0.926475 51.3541 0.912567 51.2808C0.748561 50.4461 0.63237 49.6026 0.564562 48.7546C0.557725 48.6691 0.585117 48.5845 0.640712 48.5192C0.696306 48.4539 0.77555 48.4134 0.86101 48.4066C0.94647 48.3997 1.03115 48.4271 1.09641 48.4827C1.16167 48.5383 1.20218 48.6176 1.20902 48.703C1.27222 49.5267 1.38412 50.3458 1.54413 51.1563C1.55286 51.1978 1.55319 51.2406 1.54511 51.2822C1.53703 51.3239 1.5207 51.3635 1.49707 51.3987C1.47345 51.4339 1.44302 51.4641 1.40757 51.4874C1.37212 51.5107 1.33236 51.5266 1.29065 51.5343L1.2262 51.5429ZM0.818047 46.9544C0.775563 46.9544 0.733506 46.9459 0.694362 46.9294C0.655218 46.9129 0.61978 46.8887 0.590142 46.8583C0.560505 46.8278 0.537268 46.7918 0.521806 46.7522C0.506343 46.7126 0.498968 46.6704 0.500116 46.6279C0.510165 45.7775 0.567539 44.9284 0.671971 44.0845C0.672463 44.0392 0.682503 43.9945 0.701434 43.9533C0.720365 43.9121 0.747762 43.8754 0.781838 43.8456C0.815915 43.8157 0.855904 43.7934 0.899195 43.78C0.942487 43.7667 0.988108 43.7626 1.03308 43.7681C1.07805 43.7736 1.12137 43.7884 1.1602 43.8118C1.19903 43.8351 1.2325 43.8664 1.25842 43.9036C1.28435 43.9407 1.30215 43.9829 1.31066 44.0274C1.31918 44.0719 1.31821 44.1177 1.30783 44.1618C1.2085 44.9831 1.15399 45.8092 1.14457 46.6365C1.14401 46.6788 1.13512 46.7206 1.11841 46.7595C1.10169 46.7984 1.07748 46.8336 1.04716 46.8631C1.01684 46.8926 0.981001 46.9159 0.941689 46.9315C0.902377 46.9472 0.860363 46.955 0.818047 46.9544ZM1.3422 42.3788C1.31804 42.383 1.29333 42.383 1.26916 42.3788C1.18614 42.3603 1.1138 42.3097 1.06792 42.2381C1.02205 42.1664 1.00636 42.0796 1.02427 41.9964C1.21253 41.1642 1.45361 40.3448 1.74606 39.5432C1.7603 39.5014 1.78298 39.4629 1.81271 39.4302C1.84244 39.3975 1.87858 39.3713 1.91887 39.3532C1.95916 39.3351 2.00276 39.3254 2.04694 39.3248C2.09112 39.3243 2.13495 39.3328 2.17569 39.3499C2.21715 39.3646 2.25519 39.3876 2.28754 39.4175C2.31989 39.4473 2.34587 39.4834 2.36393 39.5235C2.38199 39.5636 2.39175 39.607 2.39263 39.651C2.3935 39.695 2.38548 39.7387 2.36903 39.7795C2.08713 40.5545 1.85466 41.3466 1.67302 42.1511C1.6518 42.2209 1.60752 42.2814 1.54743 42.3228C1.48733 42.3642 1.41498 42.3839 1.3422 42.3788ZM2.8717 38.0395C2.82217 38.0414 2.77306 38.0295 2.72992 38.0051C2.69148 37.9872 2.65701 37.9618 2.62855 37.9303C2.60008 37.8989 2.5782 37.862 2.56418 37.822C2.55017 37.782 2.54431 37.7395 2.54695 37.6972C2.54959 37.6548 2.56067 37.6135 2.57955 37.5755C2.95455 36.8098 3.37639 36.068 3.84268 35.3543C3.88963 35.2877 3.96004 35.2414 4.03975 35.2247C4.11946 35.2079 4.20256 35.222 4.27231 35.264C4.34042 35.3097 4.38827 35.3798 4.40588 35.4599C4.42349 35.5399 4.4095 35.6237 4.36683 35.6937C3.91361 36.3831 3.50463 37.1006 3.14237 37.8419C3.12014 37.8967 3.08302 37.9443 3.03519 37.9792C2.98737 38.0141 2.93075 38.035 2.8717 38.0395ZM5.34211 34.1728C5.27024 34.1735 5.20037 34.1492 5.14447 34.104C5.11098 34.0777 5.08305 34.0449 5.0623 34.0077C5.04155 33.9704 5.0284 33.9294 5.0236 33.8871C5.01881 33.8447 5.02247 33.8018 5.03436 33.7609C5.04626 33.72 5.06616 33.6818 5.09292 33.6486C5.62981 32.9854 6.20356 32.3528 6.81146 31.7539C6.87188 31.6936 6.95378 31.6597 7.03917 31.6597C7.12456 31.6597 7.20645 31.6936 7.26687 31.7539C7.32721 31.8143 7.36111 31.8962 7.36111 31.9816C7.36111 32.067 7.32721 32.1489 7.26687 32.2093C6.68136 32.7935 6.12776 33.4087 5.60848 34.0525C5.5752 34.0892 5.53378 34.1177 5.48752 34.1356C5.44127 34.1535 5.39147 34.1604 5.34211 34.1556V34.1728ZM8.57296 30.8732C8.52612 30.8731 8.47988 30.8626 8.43754 30.8426C8.39521 30.8225 8.35782 30.7933 8.32807 30.7572C8.27365 30.6913 8.24721 30.6067 8.25444 30.5216C8.26167 30.4364 8.30199 30.3575 8.36674 30.3018C9.02079 29.7579 9.70192 29.2474 10.4075 28.7723C10.4768 28.7298 10.5595 28.715 10.6392 28.731C10.7188 28.7469 10.7896 28.7923 10.8371 28.8582C10.8851 28.9295 10.903 29.0169 10.8869 29.1014C10.8708 29.1859 10.822 29.2606 10.7512 29.3093C10.0628 29.7715 9.39886 30.2691 8.762 30.8001C8.70804 30.8434 8.642 30.8689 8.57296 30.8732Z" fill="#E0E0E0"/>
<path d="M11.3666 64.6468C11.3205 64.6471 11.2749 64.6368 11.2334 64.6167C10.8339 64.4363 10.4386 64.243 10.0605 64.0367C10.0235 64.0173 9.99077 63.9907 9.96407 63.9586C9.93736 63.9265 9.91725 63.8894 9.90488 63.8495C9.89251 63.8096 9.88813 63.7677 9.89198 63.7261C9.89583 63.6845 9.90784 63.6441 9.92732 63.6071C9.96743 63.5333 10.0348 63.478 10.1151 63.4531C10.1953 63.4283 10.2821 63.4357 10.357 63.4739C10.7264 63.6715 11.1088 63.8606 11.4955 64.0367C11.5618 64.0676 11.6156 64.1201 11.6482 64.1856C11.6807 64.2511 11.69 64.3257 11.6745 64.3972C11.659 64.4686 11.6197 64.5327 11.5629 64.5789C11.5062 64.625 11.4354 64.6505 11.3623 64.6511L11.3666 64.6468Z" fill="#E0E0E0"/>
<path d="M158.322 49.0554L176.496 37.4209L184.5 39.9901L158.322 49.0554Z" fill="#6404E0"/>
<path d="M158.322 49.0554L174.03 35.9602L170.537 31.9302L158.322 49.0554Z" fill="#6404E0"/>
<path d="M174.03 35.96V38.9975L158.322 49.0553L174.03 35.96Z" fill="#455A64"/>
<path d="M177.575 34.6925C177.497 34.6928 177.422 34.6637 177.364 34.6109C177.301 34.5539 177.262 34.4744 177.256 34.3893C177.251 34.3042 177.279 34.2203 177.334 34.1555C177.894 33.5314 178.39 32.8536 178.816 32.1319C178.86 32.0578 178.931 32.004 179.014 31.9822C179.097 31.9605 179.185 31.9726 179.259 32.0159C179.333 32.0592 179.387 32.1301 179.409 32.2131C179.43 32.2961 179.418 32.3844 179.375 32.4584C178.925 33.2149 178.404 33.927 177.82 34.5851C177.789 34.6195 177.751 34.6469 177.709 34.6654C177.667 34.684 177.621 34.6932 177.575 34.6925ZM180.032 30.6883C179.994 30.6944 179.955 30.6944 179.916 30.6883C179.876 30.6728 179.838 30.6491 179.807 30.6189C179.776 30.5886 179.751 30.5522 179.734 30.5121C179.717 30.4719 179.709 30.4288 179.709 30.3852C179.709 30.3417 179.718 30.2986 179.736 30.2587C180.039 29.4761 180.267 28.6661 180.415 27.8398C180.43 27.7555 180.478 27.6808 180.549 27.632C180.619 27.5833 180.706 27.5645 180.791 27.5799C180.875 27.5953 180.95 27.6435 180.998 27.714C181.047 27.7845 181.066 27.8715 181.05 27.9558C180.892 28.8216 180.652 29.6704 180.333 30.4907C180.309 30.5502 180.267 30.6009 180.213 30.6362C180.16 30.6714 180.096 30.6896 180.032 30.6883ZM180.952 26.0783C180.91 26.0778 180.868 26.0689 180.829 26.0521C180.791 26.0353 180.756 26.0111 180.727 25.9807C180.697 25.9503 180.674 25.9144 180.659 25.8751C180.644 25.8358 180.637 25.7939 180.638 25.7518C180.638 25.6401 180.638 25.5284 180.638 25.4167C180.636 24.6873 180.579 23.9591 180.466 23.2384C180.454 23.1537 180.475 23.0674 180.526 22.9983C180.576 22.9292 180.652 22.8827 180.737 22.869C180.821 22.8577 180.907 22.8796 180.976 22.93C181.045 22.9805 181.092 23.0556 181.106 23.1396C181.222 23.8931 181.281 24.6543 181.282 25.4167C181.282 25.5327 181.282 25.6487 181.282 25.7647C181.279 25.8498 181.243 25.9302 181.181 25.9888C181.119 26.0474 181.037 26.0795 180.952 26.0783ZM180.303 21.4211C180.234 21.4209 180.167 21.3981 180.111 21.3562C180.056 21.3144 180.017 21.2557 179.998 21.1891C179.751 20.383 179.443 19.5972 179.074 18.839C179.055 18.801 179.044 18.7596 179.042 18.7173C179.039 18.6749 179.045 18.6325 179.059 18.5925C179.073 18.5524 179.095 18.5156 179.123 18.4842C179.152 18.4527 179.186 18.4273 179.224 18.4094C179.301 18.3724 179.39 18.3675 179.47 18.3957C179.551 18.4239 179.617 18.4829 179.654 18.5597C180.038 19.3476 180.359 20.1651 180.612 21.0043C180.625 21.0447 180.629 21.0871 180.625 21.1291C180.621 21.1712 180.609 21.212 180.589 21.2492C180.569 21.2864 180.541 21.3192 180.509 21.3458C180.476 21.3724 180.438 21.3921 180.397 21.4039C180.367 21.4158 180.335 21.4217 180.303 21.4211ZM178.309 17.1548C178.255 17.1553 178.202 17.1417 178.154 17.1154C178.107 17.089 178.067 17.0508 178.039 17.0044C177.578 16.2974 177.071 15.6214 176.522 14.9809C176.494 14.9487 176.473 14.9115 176.46 14.8712C176.447 14.8309 176.441 14.7883 176.445 14.746C176.448 14.7037 176.459 14.6624 176.479 14.6246C176.498 14.5867 176.524 14.553 176.556 14.5254C176.588 14.4978 176.625 14.4768 176.665 14.4636C176.705 14.4503 176.747 14.4452 176.789 14.4484C176.831 14.4516 176.872 14.4631 176.91 14.4822C176.947 14.5013 176.98 14.5277 177.008 14.5598C177.578 15.2229 178.103 15.9233 178.58 16.6564C178.62 16.7272 178.632 16.81 178.615 16.8892C178.597 16.9684 178.551 17.0385 178.486 17.0861C178.434 17.1239 178.373 17.1462 178.309 17.1505V17.1548ZM175.302 13.5416C175.22 13.5413 175.141 13.5089 175.083 13.4514C174.464 12.8723 173.814 12.3273 173.137 11.8187C173.103 11.7934 173.074 11.7615 173.053 11.7251C173.031 11.6887 173.017 11.6484 173.011 11.6065C173.005 11.5646 173.007 11.522 173.018 11.481C173.028 11.44 173.047 11.4015 173.072 11.3676C173.098 11.3338 173.129 11.3053 173.166 11.2837C173.202 11.2621 173.242 11.248 173.284 11.242C173.326 11.236 173.369 11.2383 173.41 11.2488C173.451 11.2593 173.489 11.2778 173.523 11.3032C174.222 11.8251 174.89 12.386 175.525 12.9831C175.573 13.0273 175.606 13.0851 175.621 13.1486C175.635 13.2122 175.63 13.2786 175.605 13.3391C175.581 13.3995 175.539 13.4513 175.485 13.4874C175.431 13.5236 175.367 13.5425 175.302 13.5416ZM171.534 10.6802C171.473 10.6796 171.413 10.6618 171.362 10.6287C171.07 10.4482 170.765 10.2678 170.456 10.0916C170.026 9.85102 169.596 9.61042 169.141 9.38272C169.099 9.36605 169.062 9.34089 169.03 9.30886C168.999 9.27682 168.975 9.23861 168.959 9.19667C168.943 9.15472 168.937 9.10996 168.939 9.06524C168.942 9.02052 168.954 8.97683 168.974 8.93695C168.994 8.89707 169.023 8.86187 169.058 8.83362C169.092 8.80536 169.133 8.78466 169.176 8.77284C169.219 8.76101 169.264 8.75833 169.309 8.76495C169.353 8.77157 169.395 8.78736 169.433 8.8113C169.884 9.0433 170.335 9.2839 170.774 9.53309C171.092 9.70924 171.401 9.89398 171.702 10.083C171.771 10.1273 171.821 10.1966 171.841 10.2765C171.861 10.3564 171.849 10.4409 171.809 10.5127C171.781 10.5617 171.741 10.6028 171.693 10.6321C171.645 10.6615 171.59 10.678 171.534 10.6802ZM133.017 10.4611C132.961 10.4605 132.905 10.4451 132.856 10.4165C132.807 10.3879 132.766 10.347 132.738 10.2978C132.697 10.2253 132.687 10.1397 132.708 10.0593C132.73 9.97902 132.782 9.9104 132.854 9.8682C133.602 9.43857 134.371 9.00893 135.148 8.64804C135.225 8.6108 135.313 8.60526 135.393 8.63262C135.474 8.65998 135.54 8.71803 135.578 8.79412C135.614 8.87121 135.618 8.95923 135.59 9.03945C135.562 9.11968 135.504 9.1858 135.427 9.22375C134.663 9.59753 133.907 9.99709 133.172 10.4224C133.124 10.4458 133.071 10.4562 133.017 10.4525V10.4611ZM167.345 8.49767C167.3 8.49795 167.256 8.48764 167.216 8.46759C166.443 8.12818 165.644 7.81025 164.845 7.52669C164.764 7.49764 164.698 7.43763 164.661 7.35988C164.624 7.28213 164.62 7.193 164.649 7.11209C164.678 7.03119 164.738 6.96514 164.816 6.92848C164.894 6.89182 164.983 6.88755 165.064 6.91661C165.876 7.20876 166.688 7.53099 167.478 7.87899C167.547 7.9083 167.604 7.96071 167.638 8.0272C167.673 8.09369 167.683 8.17011 167.667 8.24333C167.651 8.31655 167.611 8.38199 167.552 8.42841C167.493 8.47482 167.42 8.49931 167.345 8.49767ZM137.249 8.36448C137.186 8.36491 137.123 8.34631 137.071 8.31109C137.018 8.27587 136.977 8.22563 136.953 8.16685C136.935 8.12745 136.926 8.08491 136.925 8.04176C136.924 7.99861 136.932 7.95573 136.948 7.91565C136.964 7.87558 136.988 7.83914 137.018 7.80848C137.048 7.77783 137.085 7.7536 137.125 7.73721C137.919 7.4021 138.736 7.09276 139.552 6.8135C139.593 6.7965 139.637 6.78817 139.681 6.78902C139.726 6.78987 139.77 6.79989 139.81 6.81845C139.85 6.837 139.886 6.8637 139.916 6.89686C139.945 6.93001 139.968 6.96892 139.982 7.01113C139.997 7.05255 140.004 7.09668 140.003 7.14091C140.001 7.18515 139.99 7.22858 139.971 7.26865C139.953 7.30871 139.926 7.34459 139.893 7.37415C139.86 7.40372 139.822 7.42637 139.78 7.44076C138.976 7.71573 138.169 8.02077 137.391 8.34729C137.345 8.36013 137.296 8.36305 137.249 8.35589V8.36448ZM162.911 6.87794C162.881 6.88212 162.851 6.88212 162.821 6.87794C162.009 6.64164 161.176 6.44831 160.346 6.24638C160.305 6.23735 160.266 6.22024 160.231 6.19603C160.196 6.17182 160.166 6.14099 160.143 6.10528C160.12 6.06957 160.105 6.0297 160.097 5.98793C160.089 5.94617 160.09 5.90333 160.099 5.86186C160.108 5.82039 160.125 5.7811 160.15 5.74624C160.174 5.71139 160.205 5.68164 160.24 5.6587C160.276 5.63576 160.316 5.62008 160.358 5.61255C160.399 5.60502 160.442 5.60579 160.484 5.61481C161.343 5.79956 162.177 6.01867 163.001 6.25927C163.076 6.28099 163.14 6.32883 163.182 6.39403C163.224 6.45922 163.241 6.53739 163.23 6.61417C163.219 6.69096 163.181 6.76121 163.122 6.81203C163.064 6.86285 162.989 6.89083 162.911 6.89083V6.87794ZM141.709 6.8135C141.638 6.81323 141.57 6.79 141.514 6.74734C141.459 6.70468 141.418 6.64493 141.399 6.5772C141.388 6.53686 141.384 6.49458 141.389 6.45281C141.393 6.41104 141.406 6.37061 141.427 6.33385C141.447 6.2971 141.474 6.26475 141.507 6.23867C141.54 6.21259 141.578 6.19331 141.619 6.18193C142.448 5.94993 143.298 5.7523 144.145 5.56326C144.188 5.54957 144.233 5.54502 144.278 5.5499C144.322 5.55479 144.366 5.569 144.405 5.59161C144.444 5.61423 144.477 5.64475 144.504 5.68121C144.53 5.71768 144.549 5.75927 144.558 5.8033C144.567 5.84734 144.567 5.89285 144.558 5.9369C144.549 5.98095 144.53 6.02255 144.504 6.05903C144.477 6.09552 144.444 6.12607 144.405 6.14871C144.366 6.17136 144.323 6.18561 144.278 6.19053C143.444 6.36668 142.611 6.5729 141.795 6.80061L141.709 6.8135ZM158.306 5.84252H158.241C157.403 5.70933 156.548 5.60193 155.706 5.52459C155.662 5.52411 155.618 5.51446 155.578 5.49625C155.537 5.47805 155.501 5.45168 155.471 5.4188C155.441 5.38592 155.419 5.34724 155.404 5.30518C155.39 5.26312 155.385 5.21859 155.389 5.17438C155.393 5.13016 155.406 5.08723 155.427 5.04825C155.448 5.00928 155.477 4.97511 155.512 4.94789C155.547 4.92067 155.587 4.90098 155.631 4.89006C155.674 4.87914 155.718 4.87723 155.762 4.88444C156.621 4.96177 157.481 5.06918 158.34 5.20666C158.424 5.22141 158.498 5.26828 158.548 5.33729C158.598 5.4063 158.619 5.492 158.606 5.57615C158.591 5.64568 158.553 5.70825 158.499 5.7541C158.445 5.79995 158.377 5.82651 158.306 5.82963V5.84252ZM146.323 5.81245C146.247 5.81241 146.173 5.78516 146.114 5.73557C146.056 5.68598 146.017 5.61729 146.005 5.54178C145.993 5.45699 146.014 5.37074 146.065 5.30162C146.115 5.23249 146.191 5.18605 146.276 5.17229C147.135 5.0434 147.994 4.93599 148.854 4.86295C148.896 4.85929 148.939 4.86399 148.979 4.8768C149.02 4.8896 149.057 4.91025 149.09 4.93758C149.122 4.96491 149.149 4.99838 149.169 5.03607C149.188 5.07376 149.2 5.11494 149.204 5.15725C149.207 5.19957 149.203 5.24219 149.19 5.28269C149.177 5.32319 149.156 5.36077 149.129 5.39328C149.102 5.42579 149.068 5.45261 149.031 5.47219C148.993 5.49177 148.952 5.50374 148.909 5.50741C148.05 5.58044 147.212 5.67926 146.375 5.81245H146.323ZM153.605 5.38281C152.746 5.35274 151.887 5.34844 151.049 5.38281C151.007 5.38513 150.964 5.37888 150.925 5.36443C150.885 5.34998 150.849 5.32764 150.818 5.29874C150.787 5.26984 150.762 5.23498 150.745 5.19627C150.728 5.15756 150.719 5.11578 150.718 5.07347C150.716 5.03101 150.723 4.98863 150.738 4.94884C150.753 4.90905 150.776 4.87266 150.805 4.84182C150.834 4.81098 150.87 4.78631 150.908 4.76928C150.947 4.75225 150.989 4.74319 151.032 4.74266C151.891 4.71258 152.75 4.71688 153.61 4.74266C153.652 4.74377 153.694 4.75321 153.732 4.77044C153.771 4.78767 153.806 4.81235 153.835 4.84308C153.864 4.8738 153.887 4.90996 153.902 4.94949C153.917 4.98902 153.924 5.03115 153.923 5.07347C153.917 5.15407 153.881 5.22944 153.822 5.28499C153.763 5.34055 153.686 5.37234 153.605 5.37422V5.38281Z" fill="#E0E0E0"/>
<path d="M16.4945 103.013C16.2796 103.129 12.3356 104.246 10.8748 102.317C9.41407 100.388 11.8415 97.3808 10.471 96.2723C9.10043 95.1638 5.2595 96.2723 4.33578 93.9437C3.41206 91.615 6.14884 90.6097 4.61075 88.2596C3.63977 86.7774 0.924477 85.961 1.04907 84.5819C1.22952 82.5669 4.94157 82.0041 8.18102 84.1824C11.4205 86.3606 12.9328 84.5733 13.9596 84.4272C14.9864 84.2812 17.2034 84.6034 17.1346 88.2123C17.0659 91.8213 16.4945 103.013 16.4945 103.013Z" fill="#6404E0"/>
<path d="M16.7567 97.8964C16.7054 97.8962 16.6558 97.878 16.6166 97.8451C16.5773 97.8121 16.5509 97.7664 16.5418 97.716C15.4119 90.8418 7.45076 85.2866 3.30908 84.0922C3.28168 84.0848 3.25605 84.072 3.23374 84.0545C3.21143 84.0369 3.1929 84.0151 3.17925 83.9902C3.16561 83.9653 3.15714 83.9379 3.15434 83.9097C3.15155 83.8814 3.15449 83.8529 3.163 83.8259C3.17895 83.7712 3.21598 83.725 3.26593 83.6977C3.31589 83.6703 3.37468 83.6638 3.42937 83.6798C7.66128 84.9042 15.8072 90.6141 16.9672 97.6472C16.9759 97.703 16.9623 97.76 16.9293 97.8058C16.8964 97.8516 16.8467 97.8826 16.791 97.8921L16.7567 97.8964Z" fill="#F0EAEA"/>
<path d="M7.36438 92.1435C7.31713 92.144 7.27105 92.1288 7.23327 92.1005C7.19549 92.0721 7.16812 92.032 7.15539 91.9865C7.14267 91.941 7.14531 91.8926 7.1629 91.8487C7.18048 91.8049 7.21204 91.768 7.25268 91.7439C7.38157 91.6666 10.4492 89.875 13.4652 90.7128C13.5222 90.7276 13.5709 90.7645 13.6007 90.8152C13.6306 90.866 13.639 90.9265 13.6242 90.9835C13.6094 91.0405 13.5725 91.0892 13.5218 91.119C13.471 91.1488 13.4105 91.1573 13.3535 91.1425C10.5093 90.3519 7.50187 92.1091 7.47179 92.1263C7.43837 92.1422 7.40109 92.1482 7.36438 92.1435Z" fill="#F0EAEA"/>
<path d="M128.809 66.7134C130.501 66.9454 133.384 65.9659 133.59 63.1475C133.797 60.329 134.961 59.5643 137.096 59.1046C139.232 58.6449 139.859 57.9016 140.104 56.5611C140.349 55.2207 138.725 53.6181 139.18 51.5989C139.635 49.5796 141.156 49.5839 142.651 47.3025C143.61 45.8332 141.646 43.5905 138.377 44.5528C135.107 45.5152 135.369 47.6247 132.1 47.8954C128.83 48.1661 126.781 50.151 126.716 52.6214C126.652 55.0918 128.809 66.7134 128.809 66.7134Z" fill="#6404E0"/>
<path opacity="0.2" d="M128.809 66.7134C130.501 66.9454 133.384 65.9659 133.59 63.1475C133.797 60.329 134.961 59.5643 137.096 59.1046C139.232 58.6449 139.859 57.9016 140.104 56.5611C140.349 55.2207 138.725 53.6181 139.18 51.5989C139.635 49.5796 141.156 49.5839 142.651 47.3025C143.61 45.8332 141.646 43.5905 138.377 44.5528C135.107 45.5152 135.369 47.6247 132.1 47.8954C128.83 48.1661 126.781 50.151 126.716 52.6214C126.652 55.0918 128.809 66.7134 128.809 66.7134Z" fill="black"/>
<path d="M128.192 61.3087H128.166C128.138 61.303 128.112 61.292 128.089 61.2762C128.065 61.2604 128.045 61.2402 128.03 61.2166C128.014 61.1931 128.003 61.1667 127.998 61.139C127.993 61.1113 127.993 61.0828 127.998 61.0552C129.58 53.2401 138.202 46.0867 140.303 45.3563C140.36 45.3375 140.422 45.3421 140.476 45.3691C140.529 45.3961 140.57 45.4433 140.589 45.5002C140.608 45.5572 140.603 45.6193 140.576 45.6729C140.549 45.7265 140.502 45.7671 140.445 45.7859C138.391 46.4991 129.966 53.5194 128.415 61.1626C128.399 61.2081 128.369 61.2471 128.328 61.2736C128.288 61.3 128.24 61.3123 128.192 61.3087Z" fill="#F0EAEA"/>
<path d="M14.6924 58.5375C14.7134 58.1501 14.8255 57.7731 15.0196 57.4372C15.2137 57.1012 15.4843 56.8158 15.8094 56.6041L72.9123 23.6339C73.2582 23.4601 73.64 23.3696 74.0272 23.3696C74.4143 23.3696 74.7961 23.4601 75.1421 23.6339L76.4009 24.3643C76.7268 24.5752 76.9979 24.8604 77.1921 25.1965C77.3863 25.5326 77.498 25.91 77.5179 26.2977V70.0689C77.4959 70.4561 77.3834 70.8327 77.1894 71.1685C76.9954 71.5043 76.7253 71.7899 76.4009 72.0023L19.2981 104.968C18.952 105.144 18.5692 105.236 18.181 105.236C17.7928 105.236 17.4101 105.144 17.064 104.968L15.8094 104.242C15.4848 104.03 15.2145 103.744 15.0205 103.409C14.8264 103.073 14.714 102.696 14.6924 102.309V58.5375Z" fill="#6404E0"/>
<path opacity="0.3" d="M14.6924 58.5375C14.7134 58.1501 14.8255 57.7731 15.0196 57.4372C15.2137 57.1012 15.4843 56.8158 15.8094 56.6041L72.9123 23.6339C73.2582 23.4601 73.64 23.3696 74.0272 23.3696C74.4143 23.3696 74.7961 23.4601 75.1421 23.6339L76.4009 24.3643C76.7268 24.5752 76.9979 24.8604 77.1921 25.1965C77.3863 25.5326 77.498 25.91 77.5179 26.2977V70.0689C77.4959 70.4561 77.3834 70.8327 77.1894 71.1685C76.9954 71.5043 76.7253 71.7899 76.4009 72.0023L19.2981 104.968C18.952 105.144 18.5692 105.236 18.181 105.236C17.7928 105.236 17.4101 105.144 17.064 104.968L15.8094 104.242C15.4848 104.03 15.2145 103.744 15.0205 103.409C14.8264 103.073 14.714 102.696 14.6924 102.309V58.5375Z" fill="black"/>
<path d="M19.9253 60.2733L15.0189 57.4377C14.8183 57.7706 14.7059 58.1491 14.6924 58.5375V102.309C14.714 102.696 14.8264 103.073 15.0205 103.409C15.2145 103.744 15.4848 104.03 15.8094 104.242L17.064 104.968C17.4101 105.144 17.7928 105.236 18.181 105.236C18.5692 105.236 18.952 105.144 19.2981 104.968L19.9253 104.607V60.2733Z" fill="#6404E0"/>
<path opacity="0.5" d="M19.9253 60.2733L15.0189 57.4377C14.8183 57.7706 14.7059 58.1491 14.6924 58.5375V102.309C14.714 102.696 14.8264 103.073 15.0205 103.409C15.2145 103.744 15.4848 104.03 15.8094 104.242L17.064 104.968C17.4101 105.144 17.7928 105.236 18.181 105.236C18.5692 105.236 18.952 105.144 19.2981 104.968L19.9253 104.607V60.2733Z" fill="black"/>
<path d="M77.5192 26.2978V70.0691C77.5047 70.4698 77.3846 70.8596 77.1712 71.199C77.0062 71.4849 76.7838 71.7336 76.5181 71.9294L76.4751 71.9552L76.4021 72.0024L19.2993 104.968C19.19 105.045 19.063 105.094 18.9301 105.109C18.7971 105.124 18.6626 105.105 18.5388 105.054C18.4199 104.979 18.3237 104.873 18.2609 104.747C18.198 104.622 18.1708 104.481 18.1822 104.341V60.5527C18.1725 60.3959 18.2009 60.2392 18.2651 60.0959C18.3292 59.9526 18.4272 59.827 18.5505 59.7298C18.6739 59.6326 18.8189 59.5668 18.9733 59.5381C19.1277 59.5093 19.2867 59.5183 19.4368 59.5645L43.4491 65.2743L46.594 66.0219C46.9652 66.0914 47.3484 66.0582 47.702 65.9256C48.0557 65.7931 48.3663 65.5664 48.6004 65.27L52.2437 60.1961L76.7673 26.0529C77.1797 25.4772 77.5192 25.5846 77.5192 26.2978Z" fill="#6404E0"/>
<path opacity="0.2" d="M77.5192 26.2978V70.0691C77.5047 70.4698 77.3846 70.8596 77.1712 71.199C77.0062 71.4849 76.7838 71.7336 76.5181 71.9294L76.4751 71.9552L76.4021 72.0024L19.2993 104.968C19.19 105.045 19.063 105.094 18.9301 105.109C18.7971 105.124 18.6626 105.105 18.5388 105.054C18.4199 104.979 18.3237 104.873 18.2609 104.747C18.198 104.622 18.1708 104.481 18.1822 104.341V60.5527C18.1725 60.3959 18.2009 60.2392 18.2651 60.0959C18.3292 59.9526 18.4272 59.827 18.5505 59.7298C18.6739 59.6326 18.8189 59.5668 18.9733 59.5381C19.1277 59.5093 19.2867 59.5183 19.4368 59.5645L43.4491 65.2743L46.594 66.0219C46.9652 66.0914 47.3484 66.0582 47.702 65.9256C48.0557 65.7931 48.3663 65.5664 48.6004 65.27L52.2437 60.1961L76.7673 26.0529C77.1797 25.4772 77.5192 25.5846 77.5192 26.2978Z" fill="black"/>
<path d="M76.3996 72.0023L76.4726 71.955L76.5156 71.9292C76.7813 71.7334 77.0037 71.4847 77.1686 71.1988C77.3798 70.8647 77.4998 70.481 77.5167 70.0861L52.2412 60.2045L69.1688 76.1869L76.3996 72.0023Z" fill="#6404E0"/>
<path opacity="0.6" d="M76.3996 72.0023L76.4726 71.955L76.5156 71.9292C76.7813 71.7334 77.0037 71.4847 77.1686 71.1988C77.3798 70.8647 77.4998 70.481 77.5167 70.0861L52.2412 60.2045L69.1688 76.1869L76.3996 72.0023Z" fill="black"/>
<path d="M18.1808 104.341C18.1644 104.484 18.1883 104.628 18.2498 104.758C18.3113 104.888 18.408 104.998 18.5288 105.076C18.6526 105.126 18.7871 105.145 18.9201 105.13C19.053 105.115 19.18 105.067 19.2893 104.99L38.958 93.6001L43.4477 65.2442L18.1808 103.598V104.341Z" fill="#6404E0"/>
<path opacity="0.6" d="M18.1808 104.341C18.1644 104.484 18.1883 104.628 18.2498 104.758C18.3113 104.888 18.408 104.998 18.5288 105.076C18.6526 105.126 18.7871 105.145 18.9201 105.13C19.053 105.115 19.18 105.067 19.2893 104.99L38.958 93.6001L43.4477 65.2442L18.1808 103.598V104.341Z" fill="black"/>
<path d="M77.1704 71.1989C77.0054 71.4847 76.7831 71.7334 76.5174 71.9292L76.4744 71.955L19.2985 104.968C19.1893 105.045 19.0623 105.094 18.9293 105.109C18.7964 105.124 18.6618 105.105 18.5381 105.054L45.8844 61.3989C46.434 60.5245 47.2802 59.8773 48.268 59.5759C49.2559 59.2745 50.3193 59.339 51.2634 59.7577L77.1704 71.1989Z" fill="#6404E0"/>
<path opacity="0.2" d="M77.1704 71.1989C77.0054 71.4847 76.7831 71.7334 76.5174 71.9292L76.4744 71.955L19.2985 104.968C19.1893 105.045 19.0623 105.094 18.9293 105.109C18.7964 105.124 18.6618 105.105 18.5381 105.054L45.8844 61.3989C46.434 60.5245 47.2802 59.8773 48.268 59.5759C49.2559 59.2745 50.3193 59.339 51.2634 59.7577L77.1704 71.1989Z" fill="black"/>
<path d="M18.1807 59.2636L44.4443 70.8637C45.3899 71.2812 46.4543 71.3437 47.4423 71.0399C48.4303 70.7361 49.2757 70.0863 49.8233 69.2096L77.4016 25.0732L18.1807 59.2636Z" fill="#6404E0"/>
<path opacity="0.6" d="M18.1807 59.2636L44.4443 70.8637C45.3899 71.2812 46.4543 71.3437 47.4423 71.0399C48.4303 70.7361 49.2757 70.0863 49.8233 69.2096L77.4016 25.0732L18.1807 59.2636Z" fill="black"/>
<path d="M18.1807 59.2636L44.629 69.1452C45.543 69.4864 46.5459 69.5064 47.4728 69.2019C48.3997 68.8973 49.1953 68.2864 49.7288 67.4696L77.4016 25.0732L18.1807 59.2636Z" fill="#6404E0"/>
<path opacity="0.2" d="M18.1807 59.2636L44.629 69.1452C45.543 69.4864 46.5459 69.5064 47.4728 69.2019C48.3997 68.8973 49.1953 68.2864 49.7288 67.4696L77.4016 25.0732L18.1807 59.2636Z" fill="black"/>
<path d="M24.4443 63.9296C24.4643 63.5419 24.576 63.1645 24.7702 62.8284C24.9643 62.4923 25.2355 62.2071 25.5614 61.9962L82.6642 29.026C83.0103 28.8501 83.393 28.7585 83.7813 28.7585C84.1695 28.7585 84.5522 28.8501 84.8983 29.026L86.1571 29.7521C86.4815 29.9642 86.7513 30.2498 86.9446 30.5857C87.1379 30.9216 87.2494 31.2984 87.2699 31.6854V75.4567C87.2487 75.8435 87.137 76.22 86.9437 76.5558C86.7504 76.8916 86.481 77.1774 86.1571 77.39L29.05 110.356C28.7041 110.53 28.3223 110.62 27.9351 110.62C27.548 110.62 27.1662 110.53 26.8202 110.356L25.5614 109.63C25.2369 109.417 24.9669 109.132 24.7729 108.796C24.5789 108.46 24.4663 108.084 24.4443 107.696V63.9296Z" fill="#455A64"/>
<path d="M24.4443 63.9296C24.4643 63.5419 24.576 63.1645 24.7702 62.8284C24.9643 62.4923 25.2355 62.2071 25.5614 61.9962L82.6642 29.026C83.0103 28.8501 83.393 28.7585 83.7813 28.7585C84.1695 28.7585 84.5522 28.8501 84.8983 29.026L86.1571 29.7521C86.4815 29.9642 86.7513 30.2498 86.9446 30.5857C87.1379 30.9216 87.2494 31.2984 87.2699 31.6854V75.4567C87.2487 75.8435 87.137 76.22 86.9437 76.5558C86.7504 76.8916 86.481 77.1774 86.1571 77.39L29.05 110.356C28.7041 110.53 28.3223 110.62 27.9351 110.62C27.548 110.62 27.1662 110.53 26.8202 110.356L25.5614 109.63C25.2369 109.417 24.9669 109.132 24.7729 108.796C24.5789 108.46 24.4663 108.084 24.4443 107.696V63.9296Z" fill="#455A64"/>
<path d="M29.6816 65.6739L24.7709 62.8426C24.5697 63.1752 24.4573 63.5539 24.4443 63.9424V107.701C24.4663 108.088 24.5789 108.465 24.7729 108.8C24.9669 109.136 25.2369 109.422 25.5614 109.634L26.8202 110.36C27.1662 110.534 27.548 110.625 27.9351 110.625C28.3223 110.625 28.7041 110.534 29.05 110.36L29.6816 109.995V65.6739Z" fill="#263238"/>
<path d="M87.2748 31.6853V75.4565C87.2603 75.8572 87.1402 76.247 86.9268 76.5864C86.7618 76.8723 86.5395 77.121 86.2737 77.3168L86.2308 77.3426L86.1577 77.3899L29.0549 110.356C28.9456 110.433 28.8186 110.481 28.6857 110.496C28.5528 110.511 28.4182 110.493 28.2944 110.442C28.1736 110.364 28.0769 110.254 28.0154 110.124C27.9539 109.994 27.93 109.85 27.9464 109.707V65.9401C27.9367 65.7834 27.9652 65.6266 28.0293 65.4833C28.0935 65.34 28.1914 65.2144 28.3147 65.1172C28.4381 65.0201 28.5832 64.9543 28.7375 64.9255C28.8919 64.8967 29.0509 64.9058 29.201 64.9519L53.2133 70.6618L56.3582 71.4093C56.7294 71.4789 57.1126 71.4456 57.4662 71.3131C57.8199 71.1805 58.1305 70.9538 58.3646 70.6575L62.0036 65.5835L86.5272 31.4404C86.9225 30.8733 87.2748 30.9721 87.2748 31.6853Z" fill="#37474F"/>
<path d="M86.1574 77.3899L86.2304 77.3426L86.2734 77.3168C86.5391 77.121 86.7615 76.8723 86.9265 76.5864C87.135 76.2529 87.2535 75.871 87.2702 75.478L61.999 65.5964L78.9224 81.5702L86.1574 77.3899Z" fill="#263238"/>
<path d="M27.9383 109.711C27.9219 109.854 27.9458 109.999 28.0073 110.129C28.0688 110.258 28.1654 110.368 28.2863 110.446C28.41 110.497 28.5446 110.516 28.6775 110.501C28.8105 110.486 28.9375 110.437 29.0467 110.36L48.7068 99.0092L53.1965 70.6533L27.9297 108.977L27.9383 109.711Z" fill="#263238"/>
<path d="M86.9229 76.5866C86.758 76.8725 86.5356 77.1211 86.2699 77.3169L86.2269 77.3427L29.0554 110.356C28.9461 110.433 28.8191 110.481 28.6862 110.496C28.5532 110.511 28.4187 110.493 28.2949 110.442L55.6369 66.7909C56.1852 65.915 57.0308 65.266 58.0188 64.963C59.0068 64.66 60.0708 64.7232 61.0159 65.1411L86.9229 76.5866Z" fill="#37474F"/>
<path d="M27.9385 64.6556L54.2021 76.2557C55.1472 76.672 56.2106 76.734 57.1977 76.4302C58.1847 76.1264 59.0293 75.4773 59.5768 74.6016L87.1551 30.4437L27.9385 64.6556Z" fill="#263238"/>
<path d="M27.9385 64.6556L54.3825 74.5372C55.2971 74.8795 56.3009 74.9001 57.2287 74.5955C58.1565 74.2909 58.9529 73.6794 59.4866 72.8616L87.1551 30.4437L27.9385 64.6556Z" fill="#37474F"/>
<path d="M66.3291 98.674V54.9028C66.369 54.0723 66.6284 53.2673 67.081 52.5698L94.3155 14.6459C94.8125 13.9531 95.5044 13.4238 96.3032 13.1254C97.1019 12.827 97.9714 12.773 98.8009 12.9704L124.411 19.0583C125.237 19.278 126.033 19.5953 126.783 20.0035L128.042 20.7296C128.366 20.9425 128.635 21.2283 128.828 21.564C129.021 21.8998 129.133 22.2761 129.155 22.6629V66.4342C129.132 66.8208 129.02 67.1969 128.827 67.5326C128.634 67.8682 128.365 68.1541 128.042 68.3675L70.9348 101.333C70.5891 101.508 70.2072 101.599 69.8199 101.599C69.4325 101.599 69.0506 101.508 68.705 101.333L67.4461 100.607C67.1215 100.395 66.8512 100.11 66.6572 99.7738C66.4631 99.438 66.3508 99.0612 66.3291 98.674Z" fill="#6404E0"/>
<path opacity="0.3" d="M66.3291 98.674V54.9028C66.369 54.0723 66.6284 53.2673 67.081 52.5698L94.3155 14.6459C94.8125 13.9531 95.5044 13.4238 96.3032 13.1254C97.1019 12.827 97.9714 12.773 98.8009 12.9704L124.411 19.0583C125.237 19.278 126.033 19.5953 126.783 20.0035L128.042 20.7296C128.366 20.9425 128.635 21.2283 128.828 21.564C129.021 21.8998 129.133 22.2761 129.155 22.6629V66.4342C129.132 66.8208 129.02 67.1969 128.827 67.5326C128.634 67.8682 128.365 68.1541 128.042 68.3675L70.9348 101.333C70.5891 101.508 70.2072 101.599 69.8199 101.599C69.4325 101.599 69.0506 101.508 68.705 101.333L67.4461 100.607C67.1215 100.395 66.8512 100.11 66.6572 99.7738C66.4631 99.438 66.3508 99.0612 66.3291 98.674Z" fill="#F0EAEA"/>
<path d="M71.5635 33.7477V89.6002C71.5635 90.3091 72.0662 90.6013 72.6805 90.2447L126.295 59.311C126.62 59.0995 126.891 58.8142 127.085 58.4782C127.279 58.1422 127.391 57.7651 127.412 57.3776V1.52501C127.412 0.811818 126.913 0.523962 126.295 0.88056L72.6805 31.8143C72.3554 32.026 72.0848 32.3114 71.8907 32.6473C71.6966 32.9832 71.5845 33.3602 71.5635 33.7477Z" fill="#FAFAFA"/>
<path d="M72.1811 90.6184C72.0426 90.6195 71.9062 90.5839 71.7858 90.5153C71.6388 90.4173 71.5212 90.2812 71.4455 90.1215C71.3699 89.9618 71.339 89.7846 71.3562 89.6088V33.7562C71.3766 33.3305 71.4983 32.9158 71.7113 32.5466C71.9243 32.1775 72.2223 31.8645 72.5807 31.6338L126.195 0.700043C126.335 0.586051 126.506 0.517342 126.686 0.503041C126.866 0.48874 127.046 0.529524 127.202 0.619978C127.358 0.710432 127.483 0.846272 127.561 1.00945C127.638 1.17263 127.663 1.35542 127.634 1.53354V57.3861C127.614 57.8113 127.492 58.2255 127.279 58.5941C127.066 58.9626 126.768 59.2747 126.41 59.5042L72.7955 90.438C72.6103 90.5515 72.3983 90.6138 72.1811 90.6184ZM126.792 0.919158C126.653 0.927095 126.519 0.969953 126.401 1.04375L72.7869 31.999C72.495 32.1927 72.252 32.4514 72.0768 32.7547C71.9016 33.0581 71.7991 33.398 71.7772 33.7476V89.6002C71.7515 89.7009 71.7594 89.8073 71.7997 89.9032C71.84 89.999 71.9105 90.0791 72.0005 90.1311C72.0905 90.1832 72.1951 90.2044 72.2983 90.1915C72.4014 90.1787 72.4976 90.1324 72.5721 90.0599L126.186 59.1261C126.478 58.9327 126.722 58.674 126.897 58.3706C127.072 58.0672 127.174 57.7272 127.196 57.3775V1.52495C127.208 1.42419 127.194 1.322 127.156 1.22803C127.118 1.13407 127.056 1.05142 126.977 0.987901C126.923 0.948681 126.859 0.92492 126.792 0.919158Z" fill="#E0E0E0"/>
<path d="M70.4079 55.9683L66.5412 53.7342C66.416 54.1117 66.3465 54.5053 66.335 54.9028V98.6741C66.3566 99.0613 66.469 99.4381 66.663 99.7739C66.8571 100.11 67.1273 100.395 67.452 100.607L68.7065 101.334C69.0519 101.509 69.4339 101.601 69.8215 101.601C70.209 101.601 70.591 101.509 70.9364 101.334L71.4734 101.028L70.4079 55.9683Z" fill="#6404E0"/>
<g opacity="0.1">
<path d="M70.4069 55.9684L66.5402 53.7343C66.415 54.1117 66.3456 54.5054 66.334 54.9029V98.6741C66.3556 99.0614 66.468 99.4381 66.6621 99.7739C66.8561 100.11 67.1264 100.395 67.451 100.607L68.7056 101.334C69.0509 101.509 69.433 101.601 69.8205 101.601C70.208 101.601 70.59 101.509 70.9354 101.334L71.4724 101.029L70.4069 55.9684Z" fill="black"/>
</g>
<path d="M129.161 22.6629V66.4342C129.146 66.8349 129.026 67.2247 128.813 67.5641C128.648 67.85 128.425 68.0987 128.159 68.2945L128.117 68.3203L128.043 68.3675L70.9406 101.333C70.8314 101.411 70.7044 101.459 70.5714 101.474C70.4385 101.489 70.3039 101.47 70.1802 101.419C70.0593 101.342 69.9627 101.232 69.9012 101.102C69.8397 100.972 69.8158 100.827 69.8322 100.685V56.9177C69.8225 56.761 69.8509 56.6043 69.915 56.461C69.9792 56.3177 70.0771 56.192 70.2005 56.0949C70.3238 55.9977 70.4689 55.9319 70.6233 55.9031C70.7776 55.8744 70.9366 55.8834 71.0867 55.9296L95.0861 61.6394L98.2311 62.387C98.6029 62.4574 98.987 62.4245 99.3414 62.2919C99.6959 62.1594 100.007 61.9322 100.242 61.6351L103.885 56.5611L128.409 22.418C128.821 21.8509 129.161 21.9497 129.161 22.6629Z" fill="#6404E0"/>
<path opacity="0.3" d="M129.161 22.6629V66.4342C129.146 66.8349 129.026 67.2247 128.813 67.5641C128.648 67.85 128.425 68.0987 128.159 68.2945L128.117 68.3203L128.043 68.3675L70.9406 101.333C70.8314 101.411 70.7044 101.459 70.5714 101.474C70.4385 101.489 70.3039 101.47 70.1802 101.419C70.0593 101.342 69.9627 101.232 69.9012 101.102C69.8397 100.972 69.8158 100.827 69.8322 100.685V56.9177C69.8225 56.761 69.8509 56.6043 69.915 56.461C69.9792 56.3177 70.0771 56.192 70.2005 56.0949C70.3238 55.9977 70.4689 55.9319 70.6233 55.9031C70.7776 55.8744 70.9366 55.8834 71.0867 55.9296L95.0861 61.6394L98.2311 62.387C98.6029 62.4574 98.987 62.4245 99.3414 62.2919C99.6959 62.1594 100.007 61.9322 100.242 61.6351L103.885 56.5611L128.409 22.418C128.821 21.8509 129.161 21.9497 129.161 22.6629Z" fill="#F0EAEA"/>
<path d="M128.042 68.3676L128.115 68.3203L128.158 68.2945C128.424 68.0987 128.646 67.85 128.811 67.5641C129.02 67.2291 129.138 66.8458 129.155 66.4514L103.884 56.5698L120.807 72.5479L128.042 68.3676Z" fill="#6404E0"/>
<path d="M69.823 100.689C69.8066 100.832 69.8305 100.976 69.892 101.106C69.9536 101.236 70.0502 101.346 70.1711 101.424C70.2948 101.475 70.4294 101.493 70.5623 101.478C70.6952 101.463 70.8222 101.415 70.9315 101.338L90.5916 89.9869L95.0813 61.631L69.8145 99.9545L69.823 100.689Z" fill="#6404E0"/>
<path d="M128.811 67.5642C128.646 67.8501 128.424 68.0988 128.158 68.2946L128.115 68.3204L70.9392 101.334C70.8299 101.411 70.7029 101.459 70.57 101.474C70.437 101.489 70.3025 101.47 70.1787 101.42L97.5207 57.7686C98.0689 56.8937 98.9138 56.2454 99.9007 55.9425C100.888 55.6395 101.951 55.7021 102.895 56.1188L128.811 67.5642Z" fill="#6404E0"/>
<path opacity="0.3" d="M128.811 67.5642C128.646 67.8501 128.424 68.0988 128.158 68.2946L128.115 68.3204L70.9392 101.334C70.8299 101.411 70.7029 101.459 70.57 101.474C70.437 101.489 70.3025 101.47 70.1787 101.42L97.5207 57.7686C98.0689 56.8937 98.9138 56.2454 99.9007 55.9425C100.888 55.6395 101.951 55.7021 102.895 56.1188L128.811 67.5642Z" fill="#F0EAEA"/>
<path d="M95.172 46.6109C94.6707 46.6884 94.1581 46.6429 93.6783 46.4783C93.1986 46.3136 92.766 46.0347 92.4181 45.6657C91.765 44.9396 91.4385 43.8182 91.4385 42.3102C91.4396 40.6087 91.8043 38.9271 92.5083 37.378C93.2309 35.784 94.2286 34.3297 95.4556 33.0817C96.7749 31.7136 98.2788 30.5365 99.9238 29.5844C101.536 28.6564 102.913 28.1423 104.053 28.042C105.2 27.9389 106.063 28.2354 106.656 28.9228C107.249 29.6102 107.541 30.6628 107.541 32.072C107.566 33.4696 107.235 34.8506 106.579 36.0848C106.001 37.2026 105.119 38.1347 104.035 38.7743C103.661 39.0401 103.203 39.1594 102.746 39.1094C102.584 39.0773 102.435 38.999 102.316 38.8839C102.197 38.7688 102.114 38.6219 102.076 38.4607C101.719 39.1374 101.264 39.7583 100.727 40.3038C100.184 40.8642 99.5651 41.3458 98.8884 41.7345C97.7197 42.3962 96.7874 42.5938 96.1 42.3661C95.4126 42.1384 95.0861 41.4424 95.0861 40.2823C95.0959 38.8246 95.5451 37.4036 96.375 36.2051C97.2784 34.8764 98.4787 33.7761 99.8808 32.9914C100.466 32.6427 101.103 32.3876 101.767 32.2353C102.261 32.1015 102.781 32.1015 103.275 32.2353V36.7593C103.275 37.1245 103.339 37.3479 103.464 37.4339C103.589 37.5198 103.795 37.4768 104.087 37.3093C104.631 36.9552 105.034 36.4216 105.225 35.8013C105.516 34.9632 105.654 34.08 105.634 33.1934C105.634 32.0649 105.387 31.2443 104.895 30.7316C104.631 30.4742 104.31 30.2837 103.958 30.176C103.606 30.0684 103.233 30.0467 102.871 30.1129C101.822 30.2731 100.817 30.6475 99.9195 31.2127C98.0199 32.2664 96.3825 33.735 95.129 35.5091C93.9707 37.174 93.3554 39.1564 93.3675 41.1846C93.3675 42.4191 93.621 43.3199 94.128 43.887C94.3908 44.1709 94.7198 44.3853 95.0856 44.5112C95.4514 44.6372 95.8427 44.6707 96.2246 44.6088C97.2938 44.4573 98.3188 44.081 99.2321 43.5046C99.8624 43.14 100.459 42.7202 101.015 42.2501C101.533 41.8227 102.004 41.3417 102.42 40.8151C102.463 40.7597 102.514 40.7105 102.57 40.669C102.609 40.6475 102.648 40.669 102.682 40.7206L103.155 41.5798C103.172 41.6139 103.185 41.65 103.193 41.6873C103.178 41.783 103.131 41.8708 103.06 41.9364C102.541 42.5606 101.966 43.1358 101.342 43.655C100.684 44.2063 99.9816 44.7007 99.2407 45.1329C98.0065 45.9123 96.6187 46.4165 95.172 46.6109ZM100.757 38.5337C101.166 38.051 101.405 37.4471 101.436 36.8152V34.1944C100.823 34.2462 100.232 34.45 99.7175 34.7873C98.898 35.2483 98.1999 35.8978 97.6811 36.682C97.1943 37.4014 96.9326 38.2494 96.9292 39.118C96.9292 39.8441 97.1097 40.2781 97.4749 40.4069C97.84 40.5358 98.4029 40.4069 99.1719 39.9472C99.7946 39.587 100.339 39.1065 100.774 38.5337H100.757Z" fill="#E0E0E0"/>
<path d="M40.4519 50.9156L36.263 48.4882H36.2329C34.8022 47.6804 32.8302 47.8007 30.6477 49.0596C26.2611 51.5901 22.708 57.7468 22.708 62.8079C22.708 65.3385 23.5931 67.1043 25.0237 67.9635L28.9205 70.1933L29.6251 69.0204C30.4243 68.8413 31.1919 68.5429 31.9022 68.1354C36.2845 65.6005 39.8419 59.4439 39.8419 54.387C39.8395 53.7036 39.7558 53.0229 39.5927 52.3592L40.4519 50.9156Z" fill="#F28F8F"/>
<path d="M40.4519 50.9156L36.263 48.4882H36.2329C34.8022 47.6804 32.8302 47.8007 30.6477 49.0596C26.2611 51.5901 22.708 57.7468 22.708 62.8079C22.708 65.3385 23.5931 67.1043 25.0237 67.9635L28.9205 70.1933L29.6251 69.0204C30.4243 68.8413 31.1919 68.5429 31.9022 68.1354C36.2845 65.6005 39.8419 59.4439 39.8419 54.387C39.8395 53.7036 39.7558 53.0229 39.5927 52.3592L40.4519 50.9156Z" fill="#6404E0"/>
<path opacity="0.4" d="M40.4519 50.9156L36.263 48.4882H36.2329C34.8022 47.6804 32.8302 47.8007 30.6477 49.0596C26.2611 51.5901 22.708 57.7468 22.708 62.8079C22.708 65.3385 23.5931 67.1043 25.0237 67.9635L28.9205 70.1933L29.6251 69.0204C30.4243 68.8413 31.1919 68.5429 31.9022 68.1354C36.2845 65.6005 39.8419 59.4439 39.8419 54.387C39.8395 53.7036 39.7558 53.0229 39.5927 52.3592L40.4519 50.9156Z" fill="black"/>
<path d="M34.6721 51.3667C30.2855 53.9015 26.7324 60.0582 26.7324 65.115C26.7324 70.1718 30.2855 72.2298 34.6721 69.6992C39.0587 67.1687 42.6117 61.012 42.6117 55.9509C42.6117 50.8898 39.0587 48.8361 34.6721 51.3667Z" fill="#6404E0"/>
<path d="M147.183 85.1164V84.429H147.015C146.76 83.9633 146.373 83.5836 145.902 83.3377C144.943 82.8505 143.881 82.5965 142.805 82.5965C141.728 82.5965 140.667 82.8505 139.707 83.3377C139.237 83.5836 138.849 83.9633 138.594 84.429H138.427V85.0949C138.427 85.7522 138.856 86.4139 139.716 86.9165C140.676 87.4014 141.737 87.6541 142.813 87.6541C143.889 87.6541 144.95 87.4014 145.911 86.9165C146.762 86.4311 147.187 85.7694 147.183 85.1164Z" fill="#37474F"/>
<path d="M142.805 86.9594C145.223 86.9594 147.183 85.8265 147.183 84.4289C147.183 83.0313 145.223 81.8983 142.805 81.8983C140.387 81.8983 138.427 83.0313 138.427 84.4289C138.427 85.8265 140.387 86.9594 142.805 86.9594Z" fill="#455A64"/>
<path d="M141.679 63.3595V84.1324C141.688 84.231 141.723 84.3254 141.78 84.4061C141.838 84.4868 141.915 84.551 142.005 84.5921C142.252 84.7171 142.525 84.7822 142.802 84.7822C143.079 84.7822 143.352 84.7171 143.599 84.5921C143.69 84.5519 143.769 84.4881 143.827 84.4073C143.885 84.3265 143.921 84.2316 143.93 84.1324V63.3595H141.679Z" fill="#37474F"/>
<path d="M147.852 47.8111C146.757 47.1795 145.76 47.128 145.013 47.5447L131.097 55.5875L138.078 69.5893L152.041 61.5122V55.3856C152.041 52.5371 150.164 49.1473 147.852 47.8111Z" fill="#455A64"/>
<path d="M138.078 63.4583V69.5892L129.704 64.7515V58.6249C129.704 55.7765 131.577 54.552 133.889 55.8882C135.371 56.7474 136.673 58.4402 137.416 60.2962C137.832 61.2998 138.056 62.3723 138.078 63.4583Z" fill="#37474F"/>
<path d="M138.078 63.4584V69.5893L129.704 64.7516L137.416 60.2962C137.832 61.2998 138.056 62.3723 138.078 63.4584Z" fill="#263238"/>
<path d="M136.682 65.5594C135.913 63.3339 133.413 60.4467 131.097 59.1149C128.781 57.783 127.535 58.5005 128.304 60.726L129.701 64.756L138.079 69.5937C138.079 69.5937 137.456 67.7849 136.682 65.5594Z" fill="#455A64"/>
<path d="M142.444 63.6905L141.976 63.4198C141.876 63.3736 141.765 63.3548 141.654 63.3654C141.544 63.3759 141.439 63.4155 141.349 63.4799C141.09 63.6493 140.875 63.8771 140.72 64.1451C140.566 64.413 140.476 64.7135 140.46 65.0223C140.448 65.133 140.466 65.2447 140.512 65.3459C140.558 65.4472 140.63 65.5342 140.722 65.598L141.151 65.8472L141.233 65.714C141.322 65.6948 141.408 65.6614 141.486 65.6152C141.745 65.4468 141.96 65.2198 142.115 64.9525C142.269 64.6853 142.359 64.3854 142.376 64.0771C142.375 64.0003 142.365 63.9238 142.346 63.8494L142.444 63.6905Z" fill="#263238"/>
<path d="M141.795 63.7421C141.536 63.9105 141.321 64.1375 141.166 64.4048C141.011 64.672 140.922 64.9719 140.905 65.2802C140.905 65.8473 141.305 66.075 141.795 65.7914C142.054 65.6233 142.269 65.3963 142.424 65.129C142.578 64.8617 142.667 64.5616 142.684 64.2533C142.697 63.6862 142.267 63.4585 141.795 63.7421Z" fill="#37474F"/>
<path d="M141.795 65.0095C141.761 65.0095 141.728 65.0028 141.696 64.9899C141.665 64.9769 141.637 64.9579 141.613 64.934C141.589 64.91 141.57 64.8816 141.557 64.8503C141.544 64.8191 141.537 64.7855 141.537 64.7517V55.8883C141.537 55.82 141.564 55.7544 141.613 55.706C141.661 55.6577 141.727 55.6305 141.795 55.6305C141.863 55.6305 141.929 55.6577 141.977 55.706C142.026 55.7544 142.053 55.82 142.053 55.8883V64.7517C142.053 64.8201 142.026 64.8856 141.977 64.934C141.929 64.9823 141.863 65.0095 141.795 65.0095Z" fill="#263238"/>
<path d="M142.027 56.1202V58.4316L144.506 55.8882L142.027 56.1202Z" fill="#37474F"/>
<path d="M37.6598 58.1974V56.629C37.6598 54.8517 36.5289 54.0209 35.1321 54.794C33.7445 55.5693 32.6067 57.6464 32.6067 59.4326V60.8321C32.5759 61.7994 32.2825 62.7421 31.7556 63.5669C31.6266 63.7853 31.5559 64.0311 31.5498 64.2822C31.5498 64.7265 31.8343 64.9487 32.1858 64.7443L38.0876 61.4719C38.2814 61.3385 38.4399 61.1633 38.5503 60.9603C38.6608 60.7574 38.7201 60.5324 38.7236 60.3034C38.7323 60.2162 38.7202 60.1282 38.6881 60.0462C38.656 59.9642 38.6049 59.8904 38.5386 59.8302C38.0021 59.6058 37.6598 59.0393 37.6598 58.1974Z" fill="#F0EAEA"/>
<path d="M36.9324 62.1298C36.9324 63.1077 36.3295 64.2427 35.5855 64.6633C34.8415 65.0839 34.2412 64.6354 34.2412 63.6499L36.9324 62.1298Z" fill="#F0EAEA"/>
</svg>
