<svg width="232" height="274" viewBox="0 0 232 274" fill="none" xmlns="http://www.w3.org/2000/svg">
<rect x="0.883789" y="0.235352" width="230.412" height="273.08" rx="25.6013" fill="url(#paint0_linear_968_1496)"/>
<path d="M120.083 100.622H115.236V85.1243H109.228V81.4718C110.07 81.4946 110.878 81.4377 111.652 81.3011C112.448 81.1419 113.154 80.8801 113.768 80.516C114.405 80.1292 114.94 79.6285 115.372 79.0141C115.805 78.3997 116.089 77.6373 116.226 76.7271H120.083V100.622Z" fill="white"/>
<path d="M68.2735 117.83H71.8236L77.9679 134.215L84.1395 117.83H87.6895V137.328H85.2318V121.107H85.1772L79.0875 137.328H76.8755L70.7858 121.107H70.7312V137.328H68.2735V117.83ZM93.5087 127.579C93.5087 128.562 93.6361 129.536 93.891 130.501C94.1459 131.448 94.5464 132.304 95.0926 133.068C95.6387 133.833 96.3396 134.452 97.1953 134.925C98.0509 135.38 99.0704 135.608 100.254 135.608C101.437 135.608 102.457 135.38 103.312 134.925C104.168 134.452 104.869 133.833 105.415 133.068C105.961 132.304 106.362 131.448 106.617 130.501C106.871 129.536 106.999 128.562 106.999 127.579C106.999 126.596 106.871 125.631 106.617 124.685C106.362 123.72 105.961 122.855 105.415 122.09C104.869 121.326 104.168 120.716 103.312 120.261C102.457 119.788 101.437 119.551 100.254 119.551C99.0704 119.551 98.0509 119.788 97.1953 120.261C96.3396 120.716 95.6387 121.326 95.0926 122.09C94.5464 122.855 94.1459 123.72 93.891 124.685C93.6361 125.631 93.5087 126.596 93.5087 127.579ZM90.9144 127.579C90.9144 126.25 91.1056 124.976 91.4879 123.756C91.8884 122.518 92.4801 121.426 93.2629 120.479C94.0457 119.533 95.0197 118.777 96.1849 118.213C97.35 117.648 98.7063 117.366 100.254 117.366C101.801 117.366 103.158 117.648 104.323 118.213C105.488 118.777 106.462 119.533 107.245 120.479C108.027 121.426 108.61 122.518 108.992 123.756C109.393 124.976 109.593 126.25 109.593 127.579C109.593 128.908 109.393 130.192 108.992 131.43C108.61 132.65 108.027 133.733 107.245 134.679C106.462 135.626 105.488 136.382 104.323 136.946C103.158 137.492 101.801 137.765 100.254 137.765C98.7063 137.765 97.35 137.492 96.1849 136.946C95.0197 136.382 94.0457 135.626 93.2629 134.679C92.4801 133.733 91.8884 132.65 91.4879 131.43C91.1056 130.192 90.9144 128.908 90.9144 127.579ZM112.727 117.83H115.485L125.753 133.642H125.808V117.83H128.265V137.328H125.425L115.239 121.681H115.185V137.328H112.727V117.83ZM136.886 120.015H130.387V117.83H145.98V120.015H139.48V137.328H136.886V120.015ZM148.143 117.83H150.737V126.214H161.005V117.83H163.599V137.328H161.005V128.399H150.737V137.328H148.143V117.83Z" fill="white"/>
<path d="M41.7539 184.158H44.2682V176.615H46.7825L51.082 184.158H56.8397V176.615H59.354V184.158H61.8683V186.673H59.354V189.187H61.8683V191.701H59.354V199.244H56.8397L52.5277 191.701H46.7825V199.244H44.2682V191.701H41.7539V189.187H44.2682V186.673H41.7539V184.158ZM46.7825 184.158H48.2031L46.7825 181.682V184.158ZM46.7825 186.673V189.187H51.082L49.6488 186.673H46.7825ZM56.8397 194.216V191.701H55.394L56.8397 194.216ZM52.5151 186.673L53.9608 189.187H56.8397V186.673H52.5151Z" fill="white"/>
<path d="M75.5885 199.048C73.9876 199.048 72.5488 198.577 71.272 197.634C69.9952 196.681 69.2635 195.297 69.0769 193.48H73.2608C73.359 194.108 73.6242 194.619 74.0564 195.012C74.4885 195.405 75.0631 195.601 75.78 195.601C77.1649 195.601 78.1372 194.835 78.697 193.303C79.0015 192.458 79.193 191.226 79.2716 189.605C78.8885 190.086 78.4809 190.455 78.0488 190.71C77.2631 191.181 76.2957 191.417 75.1465 191.417C73.4474 191.417 71.9398 190.833 70.6238 189.664C69.3077 188.485 68.6496 186.791 68.6496 184.581C68.6496 182.293 69.3077 180.442 70.6238 179.027C71.9497 177.603 73.6684 176.891 75.78 176.891C79.0309 176.891 81.2604 178.33 82.4685 181.208C83.156 182.838 83.4997 184.984 83.4997 187.646C83.4997 190.229 83.1707 192.385 82.5127 194.113C81.2555 197.403 78.9475 199.048 75.5885 199.048ZM74.1153 181.001C73.3099 181.63 72.9073 182.696 72.9073 184.198C72.9073 185.465 73.1626 186.418 73.6733 187.056C74.1939 187.685 74.9894 187.999 76.0599 187.999C76.6394 187.999 77.1845 187.832 77.6952 187.498C78.6479 186.889 79.1242 185.834 79.1242 184.331C79.1242 183.123 78.8394 182.165 78.2698 181.458C77.71 180.751 76.939 180.397 75.9568 180.397C75.2399 180.397 74.626 180.599 74.1153 181.001ZM92.8547 198.96C90.1341 198.96 88.2238 198.007 87.1238 196.102C86.0337 194.197 85.4886 191.481 85.4886 187.955C85.4886 184.429 86.0337 181.709 87.1238 179.793C88.2238 177.878 90.1341 176.921 92.8547 176.921C95.5752 176.921 97.4855 177.878 98.5855 179.793C99.6757 181.709 100.221 184.429 100.221 187.955C100.221 191.481 99.6708 194.197 98.5708 196.102C97.4806 198.007 95.5752 198.96 92.8547 198.96ZM95.315 193.583C95.698 192.286 95.8895 190.41 95.8895 187.955C95.8895 185.382 95.6931 183.476 95.3002 182.239C94.9172 181.001 94.102 180.383 92.8547 180.383C91.6073 180.383 90.7823 181.001 90.3797 182.239C89.977 183.476 89.7756 185.382 89.7756 187.955C89.7756 190.41 89.977 192.291 90.3797 193.598C90.7823 194.894 91.6073 195.542 92.8547 195.542C94.102 195.542 94.9221 194.889 95.315 193.583ZM109.649 198.96C106.929 198.96 105.019 198.007 103.919 196.102C102.828 194.197 102.283 191.481 102.283 187.955C102.283 184.429 102.828 181.709 103.919 179.793C105.019 177.878 106.929 176.921 109.649 176.921C112.37 176.921 114.28 177.878 115.38 179.793C116.47 181.709 117.016 184.429 117.016 187.955C117.016 191.481 116.466 194.197 115.365 196.102C114.275 198.007 112.37 198.96 109.649 198.96ZM112.11 193.583C112.493 192.286 112.684 190.41 112.684 187.955C112.684 185.382 112.488 183.476 112.095 182.239C111.712 181.001 110.897 180.383 109.649 180.383C108.402 180.383 107.577 181.001 107.174 182.239C106.772 183.476 106.57 185.382 106.57 187.955C106.57 190.41 106.772 192.291 107.174 193.598C107.577 194.894 108.402 195.542 109.649 195.542C110.897 195.542 111.717 194.889 112.11 193.583Z" fill="white"/>
<path d="M131.058 177.472H134.407L125.59 200.452H122.241L131.058 177.472Z" fill="white"/>
<path d="M138.209 181.306H140.871L145.48 193.595L150.108 181.306H152.771V195.93H150.928V183.764H150.887L146.319 195.93H144.66L140.093 183.764H140.052V195.93H138.209V181.306ZM156.992 190.646C156.992 191.287 157.074 191.861 157.238 192.366C157.415 192.858 157.654 193.274 157.954 193.615C158.255 193.943 158.603 194.196 158.999 194.373C159.409 194.551 159.839 194.639 160.289 194.639C160.74 194.639 161.163 194.551 161.559 194.373C161.969 194.196 162.324 193.943 162.624 193.615C162.924 193.274 163.157 192.858 163.32 192.366C163.498 191.861 163.587 191.287 163.587 190.646C163.587 190.004 163.498 189.437 163.32 188.946C163.157 188.44 162.924 188.017 162.624 187.676C162.324 187.334 161.969 187.075 161.559 186.898C161.163 186.72 160.74 186.631 160.289 186.631C159.839 186.631 159.409 186.72 158.999 186.898C158.603 187.075 158.255 187.334 157.954 187.676C157.654 188.017 157.415 188.44 157.238 188.946C157.074 189.437 156.992 190.004 156.992 190.646ZM155.149 190.646C155.149 189.867 155.258 189.144 155.476 188.475C155.695 187.792 156.022 187.205 156.459 186.713C156.896 186.208 157.436 185.812 158.077 185.525C158.719 185.239 159.456 185.095 160.289 185.095C161.136 185.095 161.873 185.239 162.501 185.525C163.143 185.812 163.682 186.208 164.119 186.713C164.556 187.205 164.884 187.792 165.102 188.475C165.321 189.144 165.43 189.867 165.43 190.646C165.43 191.424 165.321 192.148 165.102 192.817C164.884 193.486 164.556 194.073 164.119 194.578C163.682 195.069 163.143 195.459 162.501 195.745C161.873 196.018 161.136 196.155 160.289 196.155C159.456 196.155 158.719 196.018 158.077 195.745C157.436 195.459 156.896 195.069 156.459 194.578C156.022 194.073 155.695 193.486 155.476 192.817C155.258 192.148 155.149 191.424 155.149 190.646ZM167.483 185.341H169.121V187.02H169.162C169.886 185.737 171.033 185.095 172.603 185.095C173.299 185.095 173.879 185.191 174.344 185.382C174.808 185.573 175.183 185.839 175.47 186.181C175.757 186.522 175.955 186.932 176.064 187.41C176.187 187.874 176.248 188.393 176.248 188.966V195.93H174.508V188.761C174.508 188.106 174.316 187.587 173.934 187.205C173.552 186.822 173.026 186.631 172.357 186.631C171.825 186.631 171.36 186.713 170.964 186.877C170.582 187.041 170.261 187.273 170.002 187.573C169.742 187.874 169.544 188.229 169.408 188.638C169.285 189.034 169.223 189.471 169.223 189.949V195.93H167.483V185.341ZM181.28 185.341H183.389V186.877H181.28V193.451C181.28 193.656 181.294 193.82 181.321 193.943C181.362 194.066 181.43 194.161 181.526 194.23C181.621 194.298 181.751 194.346 181.915 194.373C182.092 194.387 182.318 194.394 182.591 194.394H183.389V195.93H182.058C181.608 195.93 181.218 195.902 180.891 195.848C180.577 195.779 180.317 195.663 180.112 195.5C179.921 195.336 179.778 195.104 179.682 194.803C179.587 194.503 179.539 194.107 179.539 193.615V186.877H177.737V185.341H179.539V182.166H181.28V185.341ZM185.323 181.306H187.064V186.898H187.105C187.242 186.57 187.433 186.297 187.679 186.078C187.925 185.846 188.198 185.662 188.498 185.525C188.812 185.375 189.133 185.266 189.461 185.198C189.802 185.129 190.13 185.095 190.444 185.095C191.14 185.095 191.72 185.191 192.185 185.382C192.649 185.573 193.024 185.839 193.311 186.181C193.598 186.522 193.796 186.932 193.905 187.41C194.028 187.874 194.089 188.393 194.089 188.966V195.93H192.348V188.761C192.348 188.106 192.157 187.587 191.775 187.205C191.393 186.822 190.867 186.631 190.198 186.631C189.665 186.631 189.201 186.713 188.805 186.877C188.423 187.041 188.102 187.273 187.843 187.573C187.583 187.874 187.385 188.229 187.249 188.638C187.126 189.034 187.064 189.471 187.064 189.949V195.93H185.323V181.306Z" fill="white"/>
<defs>
<linearGradient id="paint0_linear_968_1496" x1="18.8047" y1="0.235358" x2="217.215" y2="290.383" gradientUnits="userSpaceOnUse">
<stop offset="0.08" stop-color="#9C58F5"/>
<stop offset="0.54" stop-color="#605CFD"/>
<stop offset="0.86" stop-color="#6404E0" stop-opacity="0.305882"/>
</linearGradient>
</defs>
</svg>
