<svg width="232" height="274" viewBox="0 0 232 274" fill="none" xmlns="http://www.w3.org/2000/svg">
<rect x="0.777344" y="0.235352" width="230.412" height="273.08" rx="25.6013" fill="url(#paint0_linear_895_6802)"/>
<path d="M115.933 88.6571C115.295 88.6571 114.726 88.7822 114.226 89.0326C113.748 89.2601 113.35 89.5787 113.031 89.9883C112.712 90.398 112.474 90.8759 112.314 91.422C112.155 91.9454 112.075 92.503 112.075 93.0946C112.075 93.6408 112.155 94.187 112.314 94.7331C112.496 95.2565 112.747 95.7344 113.065 96.1668C113.407 96.5764 113.816 96.9064 114.294 97.1567C114.772 97.407 115.318 97.5322 115.933 97.5322C116.524 97.5322 117.036 97.407 117.469 97.1567C117.924 96.9064 118.311 96.5764 118.629 96.1668C118.948 95.7572 119.187 95.2907 119.346 94.7672C119.505 94.2438 119.585 93.7091 119.585 93.1629C119.585 92.594 119.505 92.0478 119.346 91.5244C119.21 90.9783 118.993 90.5004 118.697 90.0907C118.402 89.6584 118.015 89.317 117.537 89.0667C117.082 88.7936 116.547 88.6571 115.933 88.6571ZM119.414 83.2979C119.255 82.5014 118.891 81.8073 118.322 81.2156C117.753 80.624 117.048 80.3281 116.206 80.3281C115.341 80.3281 114.613 80.5898 114.021 81.1132C113.452 81.6139 112.997 82.2397 112.656 82.9907C112.314 83.7189 112.064 84.504 111.905 85.346C111.745 86.188 111.654 86.9389 111.632 87.5989L111.7 87.6672C112.36 86.7114 113.133 86.0287 114.021 85.6191C114.908 85.2094 115.933 85.0046 117.093 85.0046C118.117 85.0046 119.118 85.2322 120.097 85.6873C121.076 86.1197 121.906 86.7114 122.589 87.4623C123.226 88.1906 123.693 89.0212 123.988 89.9542C124.284 90.8872 124.432 91.8316 124.432 92.7874C124.432 94.0163 124.227 95.1655 123.818 96.2351C123.431 97.2819 122.862 98.2035 122.111 99C121.383 99.7737 120.507 100.388 119.483 100.843C118.459 101.276 117.321 101.492 116.069 101.492C114.271 101.492 112.781 101.139 111.597 100.434C110.414 99.7055 109.47 98.761 108.764 97.6005C108.059 96.4399 107.569 95.1314 107.296 93.6749C107.023 92.1957 106.887 90.6938 106.887 89.1691C106.887 87.6899 107.057 86.2107 107.399 84.7315C107.74 83.2524 108.286 81.9211 109.037 80.7377C109.788 79.5316 110.755 78.5531 111.939 77.8021C113.122 77.0512 114.567 76.6757 116.274 76.6757C117.298 76.6757 118.254 76.8236 119.141 77.1194C120.029 77.4153 120.814 77.8476 121.497 78.4166C122.179 78.9627 122.737 79.6454 123.169 80.4647C123.602 81.2839 123.886 82.2283 124.023 83.2979H119.414Z" fill="white"/>
<path d="M58.7413 118.257H62.2913L68.4356 134.642L74.6072 118.257H78.1573V137.755H75.6996V121.534H75.645L69.5553 137.755H67.3433L61.2536 121.534H61.199V137.755H58.7413V118.257ZM83.9765 128.006C83.9765 128.989 84.1039 129.963 84.3588 130.928C84.6137 131.875 85.0142 132.73 85.5603 133.495C86.1065 134.259 86.8074 134.878 87.663 135.352C88.5187 135.807 89.5382 136.034 90.7215 136.034C91.9049 136.034 92.9244 135.807 93.78 135.352C94.6357 134.878 95.3366 134.259 95.8828 133.495C96.4289 132.73 96.8294 131.875 97.0843 130.928C97.3392 129.963 97.4666 128.989 97.4666 128.006C97.4666 127.023 97.3392 126.058 97.0843 125.111C96.8294 124.146 96.4289 123.282 95.8828 122.517C95.3366 121.752 94.6357 121.142 93.78 120.687C92.9244 120.214 91.9049 119.977 90.7215 119.977C89.5382 119.977 88.5187 120.214 87.663 120.687C86.8074 121.142 86.1065 121.752 85.5603 122.517C85.0142 123.282 84.6137 124.146 84.3588 125.111C84.1039 126.058 83.9765 127.023 83.9765 128.006ZM81.3822 128.006C81.3822 126.677 81.5734 125.403 81.9557 124.183C82.3562 122.945 82.9479 121.853 83.7307 120.906C84.5135 119.959 85.4875 119.204 86.6527 118.639C87.8178 118.075 89.1741 117.793 90.7215 117.793C92.269 117.793 93.6253 118.075 94.7904 118.639C95.9556 119.204 96.9296 119.959 97.7124 120.906C98.4952 121.853 99.0778 122.945 99.4601 124.183C99.8606 125.403 100.061 126.677 100.061 128.006C100.061 129.335 99.8606 130.618 99.4601 131.856C99.0778 133.076 98.4952 134.159 97.7124 135.106C96.9296 136.053 95.9556 136.808 94.7904 137.373C93.6253 137.919 92.269 138.192 90.7215 138.192C89.1741 138.192 87.8178 137.919 86.6527 137.373C85.4875 136.808 84.5135 136.053 83.7307 135.106C82.9479 134.159 82.3562 133.076 81.9557 131.856C81.5734 130.618 81.3822 129.335 81.3822 128.006ZM103.195 118.257H105.953L116.221 134.068H116.275V118.257H118.733V137.755H115.893L105.707 122.107H105.653V137.755H103.195V118.257ZM127.354 120.442H120.854V118.257H136.447V120.442H129.948V137.755H127.354V120.442ZM138.611 118.257H141.205V126.641H151.473V118.257H154.067V137.755H151.473V128.825H141.205V137.755H138.611V118.257ZM169.597 123.964C169.451 122.563 168.941 121.552 168.067 120.933C167.212 120.296 166.11 119.977 164.763 119.977C164.217 119.977 163.68 120.032 163.152 120.141C162.624 120.25 162.151 120.432 161.732 120.687C161.331 120.942 161.004 121.288 160.749 121.725C160.512 122.144 160.394 122.672 160.394 123.309C160.394 123.91 160.567 124.401 160.913 124.784C161.277 125.148 161.75 125.448 162.333 125.685C162.933 125.921 163.607 126.122 164.353 126.286C165.1 126.431 165.855 126.595 166.62 126.777C167.403 126.959 168.167 127.178 168.914 127.432C169.66 127.669 170.325 127.997 170.907 128.416C171.508 128.834 171.981 129.362 172.327 129.999C172.691 130.637 172.873 131.438 172.873 132.403C172.873 133.44 172.637 134.332 172.163 135.079C171.708 135.807 171.117 136.408 170.388 136.881C169.66 137.336 168.841 137.664 167.931 137.864C167.039 138.083 166.147 138.192 165.255 138.192C164.162 138.192 163.125 138.055 162.141 137.782C161.177 137.509 160.321 137.099 159.574 136.553C158.846 135.989 158.264 135.279 157.827 134.423C157.408 133.549 157.199 132.521 157.199 131.337H159.656C159.656 132.157 159.811 132.867 160.121 133.468C160.448 134.05 160.867 134.533 161.377 134.915C161.905 135.297 162.515 135.579 163.206 135.761C163.898 135.943 164.608 136.034 165.336 136.034C165.919 136.034 166.502 135.98 167.084 135.871C167.685 135.761 168.222 135.579 168.695 135.324C169.169 135.051 169.551 134.687 169.842 134.232C170.134 133.777 170.279 133.194 170.279 132.484C170.279 131.811 170.097 131.265 169.733 130.846C169.387 130.427 168.914 130.09 168.313 129.836C167.73 129.562 167.066 129.344 166.32 129.18C165.573 129.016 164.809 128.852 164.026 128.689C163.261 128.507 162.506 128.306 161.759 128.088C161.013 127.851 160.339 127.551 159.738 127.187C159.156 126.804 158.682 126.322 158.318 125.739C157.972 125.139 157.799 124.392 157.799 123.5C157.799 122.517 158 121.67 158.4 120.96C158.801 120.232 159.329 119.641 159.984 119.185C160.658 118.712 161.413 118.366 162.251 118.148C163.106 117.911 163.98 117.793 164.872 117.793C165.874 117.793 166.802 117.911 167.658 118.148C168.513 118.384 169.26 118.758 169.897 119.267C170.552 119.777 171.062 120.423 171.426 121.206C171.808 121.971 172.018 122.89 172.054 123.964H169.597Z" fill="white"/>
<path d="M28.8467 184.585H31.361V177.042H33.8753L38.1747 184.585H43.9325V177.042H46.4468V184.585H48.9611V187.099H46.4468V189.613H48.9611V192.128H46.4468V199.671H43.9325L39.6205 192.128H33.8753V199.671H31.361V192.128H28.8467V189.613H31.361V187.099H28.8467V184.585ZM33.8753 184.585H35.2959L33.8753 182.108V184.585ZM33.8753 187.099V189.613H38.1747L36.7416 187.099H33.8753ZM43.9325 194.642V192.128H42.4868L43.9325 194.642ZM39.6079 187.099L41.0536 189.613H43.9325V187.099H39.6079Z" fill="white"/>
<path d="M62.8875 188.249C62.3768 188.249 61.9349 188.313 61.5616 188.441C60.9036 188.676 60.4076 189.113 60.0737 189.752L56.3022 189.575L57.8049 177.774H69.576V181.34H60.8398L60.0737 186.01C60.7219 185.587 61.2277 185.307 61.5911 185.17C62.2 184.944 62.9416 184.831 63.8157 184.831C65.5835 184.831 67.1255 185.425 68.4416 186.614C69.7577 187.802 70.4157 189.531 70.4157 191.799C70.4157 193.774 69.7822 195.537 68.5152 197.088C67.2483 198.64 65.3527 199.416 62.8286 199.416C60.7956 199.416 59.1259 198.871 57.8197 197.781C56.5134 196.691 55.7866 195.144 55.6393 193.14H59.8232C59.9902 194.053 60.3094 194.761 60.7808 195.262C61.2523 195.753 61.9398 195.998 62.8433 195.998C63.8844 195.998 64.675 195.635 65.2152 194.908C65.7652 194.171 66.0402 193.248 66.0402 192.138C66.0402 191.048 65.7849 190.13 65.2742 189.383C64.7634 188.627 63.9679 188.249 62.8875 188.249ZM77.6492 200.359C77.4724 201.086 77.1434 201.714 76.6622 202.245C76.1416 202.814 75.5278 203.241 74.8206 203.526C74.1233 203.821 73.6421 203.968 73.3769 203.968V202.348C74.2215 202.112 74.8403 201.719 75.2331 201.169C75.6358 200.619 75.8666 199.848 75.9255 198.856H73.3769V194.466H77.9144V198.267C77.9144 198.935 77.826 199.632 77.6492 200.359ZM95.814 190.974V194.26H93.398V198.856H89.2877V194.26H80.8314V190.591L88.6836 177.627H93.398V190.974H95.814ZM83.9399 190.974H89.2877V181.752L83.9399 190.974ZM105.14 199.387C102.419 199.387 100.509 198.434 99.4087 196.529C98.3185 194.623 97.7734 191.908 97.7734 188.382C97.7734 184.856 98.3185 182.135 99.4087 180.22C100.509 178.305 102.419 177.347 105.14 177.347C107.86 177.347 109.77 178.305 110.87 180.22C111.961 182.135 112.506 184.856 112.506 188.382C112.506 191.908 111.956 194.623 110.856 196.529C109.765 198.434 107.86 199.387 105.14 199.387ZM107.6 194.009C107.983 192.713 108.174 190.837 108.174 188.382C108.174 185.808 107.978 183.903 107.585 182.665C107.202 181.428 106.387 180.809 105.14 180.809C103.892 180.809 103.067 181.428 102.665 182.665C102.262 183.903 102.06 185.808 102.06 188.382C102.06 190.837 102.262 192.718 102.665 194.024C103.067 195.32 103.892 195.969 105.14 195.969C106.387 195.969 107.207 195.316 107.6 194.009ZM121.934 199.387C119.214 199.387 117.303 198.434 116.203 196.529C115.113 194.623 114.568 191.908 114.568 188.382C114.568 184.856 115.113 182.135 116.203 180.22C117.303 178.305 119.214 177.347 121.934 177.347C124.655 177.347 126.565 178.305 127.665 180.22C128.755 182.135 129.3 184.856 129.3 188.382C129.3 191.908 128.75 194.623 127.65 196.529C126.56 198.434 124.655 199.387 121.934 199.387ZM124.395 194.009C124.778 192.713 124.969 190.837 124.969 188.382C124.969 185.808 124.773 183.903 124.38 182.665C123.997 181.428 123.182 180.809 121.934 180.809C120.687 180.809 119.862 181.428 119.459 182.665C119.057 183.903 118.855 185.808 118.855 188.382C118.855 190.837 119.057 192.718 119.459 194.024C119.862 195.32 120.687 195.969 121.934 195.969C123.182 195.969 124.002 195.316 124.395 194.009Z" fill="white"/>
<path d="M142.898 177.899H146.247L137.43 200.878H134.081L142.898 177.899Z" fill="white"/>
<path d="M150.05 181.733H152.712L157.32 194.021L161.949 181.733H164.612V196.356H162.768V184.19H162.727L158.16 196.356H156.501L151.934 184.19H151.893V196.356H150.05V181.733ZM168.833 191.072C168.833 191.714 168.915 192.287 169.078 192.793C169.256 193.284 169.495 193.7 169.795 194.042C170.096 194.37 170.444 194.622 170.84 194.8C171.249 194.977 171.679 195.066 172.13 195.066C172.581 195.066 173.004 194.977 173.4 194.8C173.81 194.622 174.165 194.37 174.465 194.042C174.765 193.7 174.997 193.284 175.161 192.793C175.339 192.287 175.428 191.714 175.428 191.072C175.428 190.43 175.339 189.864 175.161 189.372C174.997 188.867 174.765 188.444 174.465 188.102C174.165 187.761 173.81 187.502 173.4 187.324C173.004 187.147 172.581 187.058 172.13 187.058C171.679 187.058 171.249 187.147 170.84 187.324C170.444 187.502 170.096 187.761 169.795 188.102C169.495 188.444 169.256 188.867 169.078 189.372C168.915 189.864 168.833 190.43 168.833 191.072ZM166.989 191.072C166.989 190.294 167.099 189.57 167.317 188.901C167.536 188.218 167.863 187.631 168.3 187.14C168.737 186.635 169.276 186.239 169.918 185.952C170.56 185.665 171.297 185.522 172.13 185.522C172.977 185.522 173.714 185.665 174.342 185.952C174.984 186.239 175.523 186.635 175.96 187.14C176.397 187.631 176.725 188.218 176.943 188.901C177.162 189.57 177.271 190.294 177.271 191.072C177.271 191.85 177.162 192.574 176.943 193.243C176.725 193.912 176.397 194.499 175.96 195.004C175.523 195.496 174.984 195.885 174.342 196.172C173.714 196.445 172.977 196.581 172.13 196.581C171.297 196.581 170.56 196.445 169.918 196.172C169.276 195.885 168.737 195.496 168.3 195.004C167.863 194.499 167.536 193.912 167.317 193.243C167.099 192.574 166.989 191.85 166.989 191.072ZM179.323 185.768H180.962V187.447H181.003C181.727 186.163 182.873 185.522 184.444 185.522C185.14 185.522 185.72 185.617 186.185 185.808C186.649 186 187.024 186.266 187.311 186.607C187.598 186.949 187.796 187.358 187.905 187.836C188.028 188.3 188.089 188.819 188.089 189.393V196.356H186.348V189.188C186.348 188.532 186.157 188.014 185.775 187.631C185.393 187.249 184.867 187.058 184.198 187.058C183.665 187.058 183.201 187.14 182.805 187.304C182.423 187.467 182.102 187.7 181.843 188C181.583 188.3 181.385 188.655 181.249 189.065C181.126 189.461 181.064 189.898 181.064 190.376V196.356H179.323V185.768ZM193.121 185.768H195.23V187.304H193.121V193.878C193.121 194.083 193.134 194.247 193.162 194.37C193.203 194.492 193.271 194.588 193.366 194.656C193.462 194.725 193.592 194.772 193.756 194.8C193.933 194.813 194.158 194.82 194.432 194.82H195.23V196.356H193.899C193.448 196.356 193.059 196.329 192.732 196.274C192.418 196.206 192.158 196.09 191.953 195.926C191.762 195.762 191.619 195.53 191.523 195.23C191.428 194.929 191.38 194.533 191.38 194.042V187.304H189.578V185.768H191.38V182.593H193.121V185.768ZM197.164 181.733H198.905V187.324H198.946C199.083 186.996 199.274 186.723 199.52 186.505C199.765 186.273 200.038 186.088 200.339 185.952C200.653 185.802 200.974 185.692 201.301 185.624C201.643 185.556 201.971 185.522 202.285 185.522C202.981 185.522 203.561 185.617 204.025 185.808C204.49 186 204.865 186.266 205.152 186.607C205.439 186.949 205.637 187.358 205.746 187.836C205.869 188.3 205.93 188.819 205.93 189.393V196.356H204.189V189.188C204.189 188.532 203.998 188.014 203.616 187.631C203.233 187.249 202.708 187.058 202.039 187.058C201.506 187.058 201.042 187.14 200.646 187.304C200.264 187.467 199.943 187.7 199.683 188C199.424 188.3 199.226 188.655 199.09 189.065C198.967 189.461 198.905 189.898 198.905 190.376V196.356H197.164V181.733Z" fill="white"/>
<defs>
<linearGradient id="paint0_linear_895_6802" x1="18.6982" y1="0.235358" x2="217.108" y2="290.383" gradientUnits="userSpaceOnUse">
<stop offset="0.08" stop-color="#9C58F5"/>
<stop offset="0.54" stop-color="#605CFD"/>
<stop offset="0.86" stop-color="#6404E0" stop-opacity="0.305882"/>
</linearGradient>
</defs>
</svg>
