<svg width="174" height="184" viewBox="0 0 174 184" fill="none" xmlns="http://www.w3.org/2000/svg">
<g filter="url(#filter0_d_458_4635)">
<rect width="170" height="179.097" rx="2.84281" fill="white"/>
<path d="M49.182 28.289H51.7064L50.4783 24.7139H50.4511L49.182 28.289ZM49.3867 22.3123H51.5836L55.227 32.0552H53.0028L52.2659 29.8855H48.6226L47.8584 32.0552H45.7024L49.3867 22.3123ZM60.8703 28.5073C60.8703 28.2162 60.8431 27.9388 60.7885 27.675C60.7339 27.4021 60.6384 27.1655 60.5019 26.9654C60.3746 26.7562 60.2063 26.5879 59.997 26.4605C59.7878 26.3332 59.524 26.2695 59.2056 26.2695C58.8872 26.2695 58.6188 26.3332 58.4005 26.4605C58.1822 26.5879 58.0048 26.7562 57.8683 26.9654C57.741 27.1746 57.6455 27.4157 57.5818 27.6886C57.5272 27.9524 57.4999 28.2299 57.4999 28.521C57.4999 28.7939 57.5318 29.0668 57.5954 29.3397C57.6591 29.6126 57.7592 29.8583 57.8956 30.0766C58.0412 30.2858 58.2186 30.4587 58.4278 30.5951C58.6461 30.7225 58.9054 30.7861 59.2056 30.7861C59.524 30.7861 59.7878 30.7225 59.997 30.5951C60.2154 30.4678 60.3882 30.2995 60.5156 30.0902C60.6429 29.8719 60.7339 29.6263 60.7885 29.3534C60.8431 29.0805 60.8703 28.7985 60.8703 28.5073ZM60.8976 31.1546H60.8703C60.6429 31.5366 60.3427 31.8141 59.9697 31.9869C59.6059 32.1507 59.192 32.2326 58.728 32.2326C58.2004 32.2326 57.7364 32.1325 57.3362 31.9324C56.9359 31.7231 56.6039 31.4457 56.34 31.1C56.0853 30.7452 55.8897 30.3404 55.7533 29.8855C55.6259 29.4307 55.5623 28.9577 55.5623 28.4664C55.5623 27.9934 55.6259 27.5385 55.7533 27.1019C55.8897 26.6561 56.0853 26.2649 56.34 25.9284C56.6039 25.5918 56.9313 25.3234 57.3225 25.1233C57.7137 24.914 58.1685 24.8094 58.6871 24.8094C59.1055 24.8094 59.5012 24.9004 59.8742 25.0823C60.2563 25.2552 60.5565 25.5144 60.7748 25.8601H60.8021V22.3123H62.7398V32.0552H60.8976V31.1546ZM69.2122 28.5073C69.2122 28.2162 69.1849 27.9388 69.1303 27.675C69.0758 27.4021 68.9802 27.1655 68.8438 26.9654C68.7164 26.7562 68.5481 26.5879 68.3389 26.4605C68.1297 26.3332 67.8659 26.2695 67.5475 26.2695C67.2291 26.2695 66.9607 26.3332 66.7424 26.4605C66.5241 26.5879 66.3467 26.7562 66.2102 26.9654C66.0828 27.1746 65.9873 27.4157 65.9237 27.6886C65.8691 27.9524 65.8418 28.2299 65.8418 28.521C65.8418 28.7939 65.8736 29.0668 65.9373 29.3397C66.001 29.6126 66.101 29.8583 66.2375 30.0766C66.383 30.2858 66.5604 30.4587 66.7697 30.5951C66.988 30.7225 67.2473 30.7861 67.5475 30.7861C67.8659 30.7861 68.1297 30.7225 68.3389 30.5951C68.5572 30.4678 68.7301 30.2995 68.8574 30.0902C68.9848 29.8719 69.0758 29.6263 69.1303 29.3534C69.1849 29.0805 69.2122 28.7985 69.2122 28.5073ZM69.2395 31.1546H69.2122C68.9848 31.5366 68.6846 31.8141 68.3116 31.9869C67.9477 32.1507 67.5338 32.2326 67.0699 32.2326C66.5422 32.2326 66.0783 32.1325 65.678 31.9324C65.2778 31.7231 64.9457 31.4457 64.6819 31.1C64.4272 30.7452 64.2316 30.3404 64.0952 29.8855C63.9678 29.4307 63.9041 28.9577 63.9041 28.4664C63.9041 27.9934 63.9678 27.5385 64.0952 27.1019C64.2316 26.6561 64.4272 26.2649 64.6819 25.9284C64.9457 25.5918 65.2732 25.3234 65.6644 25.1233C66.0556 24.914 66.5104 24.8094 67.0289 24.8094C67.4474 24.8094 67.8431 24.9004 68.2161 25.0823C68.5982 25.2552 68.8984 25.5144 69.1167 25.8601H69.144V22.3123H71.0816V32.0552H69.2395V31.1546ZM76.5487 22.3123H78.691V32.0552H76.5487V22.3123ZM80.3684 25.0005H82.2105V25.9829H82.2514C82.4971 25.5736 82.8154 25.2779 83.2066 25.096C83.5978 24.9049 83.9981 24.8094 84.4074 24.8094C84.9259 24.8094 85.349 24.8822 85.6765 25.0278C86.013 25.1642 86.2769 25.3598 86.4679 25.6145C86.6589 25.8601 86.7908 26.1649 86.8636 26.5288C86.9455 26.8835 86.9864 27.2793 86.9864 27.7159V32.0552H85.0488V28.0707C85.0488 27.4885 84.9578 27.0564 84.7758 26.7744C84.5939 26.4833 84.271 26.3377 83.807 26.3377C83.2794 26.3377 82.8973 26.4969 82.6608 26.8153C82.4243 27.1246 82.306 27.6386 82.306 28.3572V32.0552H80.3684V25.0005ZM93.2602 27.4839C93.1329 26.6743 92.6553 26.2695 91.8275 26.2695C91.5182 26.2695 91.2589 26.3423 91.0497 26.4878C90.8404 26.6243 90.6676 26.8062 90.5312 27.0336C90.4038 27.252 90.3128 27.4976 90.2582 27.7705C90.2037 28.0343 90.1764 28.2981 90.1764 28.5619C90.1764 28.8166 90.2037 29.0759 90.2582 29.3397C90.3128 29.6035 90.3992 29.8446 90.5175 30.0629C90.6449 30.2722 90.8132 30.445 91.0224 30.5815C91.2316 30.7179 91.4863 30.7861 91.7865 30.7861C92.2505 30.7861 92.6053 30.6588 92.8509 30.4041C93.1056 30.1403 93.2648 29.79 93.3285 29.3534H95.1979C95.0705 30.2904 94.7067 31.0045 94.1063 31.4957C93.5059 31.9869 92.7372 32.2326 91.8002 32.2326C91.2726 32.2326 90.7859 32.1461 90.3401 31.9733C89.9035 31.7914 89.5305 31.5412 89.2212 31.2228C88.9119 30.9044 88.6708 30.5269 88.498 30.0902C88.3251 29.6445 88.2387 29.1578 88.2387 28.6302C88.2387 28.0843 88.316 27.5795 88.4707 27.1155C88.6344 26.6425 88.8709 26.2377 89.1802 25.9011C89.4895 25.5554 89.8671 25.287 90.3128 25.096C90.7586 24.9049 91.268 24.8094 91.8411 24.8094C92.2596 24.8094 92.6598 24.864 93.0419 24.9732C93.4331 25.0823 93.7788 25.2506 94.079 25.4781C94.3883 25.6964 94.6384 25.9738 94.8295 26.3104C95.0205 26.6379 95.1297 27.0291 95.157 27.4839H93.2602ZM98.0119 28.5346C98.0119 28.8166 98.0392 29.0941 98.0937 29.367C98.1483 29.6308 98.2393 29.8719 98.3666 30.0902C98.5031 30.2995 98.6805 30.4678 98.8988 30.5951C99.1171 30.7225 99.3901 30.7861 99.7175 30.7861C100.045 30.7861 100.318 30.7225 100.536 30.5951C100.764 30.4678 100.941 30.2995 101.068 30.0902C101.205 29.8719 101.3 29.6308 101.355 29.367C101.41 29.0941 101.437 28.8166 101.437 28.5346C101.437 28.2526 101.41 27.9752 101.355 27.7023C101.3 27.4294 101.205 27.1883 101.068 26.9791C100.941 26.7698 100.764 26.6015 100.536 26.4742C100.318 26.3377 100.045 26.2695 99.7175 26.2695C99.3901 26.2695 99.1171 26.3377 98.8988 26.4742C98.6805 26.6015 98.5031 26.7698 98.3666 26.9791C98.2393 27.1883 98.1483 27.4294 98.0937 27.7023C98.0392 27.9752 98.0119 28.2526 98.0119 28.5346ZM96.0742 28.5346C96.0742 27.9706 96.1606 27.4612 96.3335 27.0063C96.5063 26.5424 96.7519 26.1512 97.0703 25.8328C97.3887 25.5053 97.7708 25.2552 98.2165 25.0823C98.6623 24.9004 99.1626 24.8094 99.7175 24.8094C100.272 24.8094 100.773 24.9004 101.219 25.0823C101.673 25.2552 102.06 25.5053 102.378 25.8328C102.697 26.1512 102.942 26.5424 103.115 27.0063C103.288 27.4612 103.375 27.9706 103.375 28.5346C103.375 29.0987 103.288 29.6081 103.115 30.0629C102.942 30.5178 102.697 30.909 102.378 31.2364C102.06 31.5548 101.673 31.8005 101.219 31.9733C100.773 32.1461 100.272 32.2326 99.7175 32.2326C99.1626 32.2326 98.6623 32.1461 98.2165 31.9733C97.7708 31.8005 97.3887 31.5548 97.0703 31.2364C96.7519 30.909 96.5063 30.5178 96.3335 30.0629C96.1606 29.6081 96.0742 29.0987 96.0742 28.5346ZM104.689 25.0005H106.517V25.9556H106.545C106.799 25.5918 107.104 25.3098 107.459 25.1096C107.823 24.9095 108.237 24.8094 108.701 24.8094C109.147 24.8094 109.551 24.8958 109.915 25.0687C110.288 25.2415 110.57 25.5463 110.761 25.9829C110.97 25.6736 111.252 25.4007 111.607 25.1642C111.971 24.9277 112.399 24.8094 112.89 24.8094C113.263 24.8094 113.609 24.8549 113.927 24.9459C114.245 25.0368 114.518 25.1824 114.746 25.3825C114.973 25.5827 115.151 25.8465 115.278 26.174C115.405 26.4924 115.469 26.879 115.469 27.3338V32.0552H113.531V28.057C113.531 27.8205 113.522 27.5977 113.504 27.3884C113.486 27.1792 113.436 26.9972 113.354 26.8426C113.272 26.688 113.149 26.5651 112.985 26.4742C112.831 26.3832 112.617 26.3377 112.344 26.3377C112.071 26.3377 111.848 26.3923 111.675 26.5015C111.512 26.6015 111.38 26.738 111.28 26.9108C111.189 27.0746 111.125 27.2656 111.089 27.4839C111.061 27.6932 111.048 27.9069 111.048 28.1253V32.0552H109.11V28.098C109.11 27.8888 109.106 27.6841 109.096 27.4839C109.087 27.2747 109.046 27.0837 108.974 26.9108C108.91 26.738 108.796 26.6015 108.633 26.5015C108.478 26.3923 108.246 26.3377 107.937 26.3377C107.846 26.3377 107.723 26.3605 107.568 26.4059C107.423 26.4423 107.277 26.5197 107.132 26.6379C106.995 26.7471 106.877 26.9108 106.777 27.1292C106.677 27.3384 106.627 27.6158 106.627 27.9615V32.0552H104.689V25.0005ZM121.749 27.7705C121.658 27.2793 121.495 26.9063 121.258 26.6516C121.031 26.3968 120.68 26.2695 120.207 26.2695C119.898 26.2695 119.639 26.3241 119.43 26.4332C119.229 26.5333 119.066 26.6607 118.938 26.8153C118.82 26.97 118.734 27.1337 118.679 27.3065C118.634 27.4794 118.606 27.634 118.597 27.7705H121.749ZM118.597 28.9986C118.624 29.6263 118.784 30.0811 119.075 30.3631C119.366 30.6451 119.784 30.7861 120.33 30.7861C120.721 30.7861 121.058 30.6906 121.34 30.4996C121.622 30.2995 121.795 30.0902 121.858 29.8719H123.564C123.291 30.7179 122.873 31.3229 122.309 31.6867C121.745 32.0506 121.062 32.2326 120.262 32.2326C119.707 32.2326 119.207 32.1461 118.761 31.9733C118.315 31.7914 117.938 31.5366 117.628 31.2092C117.319 30.8817 117.078 30.4905 116.905 30.0356C116.741 29.5808 116.659 29.0805 116.659 28.5346C116.659 28.007 116.746 27.5158 116.919 27.0609C117.092 26.6061 117.337 26.2149 117.656 25.8874C117.974 25.5508 118.352 25.287 118.788 25.096C119.234 24.9049 119.725 24.8094 120.262 24.8094C120.862 24.8094 121.385 24.9277 121.831 25.1642C122.277 25.3916 122.641 25.7009 122.923 26.0921C123.214 26.4833 123.423 26.929 123.55 27.4294C123.678 27.9297 123.723 28.4528 123.687 28.9986H118.597Z" fill="#6404E0"/>
<path d="M12.8814 52.8644H13.3135V56.1121H12.8814V52.8644ZM13.9766 53.7605H14.3405V54.1335H14.3496C14.5103 53.8484 14.765 53.7059 15.1138 53.7059C15.2684 53.7059 15.3973 53.7271 15.5004 53.7696C15.6035 53.812 15.6869 53.8712 15.7505 53.947C15.8142 54.0228 15.8582 54.1138 15.8824 54.2199C15.9097 54.323 15.9234 54.4382 15.9234 54.5656V56.1121H15.5368V54.5201C15.5368 54.3745 15.4943 54.2593 15.4094 54.1744C15.3245 54.0895 15.2078 54.047 15.0592 54.047C14.9409 54.047 14.8378 54.0652 14.7499 54.1016C14.665 54.138 14.5937 54.1896 14.5361 54.2563C14.4785 54.323 14.4345 54.4018 14.4042 54.4928C14.3769 54.5807 14.3632 54.6778 14.3632 54.7839V56.1121H13.9766V53.7605ZM16.5177 53.7605H16.9043V54.0789H16.9134C16.9771 53.9485 17.0772 53.8545 17.2136 53.7969C17.3501 53.7362 17.5002 53.7059 17.6639 53.7059C17.8459 53.7059 18.0035 53.7393 18.137 53.806C18.2734 53.8727 18.3856 53.9637 18.4736 54.0789C18.5645 54.1911 18.6328 54.3215 18.6782 54.4701C18.7237 54.6186 18.7465 54.7763 18.7465 54.9431C18.7465 55.1099 18.7237 55.2676 18.6782 55.4161C18.6358 55.5647 18.5691 55.6951 18.4781 55.8073C18.3902 55.9165 18.278 56.0029 18.1415 56.0666C18.0081 56.1303 17.8519 56.1621 17.673 56.1621C17.6154 56.1621 17.5502 56.156 17.4774 56.1439C17.4077 56.1318 17.338 56.1121 17.2682 56.0848C17.1985 56.0575 17.1318 56.0211 17.0681 55.9756C17.0074 55.9271 16.9559 55.868 16.9134 55.7982H16.9043V57.0081H16.5177V53.7605ZM18.3371 54.9158C18.3371 54.8066 18.3219 54.7005 18.2916 54.5974C18.2643 54.4913 18.2204 54.3973 18.1597 54.3154C18.1021 54.2335 18.0263 54.1683 17.9323 54.1198C17.8413 54.0713 17.7337 54.047 17.6093 54.047C17.479 54.047 17.3683 54.0728 17.2773 54.1244C17.1863 54.1759 17.112 54.2441 17.0544 54.3291C16.9968 54.4109 16.9544 54.5049 16.9271 54.6111C16.9028 54.7172 16.8907 54.8248 16.8907 54.934C16.8907 55.0492 16.9043 55.1614 16.9316 55.2706C16.9589 55.3767 17.0014 55.4707 17.059 55.5526C17.1196 55.6345 17.1969 55.7012 17.291 55.7527C17.385 55.8012 17.4987 55.8255 17.6321 55.8255C17.7655 55.8255 17.8762 55.7997 17.9641 55.7482C18.0551 55.6966 18.1279 55.6284 18.1825 55.5435C18.237 55.4586 18.2765 55.3616 18.3007 55.2524C18.325 55.1432 18.3371 55.031 18.3371 54.9158ZM21.147 56.1121H20.7832V55.7391H20.7741C20.6922 55.8846 20.5876 55.9923 20.4602 56.062C20.3329 56.1287 20.1828 56.1621 20.0099 56.1621C19.8553 56.1621 19.7264 56.1424 19.6233 56.103C19.5202 56.0605 19.4368 56.0014 19.3731 55.9256C19.3095 55.8498 19.264 55.7603 19.2367 55.6572C19.2124 55.5511 19.2003 55.4343 19.2003 55.307V53.7605H19.5869V55.3525C19.5869 55.498 19.6294 55.6132 19.7143 55.6981C19.7992 55.7831 19.9159 55.8255 20.0645 55.8255C20.1828 55.8255 20.2843 55.8073 20.3693 55.7709C20.4572 55.7345 20.53 55.683 20.5876 55.6163C20.6452 55.5496 20.6876 55.4722 20.7149 55.3843C20.7453 55.2933 20.7604 55.1948 20.7604 55.0886V53.7605H21.147V56.1121ZM22.2644 53.7605H22.7329V54.1016H22.2644V55.5617C22.2644 55.6072 22.2675 55.6436 22.2735 55.6709C22.2826 55.6981 22.2978 55.7194 22.319 55.7345C22.3403 55.7497 22.3691 55.7603 22.4055 55.7664C22.4449 55.7694 22.4949 55.7709 22.5556 55.7709H22.7329V56.1121H22.4373C22.3372 56.1121 22.2508 56.106 22.178 56.0939C22.1083 56.0787 22.0507 56.0529 22.0052 56.0165C21.9627 55.9802 21.9309 55.9286 21.9097 55.8619C21.8884 55.7952 21.8778 55.7072 21.8778 55.5981V54.1016H21.4776V53.7605H21.8778V53.0555H22.2644V53.7605ZM26.5116 56.103C26.4449 56.1424 26.3524 56.1621 26.2341 56.1621C26.1341 56.1621 26.0537 56.1348 25.9931 56.0802C25.9355 56.0226 25.9067 55.9301 25.9067 55.8028C25.8005 55.9301 25.6762 56.0226 25.5337 56.0802C25.3942 56.1348 25.2426 56.1621 25.0788 56.1621C24.9727 56.1621 24.8711 56.15 24.7741 56.1257C24.6801 56.1014 24.5982 56.0635 24.5285 56.012C24.4587 55.9604 24.4026 55.8937 24.3602 55.8119C24.3207 55.727 24.301 55.6254 24.301 55.5071C24.301 55.3737 24.3238 55.2645 24.3693 55.1796C24.4147 55.0947 24.4739 55.0265 24.5467 54.9749C24.6225 54.9204 24.7074 54.8794 24.8014 54.8521C24.8984 54.8248 24.997 54.8021 25.097 54.7839C25.2032 54.7627 25.3032 54.7475 25.3972 54.7384C25.4943 54.7263 25.5792 54.7111 25.6519 54.6929C25.7247 54.6717 25.7823 54.6429 25.8248 54.6065C25.8672 54.5671 25.8885 54.511 25.8885 54.4382C25.8885 54.3533 25.8718 54.2851 25.8384 54.2335C25.8081 54.182 25.7672 54.1426 25.7156 54.1153C25.6671 54.088 25.611 54.0698 25.5473 54.0607C25.4867 54.0516 25.426 54.047 25.3654 54.047C25.2016 54.047 25.0652 54.0789 24.956 54.1426C24.8469 54.2032 24.7877 54.32 24.7786 54.4928H24.392C24.3981 54.3472 24.4284 54.2244 24.483 54.1244C24.5376 54.0243 24.6103 53.9439 24.7013 53.8833C24.7923 53.8196 24.8954 53.7741 25.0106 53.7468C25.1289 53.7196 25.2547 53.7059 25.3881 53.7059C25.4943 53.7059 25.5989 53.7135 25.702 53.7286C25.8081 53.7438 25.9036 53.7757 25.9885 53.8242C26.0734 53.8697 26.1417 53.9348 26.1932 54.0198C26.2448 54.1047 26.2705 54.2153 26.2705 54.3518V55.5617C26.2705 55.6527 26.2751 55.7194 26.2842 55.7618C26.2963 55.8043 26.3327 55.8255 26.3933 55.8255C26.4267 55.8255 26.4661 55.8179 26.5116 55.8028V56.103ZM25.8839 54.8976C25.8354 54.934 25.7717 54.9613 25.6929 54.9795C25.614 54.9946 25.5306 55.0083 25.4427 55.0204C25.3578 55.0295 25.2714 55.0416 25.1834 55.0568C25.0955 55.0689 25.0167 55.0902 24.9469 55.1205C24.8772 55.1508 24.8196 55.1948 24.7741 55.2524C24.7316 55.307 24.7104 55.3828 24.7104 55.4798C24.7104 55.5435 24.7225 55.5981 24.7468 55.6436C24.7741 55.686 24.8074 55.7209 24.8469 55.7482C24.8893 55.7755 24.9378 55.7952 24.9924 55.8073C25.047 55.8194 25.1046 55.8255 25.1652 55.8255C25.2926 55.8255 25.4018 55.8088 25.4927 55.7755C25.5837 55.7391 25.658 55.6951 25.7156 55.6436C25.7732 55.589 25.8157 55.5314 25.843 55.4707C25.8703 55.407 25.8839 55.3479 25.8839 55.2933V54.8976ZM26.8714 53.7605H27.2353V54.1062H27.2444C27.4203 53.8393 27.6735 53.7059 28.004 53.7059C28.1496 53.7059 28.2815 53.7362 28.3997 53.7969C28.518 53.8575 28.6014 53.9606 28.6499 54.1062C28.7287 53.9788 28.8318 53.8803 28.9592 53.8105C29.0896 53.7408 29.2321 53.7059 29.3867 53.7059C29.505 53.7059 29.6111 53.7196 29.7051 53.7468C29.8022 53.7711 29.8841 53.8105 29.9508 53.8651C30.0205 53.9197 30.0736 53.9909 30.11 54.0789C30.1494 54.1638 30.1691 54.2669 30.1691 54.3882V56.1121H29.7825V54.5701C29.7825 54.4973 29.7764 54.4291 29.7643 54.3654C29.7521 54.3018 29.7294 54.2472 29.696 54.2017C29.6627 54.1532 29.6157 54.1153 29.555 54.088C29.4974 54.0607 29.4216 54.047 29.3276 54.047C29.1366 54.047 28.9865 54.1016 28.8773 54.2108C28.7682 54.32 28.7136 54.4655 28.7136 54.6474V56.1121H28.327V54.5701C28.327 54.4943 28.3194 54.4246 28.3042 54.3609C28.2921 54.2972 28.2693 54.2426 28.236 54.1971C28.2026 54.1486 28.1571 54.1122 28.0995 54.088C28.0449 54.0607 27.9737 54.047 27.8857 54.047C27.7735 54.047 27.6765 54.0698 27.5946 54.1153C27.5158 54.1608 27.4506 54.2153 27.3991 54.279C27.3505 54.3427 27.3142 54.4094 27.2899 54.4792C27.2687 54.5459 27.2581 54.602 27.2581 54.6474V56.1121H26.8714V53.7605ZM31.0312 54.9385C31.0312 55.0811 31.0494 55.2084 31.0858 55.3206C31.1252 55.4298 31.1783 55.5223 31.245 55.5981C31.3117 55.6709 31.389 55.727 31.477 55.7664C31.5679 55.8058 31.6634 55.8255 31.7635 55.8255C31.8636 55.8255 31.9576 55.8058 32.0455 55.7664C32.1365 55.727 32.2153 55.6709 32.282 55.5981C32.3488 55.5223 32.4003 55.4298 32.4367 55.3206C32.4761 55.2084 32.4958 55.0811 32.4958 54.9385C32.4958 54.796 32.4761 54.6702 32.4367 54.561C32.4003 54.4488 32.3488 54.3548 32.282 54.279C32.2153 54.2032 32.1365 54.1456 32.0455 54.1062C31.9576 54.0668 31.8636 54.047 31.7635 54.047C31.6634 54.047 31.5679 54.0668 31.477 54.1062C31.389 54.1456 31.3117 54.2032 31.245 54.279C31.1783 54.3548 31.1252 54.4488 31.0858 54.561C31.0494 54.6702 31.0312 54.796 31.0312 54.9385ZM30.6218 54.9385C30.6218 54.7657 30.6461 54.605 30.6946 54.4564C30.7431 54.3048 30.8159 54.1744 30.9129 54.0652C31.01 53.953 31.1298 53.8651 31.2723 53.8014C31.4148 53.7377 31.5785 53.7059 31.7635 53.7059C31.9515 53.7059 32.1153 53.7377 32.2548 53.8014C32.3973 53.8651 32.517 53.953 32.6141 54.0652C32.7111 54.1744 32.7839 54.3048 32.8324 54.4564C32.8809 54.605 32.9052 54.7657 32.9052 54.9385C32.9052 55.1114 32.8809 55.2721 32.8324 55.4207C32.7839 55.5693 32.7111 55.6997 32.6141 55.8119C32.517 55.921 32.3973 56.0074 32.2548 56.0711C32.1153 56.1318 31.9515 56.1621 31.7635 56.1621C31.5785 56.1621 31.4148 56.1318 31.2723 56.0711C31.1298 56.0074 31.01 55.921 30.9129 55.8119C30.8159 55.6997 30.7431 55.5693 30.6946 55.4207C30.6461 55.2721 30.6218 55.1114 30.6218 54.9385ZM35.3078 56.1121H34.9439V55.7391H34.9348C34.8529 55.8846 34.7483 55.9923 34.621 56.062C34.4936 56.1287 34.3435 56.1621 34.1707 56.1621C34.016 56.1621 33.8871 56.1424 33.784 56.103C33.6809 56.0605 33.5976 56.0014 33.5339 55.9256C33.4702 55.8498 33.4247 55.7603 33.3974 55.6572C33.3732 55.5511 33.361 55.4343 33.361 55.307V53.7605H33.7477V55.3525C33.7477 55.498 33.7901 55.6132 33.875 55.6981C33.9599 55.7831 34.0767 55.8255 34.2252 55.8255C34.3435 55.8255 34.4451 55.8073 34.53 55.7709C34.6179 55.7345 34.6907 55.683 34.7483 55.6163C34.8059 55.5496 34.8484 55.4722 34.8757 55.3843C34.906 55.2933 34.9212 55.1948 34.9212 55.0886V53.7605H35.3078V56.1121ZM35.8885 53.7605H36.2523V54.1335H36.2614C36.4222 53.8484 36.6769 53.7059 37.0256 53.7059C37.1802 53.7059 37.3091 53.7271 37.4122 53.7696C37.5153 53.812 37.5987 53.8712 37.6624 53.947C37.7261 54.0228 37.77 54.1138 37.7943 54.2199C37.8216 54.323 37.8352 54.4382 37.8352 54.5656V56.1121H37.4486V54.5201C37.4486 54.3745 37.4061 54.2593 37.3212 54.1744C37.2363 54.0895 37.1196 54.047 36.971 54.047C36.8527 54.047 36.7496 54.0652 36.6617 54.1016C36.5768 54.138 36.5055 54.1896 36.4479 54.2563C36.3903 54.323 36.3463 54.4018 36.316 54.4928C36.2887 54.5807 36.2751 54.6778 36.2751 54.7839V56.1121H35.8885V53.7605ZM38.9526 53.7605H39.4211V54.1016H38.9526V55.5617C38.9526 55.6072 38.9557 55.6436 38.9617 55.6709C38.9708 55.6981 38.986 55.7194 39.0072 55.7345C39.0284 55.7497 39.0572 55.7603 39.0936 55.7664C39.133 55.7694 39.1831 55.7709 39.2437 55.7709H39.4211V56.1121H39.1255C39.0254 56.1121 38.939 56.106 38.8662 56.0939C38.7965 56.0787 38.7388 56.0529 38.6934 56.0165C38.6509 55.9802 38.6191 55.9286 38.5978 55.8619C38.5766 55.7952 38.566 55.7072 38.566 55.5981V54.1016H38.1657V53.7605H38.566V53.0555H38.9526V53.7605Z" fill="#524D4D"/>
<rect x="12.5084" y="59.9549" width="145.552" height="25.5853" rx="2.84281" fill="#DBBFFF"/>
<path d="M22.6368 72.8994H24.5631L23.6159 70.2488H23.5999L22.6368 72.8994ZM23.2019 69.5642H24.0377L26.2585 75.2476H25.4228L24.8019 73.5362H22.398L21.7612 75.2476H20.9891L23.2019 69.5642ZM26.7078 71.1323H27.3446V71.7373H27.3605C27.6683 71.2703 28.1114 71.0368 28.6898 71.0368C28.9445 71.0368 29.1753 71.0899 29.3823 71.196C29.5892 71.3021 29.7352 71.4825 29.8201 71.7373C29.9581 71.5144 30.1385 71.3419 30.3614 71.2199C30.5895 71.0978 30.8389 71.0368 31.1096 71.0368C31.3165 71.0368 31.5023 71.0607 31.6668 71.1084C31.8366 71.1509 31.9799 71.2199 32.0966 71.3154C32.2187 71.4109 32.3115 71.5356 32.3752 71.6895C32.4442 71.8381 32.4787 72.0185 32.4787 72.2308V75.2476H31.8021V72.5492C31.8021 72.4218 31.7915 72.3024 31.7702 72.191C31.749 72.0795 31.7092 71.984 31.6508 71.9044C31.5925 71.8195 31.5102 71.7532 31.4041 71.7054C31.3033 71.6577 31.1706 71.6338 31.0061 71.6338C30.6718 71.6338 30.4091 71.7293 30.2181 71.9203C30.027 72.1114 29.9315 72.3661 29.9315 72.6845V75.2476H29.2549V72.5492C29.2549 72.4165 29.2417 72.2944 29.2151 72.183C29.1939 72.0716 29.1541 71.9761 29.0957 71.8965C29.0374 71.8115 28.9578 71.7479 28.8569 71.7054C28.7614 71.6577 28.6367 71.6338 28.4828 71.6338C28.2865 71.6338 28.1167 71.6736 27.9734 71.7532C27.8354 71.8328 27.7213 71.9283 27.6311 72.0397C27.5462 72.1512 27.4825 72.2679 27.4401 72.39C27.4029 72.5067 27.3844 72.6049 27.3844 72.6845V75.2476H26.7078V71.1323ZM33.9874 73.1939C33.9874 73.4433 34.0192 73.6662 34.0829 73.8625C34.1519 74.0536 34.2448 74.2154 34.3615 74.3481C34.4782 74.4755 34.6136 74.5736 34.7674 74.6426C34.9266 74.7116 35.0938 74.7461 35.2689 74.7461C35.444 74.7461 35.6085 74.7116 35.7624 74.6426C35.9216 74.5736 36.0596 74.4755 36.1763 74.3481C36.2931 74.2154 36.3833 74.0536 36.447 73.8625C36.516 73.6662 36.5505 73.4433 36.5505 73.1939C36.5505 72.9445 36.516 72.7243 36.447 72.5332C36.3833 72.3369 36.2931 72.1724 36.1763 72.0397C36.0596 71.9071 35.9216 71.8062 35.7624 71.7373C35.6085 71.6683 35.444 71.6338 35.2689 71.6338C35.0938 71.6338 34.9266 71.6683 34.7674 71.7373C34.6136 71.8062 34.4782 71.9071 34.3615 72.0397C34.2448 72.1724 34.1519 72.3369 34.0829 72.5332C34.0192 72.7243 33.9874 72.9445 33.9874 73.1939ZM33.271 73.1939C33.271 72.8914 33.3134 72.6102 33.3984 72.3502C33.4833 72.0848 33.6106 71.8567 33.7804 71.6656C33.9502 71.4693 34.1598 71.3154 34.4093 71.2039C34.6587 71.0925 34.9452 71.0368 35.2689 71.0368C35.5979 71.0368 35.8845 71.0925 36.1286 71.2039C36.378 71.3154 36.5876 71.4693 36.7574 71.6656C36.9272 71.8567 37.0546 72.0848 37.1395 72.3502C37.2244 72.6102 37.2668 72.8914 37.2668 73.1939C37.2668 73.4964 37.2244 73.7776 37.1395 74.0377C37.0546 74.2977 36.9272 74.5259 36.7574 74.7222C36.5876 74.9132 36.378 75.0645 36.1286 75.1759C35.8845 75.2821 35.5979 75.3351 35.2689 75.3351C34.9452 75.3351 34.6587 75.2821 34.4093 75.1759C34.1598 75.0645 33.9502 74.9132 33.7804 74.7222C33.6106 74.5259 33.4833 74.2977 33.3984 74.0377C33.3134 73.7776 33.271 73.4964 33.271 73.1939ZM41.4714 75.2476H40.8346V74.5948H40.8187C40.6754 74.8496 40.4923 75.0379 40.2695 75.16C40.0466 75.2767 39.7839 75.3351 39.4814 75.3351C39.2108 75.3351 38.9853 75.3006 38.8048 75.2316C38.6244 75.1573 38.4785 75.0539 38.367 74.9212C38.2556 74.7885 38.176 74.632 38.1283 74.4516C38.0858 74.2658 38.0646 74.0615 38.0646 73.8387V71.1323H38.7412V73.9183C38.7412 74.173 38.8155 74.3746 38.964 74.5232C39.1126 74.6718 39.3169 74.7461 39.5769 74.7461C39.7839 74.7461 39.9617 74.7142 40.1103 74.6506C40.2641 74.5869 40.3915 74.4967 40.4923 74.3799C40.5932 74.2632 40.6674 74.1279 40.7152 73.974C40.7683 73.8148 40.7948 73.6423 40.7948 73.4566V71.1323H41.4714V75.2476ZM42.4876 71.1323H43.1244V71.785H43.1403C43.4215 71.2862 43.8673 71.0368 44.4776 71.0368C44.7482 71.0368 44.9737 71.0739 45.1541 71.1482C45.3346 71.2225 45.4805 71.326 45.5919 71.4587C45.7034 71.5913 45.7803 71.7505 45.8228 71.9363C45.8705 72.1167 45.8944 72.3183 45.8944 72.5412V75.2476H45.2178V72.4616C45.2178 72.2069 45.1435 72.0052 44.9949 71.8567C44.8464 71.7081 44.6421 71.6338 44.382 71.6338C44.1751 71.6338 43.9947 71.6656 43.8408 71.7293C43.6922 71.793 43.5675 71.8832 43.4666 71.9999C43.3658 72.1167 43.2889 72.2546 43.2358 72.4138C43.1881 72.5677 43.1642 72.7375 43.1642 72.9233V75.2476H42.4876V71.1323ZM47.8499 71.1323H48.6697V71.7293H47.8499V74.2844C47.8499 74.364 47.8552 74.4277 47.8658 74.4755C47.8817 74.5232 47.9082 74.5604 47.9454 74.5869C47.9825 74.6134 48.0329 74.632 48.0966 74.6426C48.1656 74.6479 48.2532 74.6506 48.3593 74.6506H48.6697V75.2476H48.1523C47.9772 75.2476 47.826 75.2369 47.6986 75.2157C47.5766 75.1892 47.4757 75.1441 47.3961 75.0804C47.3219 75.0167 47.2661 74.9265 47.229 74.8098C47.1918 74.693 47.1733 74.5391 47.1733 74.3481V71.7293H46.4728V71.1323H47.1733V69.8985H47.8499V71.1323Z" fill="#726E6E"/>
<path d="M12.8632 91.9781H15.1056V92.342H13.2953V93.3745H14.9828V93.7384H13.2953V94.8619H15.1193V95.2258H12.8632V91.9781ZM15.6666 94.7209H16.1715V95.2258H15.6666V94.7209ZM18.8747 95.0256C18.8747 95.4107 18.7868 95.6988 18.6109 95.8898C18.435 96.0809 18.1591 96.1764 17.7831 96.1764C17.6739 96.1764 17.5617 96.1643 17.4465 96.14C17.3343 96.1158 17.2312 96.0763 17.1372 96.0218C17.0462 95.9672 16.9704 95.8959 16.9098 95.808C16.8491 95.72 16.8158 95.6124 16.8097 95.485H17.1963C17.1994 95.5548 17.2206 95.6139 17.26 95.6624C17.3025 95.7109 17.3525 95.7504 17.4101 95.7807C17.4707 95.811 17.5359 95.8322 17.6057 95.8444C17.6754 95.8595 17.7421 95.8671 17.8058 95.8671C17.9332 95.8671 18.0408 95.8444 18.1288 95.7989C18.2167 95.7564 18.2895 95.6958 18.3471 95.6169C18.4047 95.5411 18.4456 95.4486 18.4699 95.3395C18.4972 95.2303 18.5108 95.1105 18.5108 94.9802V94.8255H18.5017C18.435 94.9711 18.3334 95.0787 18.197 95.1484C18.0636 95.2152 17.921 95.2485 17.7694 95.2485C17.5936 95.2485 17.4404 95.2167 17.31 95.153C17.1796 95.0893 17.0705 95.0044 16.9825 94.8983C16.8946 94.7891 16.8279 94.6633 16.7824 94.5208C16.74 94.3752 16.7187 94.2221 16.7187 94.0614C16.7187 93.9219 16.7369 93.7793 16.7733 93.6338C16.8097 93.4852 16.8703 93.3518 16.9553 93.2335C17.0402 93.1122 17.1524 93.0137 17.2918 92.9379C17.4313 92.859 17.6027 92.8196 17.8058 92.8196C17.9544 92.8196 18.0909 92.853 18.2152 92.9197C18.3395 92.9834 18.4365 93.0804 18.5063 93.2108H18.5108V92.8742H18.8747V95.0256ZM17.7922 94.9119C17.9195 94.9119 18.0272 94.8861 18.1151 94.8346C18.2061 94.78 18.2789 94.7103 18.3334 94.6254C18.388 94.5374 18.4274 94.4389 18.4517 94.3297C18.479 94.2206 18.4926 94.1114 18.4926 94.0022C18.4926 93.8991 18.4805 93.7975 18.4563 93.6975C18.432 93.5974 18.3926 93.508 18.338 93.4291C18.2864 93.3472 18.2182 93.282 18.1333 93.2335C18.0484 93.185 17.9453 93.1608 17.824 93.1608C17.6997 93.1608 17.5936 93.185 17.5056 93.2335C17.4177 93.279 17.3449 93.3412 17.2873 93.42C17.2327 93.4989 17.1918 93.5898 17.1645 93.6929C17.1402 93.796 17.1281 93.9037 17.1281 94.0159C17.1281 94.122 17.1387 94.2281 17.1599 94.3343C17.1812 94.4404 17.2175 94.5374 17.2691 94.6254C17.3206 94.7103 17.3889 94.78 17.4738 94.8346C17.5587 94.8861 17.6648 94.9119 17.7922 94.9119ZM22.6661 92.9288C22.6418 92.6953 22.5569 92.527 22.4113 92.4239C22.2688 92.3178 22.0854 92.2647 21.861 92.2647C21.77 92.2647 21.6806 92.2738 21.5926 92.292C21.5047 92.3102 21.4258 92.3405 21.3561 92.383C21.2894 92.4254 21.2348 92.483 21.1924 92.5558C21.1529 92.6255 21.1332 92.7135 21.1332 92.8196C21.1332 92.9197 21.162 93.0016 21.2196 93.0652C21.2803 93.1259 21.3591 93.1759 21.4562 93.2153C21.5562 93.2548 21.6684 93.2881 21.7928 93.3154C21.9171 93.3397 22.0429 93.367 22.1703 93.3973C22.3007 93.4276 22.428 93.464 22.5524 93.5064C22.6767 93.5459 22.7874 93.6004 22.8844 93.6702C22.9845 93.7399 23.0633 93.8279 23.1209 93.934C23.1816 94.0401 23.2119 94.1736 23.2119 94.3343C23.2119 94.5071 23.1725 94.6557 23.0936 94.78C23.0178 94.9013 22.9193 95.0014 22.798 95.0802C22.6767 95.156 22.5402 95.2106 22.3886 95.244C22.24 95.2804 22.0914 95.2985 21.9429 95.2985C21.7609 95.2985 21.5881 95.2758 21.4243 95.2303C21.2636 95.1848 21.1211 95.1166 20.9968 95.0256C20.8755 94.9316 20.7784 94.8134 20.7057 94.6709C20.6359 94.5253 20.601 94.354 20.601 94.1569H21.0104C21.0104 94.2933 21.0362 94.4116 21.0877 94.5117C21.1423 94.6087 21.2121 94.689 21.297 94.7527C21.3849 94.8164 21.4865 94.8634 21.6017 94.8937C21.7169 94.9241 21.8352 94.9392 21.9565 94.9392C22.0535 94.9392 22.1506 94.9301 22.2476 94.9119C22.3477 94.8937 22.4371 94.8634 22.516 94.821C22.5948 94.7755 22.6585 94.7148 22.707 94.639C22.7555 94.5632 22.7798 94.4662 22.7798 94.3479C22.7798 94.2357 22.7495 94.1447 22.6888 94.075C22.6312 94.0053 22.5524 93.9492 22.4523 93.9067C22.3553 93.8612 22.2446 93.8248 22.1202 93.7975C21.9959 93.7703 21.8686 93.743 21.7382 93.7157C21.6108 93.6853 21.485 93.652 21.3606 93.6156C21.2363 93.5762 21.1241 93.5261 21.0241 93.4655C20.927 93.4018 20.8482 93.3215 20.7875 93.2244C20.7299 93.1244 20.7011 93 20.7011 92.8515C20.7011 92.6877 20.7345 92.5467 20.8012 92.4284C20.8679 92.3072 20.9558 92.2086 21.065 92.1328C21.1772 92.054 21.303 91.9963 21.4425 91.9599C21.585 91.9205 21.7306 91.9008 21.8792 91.9008C22.046 91.9008 22.2006 91.9205 22.3431 91.9599C22.4856 91.9994 22.61 92.0615 22.7161 92.1464C22.8253 92.2313 22.9102 92.339 22.9708 92.4694C23.0345 92.5967 23.0694 92.7499 23.0754 92.9288H22.6661ZM25.7565 95.2167C25.6898 95.2561 25.5973 95.2758 25.479 95.2758C25.379 95.2758 25.2986 95.2485 25.238 95.1939C25.1803 95.1363 25.1515 95.0438 25.1515 94.9165C25.0454 95.0438 24.9211 95.1363 24.7786 95.1939C24.6391 95.2485 24.4875 95.2758 24.3237 95.2758C24.2176 95.2758 24.116 95.2637 24.019 95.2394C23.925 95.2152 23.8431 95.1773 23.7733 95.1257C23.7036 95.0742 23.6475 95.0074 23.605 94.9256C23.5656 94.8407 23.5459 94.7391 23.5459 94.6208C23.5459 94.4874 23.5687 94.3782 23.6141 94.2933C23.6596 94.2084 23.7188 94.1402 23.7915 94.0886C23.8673 94.0341 23.9522 93.9931 24.0462 93.9658C24.1433 93.9385 24.2418 93.9158 24.3419 93.8976C24.448 93.8764 24.5481 93.8612 24.6421 93.8521C24.7391 93.84 24.824 93.8248 24.8968 93.8066C24.9696 93.7854 25.0272 93.7566 25.0697 93.7202C25.1121 93.6808 25.1333 93.6247 25.1333 93.5519C25.1333 93.467 25.1167 93.3988 25.0833 93.3472C25.053 93.2957 25.012 93.2563 24.9605 93.229C24.912 93.2017 24.8559 93.1835 24.7922 93.1744C24.7316 93.1653 24.6709 93.1608 24.6103 93.1608C24.4465 93.1608 24.3101 93.1926 24.2009 93.2563C24.0917 93.3169 24.0326 93.4337 24.0235 93.6065H23.6369C23.6429 93.461 23.6733 93.3381 23.7279 93.2381C23.7824 93.138 23.8552 93.0577 23.9462 92.997C24.0372 92.9333 24.1403 92.8878 24.2555 92.8606C24.3737 92.8333 24.4996 92.8196 24.633 92.8196C24.7391 92.8196 24.8438 92.8272 24.9469 92.8424C25.053 92.8575 25.1485 92.8894 25.2334 92.9379C25.3183 92.9834 25.3865 93.0486 25.4381 93.1335C25.4896 93.2184 25.5154 93.329 25.5154 93.4655V94.6754C25.5154 94.7664 25.52 94.8331 25.5291 94.8755C25.5412 94.918 25.5776 94.9392 25.6382 94.9392C25.6716 94.9392 25.711 94.9316 25.7565 94.9165V95.2167ZM25.1288 94.0113C25.0803 94.0477 25.0166 94.075 24.9378 94.0932C24.8589 94.1084 24.7755 94.122 24.6876 94.1341C24.6027 94.1432 24.5163 94.1554 24.4283 94.1705C24.3404 94.1826 24.2615 94.2039 24.1918 94.2342C24.1221 94.2645 24.0644 94.3085 24.019 94.3661C23.9765 94.4207 23.9553 94.4965 23.9553 94.5935C23.9553 94.6572 23.9674 94.7118 23.9917 94.7573C24.019 94.7997 24.0523 94.8346 24.0917 94.8619C24.1342 94.8892 24.1827 94.9089 24.2373 94.921C24.2919 94.9331 24.3495 94.9392 24.4101 94.9392C24.5375 94.9392 24.6466 94.9225 24.7376 94.8892C24.8286 94.8528 24.9029 94.8088 24.9605 94.7573C25.0181 94.7027 25.0606 94.6451 25.0879 94.5844C25.1151 94.5208 25.1288 94.4616 25.1288 94.407V94.0113ZM26.1391 91.9781H26.5257V95.2258H26.1391V91.9781ZM29.2078 95.2167C29.1411 95.2561 29.0486 95.2758 28.9304 95.2758C28.8303 95.2758 28.7499 95.2485 28.6893 95.1939C28.6317 95.1363 28.6029 95.0438 28.6029 94.9165C28.4967 95.0438 28.3724 95.1363 28.2299 95.1939C28.0904 95.2485 27.9388 95.2758 27.7751 95.2758C27.6689 95.2758 27.5673 95.2637 27.4703 95.2394C27.3763 95.2152 27.2944 95.1773 27.2247 95.1257C27.1549 95.0742 27.0988 95.0074 27.0564 94.9256C27.017 94.8407 26.9973 94.7391 26.9973 94.6208C26.9973 94.4874 27.02 94.3782 27.0655 94.2933C27.111 94.2084 27.1701 94.1402 27.2429 94.0886C27.3187 94.0341 27.4036 93.9931 27.4976 93.9658C27.5946 93.9385 27.6932 93.9158 27.7932 93.8976C27.8994 93.8764 27.9994 93.8612 28.0934 93.8521C28.1905 93.84 28.2754 93.8248 28.3482 93.8066C28.4209 93.7854 28.4786 93.7566 28.521 93.7202C28.5635 93.6808 28.5847 93.6247 28.5847 93.5519C28.5847 93.467 28.568 93.3988 28.5347 93.3472C28.5043 93.2957 28.4634 93.2563 28.4118 93.229C28.3633 93.2017 28.3072 93.1835 28.2435 93.1744C28.1829 93.1653 28.1223 93.1608 28.0616 93.1608C27.8979 93.1608 27.7614 93.1926 27.6522 93.2563C27.5431 93.3169 27.484 93.4337 27.4749 93.6065H27.0882C27.0943 93.461 27.1246 93.3381 27.1792 93.2381C27.2338 93.138 27.3066 93.0577 27.3975 92.997C27.4885 92.9333 27.5916 92.8878 27.7068 92.8606C27.8251 92.8333 27.9509 92.8196 28.0844 92.8196C28.1905 92.8196 28.2951 92.8272 28.3982 92.8424C28.5043 92.8575 28.5998 92.8894 28.6848 92.9379C28.7697 92.9834 28.8379 93.0486 28.8894 93.1335C28.941 93.2184 28.9668 93.329 28.9668 93.4655V94.6754C28.9668 94.7664 28.9713 94.8331 28.9804 94.8755C28.9925 94.918 29.0289 94.9392 29.0896 94.9392C29.1229 94.9392 29.1623 94.9316 29.2078 94.9165V95.2167ZM28.5801 94.0113C28.5316 94.0477 28.4679 94.075 28.3891 94.0932C28.3103 94.1084 28.2269 94.122 28.1389 94.1341C28.054 94.1432 27.9676 94.1554 27.8797 94.1705C27.7917 94.1826 27.7129 94.2039 27.6431 94.2342C27.5734 94.2645 27.5158 94.3085 27.4703 94.3661C27.4279 94.4207 27.4066 94.4965 27.4066 94.5935C27.4066 94.6572 27.4188 94.7118 27.443 94.7573C27.4703 94.7997 27.5037 94.8346 27.5431 94.8619C27.5855 94.8892 27.6341 94.9089 27.6886 94.921C27.7432 94.9331 27.8008 94.9392 27.8615 94.9392C27.9888 94.9392 28.098 94.9225 28.189 94.8892C28.2799 94.8528 28.3542 94.8088 28.4118 94.7573C28.4695 94.7027 28.5119 94.6451 28.5392 94.5844C28.5665 94.5208 28.5801 94.4616 28.5801 94.407V94.0113ZM29.554 92.8742H29.9179V93.37H29.927C30.021 93.1789 30.1362 93.0379 30.2727 92.947C30.4091 92.856 30.582 92.8136 30.7912 92.8196V93.229C30.6366 93.229 30.5046 93.2502 30.3955 93.2927C30.2863 93.3351 30.1984 93.3973 30.1317 93.4791C30.065 93.561 30.0164 93.6611 29.9861 93.7793C29.9558 93.8946 29.9406 94.028 29.9406 94.1796V95.2258H29.554V92.8742ZM32.0057 95.5396C31.9602 95.6548 31.9147 95.7519 31.8692 95.8307C31.8268 95.9096 31.7783 95.9732 31.7237 96.0218C31.6721 96.0733 31.613 96.1097 31.5463 96.1309C31.4826 96.1552 31.4083 96.1673 31.3234 96.1673C31.2779 96.1673 31.2324 96.1643 31.187 96.1582C31.1415 96.1521 31.0975 96.1415 31.0551 96.1264V95.7716C31.0884 95.7868 31.1263 95.7989 31.1688 95.808C31.2142 95.8201 31.2522 95.8262 31.2825 95.8262C31.3613 95.8262 31.4265 95.8065 31.4781 95.767C31.5326 95.7307 31.5736 95.6776 31.6009 95.6078L31.7601 95.2121L30.8276 92.8742H31.2643L31.9511 94.7982H31.9602L32.6197 92.8742H33.0291L32.0057 95.5396ZM33.1054 94.7209H33.6103V95.1803C33.6103 95.3531 33.5709 95.5017 33.4921 95.626C33.4132 95.7504 33.2859 95.8383 33.11 95.8898V95.6624C33.1615 95.6442 33.204 95.6169 33.2373 95.5806C33.2737 95.5472 33.3025 95.5093 33.3238 95.4668C33.345 95.4274 33.3586 95.3865 33.3647 95.344C33.3738 95.3016 33.3768 95.2622 33.3738 95.2258H33.1054V94.7209ZM36.174 93.884H37.2748L36.7335 92.3693H36.7244L36.174 93.884ZM36.497 91.9781H36.9746L38.2436 95.2258H37.766L37.4112 94.2478H36.0376L35.6737 95.2258H35.2325L36.497 91.9781ZM38.523 91.9781H38.9097V95.2258H38.523V91.9781ZM39.5314 91.9781H39.918V95.2258H39.5314V91.9781ZM40.7989 94.0523C40.7989 94.1948 40.8171 94.3221 40.8535 94.4343C40.8929 94.5435 40.946 94.636 41.0127 94.7118C41.0794 94.7846 41.1567 94.8407 41.2447 94.8801C41.3356 94.9195 41.4312 94.9392 41.5312 94.9392C41.6313 94.9392 41.7253 94.9195 41.8132 94.8801C41.9042 94.8407 41.983 94.7846 42.0498 94.7118C42.1165 94.636 42.168 94.5435 42.2044 94.4343C42.2438 94.3221 42.2635 94.1948 42.2635 94.0523C42.2635 93.9097 42.2438 93.7839 42.2044 93.6747C42.168 93.5625 42.1165 93.4685 42.0498 93.3927C41.983 93.3169 41.9042 93.2593 41.8132 93.2199C41.7253 93.1805 41.6313 93.1608 41.5312 93.1608C41.4312 93.1608 41.3356 93.1805 41.2447 93.2199C41.1567 93.2593 41.0794 93.3169 41.0127 93.3927C40.946 93.4685 40.8929 93.5625 40.8535 93.6747C40.8171 93.7839 40.7989 93.9097 40.7989 94.0523ZM40.3896 94.0523C40.3896 93.8794 40.4138 93.7187 40.4623 93.5701C40.5109 93.4185 40.5836 93.2881 40.6807 93.1789C40.7777 93.0668 40.8975 92.9788 41.04 92.9151C41.1825 92.8515 41.3463 92.8196 41.5312 92.8196C41.7192 92.8196 41.883 92.8515 42.0225 92.9151C42.165 92.9788 42.2848 93.0668 42.3818 93.1789C42.4788 93.2881 42.5516 93.4185 42.6001 93.5701C42.6486 93.7187 42.6729 93.8794 42.6729 94.0523C42.6729 94.2251 42.6486 94.3858 42.6001 94.5344C42.5516 94.683 42.4788 94.8134 42.3818 94.9256C42.2848 95.0347 42.165 95.1212 42.0225 95.1848C41.883 95.2455 41.7192 95.2758 41.5312 95.2758C41.3463 95.2758 41.1825 95.2455 41.04 95.1848C40.8975 95.1212 40.7777 95.0347 40.6807 94.9256C40.5836 94.8134 40.5109 94.683 40.4623 94.5344C40.4138 94.3858 40.3896 94.2251 40.3896 94.0523ZM45.4576 95.2258H45.0482L44.5706 93.3563H44.5615L44.0885 95.2258H43.67L42.915 92.8742H43.3425L43.8747 94.7982H43.8838L44.3568 92.8742H44.7799L45.2711 94.7982H45.2802L45.8078 92.8742H46.2081L45.4576 95.2258ZM48.6589 95.2167C48.5922 95.2561 48.4997 95.2758 48.3814 95.2758C48.2813 95.2758 48.201 95.2485 48.1403 95.1939C48.0827 95.1363 48.0539 95.0438 48.0539 94.9165C47.9478 95.0438 47.8235 95.1363 47.6809 95.1939C47.5415 95.2485 47.3898 95.2758 47.2261 95.2758C47.12 95.2758 47.0184 95.2637 46.9213 95.2394C46.8273 95.2152 46.7455 95.1773 46.6757 95.1257C46.606 95.0742 46.5499 95.0074 46.5074 94.9256C46.468 94.8407 46.4483 94.7391 46.4483 94.6208C46.4483 94.4874 46.471 94.3782 46.5165 94.2933C46.562 94.2084 46.6211 94.1402 46.6939 94.0886C46.7697 94.0341 46.8546 93.9931 46.9486 93.9658C47.0457 93.9385 47.1442 93.9158 47.2443 93.8976C47.3504 93.8764 47.4505 93.8612 47.5445 93.8521C47.6415 93.84 47.7264 93.8248 47.7992 93.8066C47.872 93.7854 47.9296 93.7566 47.972 93.7202C48.0145 93.6808 48.0357 93.6247 48.0357 93.5519C48.0357 93.467 48.019 93.3988 47.9857 93.3472C47.9554 93.2957 47.9144 93.2563 47.8629 93.229C47.8144 93.2017 47.7583 93.1835 47.6946 93.1744C47.6339 93.1653 47.5733 93.1608 47.5126 93.1608C47.3489 93.1608 47.2124 93.1926 47.1033 93.2563C46.9941 93.3169 46.935 93.4337 46.9259 93.6065H46.5393C46.5453 93.461 46.5757 93.3381 46.6302 93.2381C46.6848 93.138 46.7576 93.0577 46.8486 92.997C46.9395 92.9333 47.0426 92.8878 47.1579 92.8606C47.2761 92.8333 47.402 92.8196 47.5354 92.8196C47.6415 92.8196 47.7461 92.8272 47.8492 92.8424C47.9554 92.8575 48.0509 92.8894 48.1358 92.9379C48.2207 92.9834 48.2889 93.0486 48.3405 93.1335C48.392 93.2184 48.4178 93.329 48.4178 93.4655V94.6754C48.4178 94.7664 48.4223 94.8331 48.4314 94.8755C48.4436 94.918 48.48 94.9392 48.5406 94.9392C48.574 94.9392 48.6134 94.9316 48.6589 94.9165V95.2167ZM48.0312 94.0113C47.9827 94.0477 47.919 94.075 47.8401 94.0932C47.7613 94.1084 47.6779 94.122 47.59 94.1341C47.5051 94.1432 47.4186 94.1554 47.3307 94.1705C47.2428 94.1826 47.1639 94.2039 47.0942 94.2342C47.0244 94.2645 46.9668 94.3085 46.9213 94.3661C46.8789 94.4207 46.8577 94.4965 46.8577 94.5935C46.8577 94.6572 46.8698 94.7118 46.894 94.7573C46.9213 94.7997 46.9547 94.8346 46.9941 94.8619C47.0366 94.8892 47.0851 94.9089 47.1397 94.921C47.1942 94.9331 47.2519 94.9392 47.3125 94.9392C47.4399 94.9392 47.549 94.9225 47.64 94.8892C47.731 94.8528 47.8053 94.8088 47.8629 94.7573C47.9205 94.7027 47.9629 94.6451 47.9902 94.5844C48.0175 94.5208 48.0312 94.4616 48.0312 94.407V94.0113ZM49.0187 92.8742H49.3826V93.2472H49.3917C49.5524 92.9621 49.8071 92.8196 50.1558 92.8196C50.3105 92.8196 50.4393 92.8408 50.5424 92.8833C50.6455 92.9257 50.7289 92.9849 50.7926 93.0607C50.8563 93.1365 50.9003 93.2275 50.9245 93.3336C50.9518 93.4367 50.9654 93.5519 50.9654 93.6793V95.2258H50.5788V93.6338C50.5788 93.4882 50.5364 93.373 50.4515 93.2881C50.3666 93.2032 50.2498 93.1608 50.1012 93.1608C49.983 93.1608 49.8799 93.1789 49.7919 93.2153C49.707 93.2517 49.6358 93.3033 49.5782 93.37C49.5205 93.4367 49.4766 93.5155 49.4463 93.6065C49.419 93.6944 49.4053 93.7915 49.4053 93.8976V95.2258H49.0187V92.8742ZM53.1426 93.6292C53.1123 93.4807 53.0486 93.3654 52.9516 93.2836C52.8546 93.2017 52.7242 93.1608 52.5604 93.1608C52.421 93.1608 52.3042 93.1865 52.2102 93.2381C52.1162 93.2896 52.0404 93.3579 51.9828 93.4428C51.9282 93.5277 51.8888 93.6262 51.8645 93.7384C51.8403 93.8476 51.8281 93.9613 51.8281 94.0795C51.8281 94.1887 51.8403 94.2948 51.8645 94.3979C51.8918 94.501 51.9327 94.5935 51.9873 94.6754C52.0419 94.7542 52.1132 94.8179 52.2011 94.8664C52.289 94.915 52.3937 94.9392 52.515 94.9392C52.706 94.9392 52.8546 94.8892 52.9607 94.7891C53.0699 94.689 53.1366 94.548 53.1608 94.3661H53.5566C53.5141 94.6572 53.4049 94.8816 53.2291 95.0393C53.0562 95.197 52.8197 95.2758 52.5195 95.2758C52.3406 95.2758 52.1814 95.247 52.0419 95.1894C51.9055 95.1318 51.7902 95.0499 51.6962 94.9438C51.6053 94.8376 51.5355 94.7118 51.487 94.5662C51.4415 94.4177 51.4188 94.2554 51.4188 94.0795C51.4188 93.9037 51.4415 93.7399 51.487 93.5883C51.5325 93.4337 51.6007 93.3002 51.6917 93.188C51.7857 93.0728 51.9024 92.9834 52.0419 92.9197C52.1814 92.853 52.3436 92.8196 52.5286 92.8196C52.662 92.8196 52.7864 92.8363 52.9016 92.8696C53.0198 92.9 53.1229 92.9485 53.2109 93.0152C53.3018 93.0819 53.3761 93.1668 53.4338 93.2699C53.4914 93.37 53.5278 93.4898 53.5429 93.6292H53.1426ZM55.6221 93.8248C55.616 93.7339 55.5948 93.6474 55.5584 93.5656C55.525 93.4837 55.478 93.414 55.4174 93.3563C55.3598 93.2957 55.29 93.2487 55.2082 93.2153C55.1293 93.1789 55.0414 93.1608 54.9444 93.1608C54.8443 93.1608 54.7533 93.1789 54.6714 93.2153C54.5926 93.2487 54.5244 93.2957 54.4668 93.3563C54.4091 93.417 54.3637 93.4882 54.3303 93.5701C54.2969 93.649 54.2772 93.7339 54.2712 93.8248H55.6221ZM55.9951 94.4798C55.9435 94.7436 55.8298 94.9422 55.6539 95.0757C55.478 95.2091 55.2567 95.2758 54.9898 95.2758C54.8018 95.2758 54.6381 95.2455 54.4986 95.1848C54.3621 95.1242 54.2469 95.0393 54.1529 94.9301C54.0589 94.821 53.9877 94.6906 53.9391 94.5389C53.8936 94.3873 53.8679 94.2221 53.8618 94.0432C53.8618 93.8643 53.8891 93.7005 53.9437 93.5519C53.9983 93.4033 54.0741 93.2745 54.1711 93.1653C54.2712 93.0561 54.3879 92.9712 54.5213 92.9106C54.6578 92.8499 54.8064 92.8196 54.9671 92.8196C55.1763 92.8196 55.3492 92.8636 55.4856 92.9515C55.6251 93.0364 55.7358 93.1456 55.8177 93.279C55.9026 93.4124 55.9602 93.558 55.9905 93.7157C56.0239 93.8733 56.0375 94.0235 56.0314 94.166H54.2712C54.2681 94.2691 54.2803 94.3676 54.3076 94.4616C54.3349 94.5526 54.3788 94.6345 54.4395 94.7072C54.5001 94.777 54.5774 94.8331 54.6714 94.8755C54.7654 94.918 54.8761 94.9392 55.0035 94.9392C55.1672 94.9392 55.3006 94.9013 55.4037 94.8255C55.5099 94.7497 55.5796 94.6345 55.613 94.4798H55.9951ZM56.5186 94.7209H57.0235V95.1803C57.0235 95.3531 56.9841 95.5017 56.9052 95.626C56.8264 95.7504 56.6991 95.8383 56.5232 95.8898V95.6624C56.5747 95.6442 56.6172 95.6169 56.6505 95.5806C56.6869 95.5472 56.7157 95.5093 56.737 95.4668C56.7582 95.4274 56.7718 95.3865 56.7779 95.344C56.787 95.3016 56.79 95.2622 56.787 95.2258H56.5186V94.7209ZM61.4567 94.821C61.3293 94.9908 61.1716 95.1136 60.9836 95.1894C60.7956 95.2622 60.6061 95.2985 60.4151 95.2985C60.1725 95.2985 59.9557 95.2546 59.7646 95.1666C59.5736 95.0757 59.4114 94.9544 59.2779 94.8028C59.1445 94.6511 59.0429 94.4768 58.9732 94.2797C58.9034 94.0826 58.8686 93.8779 58.8686 93.6656C58.8686 93.4291 58.9004 93.2047 58.9641 92.9925C59.0308 92.7772 59.1278 92.5892 59.2552 92.4284C59.3856 92.2677 59.5463 92.1404 59.7373 92.0464C59.9314 91.9493 60.1573 91.9008 60.4151 91.9008C60.5909 91.9008 60.7562 91.922 60.9108 91.9645C61.0685 92.0039 61.208 92.0676 61.3293 92.1555C61.4536 92.2435 61.5567 92.3557 61.6386 92.4921C61.7235 92.6255 61.7811 92.7878 61.8114 92.9788H61.3793C61.3581 92.8545 61.3187 92.7484 61.2611 92.6604C61.2035 92.5694 61.1322 92.4952 61.0473 92.4375C60.9624 92.3799 60.8654 92.3375 60.7562 92.3102C60.6501 92.2799 60.5363 92.2647 60.4151 92.2647C60.218 92.2647 60.0481 92.3041 59.9056 92.383C59.7661 92.4618 59.6509 92.5664 59.5599 92.6968C59.472 92.8242 59.4068 92.9712 59.3644 93.138C59.3219 93.3018 59.3007 93.47 59.3007 93.6429C59.3007 93.8127 59.3249 93.9764 59.3734 94.1341C59.422 94.2888 59.4932 94.4268 59.5872 94.548C59.6812 94.6663 59.7965 94.7618 59.9329 94.8346C60.0724 94.9043 60.2331 94.9392 60.4151 94.9392C60.5849 94.9392 60.735 94.9119 60.8654 94.8573C60.9957 94.8028 61.1049 94.7285 61.1928 94.6345C61.2838 94.5374 61.352 94.4252 61.3975 94.2979C61.443 94.1675 61.4627 94.028 61.4567 93.8794H60.4196V93.5155H61.8433V95.2258H61.5704L61.4567 94.821ZM62.8248 92.4512H62.4382V91.9781H62.8248V92.4512ZM62.4382 92.8742H62.8248V95.2258H62.4382V92.8742ZM63.5829 93.2153H63.1872V92.8742H63.5829V92.524C63.5829 92.3329 63.6375 92.1889 63.7467 92.0919C63.8589 91.9918 64.0211 91.9418 64.2334 91.9418C64.2698 91.9418 64.3107 91.9448 64.3562 91.9509C64.4047 91.9569 64.4472 91.966 64.4835 91.9781V92.3147C64.4502 92.3026 64.4138 92.295 64.3744 92.292C64.335 92.2859 64.2986 92.2829 64.2652 92.2829C64.1712 92.2829 64.0984 92.3011 64.0469 92.3375C63.9953 92.3739 63.9696 92.4436 63.9696 92.5467V92.8742H64.4244V93.2153H63.9696V95.2258H63.5829V93.2153ZM65.3064 92.8742H65.7749V93.2153H65.3064V94.6754C65.3064 94.7209 65.3094 94.7573 65.3155 94.7846C65.3246 94.8119 65.3397 94.8331 65.3609 94.8482C65.3822 94.8634 65.411 94.874 65.4474 94.8801C65.4868 94.8831 65.5368 94.8846 65.5975 94.8846H65.7749V95.2258H65.4792C65.3791 95.2258 65.2927 95.2197 65.2199 95.2076C65.1502 95.1924 65.0926 95.1666 65.0471 95.1303C65.0046 95.0939 64.9728 95.0423 64.9516 94.9756C64.9303 94.9089 64.9197 94.821 64.9197 94.7118V93.2153H64.5195V92.8742H64.9197V92.1692H65.3064V92.8742ZM69.1032 93.8248C69.0971 93.7339 69.0759 93.6474 69.0395 93.5656C69.0062 93.4837 68.9592 93.414 68.8985 93.3563C68.8409 93.2957 68.7712 93.2487 68.6893 93.2153C68.6105 93.1789 68.5225 93.1608 68.4255 93.1608C68.3254 93.1608 68.2345 93.1789 68.1526 93.2153C68.0737 93.2487 68.0055 93.2957 67.9479 93.3563C67.8903 93.417 67.8448 93.4882 67.8114 93.5701C67.7781 93.649 67.7584 93.7339 67.7523 93.8248H69.1032ZM69.4762 94.4798C69.4246 94.7436 69.3109 94.9422 69.1351 95.0757C68.9592 95.2091 68.7378 95.2758 68.471 95.2758C68.283 95.2758 68.1192 95.2455 67.9797 95.1848C67.8433 95.1242 67.7281 95.0393 67.634 94.9301C67.54 94.821 67.4688 94.6906 67.4203 94.5389C67.3748 94.3873 67.349 94.2221 67.3429 94.0432C67.3429 93.8643 67.3702 93.7005 67.4248 93.5519C67.4794 93.4033 67.5552 93.2745 67.6522 93.1653C67.7523 93.0561 67.8691 92.9712 68.0025 92.9106C68.1389 92.8499 68.2875 92.8196 68.4482 92.8196C68.6575 92.8196 68.8303 92.8636 68.9668 92.9515C69.1062 93.0364 69.2169 93.1456 69.2988 93.279C69.3837 93.4124 69.4413 93.558 69.4716 93.7157C69.505 93.8733 69.5186 94.0235 69.5126 94.166H67.7523C67.7493 94.2691 67.7614 94.3676 67.7887 94.4616C67.816 94.5526 67.86 94.6345 67.9206 94.7072C67.9813 94.777 68.0586 94.8331 68.1526 94.8755C68.2466 94.918 68.3573 94.9392 68.4846 94.9392C68.6484 94.9392 68.7818 94.9013 68.8849 94.8255C68.991 94.7497 69.0608 94.6345 69.0941 94.4798H69.4762ZM70.4501 92.8742H70.9186V93.2153H70.4501V94.6754C70.4501 94.7209 70.4531 94.7573 70.4592 94.7846C70.4683 94.8119 70.4834 94.8331 70.5046 94.8482C70.5259 94.8634 70.5547 94.874 70.5911 94.8801C70.6305 94.8831 70.6805 94.8846 70.7412 94.8846H70.9186V95.2258H70.6229C70.5228 95.2258 70.4364 95.2197 70.3636 95.2076C70.2939 95.1924 70.2363 95.1666 70.1908 95.1303C70.1483 95.0939 70.1165 95.0423 70.0953 94.9756C70.0741 94.9089 70.0634 94.821 70.0634 94.7118V93.2153H69.6632V92.8742H70.0634V92.1692H70.4501V92.8742ZM72.9446 93.6292C72.9143 93.4807 72.8506 93.3654 72.7536 93.2836C72.6565 93.2017 72.5261 93.1608 72.3624 93.1608C72.2229 93.1608 72.1062 93.1865 72.0122 93.2381C71.9182 93.2896 71.8423 93.3579 71.7847 93.4428C71.7301 93.5277 71.6907 93.6262 71.6665 93.7384C71.6422 93.8476 71.6301 93.9613 71.6301 94.0795C71.6301 94.1887 71.6422 94.2948 71.6665 94.3979C71.6938 94.501 71.7347 94.5935 71.7893 94.6754C71.8439 94.7542 71.9151 94.8179 72.0031 94.8664C72.091 94.915 72.1956 94.9392 72.3169 94.9392C72.5079 94.9392 72.6565 94.8892 72.7627 94.7891C72.8718 94.689 72.9385 94.548 72.9628 94.3661H73.3585C73.3161 94.6572 73.2069 94.8816 73.031 95.0393C72.8582 95.197 72.6217 95.2758 72.3215 95.2758C72.1425 95.2758 71.9833 95.247 71.8439 95.1894C71.7074 95.1318 71.5922 95.0499 71.4982 94.9438C71.4072 94.8376 71.3375 94.7118 71.2889 94.5662C71.2435 94.4177 71.2207 94.2554 71.2207 94.0795C71.2207 93.9037 71.2435 93.7399 71.2889 93.5883C71.3344 93.4337 71.4027 93.3002 71.4936 93.188C71.5876 93.0728 71.7044 92.9834 71.8439 92.9197C71.9833 92.853 72.1456 92.8196 72.3305 92.8196C72.464 92.8196 72.5883 92.8363 72.7035 92.8696C72.8218 92.9 72.9249 92.9485 73.0128 93.0152C73.1038 93.0819 73.1781 93.1668 73.2357 93.2699C73.2933 93.37 73.3297 93.4898 73.3449 93.6292H72.9446ZM73.4591 96.1218C73.6744 95.7792 73.8275 95.438 73.9185 95.0984C74.0094 94.7558 74.0549 94.3995 74.0549 94.0295C74.0549 93.6474 74.0079 93.2851 73.9139 92.9424C73.823 92.5967 73.6713 92.2495 73.4591 91.9008H73.7502C73.8593 92.0706 73.9579 92.2404 74.0458 92.4103C74.1338 92.577 74.2081 92.7484 74.2687 92.9242C74.3324 93.0971 74.3809 93.2745 74.4143 93.4564C74.4476 93.6383 74.4643 93.8294 74.4643 94.0295C74.4643 94.3873 74.4036 94.7482 74.2823 95.1121C74.1641 95.4729 73.9867 95.8095 73.7502 96.1218H73.4591Z" fill="#524D4D"/>
<rect x="12.5084" y="99.0686" width="145.552" height="25.5853" rx="2.84281" fill="#DBBFFF"/>
<path d="M22.4139 111.4H23.8945C24.3243 111.406 24.6374 111.318 24.8337 111.138C25.0354 110.957 25.1362 110.697 25.1362 110.357C25.1362 110.018 25.0354 109.76 24.8337 109.585C24.6374 109.405 24.3243 109.315 23.8945 109.315H22.4139V111.4ZM21.6577 108.678H24.1492C24.7223 108.678 25.1548 108.827 25.4466 109.124C25.7438 109.416 25.8924 109.827 25.8924 110.357C25.8924 110.888 25.7438 111.302 25.4466 111.599C25.1548 111.896 24.7223 112.042 24.1492 112.037H22.4139V114.361H21.6577V108.678ZM30.3534 114.345C30.2366 114.414 30.0748 114.449 29.8678 114.449C29.6927 114.449 29.5521 114.401 29.446 114.306C29.3451 114.205 29.2947 114.043 29.2947 113.82C29.109 114.043 28.8914 114.205 28.642 114.306C28.3979 114.401 28.1326 114.449 27.846 114.449C27.6603 114.449 27.4825 114.428 27.3127 114.385C27.1482 114.343 27.0049 114.276 26.8829 114.186C26.7608 114.096 26.6627 113.979 26.5884 113.836C26.5194 113.687 26.4849 113.51 26.4849 113.303C26.4849 113.069 26.5247 112.878 26.6043 112.729C26.6839 112.581 26.7874 112.462 26.9147 112.371C27.0474 112.276 27.196 112.204 27.3605 112.156C27.5303 112.109 27.7028 112.069 27.8779 112.037C28.0636 112 28.2387 111.973 28.4032 111.957C28.573 111.936 28.7216 111.91 28.849 111.878C28.9763 111.841 29.0772 111.79 29.1515 111.727C29.2257 111.658 29.2629 111.559 29.2629 111.432C29.2629 111.283 29.2337 111.164 29.1753 111.074C29.1223 110.984 29.0506 110.915 28.9604 110.867C28.8755 110.819 28.7773 110.787 28.6659 110.771C28.5598 110.755 28.4536 110.747 28.3475 110.747C28.0609 110.747 27.8222 110.803 27.6311 110.915C27.4401 111.021 27.3366 111.225 27.3207 111.528H26.6441C26.6547 111.273 26.7078 111.058 26.8033 110.883C26.8988 110.708 27.0262 110.567 27.1854 110.461C27.3446 110.349 27.525 110.27 27.7266 110.222C27.9336 110.174 28.1538 110.15 28.3873 110.15C28.573 110.15 28.7561 110.164 28.9365 110.19C29.1223 110.217 29.2894 110.273 29.438 110.357C29.5866 110.437 29.706 110.551 29.7962 110.7C29.8864 110.848 29.9315 111.042 29.9315 111.281V113.398C29.9315 113.557 29.9395 113.674 29.9554 113.748C29.9766 113.823 30.0403 113.86 30.1464 113.86C30.2048 113.86 30.2738 113.847 30.3534 113.82V114.345ZM29.2549 112.236C29.17 112.3 29.0586 112.347 28.9206 112.379C28.7826 112.406 28.6367 112.43 28.4828 112.451C28.3342 112.467 28.183 112.488 28.0291 112.515C27.8752 112.536 27.7372 112.573 27.6152 112.626C27.4931 112.679 27.3923 112.756 27.3127 112.857C27.2384 112.952 27.2013 113.085 27.2013 113.255C27.2013 113.366 27.2225 113.462 27.265 113.541C27.3127 113.616 27.3711 113.677 27.4401 113.724C27.5144 113.772 27.5993 113.807 27.6948 113.828C27.7903 113.849 27.8911 113.86 27.9973 113.86C28.2201 113.86 28.4112 113.831 28.5704 113.772C28.7296 113.709 28.8596 113.632 28.9604 113.541C29.0612 113.446 29.1355 113.345 29.1833 113.239C29.231 113.127 29.2549 113.024 29.2549 112.928V112.236ZM32.5989 114.91C32.5193 115.112 32.4397 115.282 32.3601 115.42C32.2859 115.558 32.201 115.669 32.1054 115.754C32.0152 115.844 31.9117 115.908 31.795 115.945C31.6836 115.988 31.5535 116.009 31.405 116.009C31.3254 116.009 31.2458 116.004 31.1662 115.993C31.0866 115.982 31.0096 115.964 30.9353 115.937V115.316C30.9937 115.343 31.06 115.364 31.1343 115.38C31.2139 115.401 31.2803 115.412 31.3333 115.412C31.4713 115.412 31.5854 115.377 31.6756 115.308C31.7711 115.245 31.8428 115.152 31.8905 115.03L32.1691 114.337L30.5373 110.246H31.3015L32.5034 113.613H32.5193L33.6735 110.246H34.3899L32.5989 114.91ZM34.963 110.246H35.5998V110.851H35.6157C35.9235 110.384 36.3666 110.15 36.945 110.15C37.1997 110.15 37.4306 110.204 37.6375 110.31C37.8445 110.416 37.9904 110.596 38.0753 110.851C38.2133 110.628 38.3937 110.456 38.6166 110.334C38.8448 110.212 39.0942 110.15 39.3648 110.15C39.5718 110.15 39.7575 110.174 39.922 110.222C40.0918 110.265 40.2351 110.334 40.3519 110.429C40.4739 110.525 40.5668 110.649 40.6304 110.803C40.6994 110.952 40.7339 111.132 40.7339 111.344V114.361H40.0573V111.663C40.0573 111.536 40.0467 111.416 40.0255 111.305C40.0043 111.193 39.9645 111.098 39.9061 111.018C39.8477 110.933 39.7655 110.867 39.6593 110.819C39.5585 110.771 39.4259 110.747 39.2614 110.747C38.927 110.747 38.6644 110.843 38.4733 111.034C38.2823 111.225 38.1868 111.48 38.1868 111.798V114.361H37.5102V111.663C37.5102 111.53 37.4969 111.408 37.4704 111.297C37.4492 111.185 37.4094 111.09 37.351 111.01C37.2926 110.925 37.213 110.862 37.1122 110.819C37.0167 110.771 36.892 110.747 36.7381 110.747C36.5417 110.747 36.3719 110.787 36.2286 110.867C36.0907 110.946 35.9766 111.042 35.8864 111.153C35.8015 111.265 35.7378 111.382 35.6953 111.504C35.6582 111.62 35.6396 111.719 35.6396 111.798V114.361H34.963V110.246ZM44.6067 111.91C44.5961 111.75 44.559 111.599 44.4953 111.456C44.4369 111.313 44.3547 111.191 44.2485 111.09C44.1477 110.984 44.0256 110.901 43.8824 110.843C43.7444 110.779 43.5905 110.747 43.4207 110.747C43.2456 110.747 43.0864 110.779 42.9431 110.843C42.8051 110.901 42.6857 110.984 42.5849 111.09C42.4841 111.196 42.4045 111.321 42.3461 111.464C42.2877 111.602 42.2532 111.75 42.2426 111.91H44.6067ZM45.2594 113.056C45.1692 113.518 44.9702 113.865 44.6624 114.099C44.3546 114.332 43.9673 114.449 43.5003 114.449C43.1713 114.449 42.8847 114.396 42.6406 114.29C42.4018 114.183 42.2002 114.035 42.0357 113.844C41.8712 113.653 41.7465 113.425 41.6616 113.159C41.582 112.894 41.5369 112.605 41.5262 112.292C41.5262 111.979 41.574 111.692 41.6695 111.432C41.765 111.172 41.8977 110.946 42.0675 110.755C42.2426 110.564 42.4469 110.416 42.6804 110.31C42.9192 110.204 43.1792 110.15 43.4605 110.15C43.8266 110.15 44.1291 110.227 44.3679 110.381C44.612 110.53 44.8057 110.721 44.949 110.954C45.0976 111.188 45.1984 111.443 45.2515 111.719C45.3098 111.995 45.3337 112.257 45.3231 112.507H42.2426C42.2373 112.687 42.2586 112.86 42.3063 113.024C42.3541 113.183 42.431 113.326 42.5371 113.454C42.6433 113.576 42.7786 113.674 42.9431 113.748C43.1076 113.823 43.3013 113.86 43.5242 113.86C43.8107 113.86 44.0442 113.793 44.2246 113.661C44.4104 113.528 44.5324 113.326 44.5908 113.056H45.2594ZM46.0244 110.246H46.6612V110.899H46.6771C46.9584 110.4 47.4041 110.15 48.0144 110.15C48.285 110.15 48.5106 110.188 48.691 110.262C48.8714 110.336 49.0173 110.44 49.1288 110.572C49.2402 110.705 49.3172 110.864 49.3596 111.05C49.4074 111.23 49.4313 111.432 49.4313 111.655V114.361H48.7547V111.575C48.7547 111.321 48.6804 111.119 48.5318 110.97C48.3832 110.822 48.1789 110.747 47.9189 110.747C47.7119 110.747 47.5315 110.779 47.3776 110.843C47.229 110.907 47.1043 110.997 47.0035 111.114C46.9027 111.23 46.8257 111.368 46.7727 111.528C46.7249 111.681 46.701 111.851 46.701 112.037V114.361H46.0244V110.246ZM51.3867 110.246H52.2066V110.843H51.3867V113.398C51.3867 113.478 51.392 113.541 51.4026 113.589C51.4186 113.637 51.4451 113.674 51.4822 113.701C51.5194 113.727 51.5698 113.746 51.6335 113.756C51.7025 113.762 51.79 113.764 51.8961 113.764H52.2066V114.361H51.6892C51.5141 114.361 51.3628 114.351 51.2355 114.329C51.1134 114.303 51.0126 114.258 50.933 114.194C50.8587 114.13 50.803 114.04 50.7658 113.923C50.7287 113.807 50.7101 113.653 50.7101 113.462V110.843H50.0097V110.246H50.7101V109.012H51.3867V110.246ZM55.2771 108.678H56.081L59.074 113.287H59.0899V108.678H59.8063V114.361H58.9784L56.0094 109.8H55.9935V114.361H55.2771V108.678ZM64.5637 114.345C64.447 114.414 64.2851 114.449 64.0782 114.449C63.903 114.449 63.7624 114.401 63.6563 114.306C63.5555 114.205 63.505 114.043 63.505 113.82C63.3193 114.043 63.1017 114.205 62.8523 114.306C62.6082 114.401 62.3429 114.449 62.0564 114.449C61.8706 114.449 61.6929 114.428 61.523 114.385C61.3585 114.343 61.2153 114.276 61.0932 114.186C60.9712 114.096 60.873 113.979 60.7987 113.836C60.7297 113.687 60.6952 113.51 60.6952 113.303C60.6952 113.069 60.735 112.878 60.8146 112.729C60.8942 112.581 60.9977 112.462 61.125 112.371C61.2577 112.276 61.4063 112.204 61.5708 112.156C61.7406 112.109 61.9131 112.069 62.0882 112.037C62.2739 112 62.449 111.973 62.6135 111.957C62.7834 111.936 62.9319 111.91 63.0593 111.878C63.1867 111.841 63.2875 111.79 63.3618 111.727C63.4361 111.658 63.4732 111.559 63.4732 111.432C63.4732 111.283 63.444 111.164 63.3857 111.074C63.3326 110.984 63.2609 110.915 63.1707 110.867C63.0858 110.819 62.9877 110.787 62.8762 110.771C62.7701 110.755 62.664 110.747 62.5578 110.747C62.2713 110.747 62.0325 110.803 61.8414 110.915C61.6504 111.021 61.5469 111.225 61.531 111.528H60.8544C60.865 111.273 60.9181 111.058 61.0136 110.883C61.1091 110.708 61.2365 110.567 61.3957 110.461C61.5549 110.349 61.7353 110.27 61.937 110.222C62.1439 110.174 62.3641 110.15 62.5976 110.15C62.7834 110.15 62.9664 110.164 63.1469 110.19C63.3326 110.217 63.4997 110.273 63.6483 110.357C63.7969 110.437 63.9163 110.551 64.0065 110.7C64.0967 110.848 64.1418 111.042 64.1418 111.281V113.398C64.1418 113.557 64.1498 113.674 64.1657 113.748C64.1869 113.823 64.2506 113.86 64.3568 113.86C64.4151 113.86 64.4841 113.847 64.5637 113.82V114.345ZM63.4652 112.236C63.3803 112.3 63.2689 112.347 63.1309 112.379C62.993 112.406 62.847 112.43 62.6931 112.451C62.5446 112.467 62.3933 112.488 62.2394 112.515C62.0855 112.536 61.9476 112.573 61.8255 112.626C61.7035 112.679 61.6026 112.756 61.523 112.857C61.4488 112.952 61.4116 113.085 61.4116 113.255C61.4116 113.366 61.4328 113.462 61.4753 113.541C61.523 113.616 61.5814 113.677 61.6504 113.724C61.7247 113.772 61.8096 113.807 61.9051 113.828C62.0006 113.849 62.1015 113.86 62.2076 113.86C62.4305 113.86 62.6215 113.831 62.7807 113.772C62.9399 113.709 63.0699 113.632 63.1707 113.541C63.2716 113.446 63.3459 113.345 63.3936 113.239C63.4414 113.127 63.4652 113.024 63.4652 112.928V112.236ZM65.1934 110.246H65.8302V110.851H65.8461C66.1539 110.384 66.597 110.15 67.1754 110.15C67.4301 110.15 67.661 110.204 67.8679 110.31C68.0749 110.416 68.2208 110.596 68.3057 110.851C68.4437 110.628 68.6241 110.456 68.847 110.334C69.0752 110.212 69.3246 110.15 69.5952 110.15C69.8022 110.15 69.9879 110.174 70.1524 110.222C70.3222 110.265 70.4655 110.334 70.5822 110.429C70.7043 110.525 70.7972 110.649 70.8608 110.803C70.9298 110.952 70.9643 111.132 70.9643 111.344V114.361H70.2877V111.663C70.2877 111.536 70.2771 111.416 70.2559 111.305C70.2347 111.193 70.1949 111.098 70.1365 111.018C70.0781 110.933 69.9959 110.867 69.8897 110.819C69.7889 110.771 69.6562 110.747 69.4917 110.747C69.1574 110.747 68.8948 110.843 68.7037 111.034C68.5127 111.225 68.4172 111.48 68.4172 111.798V114.361H67.7406V111.663C67.7406 111.53 67.7273 111.408 67.7008 111.297C67.6795 111.185 67.6397 111.09 67.5814 111.01C67.523 110.925 67.4434 110.862 67.3426 110.819C67.2471 110.771 67.1224 110.747 66.9685 110.747C66.7721 110.747 66.6023 110.787 66.459 110.867C66.3211 110.946 66.207 111.042 66.1168 111.153C66.0319 111.265 65.9682 111.382 65.9257 111.504C65.8886 111.62 65.87 111.719 65.87 111.798V114.361H65.1934V110.246ZM74.8371 111.91C74.8265 111.75 74.7893 111.599 74.7257 111.456C74.6673 111.313 74.585 111.191 74.4789 111.09C74.3781 110.984 74.256 110.901 74.1128 110.843C73.9748 110.779 73.8209 110.747 73.6511 110.747C73.476 110.747 73.3168 110.779 73.1735 110.843C73.0355 110.901 72.9161 110.984 72.8153 111.09C72.7145 111.196 72.6349 111.321 72.5765 111.464C72.5181 111.602 72.4836 111.75 72.473 111.91H74.8371ZM75.4898 113.056C75.3996 113.518 75.2006 113.865 74.8928 114.099C74.585 114.332 74.1977 114.449 73.7307 114.449C73.4017 114.449 73.1151 114.396 72.871 114.29C72.6322 114.183 72.4306 114.035 72.2661 113.844C72.1016 113.653 71.9769 113.425 71.892 113.159C71.8124 112.894 71.7672 112.605 71.7566 112.292C71.7566 111.979 71.8044 111.692 71.8999 111.432C71.9954 111.172 72.1281 110.946 72.2979 110.755C72.473 110.564 72.6773 110.416 72.9108 110.31C73.1496 110.204 73.4096 110.15 73.6909 110.15C74.057 110.15 74.3595 110.227 74.5983 110.381C74.8424 110.53 75.0361 110.721 75.1794 110.954C75.328 111.188 75.4288 111.443 75.4819 111.719C75.5402 111.995 75.5641 112.257 75.5535 112.507H72.473C72.4677 112.687 72.4889 112.86 72.5367 113.024C72.5845 113.183 72.6614 113.326 72.7675 113.454C72.8737 113.576 73.009 113.674 73.1735 113.748C73.338 113.823 73.5317 113.86 73.7546 113.86C74.0411 113.86 74.2746 113.793 74.455 113.661C74.6408 113.528 74.7628 113.326 74.8212 113.056H75.4898Z" fill="#726E6E"/>
<rect x="12.5084" y="136.025" width="145.552" height="25.5853" rx="2.84281" fill="#6404E0"/>
<path d="M78.5346 148.957H75.3542V150.641H78.9788V151.818H74.0172V145.27H78.8189V146.43H75.3542V147.82H78.5346V148.957ZM82.2214 147.913C81.792 147.913 81.4974 148.095 81.3374 148.46C81.2545 148.652 81.2131 148.898 81.2131 149.197V151.818H79.9516V146.985H81.1731V147.691C81.336 147.442 81.49 147.263 81.6351 147.154C81.8956 146.958 82.2258 146.861 82.6256 146.861C83.126 146.861 83.5347 146.992 83.8516 147.256C84.1714 147.517 84.3313 147.95 84.3313 148.557V151.818H83.0342V148.873C83.0342 148.618 83.0002 148.423 82.9321 148.286C82.8077 148.038 82.5708 147.913 82.2214 147.913ZM87.7204 150.916V151.862L87.1208 151.884C86.5226 151.905 86.114 151.801 85.8948 151.573C85.7527 151.428 85.6816 151.205 85.6816 150.903V147.922H85.0064V147.021H85.6816V145.67H86.9342V147.021H87.7204V147.922H86.9342V150.481C86.9342 150.679 86.9594 150.804 87.0097 150.854C87.0601 150.901 87.2141 150.925 87.4717 150.925C87.5102 150.925 87.5502 150.925 87.5916 150.925C87.636 150.922 87.679 150.919 87.7204 150.916ZM92.6776 150.396C92.645 150.684 92.4955 150.975 92.229 151.271C91.8144 151.742 91.234 151.978 90.4877 151.978C89.8718 151.978 89.3284 151.779 88.8576 151.382C88.3867 150.986 88.1513 150.34 88.1513 149.446C88.1513 148.608 88.363 147.965 88.7865 147.518C89.2129 147.071 89.7652 146.847 90.4433 146.847C90.8461 146.847 91.2088 146.923 91.5316 147.074C91.8544 147.225 92.1209 147.463 92.3311 147.789C92.5206 148.076 92.6435 148.409 92.6998 148.788C92.7324 149.01 92.7457 149.33 92.7398 149.748H89.4261C89.4439 150.233 89.5964 150.574 89.8836 150.769C90.0584 150.891 90.2686 150.952 90.5144 150.952C90.775 150.952 90.9867 150.878 91.1496 150.729C91.2384 150.65 91.3169 150.538 91.385 150.396H92.6776ZM91.425 148.913C91.4042 148.578 91.3021 148.325 91.1185 148.153C90.9379 147.978 90.7128 147.891 90.4433 147.891C90.1502 147.891 89.9221 147.983 89.7593 148.167C89.5994 148.35 89.4987 148.599 89.4572 148.913H91.425ZM96.0312 148.144C95.5219 148.144 95.1799 148.31 95.0051 148.642C94.9074 148.828 94.8586 149.116 94.8586 149.504V151.818H93.5837V146.976H94.7919V147.82C94.9874 147.497 95.1576 147.277 95.3027 147.158C95.5396 146.96 95.8476 146.861 96.2267 146.861C96.2504 146.861 96.2696 146.862 96.2844 146.865C96.3022 146.865 96.3392 146.867 96.3955 146.869V148.167C96.3155 148.158 96.2444 148.152 96.1822 148.149C96.1201 148.146 96.0697 148.144 96.0312 148.144Z" fill="white"/>
</g>
<defs>
<filter id="filter0_d_458_4635" x="0" y="0" width="174" height="183.097" filterUnits="userSpaceOnUse" color-interpolation-filters="sRGB">
<feFlood flood-opacity="0" result="BackgroundImageFix"/>
<feColorMatrix in="SourceAlpha" type="matrix" values="0 0 0 0 0 0 0 0 0 0 0 0 0 0 0 0 0 0 127 0" result="hardAlpha"/>
<feOffset dx="2" dy="2"/>
<feGaussianBlur stdDeviation="1"/>
<feComposite in2="hardAlpha" operator="out"/>
<feColorMatrix type="matrix" values="0 0 0 0 0 0 0 0 0 0 0 0 0 0 0 0 0 0 0.25 0"/>
<feBlend mode="normal" in2="BackgroundImageFix" result="effect1_dropShadow_458_4635"/>
<feBlend mode="normal" in="SourceGraphic" in2="effect1_dropShadow_458_4635" result="shape"/>
</filter>
</defs>
</svg>
