<svg width="174" height="188" viewBox="0 0 174 188" fill="none" xmlns="http://www.w3.org/2000/svg">
<path d="M41.7359 69.9212H48.8159V48.4487H41.7359V69.9212Z" fill="#F5F5F5"/>
<path d="M53.552 50.7092L45.0367 41L36.9999 50.4151L53.552 50.7092Z" fill="#F5F5F5"/>
<path d="M87.6173 78.7731C87.2104 82.4544 85.7206 85.9322 83.3363 88.7664C80.952 91.6006 77.7805 93.6637 74.2232 94.6947C70.6658 95.7256 66.8826 95.6779 63.3523 94.5577C59.8221 93.4375 56.7035 91.2952 54.3914 88.4018C52.0792 85.5085 50.6775 81.9942 50.3635 78.3038C50.0496 74.6134 50.8375 70.9128 52.6276 67.6705C54.4178 64.4281 57.1296 61.7897 60.4199 60.0893C63.7102 58.3888 67.431 57.7028 71.1114 58.1179C76.0387 58.6693 80.5454 61.1549 83.6406 65.0282C86.7359 68.9015 88.1662 73.8454 87.6173 78.7731Z" fill="#FF725E"/>
<g opacity="0.3">
<path d="M69.6703 85.3076L69.4219 87.7921L67.2189 87.5768L67.4508 85.1668C65.4955 84.9116 63.6508 84.114 62.1255 82.8644L63.6079 80.2887C64.7946 81.296 66.2208 81.9805 67.7489 82.2764L68.1051 78.5909C65.7116 77.7627 63.0531 76.6612 63.3678 73.5058C63.5997 71.1703 65.4962 69.3234 69.0243 69.2737L69.2645 66.7891L71.4675 67.0045L71.2356 69.4062C72.8057 69.6514 74.2956 70.2644 75.5836 71.1951L74.2088 73.8039C73.2318 73.0955 72.122 72.5913 70.9458 72.3215L70.5813 76.0815C72.9748 76.9097 75.5505 77.9697 75.2772 81.0506C75.0453 83.411 73.1736 85.233 69.6703 85.3076ZM68.4198 75.3692L68.7262 72.2304C67.5253 72.3794 67.0035 72.9757 66.929 73.7045C66.8545 74.4334 67.4756 74.9303 68.4198 75.3361V75.3692ZM71.6911 81.0589C71.7657 80.2887 71.1694 79.8083 70.2501 79.4025L69.9519 82.4503C71.0783 82.2432 71.6249 81.7297 71.6911 81.0258V81.0589Z" fill="black"/>
</g>
<g opacity="0.3">
<path d="M83.2361 76.6695C83.1185 76.0944 83.0575 75.5091 83.0539 74.922C82.8214 72.2808 81.88 69.7514 80.3291 67.6008C79.5998 66.6165 78.7514 65.7263 77.8032 64.9506C77.28 64.5318 76.7263 64.1525 76.1468 63.816C75.558 63.456 74.9402 63.1457 74.2999 62.8884C73.642 62.6144 72.9636 62.3929 72.2708 62.2258C71.554 62.0563 70.8262 61.9373 70.0927 61.8697C69.3592 61.82 68.6232 61.82 67.8897 61.8697C66.4883 61.9733 65.1112 62.2917 63.8067 62.8138C63.1926 63.0433 62.5972 63.3202 62.0261 63.642C60.0081 64.7776 58.3013 66.3934 57.0569 68.3462C56.2168 69.6698 55.5907 71.1176 55.2017 72.6362C55.0997 73.2017 54.9444 73.7563 54.738 74.2926C54.6088 73.7061 54.6088 73.0985 54.738 72.512C55.003 70.8911 55.5645 69.3329 56.3943 67.9155C56.9595 66.9295 57.6407 66.0148 58.4234 65.1908C59.3247 64.2277 60.3528 63.3919 61.4795 62.7062C62.0884 62.3368 62.7253 62.0155 63.3843 61.7455C64.0694 61.462 64.7755 61.2322 65.4962 61.0581C66.2444 60.8743 67.006 60.7497 67.7737 60.6854C68.565 60.6274 69.3594 60.6274 70.1507 60.6854C70.9399 60.7571 71.7231 60.8844 72.4944 61.0663C73.2406 61.257 73.9715 61.5034 74.6809 61.8034C75.3642 62.0896 76.0233 62.4303 76.652 62.8221C78.3695 63.8903 79.8493 65.2997 81 66.9631C81.639 67.9055 82.1644 68.9202 82.5653 69.986C83.1367 71.5191 83.4175 73.1453 83.3935 74.7812C83.4877 75.4144 83.4338 76.0607 83.2361 76.6695Z" fill="black"/>
</g>
<path d="M83.2196 78.0029C83.2087 77.926 83.2087 77.8479 83.2196 77.771C83.2196 77.5971 83.2196 77.3734 83.2196 77.0836C83.2446 76.7168 83.2446 76.3488 83.2196 75.9821C83.2071 75.4774 83.1629 74.9739 83.0871 74.4748C82.9047 73.1041 82.5224 71.7675 81.9524 70.5077C81.2083 68.8374 80.1512 67.3249 78.8384 66.052C77.1385 64.3868 75.0397 63.1857 72.7428 62.5636C70.4459 61.9415 68.0278 61.9193 65.7198 62.4991C65.0649 62.6584 64.4227 62.8661 63.7984 63.1202C63.1618 63.389 62.5447 63.7017 61.9515 64.0561C60.71 64.7765 59.5916 65.6908 58.6387 66.7643C57.6422 67.8584 56.8234 69.102 56.2121 70.4498C55.5986 71.8408 55.1913 73.314 55.003 74.8226C54.847 76.3401 54.9168 77.8724 55.21 79.3694C55.5024 80.821 56.0194 82.2181 56.7422 83.5104C57.4299 84.7612 58.3103 85.8959 59.351 86.8728C59.8498 87.3533 60.3811 87.7988 60.9412 88.2062C61.4989 88.587 62.0797 88.9328 62.6803 89.2415C64.4686 90.1214 66.4216 90.6163 68.4131 90.6942C70.4046 90.7721 72.3903 90.4312 74.2418 89.6935C76.0934 88.9559 77.7695 87.8379 79.1619 86.4119C80.5542 84.9859 81.6319 83.2836 82.3251 81.415C82.5139 80.9464 82.6689 80.4648 82.7889 79.974C82.8984 79.6218 82.9815 79.2619 83.0374 78.8973C83.0871 78.6157 83.1367 78.3921 83.1616 78.2265C83.1718 78.1472 83.1913 78.0694 83.2196 77.9946C83.2288 78.0716 83.2288 78.1495 83.2196 78.2265C83.2196 78.4004 83.1616 78.624 83.1285 78.9056C83.0818 79.2745 83.0099 79.6398 82.9131 79.9988C82.7979 80.4962 82.6513 80.9858 82.4742 81.4647C82.0108 82.7841 81.3519 84.0264 80.5196 85.1502C79.421 86.648 78.043 87.9192 76.4615 88.8936C74.4011 90.1858 72.041 90.9222 69.6114 91.031C67.1817 91.1399 64.7653 90.6175 62.5975 89.5148C61.9805 89.2056 61.3855 88.8542 60.8169 88.463C60.2311 88.0529 59.6774 87.5989 59.1605 87.1047C58.0904 86.1078 57.1847 84.9478 56.4772 83.6677C55.7338 82.3446 55.2002 80.9141 54.8953 79.4274C54.6022 77.8968 54.5324 76.3318 54.6883 74.7812C54.8774 73.2316 55.2961 71.7188 55.9306 70.2924C56.5531 68.9097 57.3918 67.6348 58.4151 66.5158C59.3873 65.4223 60.528 64.4912 61.7942 63.7579C62.3993 63.392 63.0304 63.0709 63.6825 62.7972C64.328 62.5451 64.9892 62.3348 65.6618 62.1678C68.0205 61.576 70.4922 61.6052 72.8362 62.2525C75.1802 62.8998 77.3165 64.1432 79.0372 65.8616C80.3575 67.1664 81.4146 68.7128 82.1512 70.4166C82.7148 71.6984 83.0806 73.0583 83.2361 74.4499C83.3107 74.9515 83.3439 75.4585 83.3355 75.9655C83.367 76.3376 83.367 76.7115 83.3355 77.0836C83.3355 77.3652 83.3355 77.5888 83.2775 77.7627C83.2684 77.8449 83.249 77.9256 83.2196 78.0029Z" fill="#263238"/>
<path d="M62.2744 93.1671C62.0818 93.1467 61.8941 93.0935 61.7195 93.0098C61.2252 92.8333 60.7438 92.623 60.2784 92.3803C58.7426 91.5878 57.3444 90.5531 56.1375 89.316C54.921 88.0755 53.9091 86.6499 53.1394 85.0922C52.9061 84.623 52.7041 84.1388 52.5348 83.6429C52.4551 83.4649 52.4075 83.2743 52.394 83.0797C52.452 83.0797 52.7419 83.8251 53.363 84.9763C54.1812 86.4699 55.2012 87.8439 56.3942 89.0593C57.5882 90.2741 58.9457 91.3166 60.4275 92.1567C61.5539 92.8027 62.3158 93.1091 62.2744 93.1671Z" fill="white"/>
<path d="M65.256 94.2769C65.256 94.368 64.8502 94.3349 64.4278 94.2024C64.0054 94.0699 63.6659 93.8877 63.699 93.7883C63.7321 93.6889 64.1048 93.7303 64.5272 93.8628C64.9496 93.9954 65.2891 94.1776 65.256 94.2769Z" fill="white"/>
<path d="M47.6733 81.3322H41.876V98.9148H47.6733V81.3322Z" fill="#455A64"/>
<path d="M38 97.0597L44.9734 105.01L51.5575 97.2999L38 97.0597Z" fill="#455A64"/>
<path d="M131.212 57.6254H137.838L136.563 56.6647C137.529 59.8118 138.495 62.9589 139.461 66.1061C141.002 71.0753 142.539 76.072 144.074 81.0964C144.422 82.2476 144.778 83.3988 145.134 84.5582C145.218 84.8325 145.387 85.0732 145.616 85.2458C145.845 85.4184 146.123 85.514 146.41 85.519L165.193 85.461H167.877C168.207 85.4347 168.515 85.2851 168.74 85.0418C168.964 84.7985 169.089 84.4795 169.089 84.1483C169.089 83.8171 168.964 83.4981 168.74 83.2548C168.515 83.0115 168.207 82.8618 167.877 82.8356L149.101 82.8936H146.41L147.685 83.8543C146.719 80.7071 145.753 77.56 144.787 74.4129C143.246 69.4106 141.711 64.4138 140.182 59.4226L139.113 55.9607C139.031 55.6857 138.862 55.4443 138.633 55.2716C138.404 55.0988 138.125 55.0037 137.838 55H131.212C130.882 55.0262 130.574 55.1759 130.349 55.4192C130.125 55.6625 130 55.9815 130 56.3127C130 56.6439 130.125 56.9629 130.349 57.2062C130.574 57.4494 130.882 57.5991 131.212 57.6254Z" fill="#263238"/>
<path d="M172.043 60.9547C170.806 66.4374 169.569 71.9172 168.332 77.3944C168.158 78.1812 167.976 78.9679 167.802 79.7547L168.763 79.0342L160.721 78.9514L147.826 78.8271H144.878L145.838 79.5477C144.116 74.1202 142.39 68.6956 140.662 63.2736L139.933 60.9796L138.973 62.2218H173.003C173.248 62.1993 173.475 62.0862 173.641 61.9047C173.807 61.7231 173.899 61.4862 173.899 61.2404C173.899 60.9947 173.807 60.7578 173.641 60.5762C173.475 60.3947 173.248 60.2815 173.003 60.259H138.973C138.822 60.2605 138.673 60.2963 138.538 60.3637C138.403 60.4312 138.286 60.5284 138.194 60.6481C138.102 60.7678 138.039 60.9069 138.009 61.0547C137.979 61.2025 137.983 61.3553 138.02 61.5013L143.188 77.7753C143.437 78.5373 143.677 79.3075 143.917 80.0694C143.98 80.2758 144.107 80.4568 144.28 80.5863C144.453 80.7158 144.662 80.7871 144.878 80.7899L152.92 80.8645L165.815 80.997H168.763C168.978 80.9963 169.188 80.9257 169.359 80.7958C169.531 80.6658 169.656 80.4836 169.715 80.2765C170.952 74.7938 172.189 69.3139 173.426 63.8368C173.608 63.05 173.782 62.2633 173.956 61.4765C174.279 60.2756 172.324 59.7207 172.043 60.9547Z" fill="#263238"/>
<path d="M145.747 61.7911C146.791 67.7873 148.116 73.7337 149.168 79.7216C149.383 80.9639 151.296 80.4421 151.081 79.1998C150.037 73.212 148.704 67.2655 147.66 61.2694C147.445 60.0271 145.532 60.5571 145.747 61.7911Z" fill="#263238"/>
<path d="M156.232 61.5344C156.332 67.6796 156.448 73.8248 156.547 79.97C156.547 80.2336 156.652 80.4864 156.838 80.6728C157.024 80.8592 157.277 80.9639 157.541 80.9639C157.804 80.9639 158.057 80.8592 158.243 80.6728C158.43 80.4864 158.535 80.2336 158.535 79.97C158.435 73.8248 158.319 67.6796 158.22 61.5344C158.22 61.2708 158.115 61.0181 157.929 60.8317C157.742 60.6453 157.49 60.5406 157.226 60.5406C156.962 60.5406 156.71 60.6453 156.523 60.8317C156.337 61.0181 156.232 61.2708 156.232 61.5344Z" fill="#263238"/>
<path d="M165.922 80.1936C166.756 74.7331 167.584 69.2753 168.407 63.8203C168.531 63.0418 168.647 62.255 168.771 61.4765C168.833 61.2241 168.795 60.9577 168.665 60.7326C168.536 60.5074 168.325 60.3408 168.075 60.2673C167.823 60.2007 167.554 60.2352 167.327 60.3636C167.1 60.492 166.931 60.7041 166.858 60.9547C166.013 66.4153 165.171 71.8731 164.332 77.3281C164.216 78.1563 164.092 78.8934 163.976 79.6719C163.926 79.9188 163.973 80.1753 164.105 80.3895C164.237 80.6037 164.446 80.7597 164.689 80.8259C164.932 80.8922 165.191 80.8638 165.414 80.7464C165.636 80.629 165.806 80.4315 165.889 80.1936H165.922Z" fill="#263238"/>
<path d="M141.151 67.9447H171.189C171.434 67.9222 171.661 67.8091 171.827 67.6275C171.993 67.4459 172.085 67.209 172.085 66.9633C172.085 66.7175 171.993 66.4806 171.827 66.2991C171.661 66.1175 171.434 66.0044 171.189 65.9819H141.151C140.906 66.0044 140.678 66.1175 140.513 66.2991C140.347 66.4806 140.255 66.7175 140.255 66.9633C140.255 67.209 140.347 67.4459 140.513 67.6275C140.678 67.8091 140.906 67.9222 141.151 67.9447Z" fill="#263238"/>
<path d="M143.959 74.8435H169.98C170.225 74.821 170.453 74.7079 170.618 74.5263C170.784 74.3447 170.876 74.1078 170.876 73.8621C170.876 73.6163 170.784 73.3794 170.618 73.1979C170.453 73.0163 170.225 72.9032 169.98 72.8807H143.959C143.714 72.9032 143.486 73.0163 143.321 73.1979C143.155 73.3794 143.063 73.6163 143.063 73.8621C143.063 74.1078 143.155 74.3447 143.321 74.5263C143.486 74.7079 143.714 74.821 143.959 74.8435Z" fill="#263238"/>
<path d="M167.844 94.1322C169.797 94.1322 171.38 92.5674 171.38 90.6372C171.38 88.707 169.797 87.1422 167.844 87.1422C165.89 87.1422 164.307 88.707 164.307 90.6372C164.307 92.5674 165.89 94.1322 167.844 94.1322Z" fill="#263238"/>
<path d="M148.414 94.1322C150.367 94.1322 151.95 92.5674 151.95 90.6372C151.95 88.707 150.367 87.1422 148.414 87.1422C146.461 87.1422 144.878 88.707 144.878 90.6372C144.878 92.5674 146.461 94.1322 148.414 94.1322Z" fill="#263238"/>
<path d="M133.759 47.5401C137.431 43.6303 139.909 38.7518 140.9 33.4799C141.892 28.2081 141.354 22.7627 139.353 17.786C137.351 12.8093 133.968 8.50888 129.602 5.39179C125.236 2.2747 120.07 0.470984 114.713 0.193347C109.356 -0.0842902 104.032 1.17573 99.3671 3.82482C94.7026 6.47391 90.893 10.4016 88.3874 15.1447C85.8817 19.8877 84.7847 25.2484 85.2255 30.5945C85.6664 35.9405 87.6268 41.0491 90.8756 45.3176L90.5598 51.4871L96.1586 50.6188C101.693 54.8558 108.604 56.8867 115.551 56.3179C122.498 55.7491 128.987 52.621 133.759 47.5401Z" fill="white"/>
<path d="M133.759 47.5401C133.759 47.5401 133.06 48.287 131.658 49.6047C129.541 51.4267 127.173 52.934 124.626 54.08C123.758 54.4729 122.868 54.8135 121.96 55.1002L120.497 55.5617L118.93 55.9017L118.122 56.0839C117.849 56.1385 117.564 56.1568 117.284 56.1993L115.56 56.4179C114.953 56.4543 114.345 56.4604 113.738 56.4847C113.428 56.4847 113.131 56.515 112.809 56.4847L111.868 56.4361L110.914 56.3814C110.591 56.3752 110.268 56.3447 109.949 56.2904L107.975 56.005C106.614 55.7362 105.273 55.373 103.962 54.918C101.127 53.9328 98.4635 52.5109 96.0676 50.7038H96.1708L90.566 51.5782H90.4021V51.4082C90.4992 49.4772 90.6085 47.3822 90.7178 45.2387L90.7482 45.3358C87.121 40.5235 85.1101 34.6865 85.0037 28.6611C84.8966 22.085 87.0943 15.6788 91.2158 10.5534C93.1618 8.12963 95.4995 6.04847 98.1322 4.39603C100.668 2.75664 103.462 1.55576 106.397 0.843703C109.225 0.157831 112.138 -0.112191 115.044 0.0421529C117.827 0.253462 120.568 0.841784 123.193 1.79099C124.445 2.27586 125.662 2.84597 126.836 3.49732C130.197 5.31587 133.138 7.81893 135.471 10.8449C136.92 12.6813 138.144 14.6854 139.114 16.814L139.722 18.3685C139.928 18.8696 140.105 19.3826 140.25 19.9048C140.564 20.8997 140.814 21.9139 140.997 22.941C141.681 26.5825 141.644 30.3229 140.888 33.9502C140.748 34.7257 140.556 35.4906 140.311 36.2394C140.068 36.956 139.892 37.6664 139.618 38.3101C139.345 38.9538 139.078 39.5671 138.829 40.1318C138.714 40.4215 138.575 40.7017 138.416 40.9698L137.985 41.741C137.7 42.2389 137.463 42.7308 137.177 43.1498C136.892 43.5688 136.619 43.9574 136.364 44.3217L135.641 45.3905L134.979 46.1617L134.08 47.194C133.874 47.4308 133.765 47.5401 133.765 47.5401L134.056 47.1758L134.931 46.1192L135.58 45.348C135.787 45.0383 136.018 44.7043 136.267 44.34C136.516 43.9756 136.777 43.5809 137.062 43.168C137.347 42.7551 137.572 42.2511 137.851 41.7531L138.276 40.9819C138.434 40.7169 138.568 40.4385 138.677 40.15C138.926 39.5428 139.187 38.9356 139.455 38.3283C139.722 37.7211 139.892 36.9803 140.135 36.2637C140.37 35.5196 140.557 34.761 140.693 33.9927C141.425 30.3879 141.445 26.6751 140.754 23.0624C140.566 22.0363 140.317 21.0224 140.007 20.0263C139.862 19.5073 139.683 18.9982 139.473 18.5021C139.272 17.992 139.078 17.4759 138.866 16.9597C136.874 12.5816 133.817 8.77178 129.976 5.87768C128.934 5.10918 127.84 4.41326 126.703 3.79487C125.537 3.15516 124.33 2.59325 123.09 2.11282C120.49 1.18106 117.778 0.601072 115.025 0.388277C112.159 0.237508 109.286 0.499267 106.494 1.16554C103.595 1.87718 100.835 3.06531 98.3265 4.68143C94.2832 7.22714 90.9626 10.7699 88.6837 14.9693C86.4048 19.1688 85.2442 23.8837 85.3134 28.6611C85.4086 34.6403 87.3963 40.4355 90.9911 45.2144L91.0275 45.2569V45.3115C90.9182 47.449 90.8028 49.5622 90.7057 51.475L90.5417 51.3353L96.1708 50.5216H96.2255L96.274 50.5581C98.6385 52.3404 101.267 53.7418 104.065 54.7115C105.364 55.1683 106.693 55.5336 108.042 55.8046L109.998 56.096C110.315 56.1477 110.636 56.1781 110.957 56.1871L111.904 56.2418L112.839 56.2964C113.149 56.2964 113.447 56.2964 113.756 56.2964C114.364 56.2964 114.971 56.2964 115.548 56.2357L117.26 56.0232C117.539 55.9867 117.825 55.9685 118.092 55.9139L118.9 55.7378L120.46 55.3795L121.918 54.9241C122.824 54.6491 123.713 54.3164 124.577 53.9282C127.119 52.8017 129.488 51.3216 131.615 49.5318C132.338 48.9246 132.83 48.372 133.218 48.038C133.607 47.704 133.759 47.5401 133.759 47.5401Z" fill="#263238"/>
<path d="M97.7372 18.8239L104.672 29.3412L105.656 30.835C105.863 31.1781 106.196 31.4271 106.583 31.5291C106.971 31.6311 107.383 31.5782 107.732 31.3816L116.592 25.625L114.515 25.0785L120.958 35.7476L121.869 37.2535C122.877 38.9234 125.512 37.3993 124.492 35.7233C122.342 32.1528 120.189 28.5842 118.031 25.0177L117.12 23.5118C116.915 23.1663 116.582 22.9153 116.194 22.8131C115.805 22.7108 115.392 22.7655 115.043 22.9653L106.178 28.7401L108.255 29.2866L101.326 18.7632L100.342 17.2694C99.2675 15.6481 96.6382 17.1662 97.719 18.8057L97.7372 18.8239Z" fill="#FF725E"/>
<path d="M116.246 37.4964L127.589 30.3492V41.8138L116.246 37.4964Z" fill="#FF725E"/>
<path d="M28.0191 158.923L69.7063 70.1213L118.569 65.8428L76.8756 154.648L28.0191 158.923Z" fill="#BA68C8"/>
<path opacity="0.7" d="M28.0191 158.923L69.7063 70.1213L118.569 65.8428L76.8756 154.648L28.0191 158.923Z" fill="white"/>
<path d="M71.1808 72.2326L31.6843 156.363L75.4012 152.537L114.898 68.4067L71.1808 72.2326ZM74.6662 151.485L33.5069 155.062L71.8984 73.2601L113.058 69.6824L74.6662 151.485Z" fill="#BA68C8"/>
<path d="M65.6481 129.121C61.2642 129.517 57.8387 128.256 55.9923 125.612C53.9665 122.711 54.0571 118.37 56.2459 113.709C60.53 104.575 71.5966 96.4649 80.9391 95.6821C85.323 95.2863 88.7485 96.5478 90.5949 99.1917C92.6206 102.093 92.53 106.434 90.3412 111.094C88.0916 115.881 83.983 120.381 79.234 123.698C74.9185 126.674 70.0914 128.731 65.6481 129.121ZM56.9474 113.993C54.8803 118.401 54.7625 122.463 56.6308 125.138C58.3284 127.569 61.518 128.706 65.6101 128.346C74.7197 127.577 85.5063 119.653 89.6768 110.757C91.7438 106.349 91.8616 102.287 89.9934 99.6118C88.2958 97.1809 85.1124 96.0392 81.0203 96.399C76.689 96.7767 71.979 98.761 67.7814 101.692C63.1326 104.939 59.113 109.34 56.9223 114.011L56.9474 113.993Z" fill="#BA68C8"/>
<g opacity="0.5">
<path d="M65.4151 126.385C62.0593 126.678 59.5185 125.843 58.2409 124.014C56.7883 121.934 56.9642 118.595 58.7212 114.851C60.6791 110.688 64.3893 106.485 68.9065 103.33C72.9913 100.477 77.348 98.7212 81.1715 98.3905C84.5273 98.0975 87.0681 98.933 88.3457 100.762C89.7939 102.836 89.6224 106.181 87.8654 109.924C85.9075 114.088 82.1974 118.291 77.6864 121.442C73.5953 124.299 69.2387 126.055 65.4151 126.385Z" fill="#BA68C8"/>
</g>
<path opacity="0.5" d="M72.9815 145.428C72.2756 145.528 71.6031 145.793 71.0186 146.201C70.4341 146.609 69.954 147.15 69.6171 147.778L68.4273 150.305L41.6774 152.721L43.0598 149.789C43.1781 149.609 43.2473 149.401 43.2605 149.186C43.2737 148.971 43.2305 148.756 43.1351 148.562C42.9382 148.28 42.5264 148.158 41.9617 148.217L38.7348 148.494L51.2376 121.7L51.4454 122.878C51.6931 124.301 52.2467 125.654 53.068 126.843C55.4438 130.245 61.3016 131.346 66.0561 130.934C71.704 130.286 77.1145 128.294 81.8342 125.125C83.2155 124.158 84.5338 123.103 85.7811 121.968L87.1804 120.702L75.7431 145.205L72.9815 145.428Z" fill="#BA68C8"/>
<g opacity="0.4">
<path d="M58.6254 144.651C58.1629 144.739 57.6851 144.7 57.2433 144.537C56.8014 144.374 56.412 144.095 56.1167 143.728C55.8577 143.263 55.7246 142.739 55.7306 142.206C55.7366 141.674 55.8814 141.153 56.1508 140.694C56.7316 139.561 57.5704 138.58 58.5995 137.831C59.6287 137.081 60.8194 136.584 62.0759 136.379C62.5385 136.291 63.0162 136.33 63.4581 136.493C63.9 136.656 64.2894 136.935 64.5846 137.302C64.842 137.765 64.9743 138.288 64.9687 138.818C64.963 139.348 64.8196 139.868 64.5525 140.326C63.9369 141.54 63.0217 142.577 61.8935 143.338C60.9334 144.046 59.8086 144.498 58.6254 144.651Z" fill="white"/>
</g>
<path opacity="0.5" d="M95.0923 101.895C94.6766 100.204 93.9613 98.601 92.9803 97.1623C91.0027 94.3304 86.8628 93.167 80.6802 93.7098C75.7247 94.1413 69.3515 96.5601 64.8092 99.7321C63.426 100.697 62.1062 101.749 60.858 102.883L59.4442 104.168L70.9433 79.7804L73.7301 79.54C74.4333 79.4362 75.1027 79.1703 75.6855 78.7633C76.2683 78.3563 76.7485 77.8193 77.0882 77.1949L78.2736 74.6614L104.897 72.1843L103.53 75.1245C103.409 75.3025 103.338 75.5095 103.324 75.7241C103.31 75.9387 103.353 76.1531 103.45 76.3452C103.647 76.6271 104.057 76.7603 104.628 76.6971L107.85 76.4133L95.302 103.063L95.0923 101.895Z" fill="#BA68C8"/>
<g opacity="0.4">
<path d="M84.9275 88.8609C84.4661 88.9495 83.9894 88.911 83.5482 88.7495C83.1071 88.588 82.7182 88.3096 82.4231 87.9441C82.1641 87.4791 82.031 86.9546 82.037 86.4224C82.043 85.8902 82.1878 85.3688 82.4571 84.9098C83.038 83.7769 83.8768 82.7962 84.9059 82.0468C85.9351 81.2973 87.1258 80.8 88.3823 80.5949C88.8436 80.5062 89.3204 80.5447 89.7615 80.7062C90.2027 80.8677 90.5916 81.1461 90.8867 81.5117C91.1457 81.9766 91.2787 82.5011 91.2728 83.0333C91.2668 83.5655 91.122 84.0869 90.8526 84.546C90.2384 85.761 89.3229 86.7983 88.1937 87.5586C87.235 88.2663 86.11 88.7148 84.9275 88.8609Z" fill="white"/>
</g>
<path d="M28.019 158.923L33.9169 167.368L82.7777 163.1L76.8755 154.648L28.019 158.923Z" fill="#BA68C8"/>
<g opacity="0.2">
<path d="M28.019 158.923L33.9169 167.368L82.7777 163.1L76.8755 154.648L28.019 158.923Z" fill="white"/>
</g>
<g opacity="0.1">
<path d="M78.1926 156.534L62.925 158.109L78.5576 157.044L78.1926 156.534Z" fill="black"/>
<path d="M30.8237 162.939L36.1121 162.703L31.1212 163.365L30.8237 162.939Z" fill="black"/>
<path d="M32.2283 164.95L58.1575 163.013L32.6614 165.57L32.2283 164.95Z" fill="black"/>
<path d="M79.6032 158.541L54.114 161.121L80.067 159.205L79.6032 158.541Z" fill="black"/>
</g>
<path d="M82.7778 163.1L124.471 74.2945L118.569 65.8428L76.8756 154.648L82.7778 163.1Z" fill="#BA68C8"/>
<g opacity="0.2">
<path d="M82.7778 163.1L124.471 74.2945L118.569 65.8428L76.8756 154.648L82.7778 163.1Z" fill="black"/>
</g>
<g opacity="0.3">
<path d="M78.1924 156.534L80.5532 152.08L78.5575 157.044L78.1924 156.534Z" fill="black"/>
</g>
<g opacity="0.3">
<path d="M79.6034 158.541L90.862 135.384L80.0672 159.205L79.6034 158.541Z" fill="black"/>
</g>
<g opacity="0.3">
<path d="M121.348 69.8212L113.837 86.4277L121.693 70.3161L121.348 69.8212Z" fill="black"/>
</g>
<g opacity="0.3">
<path d="M122.831 71.9451L118.603 81.5337L123.159 72.415L122.831 71.9451Z" fill="black"/>
</g>
<path d="M44.2469 120.858L94.8195 116.439L101.398 102.422L50.8314 106.837L44.2469 120.858Z" fill="#FAFAFA"/>
<path d="M101.398 102.422L107.816 111.613L101.238 125.63L94.8194 116.439L101.398 102.422Z" fill="#E0E0E0"/>
<path d="M101.238 125.63L100.33 125.705L100.717 124.885L101.238 125.63Z" fill="#E0E0E0"/>
<path d="M44.2468 120.859L45.2269 122.262L45.9586 120.707L44.2468 120.859Z" fill="#E0E0E0"/>
<g opacity="0.3">
<path d="M100.33 125.705L94.4322 117.259L94.8194 116.439L100.713 124.878L100.33 125.705Z" fill="black"/>
</g>
<g style="mix-blend-mode:multiply" opacity="0.2">
<path d="M94.4322 117.259L45.5758 121.534L45.9585 120.707L94.8194 116.439L94.4322 117.259Z" fill="black"/>
</g>
<path d="M44.9603 119.344L95.5285 114.919L96.0757 113.754L45.5119 118.185L44.9603 119.344Z" fill="#455A64"/>
<path d="M49.5733 109.533L100.137 105.101L100.684 103.936L50.1268 108.364L49.5733 109.533Z" fill="#455A64"/>
<path d="M95.5284 114.919L101.947 124.11L102.494 122.945L96.0756 113.754L95.5284 114.919Z" fill="#263238"/>
<path d="M100.137 105.101L106.556 114.292L107.109 113.123L100.684 103.936L100.137 105.101Z" fill="#263238"/>
<path d="M161.578 110.569V116.644C161.516 117.007 161.389 117.356 161.204 117.675L155.748 127.151C154.636 128.91 153.145 130.398 151.384 131.507L105.045 158.253C104.189 158.686 103.243 158.912 102.283 158.912C101.323 158.912 100.377 158.686 99.5203 158.253L57.491 133.998C57.1746 133.858 56.9011 133.636 56.6983 133.355C56.4956 133.075 56.371 132.745 56.3372 132.401V127.411C56.3725 127.067 56.4977 126.738 56.7003 126.458C56.9028 126.177 57.1755 125.955 57.491 125.814L103.83 99.0678C105.585 97.9575 107.073 96.4726 108.186 94.7197L113.634 85.2669C114.061 84.5363 114.759 84.0037 115.576 83.7847C116.393 83.5658 117.263 83.6783 117.998 84.0978L160.027 108.352C160.433 108.584 160.783 108.903 161.052 109.286C161.32 109.67 161.5 110.107 161.578 110.569Z" fill="#263238"/>
<path d="M102.302 99.9388L57.5216 125.798C57.206 125.94 56.9333 126.162 56.7308 126.442C56.5283 126.723 56.403 127.051 56.3677 127.395V132.385C56.4015 132.73 56.5261 133.059 56.7289 133.34C56.9316 133.62 57.2051 133.842 57.5216 133.983L99.5508 158.237C100.405 158.694 101.364 158.92 102.332 158.894L102.302 99.9388Z" fill="#37474F"/>
<path d="M161.578 111.654C161.516 112.017 161.389 112.366 161.204 112.685L160.6 113.74L155.748 122.146C154.636 123.904 153.145 125.392 151.384 126.501L105.045 153.247C104.189 153.681 103.242 153.907 102.283 153.907C101.323 153.907 100.376 153.681 99.5201 153.247L59.0727 129.894L57.5444 128.992C57.208 128.882 56.9152 128.668 56.7076 128.381C56.5 128.094 56.3882 127.749 56.3882 127.395C56.3882 127.041 56.5 126.696 56.7076 126.41C56.9152 126.123 57.208 125.909 57.5444 125.798L103.884 99.0524C105.638 97.9421 107.126 96.4572 108.239 94.7043L113.688 85.2515C114.114 84.5209 114.812 83.9882 115.629 83.7693C116.446 83.5503 117.317 83.6629 118.051 84.0823L160.08 108.337C160.486 108.574 160.834 108.899 161.098 109.288C161.362 109.677 161.537 110.119 161.609 110.584C161.658 110.94 161.648 111.301 161.578 111.654Z" fill="#455A64"/>
<path d="M113.054 95.7436L116.194 90.5319C116.49 90.0477 116.962 89.6972 117.511 89.5546C118.06 89.412 118.643 89.4885 119.136 89.7678L154.342 110.095C154.585 110.23 154.798 110.413 154.969 110.633C155.139 110.852 155.264 111.104 155.336 111.373C155.407 111.642 155.423 111.922 155.384 112.198C155.344 112.473 155.25 112.738 155.106 112.976L151.965 118.187C151.67 118.671 151.198 119.022 150.649 119.164C150.1 119.307 149.517 119.231 149.023 118.951L113.818 98.6245C113.574 98.4899 113.36 98.3073 113.189 98.0878C113.017 97.8683 112.892 97.6164 112.821 97.3472C112.749 97.078 112.733 96.7971 112.773 96.5215C112.813 96.2459 112.909 95.9813 113.054 95.7436Z" fill="#BA68C8"/>
<path opacity="0.55" d="M113.054 95.7436L116.194 90.5319C116.49 90.0477 116.962 89.6972 117.511 89.5546C118.06 89.412 118.643 89.4885 119.136 89.7678L154.342 110.095C154.585 110.23 154.798 110.413 154.969 110.633C155.139 110.852 155.264 111.104 155.336 111.373C155.407 111.642 155.423 111.922 155.384 112.198C155.344 112.473 155.25 112.738 155.106 112.976L151.965 118.187C151.67 118.671 151.198 119.022 150.649 119.164C150.1 119.307 149.517 119.231 149.023 118.951L113.818 98.6245C113.574 98.4899 113.36 98.3073 113.189 98.0878C113.017 97.8683 112.892 97.6164 112.821 97.3472C112.749 97.078 112.733 96.7971 112.773 96.5215C112.813 96.2459 112.909 95.9813 113.054 95.7436Z" fill="white"/>
<path d="M134.045 124.285L138.455 126.83C138.726 126.966 139.026 127.036 139.33 127.036C139.633 127.036 139.933 126.966 140.204 126.83L142.558 125.47C142.654 125.427 142.737 125.359 142.798 125.273C142.858 125.187 142.894 125.086 142.902 124.981V123.712C142.895 123.608 142.859 123.508 142.798 123.423C142.737 123.338 142.654 123.271 142.558 123.231L138.149 120.686C137.878 120.547 137.578 120.474 137.274 120.474C136.97 120.474 136.67 120.547 136.399 120.686L134.045 122.046C133.951 122.09 133.87 122.157 133.809 122.241C133.749 122.326 133.712 122.424 133.701 122.528V123.796C133.709 123.901 133.745 124.002 133.806 124.088C133.866 124.174 133.949 124.243 134.045 124.285Z" fill="#BA68C8"/>
<path opacity="0.2" d="M134.045 124.285L138.455 126.83C138.726 126.966 139.026 127.036 139.33 127.036C139.633 127.036 139.933 126.966 140.204 126.83L142.558 125.47C142.654 125.427 142.737 125.359 142.798 125.273C142.858 125.187 142.894 125.086 142.902 124.981V123.712C142.895 123.608 142.859 123.508 142.798 123.423C142.737 123.338 142.654 123.271 142.558 123.231L138.149 120.686C137.878 120.547 137.578 120.474 137.274 120.474C136.97 120.474 136.67 120.547 136.399 120.686L134.045 122.046C133.951 122.09 133.87 122.157 133.809 122.241C133.749 122.326 133.712 122.424 133.701 122.528V123.796C133.709 123.901 133.745 124.002 133.806 124.088C133.866 124.174 133.949 124.243 134.045 124.285Z" fill="black"/>
<path d="M138.149 120.686L142.558 123.231C142.663 123.268 142.753 123.336 142.817 123.426C142.881 123.516 142.915 123.624 142.915 123.735C142.915 123.846 142.881 123.954 142.817 124.044C142.753 124.134 142.663 124.203 142.558 124.239L140.205 125.623C139.933 125.758 139.633 125.829 139.33 125.829C139.026 125.829 138.726 125.758 138.455 125.623L134.045 123.078C133.941 123.041 133.851 122.973 133.787 122.882C133.723 122.792 133.689 122.684 133.689 122.573C133.689 122.463 133.723 122.355 133.787 122.265C133.851 122.174 133.941 122.106 134.045 122.069L136.399 120.709C136.668 120.566 136.967 120.489 137.271 120.485C137.576 120.481 137.877 120.55 138.149 120.686Z" fill="#BA68C8"/>
<path opacity="0.1" d="M133.701 122.68V123.796C133.709 123.901 133.745 124.002 133.806 124.088C133.866 124.174 133.949 124.243 134.045 124.285L138.455 126.83C138.724 126.976 139.027 127.048 139.333 127.036V125.806C139.028 125.813 138.725 125.742 138.455 125.6L134.045 123.055C133.891 122.973 133.77 122.841 133.701 122.68Z" fill="black"/>
<path d="M123.783 118.363L128.184 120.908C128.457 121.043 128.758 121.114 129.063 121.114C129.368 121.114 129.669 121.043 129.942 120.908L132.295 119.547C132.39 119.503 132.471 119.434 132.53 119.348C132.589 119.262 132.624 119.162 132.632 119.058C132.632 119.005 132.632 117.836 132.632 117.79C132.624 117.686 132.589 117.586 132.53 117.5C132.471 117.414 132.39 117.345 132.295 117.301L127.886 114.756C127.615 114.62 127.315 114.549 127.011 114.549C126.707 114.549 126.408 114.62 126.136 114.756L123.783 116.116C123.687 116.158 123.605 116.225 123.545 116.31C123.484 116.395 123.448 116.494 123.439 116.598V117.874C123.446 117.979 123.482 118.08 123.543 118.166C123.603 118.252 123.686 118.32 123.783 118.363Z" fill="#BA68C8"/>
<path opacity="0.2" d="M123.783 118.363L128.184 120.908C128.457 121.043 128.758 121.114 129.063 121.114C129.368 121.114 129.669 121.043 129.942 120.908L132.295 119.547C132.39 119.503 132.471 119.434 132.53 119.348C132.589 119.262 132.624 119.162 132.632 119.058C132.632 119.005 132.632 117.836 132.632 117.79C132.624 117.686 132.589 117.586 132.53 117.5C132.471 117.414 132.39 117.345 132.295 117.301L127.886 114.756C127.615 114.62 127.315 114.549 127.011 114.549C126.707 114.549 126.408 114.62 126.136 114.756L123.783 116.116C123.687 116.158 123.605 116.225 123.545 116.31C123.484 116.395 123.448 116.494 123.439 116.598V117.874C123.446 117.979 123.482 118.08 123.543 118.166C123.603 118.252 123.686 118.32 123.783 118.363Z" fill="black"/>
<path d="M127.886 114.756L132.295 117.301C132.402 117.336 132.495 117.404 132.562 117.495C132.628 117.586 132.663 117.696 132.663 117.809C132.663 117.922 132.628 118.031 132.562 118.123C132.495 118.214 132.402 118.282 132.295 118.317L129.942 119.677C129.669 119.813 129.368 119.884 129.063 119.884C128.758 119.884 128.457 119.813 128.184 119.677L123.782 117.133C123.675 117.097 123.582 117.029 123.516 116.938C123.45 116.847 123.415 116.737 123.415 116.624C123.415 116.512 123.45 116.402 123.516 116.311C123.582 116.219 123.675 116.151 123.782 116.116L126.136 114.756C126.408 114.62 126.707 114.549 127.011 114.549C127.315 114.549 127.614 114.62 127.886 114.756Z" fill="#BA68C8"/>
<path opacity="0.1" d="M123.439 116.758V117.866C123.447 117.972 123.483 118.074 123.543 118.161C123.604 118.249 123.686 118.318 123.783 118.363L128.192 120.908C128.46 121.05 128.76 121.121 129.063 121.114V119.884C128.759 119.891 128.458 119.817 128.192 119.67L123.783 117.133C123.629 117.051 123.507 116.919 123.439 116.758Z" fill="black"/>
<path d="M113.512 112.433L117.922 114.978C118.192 115.117 118.492 115.19 118.796 115.19C119.101 115.19 119.401 115.117 119.671 114.978L122.025 113.617C122.121 113.577 122.204 113.51 122.265 113.425C122.326 113.34 122.362 113.24 122.369 113.136V111.867C122.361 111.764 122.325 111.664 122.264 111.579C122.203 111.494 122.121 111.427 122.025 111.386L117.623 108.811C117.352 108.675 117.052 108.604 116.749 108.604C116.445 108.604 116.145 108.675 115.874 108.811L113.512 110.171C113.418 110.214 113.338 110.281 113.279 110.366C113.22 110.451 113.184 110.55 113.176 110.652V111.929C113.179 112.036 113.213 112.14 113.272 112.229C113.331 112.318 113.415 112.389 113.512 112.433Z" fill="#BA68C8"/>
<path opacity="0.2" d="M113.512 112.433L117.922 114.978C118.192 115.117 118.492 115.19 118.796 115.19C119.101 115.19 119.401 115.117 119.671 114.978L122.025 113.617C122.121 113.577 122.204 113.51 122.265 113.425C122.326 113.34 122.362 113.24 122.369 113.136V111.867C122.361 111.764 122.325 111.664 122.264 111.579C122.203 111.494 122.121 111.427 122.025 111.386L117.623 108.811C117.352 108.675 117.052 108.604 116.749 108.604C116.445 108.604 116.145 108.675 115.874 108.811L113.512 110.171C113.418 110.214 113.338 110.281 113.279 110.366C113.22 110.451 113.184 110.55 113.176 110.652V111.929C113.179 112.036 113.213 112.14 113.272 112.229C113.331 112.318 113.415 112.389 113.512 112.433Z" fill="black"/>
<path d="M117.623 108.811L122.025 111.356C122.514 111.638 122.514 112.12 122.025 112.364L119.687 113.747C119.416 113.887 119.116 113.96 118.812 113.96C118.507 113.96 118.207 113.887 117.937 113.747L113.527 111.203C113.423 111.166 113.333 111.098 113.269 111.007C113.205 110.917 113.171 110.809 113.171 110.698C113.171 110.588 113.205 110.48 113.269 110.389C113.333 110.299 113.423 110.231 113.527 110.194L115.866 108.811C116.138 108.674 116.439 108.602 116.744 108.602C117.05 108.602 117.351 108.674 117.623 108.811Z" fill="#BA68C8"/>
<path opacity="0.1" d="M113.176 110.836V111.944C113.183 112.049 113.218 112.151 113.279 112.237C113.34 112.323 113.423 112.391 113.52 112.433L117.929 114.978C118.195 115.127 118.496 115.201 118.8 115.192V113.954C118.497 113.964 118.196 113.893 117.929 113.747L113.52 111.203C113.367 111.123 113.246 110.993 113.176 110.836Z" fill="black"/>
<path d="M103.249 106.518L107.659 109.063C107.93 109.199 108.23 109.27 108.534 109.27C108.837 109.27 109.137 109.199 109.409 109.063L111.762 107.703C111.858 107.66 111.941 107.592 112.002 107.506C112.062 107.42 112.098 107.319 112.106 107.214V105.945C112.099 105.841 112.063 105.741 112.002 105.656C111.941 105.571 111.858 105.504 111.762 105.464L107.353 102.919C107.082 102.78 106.782 102.707 106.478 102.707C106.174 102.707 105.874 102.78 105.603 102.919L103.249 104.279C103.155 104.323 103.074 104.39 103.013 104.474C102.953 104.559 102.916 104.657 102.906 104.761V106.029C102.913 106.134 102.949 106.235 103.01 106.321C103.07 106.408 103.153 106.476 103.249 106.518Z" fill="#BA68C8"/>
<path opacity="0.2" d="M103.249 106.518L107.659 109.063C107.93 109.199 108.23 109.27 108.534 109.27C108.837 109.27 109.137 109.199 109.409 109.063L111.762 107.703C111.858 107.66 111.941 107.592 112.002 107.506C112.062 107.42 112.098 107.319 112.106 107.214V105.945C112.099 105.841 112.063 105.741 112.002 105.656C111.941 105.571 111.858 105.504 111.762 105.464L107.353 102.919C107.082 102.78 106.782 102.707 106.478 102.707C106.174 102.707 105.874 102.78 105.603 102.919L103.249 104.279C103.155 104.323 103.074 104.39 103.013 104.474C102.953 104.559 102.916 104.657 102.906 104.761V106.029C102.913 106.134 102.949 106.235 103.01 106.321C103.07 106.408 103.153 106.476 103.249 106.518Z" fill="black"/>
<path d="M107.353 102.911L111.762 105.456C111.867 105.493 111.957 105.561 112.021 105.652C112.085 105.742 112.119 105.85 112.119 105.96C112.119 106.071 112.085 106.179 112.021 106.269C111.957 106.36 111.867 106.428 111.762 106.465L109.409 107.825C109.137 107.961 108.837 108.032 108.534 108.032C108.23 108.032 107.93 107.961 107.659 107.825L103.25 105.28C103.145 105.243 103.055 105.175 102.991 105.085C102.927 104.995 102.893 104.887 102.893 104.776C102.893 104.665 102.927 104.557 102.991 104.467C103.055 104.377 103.145 104.309 103.25 104.272L105.603 102.911C105.874 102.772 106.174 102.699 106.478 102.699C106.783 102.699 107.082 102.772 107.353 102.911Z" fill="#BA68C8"/>
<path opacity="0.1" d="M102.875 104.906V106.022C102.882 106.127 102.918 106.228 102.979 106.314C103.04 106.4 103.122 106.468 103.219 106.511L107.628 109.055C107.898 109.198 108.201 109.27 108.507 109.262V108.047C108.201 108.054 107.898 107.983 107.628 107.84L103.219 105.296C103.062 105.21 102.94 105.072 102.875 104.906Z" fill="black"/>
<path d="M123.76 130.208L128.169 132.752C128.44 132.888 128.74 132.959 129.044 132.959C129.348 132.959 129.647 132.888 129.919 132.752L134.351 130.192C134.445 130.15 134.526 130.083 134.585 129.998C134.645 129.913 134.68 129.814 134.687 129.711C134.687 129.657 134.687 128.488 134.687 128.435C134.679 128.332 134.643 128.233 134.584 128.148C134.525 128.064 134.445 127.996 134.351 127.953L129.942 125.409C129.67 125.273 129.37 125.202 129.067 125.202C128.763 125.202 128.463 125.273 128.192 125.409L123.76 127.969C123.665 128.011 123.584 128.078 123.525 128.163C123.466 128.248 123.431 128.347 123.423 128.45C123.423 128.496 123.423 129.673 123.423 129.718C123.431 129.822 123.466 129.923 123.525 130.008C123.584 130.094 123.665 130.163 123.76 130.208Z" fill="#E0E0E0"/>
<path d="M129.942 125.424L134.351 127.968C134.455 128.005 134.546 128.074 134.609 128.164C134.673 128.254 134.708 128.362 134.708 128.473C134.708 128.583 134.673 128.691 134.609 128.782C134.546 128.872 134.455 128.94 134.351 128.977L129.919 131.537C129.647 131.673 129.347 131.744 129.044 131.744C128.74 131.744 128.44 131.673 128.169 131.537L123.759 128.992C123.655 128.956 123.565 128.887 123.501 128.797C123.437 128.707 123.403 128.599 123.403 128.488C123.403 128.377 123.437 128.27 123.501 128.179C123.565 128.089 123.655 128.021 123.759 127.984L128.192 125.424C128.463 125.288 128.763 125.217 129.067 125.217C129.37 125.217 129.67 125.288 129.942 125.424Z" fill="#FAFAFA"/>
<path d="M129.063 125.623C129.301 125.615 129.538 125.668 129.751 125.775L134.16 128.32C134.282 128.396 134.328 128.465 134.328 128.496C134.328 128.526 134.282 128.603 134.16 128.672L129.728 131.232C129.514 131.332 129.28 131.385 129.044 131.385C128.807 131.385 128.574 131.332 128.36 131.232L123.951 128.679C123.828 128.603 123.782 128.534 123.782 128.503C123.782 128.473 123.828 128.396 123.951 128.328L128.383 125.768C128.593 125.661 128.827 125.609 129.063 125.615M129.063 125.233C128.76 125.228 128.46 125.299 128.192 125.439L123.759 127.999C123.655 128.036 123.565 128.104 123.501 128.195C123.437 128.285 123.403 128.393 123.403 128.503C123.403 128.614 123.437 128.722 123.501 128.812C123.565 128.903 123.655 128.971 123.759 129.008L128.169 131.552C128.44 131.688 128.74 131.759 129.044 131.759C129.347 131.759 129.647 131.688 129.919 131.552L134.351 128.993C134.455 128.956 134.546 128.887 134.609 128.797C134.673 128.707 134.708 128.599 134.708 128.488C134.708 128.378 134.673 128.27 134.609 128.179C134.546 128.089 134.455 128.021 134.351 127.984L129.942 125.439C129.671 125.298 129.368 125.227 129.063 125.233Z" fill="#EBEBEB"/>
<path d="M123.423 128.618V129.734C123.431 129.839 123.467 129.94 123.527 130.026C123.588 130.112 123.671 130.18 123.767 130.223L128.169 132.767C128.439 132.91 128.742 132.981 129.048 132.974V131.736C128.742 131.742 128.44 131.671 128.169 131.53L123.767 128.985C123.612 128.908 123.49 128.778 123.423 128.618Z" fill="#EBEBEB"/>
<path d="M123.423 128.618V128.473C123.425 128.402 123.442 128.332 123.472 128.267C123.503 128.203 123.546 128.145 123.599 128.098C123.519 128.156 123.46 128.237 123.428 128.33C123.397 128.423 123.395 128.524 123.423 128.618Z" fill="#FAFAFA"/>
<path d="M113.512 124.27L117.921 126.815C118.193 126.95 118.493 127.021 118.796 127.021C119.1 127.021 119.4 126.95 119.671 126.815L124.096 124.255C124.193 124.213 124.276 124.145 124.337 124.058C124.397 123.972 124.433 123.871 124.44 123.766V122.497C124.432 122.393 124.395 122.293 124.335 122.209C124.274 122.124 124.192 122.057 124.096 122.016L119.687 119.509C119.416 119.37 119.116 119.297 118.812 119.297C118.507 119.297 118.207 119.37 117.937 119.509L113.505 122.069C113.41 122.112 113.329 122.18 113.269 122.264C113.208 122.349 113.171 122.447 113.161 122.551V123.819C113.175 123.918 113.215 124.012 113.277 124.091C113.339 124.17 113.42 124.231 113.512 124.27Z" fill="#E0E0E0"/>
<path d="M119.687 119.509L124.088 122.054C124.196 122.087 124.291 122.154 124.358 122.244C124.425 122.335 124.462 122.445 124.462 122.558C124.462 122.671 124.425 122.781 124.358 122.872C124.291 122.963 124.196 123.03 124.088 123.063L119.687 125.622C119.415 125.758 119.115 125.829 118.812 125.829C118.508 125.829 118.208 125.758 117.937 125.622L113.527 123.078C113.423 123.041 113.333 122.973 113.269 122.882C113.205 122.792 113.171 122.684 113.171 122.573C113.171 122.463 113.205 122.355 113.269 122.265C113.333 122.174 113.423 122.106 113.527 122.069L117.96 119.509C118.227 119.374 118.523 119.303 118.823 119.303C119.123 119.303 119.419 119.374 119.687 119.509Z" fill="#FAFAFA"/>
<path d="M118.816 119.639C119.054 119.635 119.291 119.69 119.503 119.8L123.905 122.344C124.035 122.421 124.081 122.489 124.081 122.52C124.081 122.551 124.035 122.627 123.905 122.696L119.48 125.256C119.267 125.362 119.031 125.415 118.793 125.409C118.557 125.416 118.323 125.363 118.112 125.256L113.703 122.711C113.573 122.635 113.527 122.566 113.527 122.535C113.527 122.505 113.573 122.428 113.703 122.36L118.128 119.8C118.34 119.69 118.577 119.635 118.816 119.639ZM118.816 119.265C118.51 119.259 118.208 119.33 117.937 119.471L113.512 122.031C113.408 122.068 113.318 122.136 113.254 122.226C113.19 122.317 113.156 122.425 113.156 122.535C113.156 122.646 113.19 122.754 113.254 122.844C113.318 122.934 113.408 123.003 113.512 123.04L117.921 125.584C118.19 125.726 118.489 125.797 118.793 125.791C119.1 125.811 119.408 125.753 119.687 125.622L124.111 123.063C124.219 123.03 124.314 122.963 124.381 122.872C124.448 122.781 124.485 122.671 124.485 122.558C124.485 122.445 124.448 122.335 124.381 122.244C124.314 122.154 124.219 122.087 124.111 122.054L119.687 119.509C119.415 119.369 119.113 119.298 118.808 119.303L118.816 119.265Z" fill="#EBEBEB"/>
<path d="M113.168 122.665V123.781C113.176 123.886 113.212 123.987 113.272 124.073C113.333 124.159 113.416 124.227 113.512 124.27L117.921 126.815C118.192 126.958 118.494 127.029 118.8 127.021V125.791C118.494 125.798 118.192 125.727 117.921 125.584L113.512 123.04C113.356 122.961 113.233 122.828 113.168 122.665Z" fill="#EBEBEB"/>
<path d="M113.168 122.665V122.52C113.17 122.448 113.188 122.378 113.22 122.313C113.251 122.248 113.296 122.191 113.352 122.146C113.27 122.201 113.208 122.282 113.175 122.375C113.142 122.469 113.14 122.57 113.168 122.665Z" fill="#FAFAFA"/>
<path d="M103.265 118.317L107.666 120.862C107.938 120.998 108.238 121.068 108.541 121.068C108.845 121.068 109.145 120.998 109.416 120.862L113.848 118.302C113.945 118.259 114.028 118.191 114.088 118.105C114.149 118.019 114.185 117.918 114.192 117.813V116.544C114.182 116.441 114.145 116.342 114.084 116.258C114.024 116.173 113.943 116.106 113.848 116.063L109.439 113.518C109.169 113.379 108.869 113.306 108.564 113.306C108.26 113.306 107.96 113.379 107.689 113.518L103.265 116.07C103.17 116.113 103.087 116.179 103.027 116.264C102.966 116.349 102.93 116.448 102.921 116.552V117.828C102.928 117.933 102.964 118.034 103.025 118.12C103.086 118.206 103.169 118.274 103.265 118.317Z" fill="#E0E0E0"/>
<path d="M109.439 113.518L113.848 116.063C113.953 116.1 114.043 116.168 114.107 116.258C114.171 116.349 114.205 116.457 114.205 116.567C114.205 116.678 114.171 116.786 114.107 116.876C114.043 116.966 113.953 117.035 113.848 117.071L109.416 119.631C109.145 119.767 108.845 119.838 108.541 119.838C108.237 119.838 107.938 119.767 107.666 119.631L103.265 117.087C103.158 117.052 103.064 116.984 102.998 116.892C102.932 116.801 102.897 116.691 102.897 116.579C102.897 116.466 102.932 116.356 102.998 116.265C103.064 116.174 103.158 116.106 103.265 116.07L107.689 113.518C107.96 113.379 108.26 113.306 108.564 113.306C108.869 113.306 109.169 113.379 109.439 113.518Z" fill="#FAFAFA"/>
<path d="M108.568 113.686C108.804 113.682 109.038 113.737 109.248 113.847L113.657 116.391C113.78 116.468 113.825 116.537 113.825 116.567C113.825 116.598 113.78 116.666 113.657 116.743L109.225 119.303C109.015 119.41 108.781 119.463 108.545 119.456C108.306 119.463 108.069 119.408 107.857 119.295L103.456 116.758C103.326 116.682 103.28 116.613 103.28 116.582C103.28 116.552 103.326 116.475 103.456 116.407L107.88 113.847C108.093 113.737 108.329 113.682 108.568 113.686ZM108.568 113.304C108.262 113.301 107.96 113.374 107.689 113.518L103.265 116.07C103.158 116.106 103.064 116.174 102.998 116.265C102.932 116.356 102.897 116.466 102.897 116.579C102.897 116.691 102.932 116.801 102.998 116.892C103.064 116.984 103.158 117.052 103.265 117.087L107.666 119.631C107.937 119.773 108.239 119.844 108.545 119.838C108.848 119.844 109.148 119.773 109.416 119.631L113.848 117.071C113.953 117.035 114.043 116.966 114.107 116.876C114.171 116.786 114.205 116.678 114.205 116.567C114.205 116.456 114.171 116.349 114.107 116.258C114.043 116.168 113.953 116.1 113.848 116.063L109.439 113.518C109.171 113.374 108.872 113.301 108.568 113.304Z" fill="#EBEBEB"/>
<path d="M102.921 116.712V117.828C102.93 117.933 102.967 118.033 103.027 118.119C103.087 118.205 103.169 118.273 103.265 118.317L107.674 120.862C107.942 121.004 108.242 121.075 108.545 121.068V119.838C108.242 119.845 107.942 119.774 107.674 119.631L103.265 117.087C103.108 117.008 102.986 116.875 102.921 116.712Z" fill="#EBEBEB"/>
<path d="M102.921 116.712V116.567C102.923 116.494 102.94 116.422 102.972 116.357C103.003 116.291 103.048 116.232 103.104 116.185C103.022 116.243 102.961 116.325 102.928 116.419C102.895 116.514 102.893 116.616 102.921 116.712Z" fill="#FAFAFA"/>
<path d="M114.544 135.557L118.953 138.101C119.224 138.241 119.524 138.314 119.828 138.314C120.132 138.314 120.432 138.241 120.703 138.101L125.135 135.541C125.229 135.499 125.31 135.432 125.37 135.347C125.429 135.262 125.464 135.163 125.471 135.06V133.791C125.464 133.687 125.429 133.587 125.369 133.501C125.31 133.415 125.229 133.347 125.135 133.302L120.726 130.758C120.454 130.622 120.155 130.551 119.851 130.551C119.547 130.551 119.248 130.622 118.976 130.758L114.544 133.318C114.45 133.36 114.369 133.427 114.309 133.512C114.25 133.597 114.215 133.696 114.208 133.799C114.208 133.853 114.208 135.022 114.208 135.068C114.215 135.172 114.25 135.272 114.309 135.358C114.369 135.444 114.449 135.512 114.544 135.557Z" fill="#E0E0E0"/>
<path d="M120.726 130.742L125.135 133.287C125.242 133.322 125.335 133.39 125.401 133.482C125.467 133.573 125.503 133.683 125.503 133.795C125.503 133.908 125.467 134.018 125.401 134.109C125.335 134.2 125.242 134.268 125.135 134.303L120.703 136.856C120.432 136.995 120.132 137.068 119.828 137.068C119.524 137.068 119.224 136.995 118.953 136.856L114.544 134.311C114.439 134.274 114.349 134.206 114.285 134.116C114.221 134.025 114.187 133.917 114.187 133.807C114.187 133.696 114.221 133.588 114.285 133.498C114.349 133.408 114.439 133.339 114.544 133.302L118.976 130.742C119.248 130.607 119.547 130.536 119.851 130.536C120.155 130.536 120.454 130.607 120.726 130.742Z" fill="#FAFAFA"/>
<path d="M119.847 130.918C120.085 130.911 120.322 130.964 120.535 131.071L124.944 133.616C125.066 133.692 125.112 133.761 125.112 133.792C125.112 133.822 125.066 133.898 124.944 133.967L120.512 136.527C120.299 136.633 120.065 136.689 119.828 136.689C119.59 136.689 119.356 136.633 119.144 136.527L114.735 133.983C114.612 133.906 114.567 133.837 114.567 133.807C114.567 133.776 114.612 133.707 114.735 133.631L119.167 131.071C119.377 130.964 119.611 130.912 119.847 130.918ZM119.847 130.536C119.544 130.53 119.244 130.601 118.976 130.742L114.544 133.302C114.439 133.339 114.349 133.408 114.285 133.498C114.221 133.588 114.187 133.696 114.187 133.807C114.187 133.917 114.221 134.025 114.285 134.116C114.349 134.206 114.439 134.274 114.544 134.311L118.922 136.856C119.194 136.992 119.494 137.062 119.797 137.062C120.101 137.062 120.401 136.992 120.672 136.856L125.104 134.303C125.212 134.268 125.305 134.2 125.371 134.109C125.437 134.018 125.472 133.908 125.472 133.795C125.472 133.683 125.437 133.573 125.371 133.482C125.305 133.39 125.212 133.322 125.104 133.287L120.695 130.742C120.424 130.601 120.122 130.53 119.816 130.536H119.847Z" fill="#EBEBEB"/>
<path d="M114.208 133.944V135.052C114.214 135.158 114.25 135.259 114.311 135.345C114.371 135.432 114.455 135.499 114.551 135.541L118.953 138.086C119.222 138.232 119.526 138.303 119.832 138.292V137.085C119.526 137.091 119.224 137.02 118.953 136.879L114.551 134.334C114.395 134.248 114.273 134.11 114.208 133.944Z" fill="#EBEBEB"/>
<path d="M114.208 133.944V133.791C114.211 133.721 114.228 133.651 114.258 133.587C114.288 133.522 114.331 133.465 114.383 133.417C114.304 133.477 114.245 133.559 114.213 133.653C114.182 133.747 114.18 133.849 114.208 133.944Z" fill="#FAFAFA"/>
<path d="M104.296 129.589L108.705 132.133C108.977 132.269 109.277 132.34 109.58 132.34C109.884 132.34 110.184 132.269 110.455 132.133L114.88 129.573C114.976 129.533 115.059 129.466 115.12 129.381C115.18 129.296 115.216 129.196 115.224 129.092V127.823C115.216 127.718 115.18 127.617 115.12 127.531C115.059 127.445 114.976 127.377 114.88 127.334L110.516 124.79C110.243 124.654 109.943 124.583 109.638 124.583C109.333 124.583 109.032 124.654 108.759 124.79L104.334 127.35C104.24 127.393 104.159 127.46 104.098 127.545C104.038 127.629 104.001 127.728 103.99 127.831V129.099C103.994 129.201 104.025 129.299 104.078 129.385C104.132 129.47 104.207 129.541 104.296 129.589Z" fill="#E0E0E0"/>
<path d="M110.517 124.79L114.918 127.334C115.023 127.371 115.113 127.439 115.177 127.53C115.241 127.62 115.275 127.728 115.275 127.839C115.275 127.949 115.241 128.057 115.177 128.147C115.113 128.238 115.023 128.306 114.918 128.343L110.494 130.903C110.222 131.039 109.922 131.109 109.619 131.109C109.315 131.109 109.015 131.039 108.744 130.903L104.334 128.358C104.23 128.321 104.14 128.253 104.076 128.163C104.012 128.072 103.978 127.965 103.978 127.854C103.978 127.743 104.012 127.635 104.076 127.545C104.14 127.455 104.23 127.386 104.334 127.35L108.759 124.79C109.032 124.654 109.333 124.583 109.638 124.583C109.943 124.583 110.244 124.654 110.517 124.79Z" fill="#FAFAFA"/>
<path d="M109.599 124.965C109.838 124.959 110.074 125.012 110.287 125.118L114.689 127.663C114.819 127.739 114.865 127.808 114.865 127.839C114.865 127.869 114.819 127.946 114.689 128.014L110.264 130.574C110.052 130.684 109.815 130.739 109.577 130.735C109.34 130.74 109.106 130.685 108.896 130.574L104.487 128.03C104.357 127.953 104.311 127.884 104.311 127.854C104.311 127.823 104.357 127.747 104.487 127.678L108.912 125.118C109.125 125.012 109.361 124.959 109.599 124.965ZM109.599 124.583C109.294 124.578 108.992 124.649 108.721 124.79L104.296 127.35C104.192 127.386 104.102 127.455 104.038 127.545C103.974 127.635 103.939 127.743 103.939 127.854C103.939 127.965 103.974 128.072 104.038 128.163C104.102 128.253 104.192 128.321 104.296 128.358L108.705 130.903C108.974 131.044 109.273 131.115 109.577 131.109C109.882 131.115 110.184 131.044 110.455 130.903L114.88 128.343C114.984 128.306 115.074 128.238 115.138 128.147C115.202 128.057 115.237 127.949 115.237 127.839C115.237 127.728 115.202 127.62 115.138 127.53C115.074 127.439 114.984 127.371 114.88 127.334L110.516 124.79C110.245 124.649 109.943 124.578 109.638 124.583H109.599Z" fill="#EBEBEB"/>
<path d="M103.952 127.984V129.1C103.96 129.205 103.996 129.306 104.057 129.392C104.117 129.478 104.2 129.546 104.296 129.589L108.706 132.133C108.975 132.28 109.278 132.351 109.584 132.34V131.109C109.279 131.116 108.976 131.045 108.706 130.903L104.296 128.358C104.14 128.28 104.018 128.146 103.952 127.984Z" fill="#EBEBEB"/>
<path d="M103.952 127.984V127.839C103.954 127.767 103.972 127.696 104.003 127.632C104.035 127.567 104.08 127.51 104.136 127.464C104.055 127.521 103.993 127.601 103.961 127.695C103.928 127.788 103.925 127.889 103.952 127.984Z" fill="#FAFAFA"/>
<path d="M94.0487 123.636L98.4503 126.18C98.722 126.316 99.0216 126.387 99.3253 126.387C99.629 126.387 99.9286 126.316 100.2 126.18L104.632 123.62C104.73 123.579 104.814 123.511 104.874 123.425C104.935 123.339 104.97 123.237 104.976 123.131V121.863C104.965 121.76 104.928 121.661 104.867 121.577C104.807 121.493 104.726 121.425 104.632 121.381L100.223 118.837C99.9515 118.701 99.652 118.63 99.3482 118.63C99.0445 118.63 98.7449 118.701 98.4732 118.837L94.0487 121.397C93.9525 121.437 93.8695 121.504 93.8088 121.589C93.7481 121.674 93.7121 121.774 93.7048 121.878V123.147C93.7124 123.252 93.7484 123.353 93.809 123.439C93.8696 123.525 93.9524 123.593 94.0487 123.636Z" fill="#E0E0E0"/>
<path d="M100.223 118.837L104.632 121.381C104.737 121.418 104.827 121.487 104.891 121.577C104.955 121.667 104.989 121.775 104.989 121.886C104.989 121.996 104.955 122.104 104.891 122.195C104.827 122.285 104.737 122.353 104.632 122.39L100.2 124.95C99.9286 125.086 99.629 125.157 99.3253 125.157C99.0215 125.157 98.7219 125.086 98.4503 124.95L94.0487 122.405C93.5596 122.123 93.5596 121.641 94.0487 121.397L98.4732 118.837C98.7449 118.701 99.0444 118.63 99.3482 118.63C99.6519 118.63 99.9515 118.701 100.223 118.837Z" fill="#FAFAFA"/>
<path d="M99.352 119.012C99.5879 119.006 99.8216 119.059 100.032 119.165L104.441 121.71C104.564 121.786 104.609 121.855 104.609 121.886C104.609 121.916 104.564 121.993 104.441 122.061L100.009 124.621C99.799 124.729 99.565 124.782 99.3291 124.774C99.0907 124.781 98.8545 124.728 98.6413 124.621L94.2321 122.077C94.1098 122 94.064 121.932 94.064 121.901C94.064 121.87 94.1098 121.794 94.2321 121.725L98.6642 119.165C98.8771 119.058 99.1136 119.005 99.352 119.012ZM99.352 118.63C99.0464 118.624 98.7441 118.695 98.4732 118.837L94.0487 121.397C93.5596 121.672 93.5596 122.123 94.0487 122.405L98.4503 124.95C98.7212 125.092 99.0235 125.163 99.3291 125.156C99.6322 125.163 99.932 125.092 100.2 124.95L104.632 122.39C104.737 122.353 104.827 122.285 104.891 122.195C104.955 122.104 104.989 121.996 104.989 121.886C104.989 121.775 104.955 121.667 104.891 121.577C104.827 121.487 104.737 121.418 104.632 121.381L100.223 118.837C99.955 118.695 99.6552 118.624 99.352 118.63Z" fill="#EBEBEB"/>
<path d="M93.7048 122.031V123.147C93.7124 123.252 93.7484 123.353 93.809 123.439C93.8696 123.525 93.9524 123.593 94.0487 123.636L98.458 126.18C98.7255 126.324 99.0257 126.395 99.3291 126.387V125.156C99.0258 125.163 98.7259 125.092 98.458 124.95L94.0487 122.405C93.8923 122.327 93.77 122.194 93.7048 122.031Z" fill="#EBEBEB"/>
<path d="M93.7049 122.031V121.886C93.707 121.814 93.7245 121.743 93.7561 121.679C93.7878 121.614 93.8328 121.557 93.8883 121.511C93.8065 121.567 93.7446 121.648 93.7116 121.741C93.6787 121.835 93.6763 121.936 93.7049 122.031Z" fill="#FAFAFA"/>
<path d="M105.328 140.86L109.737 143.405C110.008 143.544 110.308 143.617 110.612 143.617C110.917 143.617 111.217 143.544 111.487 143.405L115.919 140.852C116.014 140.808 116.095 140.739 116.154 140.653C116.213 140.567 116.248 140.467 116.256 140.363V139.095C116.248 138.991 116.213 138.891 116.154 138.805C116.095 138.719 116.014 138.65 115.919 138.606L111.51 136.061C111.238 135.925 110.939 135.854 110.635 135.854C110.331 135.854 110.032 135.925 109.76 136.061L105.328 138.621C105.234 138.664 105.154 138.731 105.094 138.816C105.035 138.901 105 139 104.992 139.102C104.992 139.156 104.992 140.325 104.992 140.379C105.001 140.481 105.038 140.579 105.096 140.664C105.155 140.748 105.235 140.816 105.328 140.86Z" fill="#E0E0E0"/>
<path d="M111.51 136.061L115.919 138.606C116.026 138.641 116.119 138.709 116.186 138.8C116.252 138.891 116.287 139.001 116.287 139.114C116.287 139.227 116.252 139.336 116.186 139.428C116.119 139.519 116.026 139.587 115.919 139.622L111.487 142.174C111.216 142.314 110.917 142.387 110.612 142.387C110.308 142.387 110.008 142.314 109.737 142.174L105.328 139.63C105.224 139.593 105.133 139.525 105.069 139.434C105.006 139.344 104.971 139.236 104.971 139.125C104.971 139.015 105.006 138.907 105.069 138.817C105.133 138.726 105.224 138.658 105.328 138.621L109.76 136.061C110.032 135.925 110.331 135.854 110.635 135.854C110.939 135.854 111.238 135.925 111.51 136.061Z" fill="#FAFAFA"/>
<path d="M110.631 136.237C110.871 136.229 111.108 136.285 111.319 136.397L115.728 138.942C115.85 139.011 115.896 139.087 115.896 139.118C115.896 139.148 115.85 139.217 115.728 139.286L111.296 141.846C111.084 141.952 110.85 142.007 110.612 142.007C110.375 142.007 110.141 141.952 109.928 141.846L105.519 139.301C105.397 139.232 105.351 139.156 105.351 139.125C105.351 139.095 105.397 139.026 105.519 138.95L109.951 136.397C110.16 136.284 110.394 136.229 110.631 136.237ZM110.631 135.855C110.328 135.849 110.028 135.92 109.76 136.061L105.328 138.621C105.224 138.658 105.133 138.726 105.069 138.817C105.006 138.907 104.971 139.015 104.971 139.125C104.971 139.236 105.006 139.344 105.069 139.434C105.133 139.525 105.224 139.593 105.328 139.63L109.737 142.174C110.007 142.315 110.307 142.388 110.612 142.388C110.917 142.388 111.217 142.315 111.487 142.174L115.919 139.622C116.026 139.587 116.119 139.519 116.186 139.428C116.252 139.336 116.287 139.227 116.287 139.114C116.287 139.001 116.252 138.891 116.186 138.8C116.119 138.709 116.026 138.641 115.919 138.606L111.51 136.061C111.239 135.92 110.937 135.849 110.631 135.855Z" fill="#EBEBEB"/>
<path d="M104.992 139.263V140.371C104.999 140.475 105.033 140.576 105.093 140.662C105.152 140.748 105.233 140.816 105.328 140.86L109.737 143.405C110.006 143.553 110.309 143.627 110.616 143.619V142.381C110.31 142.391 110.007 142.32 109.737 142.174L105.328 139.63C105.178 139.548 105.06 139.419 104.992 139.263Z" fill="#EBEBEB"/>
<path d="M104.992 139.263V139.11C104.993 139.039 105.009 138.969 105.04 138.904C105.07 138.839 105.113 138.782 105.168 138.736C105.088 138.795 105.029 138.878 104.998 138.972C104.966 139.066 104.964 139.168 104.992 139.263Z" fill="#FAFAFA"/>
<path d="M95.0804 134.907L99.4897 137.452C99.7603 137.591 100.06 137.664 100.365 137.664C100.669 137.664 100.969 137.591 101.24 137.452L105.664 134.9C105.76 134.857 105.843 134.789 105.904 134.703C105.964 134.616 106 134.515 106.008 134.41V133.142C106 133.037 105.964 132.936 105.904 132.85C105.843 132.764 105.76 132.696 105.664 132.653L101.255 130.108C100.983 129.972 100.684 129.902 100.38 129.902C100.076 129.902 99.7766 129.972 99.505 130.108L95.0804 132.668C94.9862 132.712 94.9049 132.779 94.8446 132.863C94.7843 132.948 94.747 133.046 94.7366 133.15V134.418C94.7433 134.523 94.779 134.625 94.8397 134.711C94.9003 134.797 94.9837 134.865 95.0804 134.907Z" fill="#E0E0E0"/>
<path d="M101.263 130.108L105.664 132.653C105.771 132.688 105.864 132.756 105.931 132.847C105.997 132.939 106.032 133.048 106.032 133.161C106.032 133.274 105.997 133.383 105.931 133.475C105.864 133.566 105.771 133.634 105.664 133.669L101.24 136.222C100.969 136.361 100.669 136.434 100.365 136.434C100.06 136.434 99.7604 136.361 99.4898 136.222L95.0805 133.677C94.9762 133.64 94.8859 133.572 94.8221 133.481C94.7582 133.391 94.7239 133.283 94.7239 133.173C94.7239 133.062 94.7582 132.954 94.8221 132.864C94.8859 132.773 94.9762 132.705 95.0805 132.668L99.5051 130.108C99.7781 129.972 100.079 129.901 100.384 129.901C100.689 129.901 100.99 129.972 101.263 130.108Z" fill="#FAFAFA"/>
<path d="M100.384 130.284C100.623 130.276 100.86 130.332 101.072 130.444L105.473 132.981C105.603 133.058 105.649 133.127 105.649 133.157C105.649 133.188 105.603 133.264 105.473 133.333L101.049 135.893C100.836 136.002 100.6 136.057 100.361 136.053C100.124 136.058 99.8903 136.003 99.6808 135.893L95.2716 133.348C95.1417 133.272 95.0958 133.203 95.0958 133.173C95.0958 133.142 95.1417 133.073 95.2716 132.997L99.6961 130.437C99.9093 130.33 100.146 130.278 100.384 130.284ZM100.384 129.902C100.078 129.897 99.7764 129.968 99.5051 130.108L95.0805 132.668C94.9762 132.705 94.8859 132.773 94.8221 132.864C94.7582 132.954 94.7239 133.062 94.7239 133.173C94.7239 133.283 94.7582 133.391 94.8221 133.481C94.8859 133.572 94.9762 133.64 95.0805 133.677L99.4898 136.222C99.7574 136.365 100.057 136.439 100.361 136.436C100.667 136.439 100.969 136.365 101.24 136.222L105.664 133.669C105.771 133.634 105.864 133.566 105.931 133.475C105.997 133.383 106.032 133.274 106.032 133.161C106.032 133.048 105.997 132.939 105.931 132.847C105.864 132.756 105.771 132.688 105.664 132.653L101.263 130.108C100.991 129.968 100.689 129.897 100.384 129.902Z" fill="#EBEBEB"/>
<path d="M94.7366 133.31V134.418C94.7433 134.523 94.779 134.625 94.8397 134.711C94.9003 134.797 94.9837 134.865 95.0804 134.907L99.4897 137.452C99.758 137.601 100.062 137.675 100.368 137.666V136.428C100.062 136.439 99.759 136.367 99.4897 136.222L95.0804 133.677C94.9277 133.597 94.8065 133.468 94.7366 133.31Z" fill="#EBEBEB"/>
<path d="M94.7365 133.31V133.157C94.7396 133.086 94.7575 133.015 94.789 132.951C94.8206 132.886 94.8652 132.829 94.9199 132.783C94.8384 132.841 94.7769 132.923 94.744 133.017C94.7111 133.112 94.7085 133.214 94.7365 133.31Z" fill="#FAFAFA"/>
<path d="M84.8329 128.954L89.2345 131.499C89.5051 131.638 89.8051 131.711 90.1095 131.711C90.4139 131.711 90.7139 131.638 90.9844 131.499L95.4166 128.939C95.5128 128.898 95.5958 128.832 95.6565 128.747C95.7172 128.662 95.7532 128.562 95.7605 128.458V127.189C95.7491 127.085 95.7116 126.986 95.6515 126.9C95.5914 126.815 95.5106 126.746 95.4166 126.7L91.0074 124.155C90.7357 124.019 90.4361 123.949 90.1324 123.949C89.8287 123.949 89.5291 124.019 89.2574 124.155L84.8329 126.715C84.7367 126.756 84.6537 126.822 84.593 126.907C84.5323 126.992 84.4963 127.093 84.489 127.197V128.465C84.4966 128.57 84.5326 128.671 84.5932 128.757C84.6538 128.844 84.7366 128.912 84.8329 128.954Z" fill="#E0E0E0"/>
<path d="M91.0074 124.155L95.4167 126.7C95.521 126.737 95.6113 126.805 95.6752 126.895C95.7391 126.986 95.7734 127.094 95.7734 127.204C95.7734 127.315 95.7391 127.423 95.6752 127.513C95.6113 127.604 95.521 127.672 95.4167 127.709L90.9845 130.269C90.7139 130.408 90.4139 130.481 90.1096 130.481C89.8052 130.481 89.5052 130.408 89.2346 130.269L84.833 127.724C84.7249 127.691 84.6303 127.624 84.563 127.533C84.4958 127.443 84.4595 127.333 84.4595 127.22C84.4595 127.107 84.4958 126.997 84.563 126.906C84.6303 126.815 84.7249 126.748 84.833 126.715L89.2575 124.155C89.5292 124.019 89.8287 123.949 90.1325 123.949C90.4362 123.949 90.7358 124.019 91.0074 124.155Z" fill="#FAFAFA"/>
<path d="M90.1363 124.331C90.3722 124.325 90.6059 124.377 90.8164 124.484L95.2256 127.029C95.3479 127.105 95.3938 127.174 95.3938 127.204C95.3938 127.235 95.3479 127.311 95.2256 127.38L90.7935 129.94C90.584 130.05 90.35 130.105 90.1134 130.101C89.8744 130.104 89.6382 130.049 89.4256 129.94L85.0164 127.395C84.8941 127.319 84.8482 127.25 84.8482 127.22C84.8482 127.189 84.8941 127.12 85.0164 127.044L89.4485 124.484C89.6614 124.376 89.8979 124.324 90.1363 124.331ZM90.1363 123.949C89.8307 123.943 89.5284 124.014 89.2575 124.155L84.833 126.715C84.7249 126.748 84.6303 126.815 84.563 126.906C84.4958 126.997 84.4595 127.107 84.4595 127.22C84.4595 127.333 84.4958 127.443 84.563 127.533C84.6303 127.624 84.7249 127.691 84.833 127.724L89.2346 130.269C89.5055 130.41 89.8077 130.481 90.1134 130.475C90.4165 130.481 90.7163 130.41 90.9845 130.269L95.4167 127.709C95.521 127.672 95.6113 127.604 95.6752 127.513C95.7391 127.423 95.7734 127.315 95.7734 127.204C95.7734 127.094 95.7391 126.986 95.6752 126.895C95.6113 126.805 95.521 126.737 95.4167 126.7L91.0074 124.155C90.7393 124.014 90.4395 123.943 90.1363 123.949Z" fill="#EBEBEB"/>
<path d="M84.489 127.357V128.465C84.4958 128.571 84.5315 128.672 84.5921 128.758C84.6528 128.844 84.7361 128.912 84.8329 128.954L89.2421 131.499C89.5084 131.646 89.8095 131.717 90.1133 131.705V130.475C89.81 130.482 89.5101 130.411 89.2421 130.269L84.8329 127.724C84.6802 127.644 84.559 127.515 84.489 127.357Z" fill="#EBEBEB"/>
<path d="M84.489 127.357V127.204C84.492 127.133 84.5099 127.062 84.5415 126.998C84.573 126.933 84.6176 126.876 84.6724 126.83C84.5908 126.888 84.5293 126.97 84.4964 127.064C84.4636 127.159 84.461 127.261 84.489 127.357Z" fill="#FAFAFA"/>
<path d="M96.112 146.179L100.521 148.723C100.792 148.863 101.092 148.935 101.396 148.935C101.701 148.935 102.001 148.863 102.271 148.723L106.703 146.171C106.798 146.127 106.879 146.058 106.938 145.972C106.997 145.886 107.032 145.786 107.04 145.682V144.413C107.026 144.315 106.988 144.222 106.927 144.142C106.867 144.063 106.787 144.001 106.696 143.963L102.286 141.418C102.016 141.278 101.716 141.206 101.412 141.206C101.107 141.206 100.807 141.278 100.537 141.418L96.1044 143.97C96.0106 144.014 95.9296 144.082 95.8694 144.166C95.8092 144.25 95.7717 144.349 95.7605 144.452V145.728C95.7766 145.826 95.8172 145.919 95.8787 145.998C95.9401 146.077 96.0203 146.139 96.112 146.179Z" fill="#E0E0E0"/>
<path d="M102.294 141.387L106.696 143.963C106.8 143.999 106.89 144.068 106.954 144.158C107.018 144.248 107.052 144.356 107.052 144.467C107.052 144.578 107.018 144.685 106.954 144.776C106.89 144.866 106.8 144.934 106.696 144.971L102.263 147.524C101.993 147.663 101.693 147.736 101.388 147.736C101.084 147.736 100.784 147.663 100.513 147.524L96.1042 144.979C95.9999 144.942 95.9096 144.874 95.8457 144.783C95.7819 144.693 95.7476 144.585 95.7476 144.475C95.7476 144.364 95.7819 144.256 95.8457 144.166C95.9096 144.075 95.9999 144.007 96.1042 143.97L100.536 141.418C100.806 141.272 101.106 141.194 101.411 141.188C101.717 141.183 102.02 141.251 102.294 141.387Z" fill="#FAFAFA"/>
<path d="M101.415 141.555C101.654 141.552 101.891 141.607 102.103 141.716L106.512 144.261C106.635 144.329 106.681 144.406 106.681 144.436C106.681 144.467 106.635 144.536 106.512 144.612L102.08 147.164C101.868 147.271 101.634 147.326 101.396 147.326C101.159 147.326 100.925 147.271 100.712 147.164L96.3031 144.62C96.1808 144.551 96.135 144.475 96.135 144.444C96.135 144.413 96.1808 144.345 96.3031 144.268L100.735 141.716C100.945 141.607 101.179 141.552 101.415 141.555ZM101.415 141.173C101.111 141.166 100.81 141.24 100.544 141.387L96.1121 143.94C96.0077 143.977 95.9174 144.045 95.8536 144.135C95.7897 144.225 95.7554 144.333 95.7554 144.444C95.7554 144.555 95.7897 144.663 95.8536 144.753C95.9174 144.843 96.0077 144.911 96.1121 144.948L100.521 147.493C100.792 147.634 101.092 147.707 101.396 147.707C101.701 147.707 102.001 147.634 102.271 147.493L106.703 144.941C106.808 144.904 106.898 144.836 106.962 144.745C107.026 144.655 107.06 144.547 107.06 144.436C107.06 144.326 107.026 144.218 106.962 144.127C106.898 144.037 106.808 143.969 106.703 143.932L102.294 141.387C102.025 141.24 101.722 141.166 101.415 141.173Z" fill="#EBEBEB"/>
<path d="M95.7759 144.582V145.69C95.7838 145.795 95.819 145.896 95.878 145.983C95.9369 146.07 96.0176 146.14 96.1121 146.186L100.521 148.723C100.79 148.872 101.093 148.946 101.4 148.937V147.707C101.094 147.714 100.79 147.64 100.521 147.493L96.1121 144.948C95.9623 144.867 95.8439 144.738 95.7759 144.582Z" fill="#EBEBEB"/>
<path d="M95.7757 144.582V144.436C95.7763 144.364 95.7923 144.292 95.8226 144.226C95.8529 144.161 95.8968 144.102 95.9515 144.054C95.8722 144.114 95.8128 144.196 95.7815 144.29C95.7501 144.385 95.7481 144.486 95.7757 144.582Z" fill="#FAFAFA"/>
<path d="M85.8646 140.226L90.2739 142.77C90.5445 142.91 90.8444 142.983 91.1488 142.983C91.4532 142.983 91.7532 142.91 92.0238 142.77L96.4483 140.218C96.5446 140.175 96.6275 140.107 96.6881 140.021C96.7486 139.935 96.7846 139.834 96.7922 139.729V138.461C96.7846 138.355 96.7486 138.255 96.6881 138.168C96.6275 138.082 96.5446 138.014 96.4483 137.971L92.0391 135.434C91.7685 135.295 91.4685 135.222 91.1641 135.222C90.8597 135.222 90.5597 135.295 90.2892 135.434L85.8646 137.987C85.7708 138.031 85.6899 138.098 85.6297 138.182C85.5694 138.267 85.5319 138.365 85.5208 138.468V139.744C85.528 139.849 85.564 139.949 85.6247 140.034C85.6854 140.119 85.7684 140.185 85.8646 140.226Z" fill="#E0E0E0"/>
<path d="M92.039 135.434L96.4482 137.971C96.5553 138.007 96.6484 138.075 96.7145 138.166C96.7806 138.257 96.8161 138.367 96.8161 138.48C96.8161 138.592 96.7806 138.702 96.7145 138.793C96.6484 138.885 96.5553 138.953 96.4482 138.988L92.0237 141.54C91.7531 141.68 91.4531 141.752 91.1487 141.752C90.8443 141.752 90.5444 141.68 90.2738 141.54L85.8645 138.995C85.7602 138.959 85.6699 138.89 85.606 138.8C85.5421 138.71 85.5078 138.602 85.5078 138.491C85.5078 138.38 85.5421 138.273 85.606 138.182C85.6699 138.092 85.7602 138.024 85.8645 137.987L90.289 135.434C90.5596 135.295 90.8596 135.222 91.164 135.222C91.4684 135.222 91.7684 135.295 92.039 135.434Z" fill="#FAFAFA"/>
<path d="M91.1677 135.603C91.4067 135.599 91.6429 135.654 91.8555 135.763L96.2571 138.308C96.387 138.376 96.4329 138.453 96.4329 138.483C96.4329 138.514 96.387 138.583 96.2571 138.659L91.8326 141.212C91.62 141.321 91.3838 141.376 91.1448 141.372C90.9082 141.377 90.6742 141.322 90.4647 141.212L86.0631 138.667C85.9332 138.598 85.8873 138.522 85.8873 138.491C85.8873 138.461 85.9332 138.392 86.0631 138.315L90.4876 135.763C90.7002 135.654 90.9364 135.599 91.1754 135.603M91.1754 135.22C90.8688 135.214 90.5659 135.288 90.2966 135.434L85.8721 137.987C85.7678 138.024 85.6774 138.092 85.6136 138.182C85.5497 138.273 85.5154 138.38 85.5154 138.491C85.5154 138.602 85.5497 138.71 85.6136 138.8C85.6774 138.89 85.7678 138.959 85.8721 138.995L90.2813 141.54C90.5475 141.688 90.8482 141.761 91.1525 141.754C91.4591 141.761 91.7623 141.688 92.0313 141.54L96.4558 138.988C96.5628 138.953 96.656 138.885 96.722 138.793C96.7881 138.702 96.8237 138.592 96.8237 138.48C96.8237 138.367 96.7881 138.257 96.722 138.166C96.656 138.075 96.5628 138.007 96.4558 137.971L92.0465 135.434C91.7803 135.287 91.4796 135.213 91.1754 135.22Z" fill="#EBEBEB"/>
<path d="M85.5208 138.613V139.721C85.5275 139.827 85.5632 139.928 85.6239 140.014C85.6845 140.101 85.7678 140.168 85.8646 140.21L90.2739 142.755C90.5422 142.904 90.8458 142.978 91.1527 142.969V141.746C90.8466 141.757 90.5432 141.686 90.2739 141.54L85.8646 138.995C85.7093 138.912 85.5878 138.777 85.5208 138.613Z" fill="#EBEBEB"/>
<path d="M85.5207 138.613V138.461C85.5238 138.389 85.5416 138.319 85.5732 138.254C85.6048 138.19 85.6493 138.132 85.7041 138.086C85.6225 138.144 85.561 138.226 85.5282 138.32C85.4953 138.415 85.4927 138.517 85.5207 138.613Z" fill="#FAFAFA"/>
<path d="M75.6171 134.273L80.0187 136.818C80.2893 136.957 80.5892 137.03 80.8936 137.03C81.198 137.03 81.498 136.957 81.7686 136.818L86.2008 134.265C86.2956 134.221 86.3772 134.152 86.4375 134.066C86.4978 133.981 86.5347 133.881 86.5447 133.776V132.5C86.5333 132.396 86.4958 132.297 86.4357 132.211C86.3756 132.126 86.2947 132.057 86.2008 132.011L81.7915 129.443C81.5199 129.307 81.2203 129.237 80.9166 129.237C80.6128 129.237 80.3133 129.307 80.0416 129.443L75.6171 132.003C75.5209 132.044 75.4379 132.11 75.3772 132.195C75.3165 132.28 75.2805 132.381 75.2732 132.485V133.753C75.2743 133.864 75.3073 133.972 75.3683 134.064C75.4294 134.156 75.5157 134.229 75.6171 134.273Z" fill="#37474F"/>
<path d="M81.7914 129.443L86.2006 131.988C86.3076 132.023 86.4008 132.091 86.4669 132.182C86.533 132.274 86.5685 132.384 86.5685 132.496C86.5685 132.609 86.533 132.719 86.4669 132.81C86.4008 132.901 86.3076 132.969 86.2006 133.004L81.7685 135.557C81.4979 135.696 81.1979 135.769 80.8935 135.769C80.5891 135.769 80.2891 135.696 80.0185 135.557L75.6169 133.012C75.5088 132.979 75.4142 132.912 75.347 132.821C75.2797 132.731 75.2434 132.621 75.2434 132.508C75.2434 132.395 75.2797 132.285 75.347 132.194C75.4142 132.103 75.5088 132.036 75.6169 132.003L80.0414 129.443C80.3131 129.307 80.6127 129.237 80.9164 129.237C81.2202 129.237 81.5197 129.307 81.7914 129.443Z" fill="#455A64"/>
<g opacity="0.3">
<path d="M86.2008 132.019C84.6724 131.254 83.1059 130.292 81.6157 129.489C81.2727 129.374 80.9063 129.347 80.55 129.41C80.1936 129.472 79.8586 129.623 79.5754 129.848L78.2611 130.612C77.3976 131.109 76.5188 131.591 75.6323 132.057C76.4831 131.547 77.339 131.038 78.1999 130.528L79.4914 129.764C79.7908 129.51 80.1523 129.34 80.539 129.272C80.9257 129.203 81.3237 129.239 81.6922 129.375C83.2205 130.223 84.7489 131.163 86.2161 132.072L86.2008 132.019Z" fill="white"/>
</g>
<path d="M75.2732 132.676V133.784C75.28 133.889 75.3156 133.99 75.3763 134.077C75.437 134.163 75.5203 134.231 75.6171 134.273L80.0263 136.818C80.2918 136.967 80.593 137.041 80.8975 137.032V135.794C80.5938 135.804 80.2929 135.733 80.0263 135.587L75.6171 133.043C75.4643 132.963 75.3432 132.833 75.2732 132.676Z" fill="#263238"/>
<path d="M93.0094 112.364L97.4186 114.909C97.6903 115.045 97.9899 115.115 98.2936 115.115C98.5974 115.115 98.8969 115.045 99.1686 114.909L103.601 112.349C103.695 112.305 103.776 112.236 103.835 112.15C103.894 112.064 103.929 111.964 103.937 111.86V110.591C103.93 110.488 103.894 110.389 103.835 110.304C103.776 110.22 103.695 110.152 103.601 110.11L99.1915 107.565C98.9209 107.426 98.6209 107.353 98.3165 107.353C98.0121 107.353 97.7122 107.426 97.4416 107.565L93.0094 110.118C92.9156 110.162 92.8347 110.229 92.7744 110.313C92.7142 110.398 92.6767 110.496 92.6655 110.599V111.868C92.6756 111.973 92.7125 112.074 92.7727 112.161C92.8329 112.248 92.9144 112.318 93.0094 112.364Z" fill="#BA68C8"/>
<path opacity="0.2" d="M93.0094 112.364L97.4186 114.909C97.6903 115.045 97.9899 115.115 98.2936 115.115C98.5974 115.115 98.8969 115.045 99.1686 114.909L103.601 112.349C103.695 112.305 103.776 112.236 103.835 112.15C103.894 112.064 103.929 111.964 103.937 111.86V110.591C103.93 110.488 103.894 110.389 103.835 110.304C103.776 110.22 103.695 110.152 103.601 110.11L99.1915 107.565C98.9209 107.426 98.6209 107.353 98.3165 107.353C98.0121 107.353 97.7122 107.426 97.4416 107.565L93.0094 110.118C92.9156 110.162 92.8347 110.229 92.7744 110.313C92.7142 110.398 92.6767 110.496 92.6655 110.599V111.868C92.6756 111.973 92.7125 112.074 92.7727 112.161C92.8329 112.248 92.9144 112.318 93.0094 112.364Z" fill="white"/>
<path d="M99.1916 107.565L103.639 110.11C103.743 110.147 103.834 110.215 103.898 110.305C103.961 110.396 103.996 110.504 103.996 110.614C103.996 110.725 103.961 110.833 103.898 110.923C103.834 111.013 103.743 111.082 103.639 111.119L99.2069 113.679C98.9352 113.814 98.6356 113.885 98.3319 113.885C98.0282 113.885 97.7286 113.814 97.4569 113.679L93.0095 111.103C92.9025 111.068 92.8093 111 92.7432 110.909C92.6772 110.818 92.6416 110.708 92.6416 110.595C92.6416 110.482 92.6772 110.373 92.7432 110.281C92.8093 110.19 92.9025 110.122 93.0095 110.087L97.4417 107.535C97.7147 107.4 98.0159 107.332 98.3203 107.338C98.6247 107.343 98.9234 107.421 99.1916 107.565Z" fill="#BA68C8"/>
<path opacity="0.4" d="M99.1916 107.565L103.639 110.11C103.743 110.147 103.834 110.215 103.898 110.305C103.961 110.396 103.996 110.504 103.996 110.614C103.996 110.725 103.961 110.833 103.898 110.923C103.834 111.013 103.743 111.082 103.639 111.119L99.2069 113.679C98.9352 113.814 98.6356 113.885 98.3319 113.885C98.0282 113.885 97.7286 113.814 97.4569 113.679L93.0095 111.103C92.9025 111.068 92.8093 111 92.7432 110.909C92.6772 110.818 92.6416 110.708 92.6416 110.595C92.6416 110.482 92.6772 110.373 92.7432 110.281C92.8093 110.19 92.9025 110.122 93.0095 110.087L97.4417 107.535C97.7147 107.4 98.0159 107.332 98.3203 107.338C98.6247 107.343 98.9234 107.421 99.1916 107.565Z" fill="white"/>
<path opacity="0.1" d="M92.6655 110.759V111.867C92.6749 111.973 92.7115 112.074 92.7718 112.161C92.8321 112.248 92.914 112.318 93.0094 112.364L97.4186 114.909C97.6892 115.051 97.9917 115.122 98.2974 115.115V113.885C97.9908 113.892 97.6876 113.818 97.4186 113.671L93.0094 111.103C92.8604 111.029 92.7396 110.908 92.6655 110.759Z" fill="white"/>
<path d="M83.7706 117.683L88.1799 120.228C88.4515 120.363 88.7511 120.434 89.0549 120.434C89.3586 120.434 89.6582 120.363 89.9298 120.228L94.3544 117.668C94.4511 117.626 94.5345 117.558 94.5951 117.471C94.6558 117.385 94.6915 117.284 94.6982 117.178V115.91C94.6901 115.806 94.6538 115.706 94.5932 115.621C94.5326 115.537 94.4501 115.47 94.3544 115.429L89.9528 112.884C89.6822 112.744 89.3822 112.672 89.0778 112.672C88.7734 112.672 88.4734 112.744 88.2028 112.884L83.7706 115.444C83.6764 115.487 83.5951 115.554 83.5348 115.639C83.4744 115.723 83.4372 115.822 83.4268 115.925V117.217C83.4417 117.317 83.4809 117.411 83.5408 117.492C83.6008 117.574 83.6797 117.639 83.7706 117.683Z" fill="#BA68C8"/>
<path opacity="0.2" d="M83.7706 117.683L88.1799 120.228C88.4515 120.363 88.7511 120.434 89.0549 120.434C89.3586 120.434 89.6582 120.363 89.9298 120.228L94.3544 117.668C94.4511 117.626 94.5345 117.558 94.5951 117.471C94.6558 117.385 94.6915 117.284 94.6982 117.178V115.91C94.6901 115.806 94.6538 115.706 94.5932 115.621C94.5326 115.537 94.4501 115.47 94.3544 115.429L89.9528 112.884C89.6822 112.744 89.3822 112.672 89.0778 112.672C88.7734 112.672 88.4734 112.744 88.2028 112.884L83.7706 115.444C83.6764 115.487 83.5951 115.554 83.5348 115.639C83.4744 115.723 83.4372 115.822 83.4268 115.925V117.217C83.4417 117.317 83.4809 117.411 83.5408 117.492C83.6008 117.574 83.6797 117.639 83.7706 117.683Z" fill="white"/>
<path d="M89.9758 112.884L94.3774 115.428C94.4855 115.461 94.5801 115.528 94.6474 115.619C94.7146 115.71 94.7509 115.82 94.7509 115.933C94.7509 116.046 94.7146 116.156 94.6474 116.247C94.5801 116.337 94.4855 116.404 94.3774 116.437L89.9529 118.997C89.6812 119.133 89.3816 119.204 89.0779 119.204C88.7742 119.204 88.4746 119.133 88.2029 118.997L83.7708 116.452C83.6664 116.416 83.5761 116.347 83.5122 116.257C83.4484 116.167 83.4141 116.059 83.4141 115.948C83.4141 115.837 83.4484 115.73 83.5122 115.639C83.5761 115.549 83.6664 115.481 83.7708 115.444L88.2029 112.884C88.4764 112.741 88.7806 112.666 89.0894 112.666C89.3981 112.666 89.7023 112.741 89.9758 112.884Z" fill="#BA68C8"/>
<path opacity="0.4" d="M89.9758 112.884L94.3774 115.428C94.4855 115.461 94.5801 115.528 94.6474 115.619C94.7146 115.71 94.7509 115.82 94.7509 115.933C94.7509 116.046 94.7146 116.156 94.6474 116.247C94.5801 116.337 94.4855 116.404 94.3774 116.437L89.9529 118.997C89.6812 119.133 89.3816 119.204 89.0779 119.204C88.7742 119.204 88.4746 119.133 88.2029 118.997L83.7708 116.452C83.6664 116.416 83.5761 116.347 83.5122 116.257C83.4484 116.167 83.4141 116.059 83.4141 115.948C83.4141 115.837 83.4484 115.73 83.5122 115.639C83.5761 115.549 83.6664 115.481 83.7708 115.444L88.2029 112.884C88.4764 112.741 88.7806 112.666 89.0894 112.666C89.3981 112.666 89.7023 112.741 89.9758 112.884Z" fill="white"/>
<path opacity="0.1" d="M83.4497 116.078V117.217C83.4604 117.321 83.4976 117.42 83.5578 117.506C83.618 117.592 83.6992 117.66 83.7936 117.706L88.2028 120.25C88.4734 120.393 88.7759 120.464 89.0816 120.457V119.204C88.776 119.21 88.4738 119.139 88.2028 118.997L83.7707 116.452C83.6252 116.367 83.5124 116.235 83.4497 116.078Z" fill="white"/>
<path d="M74.6007 123.001L79.01 125.546C79.2816 125.682 79.5812 125.753 79.8849 125.753C80.1887 125.753 80.4882 125.682 80.7599 125.546L85.1845 122.986C85.2806 122.945 85.3637 122.879 85.4244 122.794C85.4851 122.709 85.521 122.609 85.5283 122.505V121.229C85.5202 121.125 85.4839 121.025 85.4233 120.94C85.3627 120.855 85.2801 120.788 85.1845 120.747L80.7828 118.202C80.5112 118.067 80.2116 117.996 79.9079 117.996C79.6041 117.996 79.3046 118.067 79.0329 118.202L74.6007 120.762C74.5065 120.806 74.4251 120.873 74.3648 120.957C74.3045 121.042 74.2673 121.141 74.2568 121.244V122.512C74.2644 122.617 74.3004 122.718 74.361 122.805C74.4216 122.891 74.5044 122.959 74.6007 123.001Z" fill="#BA68C8"/>
<path opacity="0.2" d="M74.6007 123.001L79.01 125.546C79.2816 125.682 79.5812 125.753 79.8849 125.753C80.1887 125.753 80.4882 125.682 80.7599 125.546L85.1845 122.986C85.2806 122.945 85.3637 122.879 85.4244 122.794C85.4851 122.709 85.521 122.609 85.5283 122.505V121.229C85.5202 121.125 85.4839 121.025 85.4233 120.94C85.3627 120.855 85.2801 120.788 85.1845 120.747L80.7828 118.202C80.5112 118.067 80.2116 117.996 79.9079 117.996C79.6041 117.996 79.3046 118.067 79.0329 118.202L74.6007 120.762C74.5065 120.806 74.4251 120.873 74.3648 120.957C74.3045 121.042 74.2673 121.141 74.2568 121.244V122.512C74.2644 122.617 74.3004 122.718 74.361 122.805C74.4216 122.891 74.5044 122.959 74.6007 123.001Z" fill="white"/>
<path d="M80.76 118.202L85.1616 120.747C85.6507 121.03 85.6507 121.511 85.1616 121.756L80.7142 124.316C80.4425 124.452 80.1429 124.522 79.8392 124.522C79.5355 124.522 79.2359 124.452 78.9642 124.316L74.6008 121.802C74.4965 121.765 74.4062 121.697 74.3423 121.606C74.2784 121.516 74.2441 121.408 74.2441 121.297C74.2441 121.187 74.2784 121.079 74.3423 120.988C74.4062 120.898 74.4965 120.83 74.6008 120.793L79.033 118.233C79.2993 118.096 79.5935 118.022 79.893 118.017C80.1924 118.011 80.489 118.075 80.76 118.202Z" fill="#BA68C8"/>
<path opacity="0.4" d="M80.76 118.202L85.1616 120.747C85.6507 121.03 85.6507 121.511 85.1616 121.756L80.7142 124.316C80.4425 124.452 80.1429 124.522 79.8392 124.522C79.5355 124.522 79.2359 124.452 78.9642 124.316L74.6008 121.802C74.4965 121.765 74.4062 121.697 74.3423 121.606C74.2784 121.516 74.2441 121.408 74.2441 121.297C74.2441 121.187 74.2784 121.079 74.3423 120.988C74.4062 120.898 74.4965 120.83 74.6008 120.793L79.033 118.233C79.2993 118.096 79.5935 118.022 79.893 118.017C80.1924 118.011 80.489 118.075 80.76 118.202Z" fill="white"/>
<path opacity="0.1" d="M74.2339 121.397V122.512C74.2438 122.617 74.2807 122.717 74.341 122.802C74.4013 122.888 74.4829 122.957 74.5778 123.001L78.987 125.546C79.2576 125.689 79.5601 125.76 79.8658 125.752V124.522C79.5602 124.528 79.2579 124.457 78.987 124.316L74.6007 121.802C74.4327 121.716 74.3021 121.572 74.2339 121.397Z" fill="white"/>
<path d="M65.362 128.32L69.7712 130.865C70.0418 131.004 70.3418 131.077 70.6462 131.077C70.9506 131.077 71.2506 131.004 71.5211 130.865L75.9457 128.305C76.0419 128.264 76.1249 128.198 76.1856 128.113C76.2463 128.028 76.2823 127.927 76.2895 127.823V126.555C76.282 126.45 76.2459 126.349 76.1854 126.263C76.1248 126.176 76.042 126.108 75.9457 126.066L71.5441 123.521C71.2724 123.385 70.9728 123.314 70.6691 123.314C70.3654 123.314 70.0658 123.385 69.7941 123.521L65.362 126.081C65.2677 126.124 65.1864 126.192 65.1261 126.276C65.0658 126.36 65.0285 126.459 65.0181 126.562V127.831C65.0257 127.936 65.0617 128.037 65.1222 128.123C65.1828 128.209 65.2657 128.277 65.362 128.32Z" fill="#BA68C8"/>
<path opacity="0.2" d="M65.362 128.32L69.7712 130.865C70.0418 131.004 70.3418 131.077 70.6462 131.077C70.9506 131.077 71.2506 131.004 71.5211 130.865L75.9457 128.305C76.0419 128.264 76.1249 128.198 76.1856 128.113C76.2463 128.028 76.2823 127.927 76.2895 127.823V126.555C76.282 126.45 76.2459 126.349 76.1854 126.263C76.1248 126.176 76.042 126.108 75.9457 126.066L71.5441 123.521C71.2724 123.385 70.9728 123.314 70.6691 123.314C70.3654 123.314 70.0658 123.385 69.7941 123.521L65.362 126.081C65.2677 126.124 65.1864 126.192 65.1261 126.276C65.0658 126.36 65.0285 126.459 65.0181 126.562V127.831C65.0257 127.936 65.0617 128.037 65.1222 128.123C65.1828 128.209 65.2657 128.277 65.362 128.32Z" fill="white"/>
<path d="M71.5442 123.521L75.9458 126.066C76.4349 126.348 76.4349 126.83 75.9458 127.074L71.5442 129.634C71.2736 129.774 70.9736 129.847 70.6692 129.847C70.3648 129.847 70.0648 129.774 69.7942 129.634L65.385 127.09C65.2807 127.053 65.1904 126.985 65.1265 126.894C65.0626 126.804 65.0283 126.696 65.0283 126.585C65.0283 126.475 65.0626 126.367 65.1265 126.277C65.1904 126.186 65.2807 126.118 65.385 126.081L69.8172 123.521C70.0858 123.389 70.3813 123.32 70.6807 123.32C70.9801 123.32 71.2755 123.389 71.5442 123.521Z" fill="#BA68C8"/>
<path opacity="0.4" d="M71.5442 123.521L75.9458 126.066C76.4349 126.348 76.4349 126.83 75.9458 127.074L71.5442 129.634C71.2736 129.774 70.9736 129.847 70.6692 129.847C70.3648 129.847 70.0648 129.774 69.7942 129.634L65.385 127.09C65.2807 127.053 65.1904 126.985 65.1265 126.894C65.0626 126.804 65.0283 126.696 65.0283 126.585C65.0283 126.475 65.0626 126.367 65.1265 126.277C65.1904 126.186 65.2807 126.118 65.385 126.081L69.8172 123.521C70.0858 123.389 70.3813 123.32 70.6807 123.32C70.9801 123.32 71.2755 123.389 71.5442 123.521Z" fill="white"/>
<path opacity="0.1" d="M65.0181 126.723V127.831C65.0248 127.936 65.0605 128.038 65.1212 128.124C65.1819 128.21 65.2652 128.278 65.362 128.32L69.7712 130.865C70.0403 131.011 70.3438 131.082 70.65 131.071V129.841C70.3443 129.848 70.0418 129.777 69.7712 129.634L65.362 127.09C65.2116 127.007 65.0913 126.878 65.0181 126.723Z" fill="white"/>
</svg>
