<svg width="114" height="108" viewBox="0 0 114 108" fill="none" xmlns="http://www.w3.org/2000/svg">
<path d="M11.3008 59.4947L16.7031 59.3814L19.3657 59.3369C20.252 59.3167 21.1301 59.3369 22.0163 59.3126L21.8342 59.4947L21.814 54.9665L22.0163 55.1689L16.6585 55.1405C14.8699 55.1405 13.0854 55.096 11.3008 55.0758L11.4101 54.9665C11.4101 55.7071 11.3736 56.4517 11.3575 57.2043L11.3008 59.4947ZM11.3008 59.4947L11.2401 57.2529C11.2401 56.4962 11.1956 55.7354 11.1875 54.9665V54.8411H11.3008C13.0854 54.8411 14.8699 54.7804 16.6585 54.7764L22.0163 54.7521H22.2186V54.9544L22.1943 59.4826V59.6971H22.0163C21.1099 59.6971 20.2075 59.6971 19.3051 59.6768L16.61 59.6323L11.3008 59.4947Z" fill="#DCD1D1"/>
<path d="M49.1356 38.3776L55.9491 38.2347L59.3073 38.1786C60.425 38.153 61.5376 38.1786 62.6502 38.1479L62.4206 38.3776V32.6665L62.6758 32.9217L55.9184 32.886C53.6626 32.886 51.4118 32.8298 49.1611 32.8043L49.2989 32.6665C49.2989 33.6005 49.253 34.5396 49.2326 35.4889L49.1356 38.3776ZM49.1356 38.3776L49.0641 35.5501C49.0386 34.5957 49.0029 33.6362 48.9927 32.6665V32.5287H49.1356C51.3863 32.5032 53.6371 32.4522 55.8929 32.4471L62.6502 32.4164H62.9054V32.6716L62.8748 38.3827V38.6124H62.6502C61.5121 38.6124 60.3689 38.6124 59.2307 38.5868L55.8317 38.5307L49.1356 38.3776Z" fill="#DCD1D1"/>
<path d="M42.4805 30.7466H55.9951V25.0356H42.4805V30.7466Z" fill="#DCD1D1"/>
<path d="M35.8475 106.259C35.9591 106.069 36.1214 105.914 36.3161 105.812C36.5109 105.709 36.7304 105.663 36.9501 105.678H37.6869C37.9016 105.667 38.1154 105.714 38.305 105.816C38.4946 105.917 38.6529 106.069 38.7625 106.254L39.5262 107.582L43.8288 105.086L43.0651 103.763C42.9557 103.573 42.9017 103.356 42.9093 103.136C42.9169 102.917 42.9858 102.704 43.1081 102.521C43.2443 102.31 43.368 102.094 43.4792 101.876C43.579 101.677 43.7327 101.509 43.9229 101.393C44.1131 101.277 44.3321 101.217 44.5548 101.22H46.0822V96.2286H44.5548C44.3325 96.2322 44.1137 96.173 43.9234 96.0579C43.7332 95.9428 43.5792 95.7764 43.4792 95.5779C43.3683 95.3556 43.2444 95.1401 43.1081 94.9325C42.9858 94.75 42.9169 94.537 42.9093 94.3174C42.9017 94.0979 42.9557 93.8806 43.0651 93.6901L43.8288 92.3617L39.5262 89.8716L38.7571 91.2C38.6482 91.386 38.4902 91.5385 38.3006 91.6409C38.1109 91.7433 37.8968 91.7917 37.6815 91.7809C37.5578 91.7809 37.4341 91.7809 37.3104 91.7809C37.1867 91.7809 37.0684 91.7809 36.9447 91.7809C36.7253 91.7943 36.5065 91.7473 36.3121 91.6449C36.1176 91.5424 35.9551 91.3886 35.8422 91.2L35.0785 89.8716L30.7759 92.3617L31.5396 93.6847C31.649 93.8752 31.703 94.0925 31.6954 94.3121C31.6878 94.5316 31.6189 94.7446 31.4966 94.9271C31.3639 95.1386 31.2402 95.3538 31.1255 95.5725C31.0262 95.7721 30.8726 95.9396 30.6823 96.0556C30.492 96.1717 30.2728 96.2317 30.0499 96.2286H28.5225V101.22H30.0499C30.2726 101.217 30.4916 101.277 30.6818 101.393C30.872 101.509 31.0257 101.677 31.1255 101.876C31.2364 102.098 31.3603 102.313 31.4966 102.521C31.6189 102.704 31.6878 102.917 31.6954 103.136C31.703 103.356 31.649 103.573 31.5396 103.763L30.7759 105.086L35.0785 107.582L35.8475 106.259ZM33.2284 98.7295C33.2273 97.9208 33.4661 97.13 33.9146 96.4572C34.3631 95.7843 35.0011 95.2595 35.7479 94.9494C36.4947 94.6392 37.3167 94.5575 38.1099 94.7146C38.9031 94.8717 39.6319 95.2605 40.2041 95.832C40.7763 96.4034 41.1661 97.1317 41.3243 97.9247C41.4824 98.7177 41.4018 99.5398 41.0926 100.287C40.7834 101.034 40.2595 101.673 39.5872 102.122C38.9149 102.572 38.1244 102.812 37.3158 102.812C36.234 102.809 35.1974 102.378 34.4325 101.613C33.6676 100.848 33.2366 99.8112 33.2338 98.7295H33.2284Z" fill="#DCD1D1"/>
<path d="M32.4436 2.33226C26.3528 4.83438 21.503 9.65008 18.9579 15.7231C16.4129 21.7961 16.3804 28.6307 18.8676 34.7276L34.2877 72.3663L41.1686 69.5382L25.7554 31.8927C24.0108 27.6315 24.0303 22.8517 25.8098 18.6049C27.5893 14.3582 30.983 10.9922 35.2442 9.24758C39.5054 7.50294 44.2851 7.52253 48.5319 9.30202C52.7787 11.0815 56.1446 14.4751 57.8893 18.7364L64.8046 15.9014C62.3039 9.8179 57.4936 4.97372 51.4278 2.43029C45.362 -0.113134 38.5354 -0.148385 32.4436 2.33226Z" fill="#6404E0"/>
<g opacity="0.3">
<path d="M32.4432 2.33226C26.3523 4.83438 21.5025 9.65008 18.9574 15.7231C16.4124 21.7961 16.3799 28.6307 18.8671 34.7276L34.2872 72.3663L41.1682 69.5382L25.7549 31.8927C24.0103 27.6315 24.0298 22.8517 25.8093 18.6049C27.5888 14.3582 30.9825 10.9922 35.2437 9.24758C39.5049 7.50294 44.2847 7.52253 48.5314 9.30202C52.7782 11.0815 56.1442 14.4751 57.8888 18.7364L64.8041 15.9014C62.3034 9.8179 57.4931 4.97372 51.4274 2.43029C45.3616 -0.113134 38.5349 -0.148385 32.4432 2.33226Z" fill="black"/>
</g>
<path d="M77.6967 35.0371L23.1449 57.377C21.1017 58.2138 20.1236 60.5485 20.9604 62.5917L34.2074 94.9394C35.0441 96.9827 37.3788 97.9607 39.422 97.124L93.9738 74.784C96.017 73.9473 96.9951 71.6126 96.1583 69.5694L82.9113 37.2216C82.0746 35.1784 79.7399 34.2003 77.6967 35.0371Z" fill="#6404E0"/>
<g opacity="0.5">
<path d="M61.6055 58.7833C61.2145 57.8178 60.5616 56.9806 59.7204 56.3661C58.8793 55.7516 57.8833 55.3841 56.8445 55.3051C55.8058 55.2261 54.7657 55.4387 53.8412 55.919C52.9168 56.3993 52.1449 57.1281 51.6124 58.0235C51.0798 58.9188 50.8079 59.945 50.8271 60.9865C50.8464 62.0281 51.1561 63.0436 51.7213 63.9186C52.2865 64.7937 53.0849 65.4935 54.0264 65.9393C54.9679 66.3851 56.0152 66.5591 57.0503 66.4418L60.2155 74.1828L63.0436 73.0268L59.8715 65.2858C60.8297 64.539 61.5176 63.4996 61.8307 62.3258C62.1437 61.152 62.0646 59.9081 61.6055 58.7833Z" fill="black"/>
</g>
<path d="M37.4737 93.5182C37.3292 93.5801 34.5011 86.9951 31.157 78.8206C27.8128 70.646 25.205 63.9715 25.3495 63.9096C25.494 63.8477 28.322 70.4327 31.6662 78.6141C35.0103 86.7956 37.6113 93.4632 37.4737 93.5182Z" fill="#F2EDED"/>
<path d="M55.0895 69.2079C54.8379 69.2253 54.5853 69.1925 54.3464 69.1116C53.6785 68.9339 53.0408 68.6579 52.4541 68.2927C51.4583 67.7057 50.6048 66.9055 49.9548 65.9495C49.3049 64.9935 48.8747 63.9055 48.6952 62.7635C48.5156 61.6216 48.5911 60.454 48.9162 59.3447C49.2413 58.2354 49.808 57.2118 50.5756 56.3475C51.0153 55.8095 51.538 55.3449 52.1238 54.9713C52.5367 54.7167 52.8119 54.6204 52.8119 54.6479C52.1218 55.2379 51.4777 55.8796 50.8853 56.5677C50.2034 57.4115 49.706 58.389 49.4252 59.4369C49.1444 60.4849 49.0864 61.5801 49.255 62.6519C49.4235 63.7236 49.8149 64.7481 50.4039 65.6593C50.9928 66.5705 51.7663 67.348 52.6743 67.9418C53.4464 68.4239 54.2538 68.8471 55.0895 69.2079Z" fill="#F2EDED"/>
<path d="M11.1752 75.9925L11.5124 75.0154L12.1523 75.8274C12.667 76.4669 13.355 76.9447 14.134 77.2035L15.1111 77.5407L14.2992 78.1806C13.6633 78.6987 13.1863 79.3855 12.923 80.1623L12.5927 81.1601L11.9046 80.355C11.3854 79.7172 10.6958 79.24 9.91601 78.9788L8.9458 78.6417L9.75087 78.0017C10.4088 77.4827 10.9033 76.7852 11.1752 75.9925Z" fill="#6404E0"/>
<path d="M43.8313 37.6039L44.024 37.0396L44.3955 37.5075C44.6926 37.8922 45.0938 38.1836 45.5515 38.347L46.1158 38.5397L45.6479 38.9181C45.2702 39.2145 44.9859 39.6135 44.829 40.0672L44.6364 40.6315L44.2442 40.1361C43.9493 39.7583 43.5496 39.4758 43.095 39.3241L42.5239 39.1246L42.9987 38.753C43.3801 38.4571 43.669 38.0584 43.8313 37.6039Z" fill="#6404E0"/>
<path d="M4.56247 42.3861L5.1267 40.7416L6.20701 42.1178C7.0676 43.2063 8.22396 44.0234 9.53737 44.471L11.175 45.0353L9.79885 46.1156C8.71036 46.9776 7.89138 48.1333 7.43869 49.4459L6.87445 51.0836L5.80103 49.7074C4.94084 48.6169 3.78457 47.7975 2.47067 47.3473L0.833008 46.783L2.20919 45.7096C3.2938 44.8482 4.11017 43.6953 4.56247 42.3861Z" fill="#6404E0"/>
<path d="M113.169 63.6957C113.169 63.6957 110.354 86.2196 105.728 91.288C100.195 97.3671 96.1374 96.4781 93.9242 99.6136C91.6814 96.4745 87.6532 97.3671 82.12 91.2843C77.4942 86.2159 74.687 63.692 74.687 63.692C86.8601 57.7899 93.9426 51.1501 93.9426 51.1501C94.127 51.3603 101.173 57.8748 113.169 63.6957Z" fill="#37474F"/>
<path d="M93.9095 51.1574V99.6136C91.6667 96.4745 87.6385 97.3671 82.1053 91.2843C77.4795 86.2159 74.6724 63.692 74.6724 63.692C86.8454 57.7899 93.9279 51.1501 93.9279 51.1501L93.9095 51.1574Z" fill="#455A64"/>
<path d="M110.196 65.5106C110.196 65.5106 107.821 84.5375 103.925 88.8202C99.2295 93.9624 95.81 93.2062 93.9324 95.8547C92.0401 93.2062 88.6353 93.9624 83.9394 88.8202C80.0367 84.5375 77.6685 65.5106 77.6685 65.5106C87.9602 60.5122 93.9361 54.9126 93.9361 54.9126C93.9361 54.9126 99.8861 60.5122 110.196 65.5106Z" fill="#455A64"/>
<path d="M77.6416 65.5106C77.6416 65.5106 80.0172 84.5338 83.9126 88.8202C88.6011 93.9587 92.0021 93.2098 93.8982 95.851V54.9052C93.7285 55.1081 87.7748 60.5897 77.6416 65.5106Z" fill="#37474F"/>
<path d="M99.2456 80.719C102.192 77.773 102.192 72.9967 99.2456 70.0507C96.2996 67.1047 91.5233 67.1047 88.5773 70.0507C85.6313 72.9966 85.6313 77.773 88.5773 80.719C91.5233 83.6649 96.2996 83.6649 99.2456 80.719Z" fill="#6404E0"/>
<path d="M93.05 80.2843L89.6895 76.791L90.9363 75.5921L92.7881 77.5176L96.7793 71.3942L98.229 72.3386L93.05 80.2843Z" fill="#E9E1E1"/>
<path d="M74.9172 21.041C75.1769 20.882 75.4754 20.7979 75.7799 20.7979C76.0844 20.7979 76.383 20.882 76.6427 21.041L77.0871 21.2972C77.2388 21.3757 77.3904 21.4541 77.5473 21.5273C77.8233 21.6538 78.0592 21.854 78.2289 22.1058C78.3986 22.3577 78.4957 22.6514 78.5094 22.9548L78.5721 25.0777L85.4951 24.8633L85.4271 22.7404C85.4202 22.4354 85.4975 22.1344 85.6507 21.8705C85.8038 21.6067 86.0268 21.3902 86.2951 21.2449C86.5972 21.0867 86.8904 20.9121 87.1736 20.7221C87.4222 20.5466 87.7145 20.4435 88.0182 20.4241C88.3218 20.4048 88.6249 20.4699 88.8938 20.6123L90.7605 21.611L94.0338 15.5089L92.1671 14.505C91.8994 14.3608 91.677 14.1452 91.5247 13.882C91.3723 13.6189 91.2961 13.3187 91.3043 13.0148C91.3155 12.6659 91.305 12.3166 91.273 11.969C91.2393 11.6621 91.2932 11.352 91.4282 11.0745C91.5633 10.7969 91.7741 10.5632 92.0364 10.4003L93.8403 9.32842L90.1801 3.44598L88.3919 4.54927C88.1332 4.70837 87.8354 4.79261 87.5317 4.79261C87.228 4.79261 86.9303 4.70837 86.6716 4.54927C86.5304 4.46038 86.3788 4.37671 86.2324 4.29828C86.086 4.21985 85.9291 4.13619 85.7722 4.06821C85.4954 3.94127 85.259 3.74028 85.0893 3.48745C84.9195 3.23462 84.8229 2.93979 84.8101 2.63551L84.7317 0.496918L77.8087 0.711298L77.8767 2.80283C77.886 3.10828 77.8097 3.41025 77.6563 3.67454C77.5029 3.93884 77.2786 4.1549 77.0087 4.29828C76.7067 4.45659 76.4134 4.63114 76.1303 4.82116C75.8821 4.9977 75.5896 5.10151 75.2857 5.12091C74.9818 5.14031 74.6785 5.07453 74.41 4.93097L72.5433 3.93226L69.27 10.0814L71.1367 11.0853C71.4042 11.2292 71.6262 11.445 71.7777 11.7083C71.9292 11.9716 72.0042 12.2719 71.9942 12.5755C71.9876 12.9245 71.9998 13.2736 72.0308 13.6213C72.0639 13.9281 72.0097 14.238 71.8747 14.5154C71.7397 14.7928 71.5292 15.0266 71.2674 15.1899L69.4635 16.3089L73.1237 22.1914L74.9172 21.041ZM76.6479 10.1127C77.1763 9.12284 77.9865 8.31187 78.9758 7.7824C79.9652 7.25293 81.0893 7.02874 82.2061 7.13819C83.3229 7.24764 84.3821 7.68581 85.2498 8.39728C86.1176 9.10875 86.7548 10.0616 87.081 11.1352C87.4072 12.2089 87.4077 13.3552 87.0824 14.4291C86.7571 15.5031 86.1206 16.4564 85.2535 17.1686C84.3863 17.8808 83.3275 18.3198 82.2108 18.4302C81.0941 18.5406 79.9698 18.3173 78.98 17.7887C77.654 17.0789 76.6637 15.8721 76.2265 14.433C75.7893 12.9939 75.9409 11.4402 76.6479 10.1127Z" fill="#DCD1D1"/>
</svg>
