<svg width="150" height="151" viewBox="0 0 150 151" fill="none" xmlns="http://www.w3.org/2000/svg">
<path d="M27.9731 106.004L63.5215 22.7114L108.741 20.3661L73.1874 103.663L27.9731 106.004Z" fill="#BA68C8"/>
<path opacity="0.7" d="M27.9731 106.004L63.5215 22.7114L108.741 20.3661L73.1874 103.663L27.9731 106.004Z" fill="white"/>
<path d="M64.9661 24.7795L31.2856 103.691L71.7434 101.595L105.424 22.6831L64.9661 24.7795ZM71.0234 100.564L32.9317 102.514L65.6689 25.786L103.761 23.8354L71.0234 100.564Z" fill="#BA68C8"/>
<path d="M61.8531 78.8931C57.7965 79.1149 54.5708 77.7886 52.7622 75.1988C50.7779 72.3574 50.7075 68.216 52.574 63.8449C56.2269 55.2773 66.2143 47.9283 74.8616 47.5135C78.9182 47.2917 82.1439 48.618 83.9525 51.2078C85.9368 54.0492 86.0072 58.1906 84.1406 62.5618C82.2221 67.0514 78.5671 71.2015 74.2754 74.1986C70.3742 76.8865 65.9652 78.6782 61.8531 78.8931ZM53.2355 64.1407C51.473 68.2748 51.5082 72.1487 53.3382 74.7692C55.001 77.1503 58.0033 78.3496 61.7903 78.1518C70.2218 77.7416 79.9557 70.5605 83.5116 62.2159C85.2741 58.0817 85.2389 54.2079 83.4089 51.5874C81.7461 49.2062 78.7495 48.003 74.9625 48.2008C70.954 48.4072 66.6512 50.134 62.8577 52.7831C58.6566 55.7169 55.0807 59.7753 53.2128 64.1565L53.2355 64.1407Z" fill="#BA68C8"/>
<g opacity="0.5">
<path d="M61.5408 76.2728C58.4351 76.433 56.0461 75.545 54.7947 73.753C53.3718 71.7155 53.4163 68.5347 54.9146 65.0233C56.5844 61.1182 59.8799 57.2374 63.9621 54.3866C67.6536 51.8086 71.6365 50.2871 75.1752 50.1075C78.2809 49.9472 80.6699 50.8352 81.9213 52.6272C83.3399 54.6586 83.2997 57.8456 81.8014 61.3569C80.1316 65.262 76.8361 69.1429 72.7596 71.9897C69.0623 74.5716 65.0795 76.0932 61.5408 76.2728Z" fill="#BA68C8"/>
</g>
<path opacity="0.5" d="M69.2438 94.7219C68.5918 94.7922 67.9768 95.021 67.4486 95.3899C66.9204 95.7588 66.4938 96.2574 66.2033 96.8452L65.1885 99.2155L40.4355 100.57L41.6148 97.8201C41.7182 97.6522 41.7751 97.4561 41.7796 97.2511C41.7842 97.0461 41.7364 96.8394 41.641 96.6515C41.4481 96.3753 41.0614 96.2437 40.5391 96.2797L37.5526 96.4298L48.2085 71.2946L48.4434 72.427C48.7241 73.7948 49.2863 75.1061 50.0913 76.2702C52.4184 79.6026 57.897 80.862 62.2972 80.6377C67.5186 80.2205 72.4717 78.5117 76.7414 75.6542C77.9896 74.7797 79.1761 73.8199 80.2939 72.7807L81.5483 71.6218L71.8002 94.6074L69.2438 94.7219Z" fill="#BA68C8"/>
<g opacity="0.4">
<path d="M55.8861 93.4689C55.4597 93.5364 55.0147 93.4817 54.5986 93.3108C54.1825 93.1398 53.8109 92.8591 53.5237 92.4984C53.2667 92.0453 53.1244 91.5398 53.111 91.032C53.0976 90.5241 53.2136 90.0315 53.4473 89.6028C53.9464 88.542 54.6903 87.6356 55.6193 86.9567C56.5482 86.2779 57.6362 85.8455 58.7956 85.6944C59.222 85.627 59.6671 85.6816 60.0831 85.8526C60.4992 86.0235 60.8708 86.3043 61.158 86.6649C61.4134 87.1166 61.5549 87.6201 61.5686 88.126C61.5822 88.6319 61.4675 89.1227 61.2358 89.5504C60.7074 90.6875 59.8945 91.6449 58.874 92.3319C58.0076 92.9737 56.9793 93.3651 55.8861 93.4689Z" fill="white"/>
</g>
<path opacity="0.5" d="M88.2247 53.9485C87.7785 52.3194 87.0572 50.7637 86.0951 49.3552C84.158 46.5813 80.2724 45.3233 74.5508 45.6214C69.9646 45.8569 64.1328 47.9392 60.0279 50.8058C58.7778 51.6775 57.5898 52.6352 56.4711 53.6732L55.2041 54.8502L65.0136 31.9767L67.5928 31.8464C68.2421 31.7723 68.8542 31.5423 69.3809 31.1745C69.9076 30.8067 70.3344 30.3112 70.6275 29.7271L71.638 27.3506L96.2715 25.9335L95.1065 28.6918C95.0006 28.8573 94.942 29.0524 94.9367 29.2568C94.9313 29.4612 94.9794 29.6674 95.076 29.8543C95.2688 30.1305 95.6542 30.2722 96.1822 30.2322L99.1644 30.0759L88.461 55.0708L88.2247 53.9485Z" fill="#BA68C8"/>
<g opacity="0.4">
<path d="M78.3232 41.1435C77.898 41.2116 77.4539 41.1579 77.0385 40.9881C76.6232 40.8182 76.2521 40.5385 75.9651 40.1791C75.7081 39.726 75.5658 39.2205 75.5524 38.7126C75.539 38.2048 75.655 37.7121 75.8887 37.2835C76.3878 36.2226 77.1317 35.3162 78.0607 34.6374C78.9896 33.9585 80.0776 33.5261 81.237 33.375C81.6623 33.3069 82.1063 33.3606 82.5217 33.5304C82.9371 33.7003 83.3081 33.98 83.5951 34.3394C83.8522 34.7925 83.9944 35.298 84.0078 35.8059C84.0212 36.3137 83.9053 36.8064 83.6715 37.235C83.1444 38.3731 82.3313 39.3308 81.3097 40.0165C80.4447 40.6579 79.4161 41.0461 78.3232 41.1435Z" fill="white"/>
</g>
<path d="M27.9736 106.004L33.7508 114.277L78.9693 111.942L73.1879 103.663L27.9736 106.004Z" fill="#BA68C8"/>
<g opacity="0.2">
<path d="M27.9746 106.004L33.7518 114.277L78.9703 111.942L73.1889 103.663L27.9746 106.004Z" fill="white"/>
</g>
<g opacity="0.1">
<path d="M74.4773 105.51L60.3564 106.47L74.8344 106.009L74.4773 105.51Z" fill="black"/>
<path d="M30.7207 109.938L35.6229 109.902L31.0121 110.355L30.7207 109.938Z" fill="black"/>
<path d="M32.0967 111.908L56.1047 110.982L32.521 112.515L32.0967 111.908Z" fill="black"/>
<path d="M75.8588 107.476L52.2822 109.032L76.3131 108.127L75.8588 107.476Z" fill="black"/>
</g>
<path d="M78.9703 111.942L114.524 28.6448L108.743 20.3661L73.1889 103.663L78.9703 111.942Z" fill="#BA68C8"/>
<g opacity="0.2">
<path d="M78.9703 111.942L114.524 28.6448L108.743 20.3661L73.1889 103.663L78.9703 111.942Z" fill="black"/>
</g>
<g opacity="0.3">
<path d="M74.4775 105.51L76.511 101.342L74.8346 106.009L74.4775 105.51Z" fill="black"/>
</g>
<g opacity="0.3">
<path d="M75.859 107.476L85.4891 85.7688L76.3133 108.127L75.859 107.476Z" fill="black"/>
</g>
<g opacity="0.3">
<path d="M111.463 24.263L105.081 39.8496L111.802 24.7479L111.463 24.263Z" fill="black"/>
</g>
<g opacity="0.3">
<path d="M112.917 26.3434L109.333 35.347L113.238 26.8037L112.917 26.3434Z" fill="black"/>
</g>
<path d="M41.6873 70.2428L88.49 67.8239L94.0994 54.6763L47.3024 57.0913L41.6873 70.2428Z" fill="#FAFAFA"/>
<path d="M94.0985 54.6763L100.386 63.6792L94.7763 76.8268L88.4891 67.8239L94.0985 54.6763Z" fill="#E0E0E0"/>
<path d="M94.7758 76.8269L93.9355 76.8659L94.2658 76.0966L94.7758 76.8269Z" fill="#E0E0E0"/>
<path d="M41.6885 70.2429L42.6485 71.6175L43.2725 70.1592L41.6885 70.2429Z" fill="#E0E0E0"/>
<g opacity="0.3">
<path d="M93.9372 76.8659L88.1601 68.5933L88.4904 67.8239L94.2633 76.0904L93.9372 76.8659Z" fill="black"/>
</g>
<g style="mix-blend-mode:multiply" opacity="0.2">
<path d="M88.1589 68.5932L42.9446 70.9346L43.2707 70.1591L88.4892 67.8239L88.1589 68.5932Z" fill="black"/>
</g>
<path d="M42.2952 68.8227L89.0935 66.3976L89.5601 65.3048L42.7661 67.736L42.2952 68.8227Z" fill="#455A64"/>
<path d="M46.2291 59.6204L93.0232 57.1893L93.4898 56.0965L46.7014 58.5237L46.2291 59.6204Z" fill="#455A64"/>
<path d="M89.0944 66.3976L95.3815 75.4005L95.8482 74.3078L89.561 65.3048L89.0944 66.3976Z" fill="#263238"/>
<path d="M93.0241 57.1893L99.3112 66.1922L99.7835 65.0955L93.4907 56.0965L93.0241 57.1893Z" fill="#263238"/>
<path d="M123.867 51.4041L127.144 56.6897C127.286 57.0396 127.364 57.4119 127.375 57.7892L127.74 68.9769C127.721 71.107 127.227 73.206 126.294 75.1205L100.406 123.389C99.8947 124.229 99.1932 124.936 98.3581 125.454C97.523 125.972 96.5777 126.286 95.5988 126.37L45.9469 127.942C45.5959 127.99 45.2383 127.945 44.9105 127.81C44.5828 127.675 44.2967 127.456 44.0814 127.175L41.3893 122.833C41.2345 122.515 41.1661 122.161 41.1911 121.808C41.2161 121.455 41.3335 121.114 41.5317 120.821L67.4195 72.5521C68.3473 70.6393 68.8404 68.545 68.8634 66.4192L68.5043 55.2556C68.4811 54.3899 68.8007 53.5501 69.3935 52.9188C69.9863 52.2875 70.8044 51.9157 71.6698 51.8844L121.322 50.3129C121.8 50.2953 122.277 50.3841 122.717 50.5727C123.157 50.7614 123.55 51.0453 123.867 51.4041Z" fill="#263238"/>
<path d="M66.5581 74.1343L41.5483 120.791C41.3502 121.084 41.2328 121.425 41.2078 121.778C41.1828 122.131 41.2512 122.485 41.406 122.803L44.098 127.145C44.3133 127.426 44.5994 127.645 44.9272 127.78C45.2549 127.915 45.6126 127.96 45.9636 127.912L95.6154 126.34C96.6052 126.276 97.5614 125.956 98.3901 125.411L66.5581 74.1343Z" fill="#37474F"/>
<path d="M124.451 52.3481C124.593 52.698 124.671 53.0703 124.682 53.4476L124.726 54.6908L125.039 64.622C125.02 66.7521 124.526 68.851 123.592 70.7656L97.7043 119.035C97.1933 119.874 96.4919 120.581 95.6568 121.099C94.8217 121.617 93.8764 121.931 92.8974 122.015L45.1082 123.518L43.2921 123.558C42.9398 123.643 42.5696 123.615 42.2342 123.477C41.8989 123.34 41.6155 123.1 41.4245 122.792C41.2335 122.484 41.1446 122.124 41.1705 121.762C41.1965 121.4 41.3359 121.056 41.5688 120.779L67.4567 72.5098C68.3845 70.597 68.8776 68.5027 68.9006 66.3769L68.5414 55.2133C68.5183 54.3476 68.8379 53.5078 69.4307 52.8765C70.0235 52.2452 70.8416 51.8735 71.707 51.8421L121.359 50.2706C121.84 50.2584 122.318 50.3534 122.757 50.5489C123.197 50.7444 123.587 51.0354 123.901 51.4008C124.135 51.6838 124.322 52.0039 124.451 52.3481Z" fill="#455A64"/>
<path d="M73.6511 64.6839L73.5721 58.4552C73.5678 57.8746 73.7894 57.315 74.1902 56.8948C74.5909 56.4745 75.1393 56.2265 75.7195 56.2032L117.315 54.8958C117.6 54.8825 117.884 54.9266 118.151 55.0255C118.418 55.1245 118.662 55.2762 118.87 55.4717C119.077 55.6671 119.242 55.9023 119.356 56.1632C119.471 56.424 119.531 56.7053 119.534 56.99L119.613 63.2187C119.618 63.7993 119.396 64.3589 118.995 64.7792C118.594 65.1994 118.046 65.4474 117.466 65.4707L75.8701 66.7781C75.5854 66.7926 75.3007 66.7492 75.0332 66.6507C74.7657 66.5521 74.5209 66.4005 74.3135 66.2048C74.1062 66.0091 73.9406 65.7735 73.8267 65.5121C73.7129 65.2507 73.6531 64.969 73.6511 64.6839Z" fill="#BA68C8"/>
<path opacity="0.55" d="M73.6511 64.6839L73.5721 58.4552C73.5678 57.8746 73.7894 57.315 74.1902 56.8948C74.5909 56.4745 75.1393 56.2265 75.7195 56.2032L117.315 54.8958C117.6 54.8825 117.884 54.9266 118.151 55.0255C118.418 55.1245 118.662 55.2762 118.87 55.4717C119.077 55.6671 119.242 55.9023 119.356 56.1632C119.471 56.424 119.531 56.7053 119.534 56.99L119.613 63.2187C119.618 63.7993 119.396 64.3589 118.995 64.7792C118.594 65.1994 118.046 65.4474 117.466 65.4707L75.8701 66.7781C75.5854 66.7926 75.3007 66.7492 75.0332 66.6507C74.7657 66.5521 74.5209 66.4005 74.3135 66.2048C74.1062 66.0091 73.9406 65.7735 73.8267 65.5121C73.7129 65.2507 73.6531 64.969 73.6511 64.6839Z" fill="white"/>
<path d="M107.31 78.1915L112.519 78.0268C112.829 77.9984 113.128 77.8984 113.392 77.7345C113.656 77.5706 113.879 77.3475 114.042 77.0827L115.356 74.6295C115.417 74.5405 115.452 74.4366 115.458 74.3289C115.464 74.2213 115.441 74.114 115.391 74.0185L114.707 72.9149C114.644 72.8282 114.559 72.7605 114.46 72.7193C114.362 72.6781 114.254 72.665 114.148 72.6815L108.939 72.8463C108.628 72.8709 108.328 72.9695 108.063 73.1337C107.798 73.2979 107.577 73.5231 107.416 73.7903L106.103 76.2435C106.044 76.3321 106.009 76.4344 106.003 76.5404C105.996 76.6464 106.016 76.7524 106.063 76.8479L106.747 77.9515C106.811 78.0388 106.896 78.1073 106.996 78.1495C107.095 78.1918 107.204 78.2063 107.31 78.1915Z" fill="#BA68C8"/>
<path opacity="0.2" d="M107.31 78.1915L112.519 78.0268C112.829 77.9984 113.128 77.8984 113.392 77.7345C113.656 77.5706 113.879 77.3475 114.042 77.0827L115.356 74.6295C115.417 74.5405 115.452 74.4366 115.458 74.3289C115.464 74.2213 115.441 74.114 115.391 74.0185L114.707 72.9149C114.644 72.8282 114.559 72.7605 114.46 72.7193C114.362 72.6781 114.254 72.665 114.148 72.6815L108.939 72.8463C108.628 72.8709 108.328 72.9695 108.063 73.1337C107.798 73.2979 107.577 73.5231 107.416 73.7903L106.103 76.2435C106.044 76.3321 106.009 76.4344 106.003 76.5404C105.996 76.6464 106.016 76.7524 106.063 76.8479L106.747 77.9515C106.811 78.0388 106.896 78.1073 106.996 78.1495C107.095 78.1918 107.204 78.2063 107.31 78.1915Z" fill="black"/>
<path d="M108.941 72.8462L114.15 72.6815C114.261 72.6573 114.376 72.668 114.48 72.7121C114.585 72.7562 114.673 72.8316 114.733 72.9279C114.792 73.0241 114.821 73.1365 114.814 73.2496C114.807 73.3626 114.765 73.4708 114.694 73.5591L113.393 76.0322C113.23 76.297 113.007 76.5201 112.743 76.684C112.479 76.8479 112.18 76.9479 111.87 76.9763L106.661 77.141C106.551 77.1652 106.435 77.1545 106.331 77.1104C106.227 77.0663 106.138 76.9909 106.079 76.8947C106.019 76.7984 105.991 76.686 105.998 76.573C106.004 76.4599 106.046 76.3518 106.117 76.2634L107.431 73.8102C107.588 73.5409 107.806 73.3128 108.069 73.1451C108.332 72.9775 108.631 72.875 108.941 72.8462Z" fill="#BA68C8"/>
<path opacity="0.1" d="M106.146 76.9809L106.747 77.9516C106.811 78.0389 106.896 78.1073 106.996 78.1496C107.095 78.1919 107.204 78.2064 107.31 78.1916L112.519 78.0268C112.833 78.0092 113.135 77.9074 113.395 77.7323L112.732 76.6618C112.469 76.833 112.168 76.9344 111.856 76.9564L106.647 77.1212C106.469 77.133 106.292 77.0835 106.146 76.9809Z" fill="black"/>
<path d="M95.1875 78.5754L100.39 78.4148C100.701 78.3858 101.001 78.2851 101.266 78.1205C101.531 77.956 101.755 77.7322 101.919 77.4666L103.233 75.0134C103.291 74.9239 103.324 74.8205 103.329 74.7139C103.334 74.6072 103.311 74.5012 103.262 74.4066C103.233 74.36 102.602 73.3428 102.577 73.3029C102.515 73.2166 102.43 73.1484 102.332 73.1055C102.234 73.0626 102.127 73.0465 102.021 73.0588L96.8119 73.2235C96.5023 73.2519 96.2035 73.352 95.9392 73.5158C95.675 73.6797 95.4525 73.9028 95.2894 74.1676L93.9755 76.6208C93.9154 76.7087 93.88 76.8112 93.873 76.9176C93.8661 77.0239 93.8879 77.1301 93.936 77.2251L94.6245 78.3354C94.6878 78.4227 94.7736 78.4912 94.8727 78.5334C94.9719 78.5757 95.0807 78.5902 95.1875 78.5754Z" fill="#BA68C8"/>
<path opacity="0.2" d="M95.1875 78.5754L100.39 78.4148C100.701 78.3858 101.001 78.2851 101.266 78.1205C101.531 77.956 101.755 77.7322 101.919 77.4666L103.233 75.0134C103.291 74.9239 103.324 74.8205 103.329 74.7139C103.334 74.6072 103.311 74.5012 103.262 74.4066C103.233 74.36 102.602 73.3428 102.577 73.3029C102.515 73.2166 102.43 73.1484 102.332 73.1055C102.234 73.0626 102.127 73.0465 102.021 73.0588L96.8119 73.2235C96.5023 73.2519 96.2035 73.352 95.9392 73.5158C95.675 73.6797 95.4525 73.9028 95.2894 74.1676L93.9755 76.6208C93.9154 76.7087 93.88 76.8112 93.873 76.9176C93.8661 77.0239 93.8879 77.1301 93.936 77.2251L94.6245 78.3354C94.6878 78.4227 94.7736 78.4912 94.8727 78.5334C94.9719 78.5757 95.0807 78.5902 95.1875 78.5754Z" fill="black"/>
<path d="M96.8114 73.2236L102.02 73.0589C102.132 73.0317 102.25 73.0407 102.357 73.0844C102.464 73.1282 102.554 73.2045 102.615 73.3025C102.675 73.4005 102.704 73.5152 102.695 73.6303C102.687 73.7453 102.643 73.8548 102.569 73.9431L101.255 76.3963C101.091 76.6619 100.867 76.8857 100.602 77.0502C100.336 77.2148 100.036 77.3155 99.7256 77.3445L94.5232 77.5051C94.4111 77.5323 94.2933 77.5233 94.1866 77.4796C94.0799 77.4358 93.9898 77.3595 93.929 77.2615C93.8682 77.1635 93.8399 77.0487 93.8482 76.9337C93.8564 76.8187 93.9008 76.7092 93.9749 76.6209L95.2888 74.1677C95.4519 73.9029 95.6744 73.6798 95.9387 73.5159C96.2029 73.3521 96.5017 73.252 96.8114 73.2236Z" fill="#BA68C8"/>
<path opacity="0.1" d="M94.0225 77.3647L94.6202 78.3288C94.6842 78.4167 94.7705 78.4859 94.8702 78.5293C94.9699 78.5727 95.0794 78.5886 95.1874 78.5754L100.396 78.4107C100.706 78.3898 101.005 78.2898 101.266 78.1202L100.602 77.0498C100.341 77.2204 100.04 77.3183 99.7285 77.3336L94.5236 77.505C94.3455 77.5168 94.1686 77.4673 94.0225 77.3647Z" fill="black"/>
<path d="M83.0543 78.9568L88.2634 78.7921C88.574 78.7674 88.8742 78.6689 89.1391 78.5047C89.4039 78.3405 89.6257 78.1153 89.7859 77.8481L91.0998 75.3949C91.1615 75.3076 91.1979 75.2049 91.2049 75.0983C91.2118 74.9916 91.1891 74.8851 91.1393 74.7905L90.4549 73.6868C90.3918 73.6008 90.3064 73.5336 90.2079 73.4925C90.1094 73.4513 90.0016 73.4379 89.896 73.4535L84.6772 73.5875C84.3675 73.6159 84.0687 73.716 83.8045 73.8798C83.5402 74.0437 83.3177 74.2668 83.1547 74.5316L81.8341 76.9889C81.7758 77.077 81.742 77.1791 81.7362 77.2846C81.7304 77.3901 81.7529 77.4952 81.8013 77.5891L82.4897 78.6994C82.5504 78.7908 82.6354 78.8634 82.7352 78.9089C82.835 78.9544 82.9456 78.971 83.0543 78.9568Z" fill="#BA68C8"/>
<path opacity="0.2" d="M83.0543 78.9568L88.2634 78.7921C88.574 78.7674 88.8742 78.6689 89.1391 78.5047C89.4039 78.3405 89.6257 78.1153 89.7859 77.8481L91.0998 75.3949C91.1615 75.3076 91.1979 75.2049 91.2049 75.0983C91.2118 74.9916 91.1891 74.8851 91.1393 74.7905L90.4549 73.6868C90.3918 73.6008 90.3064 73.5336 90.2079 73.4925C90.1094 73.4513 90.0016 73.4379 89.896 73.4535L84.6772 73.5875C84.3675 73.6159 84.0687 73.716 83.8045 73.8798C83.5402 74.0437 83.3177 74.2668 83.1547 74.5316L81.8341 76.9889C81.7758 77.077 81.742 77.1791 81.7362 77.2846C81.7304 77.3901 81.7529 77.4952 81.8013 77.5891L82.4897 78.6994C82.5504 78.7908 82.6354 78.8634 82.7352 78.9089C82.835 78.9544 82.9456 78.971 83.0543 78.9568Z" fill="black"/>
<path d="M84.6749 73.5877L89.8772 73.427C90.4553 73.4092 90.715 73.828 90.4214 74.3046L89.1332 76.7695C88.9729 77.0368 88.7512 77.2619 88.4864 77.4261C88.2215 77.5903 87.9213 77.6889 87.6106 77.7136L82.4016 77.8783C82.291 77.9025 82.1756 77.8918 82.0713 77.8477C81.967 77.8036 81.8789 77.7282 81.8192 77.632C81.7595 77.5357 81.7312 77.4233 81.738 77.3103C81.7449 77.1972 81.7866 77.0891 81.8575 77.0007L83.1457 74.5358C83.309 74.2695 83.5323 74.045 83.7978 73.8804C84.0634 73.7157 84.3637 73.6155 84.6749 73.5877Z" fill="#BA68C8"/>
<path opacity="0.1" d="M81.8994 77.7487L82.4972 78.7127C82.5599 78.8006 82.6456 78.8696 82.7449 78.9119C82.8443 78.9543 82.9534 78.9684 83.0602 78.9527L88.2692 78.788C88.5807 78.7746 88.8827 78.6765 89.1426 78.5041L88.4747 77.4271C88.2164 77.6003 87.9161 77.7007 87.6055 77.7175L82.3965 77.8823C82.2205 77.8951 82.0453 77.848 81.8994 77.7487Z" fill="black"/>
<path d="M70.9344 79.3475L76.1435 79.1827C76.4531 79.1544 76.7519 79.0543 77.0162 78.8904C77.2804 78.7266 77.5029 78.5034 77.666 78.2387L78.9799 75.7855C79.0406 75.6964 79.076 75.5925 79.0822 75.4849C79.0885 75.3773 79.0653 75.27 79.0152 75.1745L78.3309 74.0708C78.2684 73.9841 78.1831 73.9164 78.0844 73.8752C77.9858 73.834 77.8776 73.821 77.772 73.8375L72.563 74.0022C72.2523 74.0269 71.9521 74.1255 71.6873 74.2897C71.4225 74.4539 71.2007 74.679 71.0405 74.9463L69.7265 77.3995C69.6679 77.488 69.6334 77.5904 69.6265 77.6964C69.6196 77.8024 69.6405 77.9084 69.6871 78.0038L70.3714 79.1075C70.4347 79.1948 70.5205 79.2632 70.6197 79.3055C70.7189 79.3478 70.8276 79.3623 70.9344 79.3475Z" fill="#BA68C8"/>
<path opacity="0.2" d="M70.9344 79.3475L76.1435 79.1827C76.4531 79.1544 76.7519 79.0543 77.0162 78.8904C77.2804 78.7266 77.5029 78.5034 77.666 78.2387L78.9799 75.7855C79.0406 75.6964 79.076 75.5925 79.0822 75.4849C79.0885 75.3773 79.0653 75.27 79.0152 75.1745L78.3309 74.0708C78.2684 73.9841 78.1831 73.9164 78.0844 73.8752C77.9858 73.834 77.8776 73.821 77.772 73.8375L72.563 74.0022C72.2523 74.0269 71.9521 74.1255 71.6873 74.2897C71.4225 74.4539 71.2007 74.679 71.0405 74.9463L69.7265 77.3995C69.6679 77.488 69.6334 77.5904 69.6265 77.6964C69.6196 77.8024 69.6405 77.9084 69.6871 78.0038L70.3714 79.1075C70.4347 79.1948 70.5205 79.2632 70.6197 79.3055C70.7189 79.3478 70.8276 79.3623 70.9344 79.3475Z" fill="black"/>
<path d="M72.5575 73.9955L77.7666 73.8308C77.8772 73.8066 77.9926 73.8173 78.0969 73.8614C78.2012 73.9055 78.2893 73.9809 78.349 74.0771C78.4087 74.1734 78.437 74.2858 78.4302 74.3988C78.4233 74.5119 78.3816 74.62 78.3107 74.7084L76.9968 77.1616C76.8337 77.4263 76.6113 77.6495 76.347 77.8133C76.0827 77.9772 75.7839 78.0772 75.4743 78.1056L70.2653 78.2704C70.1546 78.2946 70.0392 78.2838 69.9349 78.2397C69.8306 78.1956 69.7425 78.1202 69.6828 78.024C69.6232 77.9277 69.5948 77.8153 69.6017 77.7023C69.6085 77.5892 69.6502 77.4811 69.7211 77.3928L71.035 74.9396C71.1953 74.6723 71.417 74.4472 71.6818 74.283C71.9467 74.1187 72.2469 74.0202 72.5575 73.9955Z" fill="#BA68C8"/>
<path opacity="0.1" d="M69.7383 78.1468L70.3402 79.1175C70.4034 79.2048 70.4893 79.2732 70.5884 79.3155C70.6876 79.3577 70.7964 79.3722 70.9032 79.3574L76.1122 79.1927C76.4246 79.1714 76.7263 79.0699 76.9881 78.8981L76.3326 77.841C76.0705 78.0122 75.769 78.1136 75.4567 78.1356L70.2477 78.3003C70.0652 78.3102 69.8849 78.2559 69.7383 78.1468Z" fill="black"/>
<path d="M101.557 88.8931L106.766 88.7284C107.076 88.7 107.375 88.6 107.639 88.4361C107.903 88.2722 108.126 88.0491 108.289 87.7843L110.764 83.166C110.823 83.0782 110.857 82.9761 110.863 82.8704C110.869 82.7647 110.846 82.6595 110.797 82.5657C110.768 82.5192 110.137 81.502 110.108 81.4554C110.046 81.3703 109.962 81.3035 109.864 81.2618C109.767 81.22 109.661 81.2049 109.556 81.218L104.347 81.3827C104.037 81.4111 103.739 81.5112 103.474 81.675C103.21 81.8389 102.988 82.062 102.825 82.3268L100.349 86.9451C100.29 87.0329 100.256 87.135 100.25 87.2407C100.245 87.3464 100.267 87.4516 100.317 87.5454C100.341 87.5852 100.976 88.6091 101.001 88.649C101.064 88.7353 101.148 88.8035 101.246 88.8463C101.344 88.8892 101.451 88.9054 101.557 88.8931Z" fill="#E0E0E0"/>
<path d="M104.354 81.396L109.563 81.2313C109.674 81.2071 109.789 81.2178 109.894 81.2619C109.998 81.306 110.086 81.3814 110.146 81.4777C110.205 81.5739 110.234 81.6863 110.227 81.7993C110.22 81.9124 110.178 82.0205 110.107 82.1089L107.632 86.7272C107.469 86.992 107.247 87.2151 106.982 87.379C106.718 87.5428 106.419 87.6429 106.11 87.6713L100.901 87.836C100.79 87.8602 100.675 87.8495 100.57 87.8054C100.466 87.7613 100.378 87.6859 100.318 87.5896C100.259 87.4934 100.23 87.381 100.237 87.268C100.244 87.1549 100.286 87.0468 100.357 86.9584L102.832 82.3401C102.995 82.0753 103.217 81.8522 103.481 81.6883C103.746 81.5245 104.044 81.4244 104.354 81.396Z" fill="#FAFAFA"/>
<path d="M103.698 82.043C103.902 81.9081 104.136 81.8262 104.379 81.8049L109.588 81.6402C109.736 81.6407 109.813 81.6758 109.829 81.7024C109.846 81.729 109.847 81.8202 109.778 81.946L107.303 86.5644C107.171 86.7674 106.996 86.9389 106.79 87.0665C106.584 87.1941 106.353 87.2746 106.113 87.3023L100.899 87.4604C100.752 87.4599 100.675 87.4248 100.658 87.3982C100.642 87.3716 100.641 87.2804 100.71 87.1546L103.185 82.5362C103.311 82.3299 103.486 82.1581 103.694 82.0364M103.488 81.7039C103.222 81.8629 102.999 82.0862 102.841 82.3534L100.366 86.9717C100.295 87.0601 100.254 87.1682 100.247 87.2813C100.24 87.3943 100.268 87.5067 100.328 87.603C100.388 87.6992 100.476 87.7746 100.58 87.8187C100.684 87.8628 100.8 87.8735 100.911 87.8493L106.12 87.6846C106.429 87.6562 106.728 87.5562 106.992 87.3923C107.257 87.2284 107.479 87.0053 107.642 86.7405L110.117 82.1222C110.188 82.0339 110.23 81.9257 110.237 81.8127C110.243 81.6996 110.215 81.5872 110.155 81.491C110.096 81.3947 110.008 81.3194 109.903 81.2752C109.799 81.2311 109.684 81.2204 109.573 81.2446L104.364 81.4093C104.052 81.4324 103.751 81.5337 103.488 81.7039Z" fill="#EBEBEB"/>
<path d="M100.407 87.6916L101.009 88.6623C101.072 88.7496 101.158 88.818 101.257 88.8603C101.357 88.9026 101.465 88.9171 101.572 88.9023L106.774 88.7417C107.087 88.7196 107.388 88.6182 107.65 88.4471L106.983 87.37C106.72 87.5403 106.419 87.6416 106.107 87.6646L100.904 87.8252C100.728 87.842 100.551 87.7946 100.407 87.6916Z" fill="#EBEBEB"/>
<path d="M100.407 87.6916L100.329 87.5653C100.292 87.5023 100.269 87.4324 100.261 87.3601C100.252 87.2877 100.259 87.2144 100.28 87.1447C100.242 87.2378 100.233 87.3405 100.256 87.4385C100.279 87.5365 100.332 87.6249 100.407 87.6916Z" fill="#FAFAFA"/>
<path d="M89.4388 89.2555L94.6478 89.0907C94.9575 89.0624 95.2563 88.9623 95.5205 88.7984C95.7848 88.6346 96.0073 88.4114 96.1704 88.1467L98.6388 83.5324C98.7003 83.4437 98.7362 83.3397 98.7425 83.2319C98.7487 83.1241 98.7251 83.0167 98.6741 82.9214L97.9898 81.8178C97.9267 81.7317 97.8413 81.6645 97.7428 81.6234C97.6443 81.5823 97.5365 81.5688 97.4309 81.5844L92.2425 81.7824C91.9319 81.8071 91.6316 81.9056 91.3668 82.0699C91.102 82.2341 90.8802 82.4592 90.72 82.7265L88.2449 87.3448C88.1863 87.4334 88.1518 87.5357 88.1449 87.6417C88.138 87.7477 88.1588 87.8537 88.2054 87.9492L88.8898 89.0528C88.956 89.1311 89.0414 89.1909 89.1376 89.2264C89.2338 89.2619 89.3376 89.2719 89.4388 89.2555Z" fill="#E0E0E0"/>
<path d="M92.2423 81.7825L97.4446 81.6218C97.5564 81.5922 97.6748 81.5993 97.7823 81.642C97.8898 81.6847 97.9807 81.7609 98.0416 81.8592C98.1026 81.9575 98.1304 82.0728 98.1208 82.188C98.1113 82.3033 98.065 82.4125 97.9888 82.4995L95.5403 87.1013C95.3772 87.3661 95.1547 87.5892 94.8905 87.7531C94.6262 87.9169 94.3274 88.017 94.0178 88.0454L88.8088 88.2101C88.6981 88.2343 88.5827 88.2236 88.4784 88.1795C88.3741 88.1354 88.286 88.06 88.2263 87.9637C88.1667 87.8675 88.1383 87.7551 88.1451 87.642C88.152 87.529 88.1937 87.4208 88.2646 87.3325L90.7397 82.7142C90.8994 82.4518 91.1186 82.2307 91.3797 82.0688C91.6407 81.907 91.9362 81.8089 92.2423 81.7825Z" fill="#FAFAFA"/>
<path d="M91.5543 82.3654C91.7601 82.2331 91.9954 82.1536 92.2392 82.134L97.4416 81.9734C97.5958 81.9698 97.6728 82.0049 97.6893 82.0315C97.7058 82.0581 97.7071 82.1493 97.6312 82.2792L95.1628 86.8934C95.0348 87.1012 94.8576 87.2743 94.6469 87.3974C94.4455 87.531 94.2136 87.6115 93.9727 87.6313L88.7637 87.7961C88.6094 87.7997 88.5324 87.7646 88.5159 87.738C88.4995 87.7114 88.4981 87.6202 88.5741 87.4902L91.0425 82.876C91.1685 82.6663 91.3443 82.4909 91.5543 82.3654ZM91.3523 82.0396C91.0837 82.1999 90.8592 82.4245 90.699 82.6932L88.2306 87.3074C88.1597 87.3958 88.118 87.5039 88.1111 87.617C88.1043 87.73 88.1326 87.8424 88.1923 87.9386C88.252 88.0349 88.3401 88.1103 88.4444 88.1544C88.5487 88.1985 88.6641 88.2092 88.7747 88.185L93.9838 88.0203C94.2934 87.9987 94.5925 87.8988 94.853 87.7298C95.1316 87.5819 95.3681 87.3656 95.5402 87.1012L98.0086 82.487C98.0849 82.4 98.1312 82.2909 98.1407 82.1756C98.1502 82.0603 98.1224 81.945 98.0615 81.8467C98.0005 81.7484 97.9096 81.6723 97.8021 81.6296C97.6946 81.5869 97.5763 81.5798 97.4644 81.6094L92.2421 81.7824C91.9303 81.8064 91.6293 81.9076 91.3663 82.077L91.3523 82.0396Z" fill="#EBEBEB"/>
<path d="M88.2744 88.0448L88.8763 89.0155C88.9396 89.1028 89.0254 89.1712 89.1246 89.2135C89.2237 89.2558 89.3326 89.2703 89.4393 89.2555L94.6483 89.0908C94.9608 89.0694 95.2624 88.968 95.5242 88.7962L94.8605 87.7258C94.5984 87.8969 94.2969 87.9983 93.9846 88.0203L88.7756 88.1851C88.597 88.201 88.4188 88.1511 88.2744 88.0448Z" fill="#EBEBEB"/>
<path d="M88.2732 88.0448L88.1949 87.9185C88.1579 87.8548 88.135 87.784 88.1277 87.7107C88.1204 87.6375 88.1288 87.5635 88.1524 87.4938C88.1114 87.5865 88.101 87.6899 88.1227 87.789C88.1444 87.8881 88.1971 87.9777 88.2732 88.0448Z" fill="#FAFAFA"/>
<path d="M77.3112 89.6046L82.5135 89.4439C82.8232 89.4156 83.122 89.3155 83.3863 89.1517C83.6505 88.9878 83.873 88.7646 84.0361 88.4999L86.5112 83.8816C86.5719 83.7925 86.6073 83.6886 86.6135 83.5809C86.6197 83.4733 86.5966 83.366 86.5465 83.2705L85.8622 82.1669C85.7974 82.0827 85.7117 82.0169 85.6137 81.976C85.5157 81.9351 85.4087 81.9204 85.3032 81.9335L80.0942 82.0983C79.7836 82.123 79.4834 82.2215 79.2185 82.3857C78.9537 82.5499 78.7319 82.7751 78.5717 83.0423L76.0992 87.6499C76.039 87.7379 76.0036 87.8404 75.9967 87.9467C75.9898 88.053 76.0115 88.1592 76.0597 88.2543L76.7481 89.3646C76.8114 89.4519 76.8972 89.5203 76.9964 89.5626C77.0956 89.6049 77.2044 89.6194 77.3112 89.6046Z" fill="#E0E0E0"/>
<path d="M80.0946 82.0983L85.3036 81.9336C85.4143 81.9094 85.5297 81.9201 85.634 81.9642C85.7383 82.0084 85.8264 82.0837 85.8861 82.18C85.9457 82.2762 85.9741 82.3886 85.9673 82.5017C85.9604 82.6147 85.9187 82.7229 85.8478 82.8112L83.3727 87.4295C83.2097 87.6943 82.9872 87.9174 82.7229 88.0813C82.4586 88.2452 82.1598 88.3452 81.8502 88.3736L76.6478 88.5342C76.5358 88.5613 76.418 88.5524 76.3113 88.5087C76.2046 88.4649 76.1144 88.3886 76.0536 88.2906C75.9928 88.1926 75.9646 88.0779 75.9728 87.9628C75.9811 87.8478 76.0254 87.7383 76.0996 87.65L78.5721 83.0424C78.7323 82.7751 78.9541 82.55 79.2189 82.3858C79.4838 82.2216 79.784 82.123 80.0946 82.0983Z" fill="#FAFAFA"/>
<path d="M79.4275 82.7146C79.6311 82.5836 79.8643 82.5054 80.1058 82.4873L85.3148 82.3226C85.4624 82.3231 85.5394 82.3582 85.5558 82.3848C85.5723 82.4114 85.5696 82.496 85.5044 82.6284L83.0293 87.2467C82.9045 87.4537 82.7293 87.6256 82.52 87.7466C82.3159 87.8824 82.0797 87.9622 81.8351 87.978L76.6369 88.1453C76.4826 88.1489 76.4056 88.1138 76.3891 88.0872C76.3726 88.0606 76.3713 87.9694 76.4472 87.8394L78.9157 83.2252C79.0416 83.0155 79.2175 82.8401 79.4275 82.7146ZM79.2213 82.3822C78.953 82.5443 78.7298 82.7714 78.5722 83.0424L76.0996 87.65C76.0255 87.7383 75.9811 87.8478 75.9729 87.9628C75.9646 88.0779 75.9929 88.1926 76.0537 88.2906C76.1145 88.3886 76.2046 88.4649 76.3113 88.5087C76.418 88.5524 76.5358 88.5613 76.6479 88.5342L81.8503 88.3736C82.1623 88.3506 82.4636 88.2493 82.7262 88.079C82.9933 87.9209 83.2158 87.6974 83.3728 87.4296L85.8479 82.8112C85.9187 82.7229 85.9605 82.6147 85.9673 82.5017C85.9742 82.3886 85.9458 82.2762 85.8861 82.18C85.8264 82.0837 85.7384 82.0084 85.6341 81.9642C85.5298 81.9201 85.4143 81.9094 85.3037 81.9336L80.0947 82.0984C79.7843 82.1176 79.4838 82.2152 79.2213 82.3822Z" fill="#EBEBEB"/>
<path d="M76.1475 88.3938L76.7493 89.3645C76.8137 89.4506 76.8997 89.5181 76.9986 89.5602C77.0975 89.6024 77.2057 89.6176 77.3124 89.6045L82.5214 89.4398C82.8312 89.4189 83.1305 89.3189 83.3906 89.1493L82.7269 88.0789C82.4668 88.2485 82.1675 88.3485 81.8577 88.3694L76.6487 88.5341C76.4701 88.55 76.2918 88.5001 76.1475 88.3938Z" fill="#EBEBEB"/>
<path d="M76.1459 88.394L76.0676 88.2677C76.03 88.2031 76.0064 88.1313 75.9984 88.0569C75.9903 87.9826 75.9981 87.9074 76.021 87.8363C75.9813 87.9307 75.972 88.0352 75.9944 88.1351C76.0168 88.235 76.0697 88.3255 76.1459 88.394Z" fill="#FAFAFA"/>
<path d="M96.4246 98.5189L101.634 98.3541C101.944 98.3294 102.244 98.2309 102.509 98.0666C102.774 97.9024 102.996 97.6773 103.156 97.41L105.631 92.7917C105.69 92.7039 105.725 92.6018 105.73 92.4961C105.736 92.3904 105.713 92.2852 105.664 92.1915L104.98 91.0878C104.917 91.0015 104.832 90.9334 104.735 90.8905C104.637 90.8476 104.529 90.8314 104.423 90.8437L99.2143 91.0084C98.9046 91.0368 98.6059 91.1369 98.3416 91.3007C98.0773 91.4646 97.8549 91.6877 97.6918 91.9525L95.2167 96.5708C95.1576 96.6586 95.1233 96.7608 95.1176 96.8664C95.1118 96.9721 95.1347 97.0774 95.1839 97.1711C95.2127 97.2176 95.8435 98.2348 95.8682 98.2747C95.931 98.3611 96.0156 98.4292 96.1134 98.4721C96.2111 98.515 96.3185 98.5311 96.4246 98.5189Z" fill="#E0E0E0"/>
<path d="M99.2067 90.9952L104.416 90.8304C104.528 90.8033 104.646 90.8122 104.752 90.856C104.859 90.8997 104.949 90.9761 105.01 91.0741C105.071 91.1721 105.099 91.2868 105.091 91.4018C105.082 91.5168 105.038 91.6263 104.964 91.7147L102.485 96.3264C102.325 96.5936 102.103 96.8187 101.838 96.983C101.573 97.1472 101.273 97.2457 100.962 97.2704L95.7532 97.4352C95.6426 97.4594 95.5272 97.4487 95.4229 97.4045C95.3186 97.3604 95.2305 97.285 95.1708 97.1888C95.1112 97.0925 95.0828 96.9801 95.0896 96.8671C95.0965 96.754 95.1382 96.6459 95.2091 96.5575L97.6842 91.9392C97.8472 91.6745 98.0697 91.4513 98.334 91.2874C98.5982 91.1236 98.897 91.0235 99.2067 90.9952Z" fill="#FAFAFA"/>
<path d="M98.537 91.6222C98.7405 91.4872 98.9745 91.4054 99.2178 91.3841L104.427 91.2194C104.574 91.2199 104.651 91.255 104.668 91.2816C104.684 91.3082 104.686 91.3994 104.616 91.5252L102.141 96.1435C102.014 96.3505 101.84 96.525 101.633 96.6531C101.427 96.7812 101.193 96.8594 100.951 96.8815L95.7422 97.0462C95.5946 97.0457 95.5176 97.0106 95.5012 96.984C95.4847 96.9574 95.4875 96.8728 95.5526 96.7404L98.0277 92.122C98.1534 91.9157 98.3284 91.7439 98.537 91.6222ZM98.3308 91.2897C98.0637 91.4479 97.8412 91.6714 97.6842 91.9392L95.2091 96.5576C95.1383 96.6459 95.0965 96.754 95.0897 96.8671C95.0828 96.9801 95.1112 97.0925 95.1709 97.1888C95.2306 97.285 95.3186 97.3604 95.423 97.4045C95.5273 97.4487 95.6427 97.4594 95.7533 97.4352L100.936 97.2869C101.245 97.2586 101.544 97.1585 101.808 96.9946C102.073 96.8308 102.295 96.6076 102.458 96.3429L104.937 91.7312C105.012 91.6428 105.056 91.5333 105.064 91.4183C105.072 91.3033 105.044 91.1886 104.983 91.0906C104.923 90.9926 104.832 90.9162 104.726 90.8725C104.619 90.8287 104.501 90.8198 104.389 90.8469L99.1802 91.0117C98.8681 91.0347 98.5668 91.136 98.3043 91.3062L98.3308 91.2897Z" fill="#EBEBEB"/>
<path d="M95.2627 97.2974L95.8605 98.2614C95.9231 98.3494 96.0089 98.4183 96.1082 98.4607C96.2075 98.503 96.3167 98.5171 96.4235 98.5014L101.626 98.3408C101.939 98.3224 102.241 98.2207 102.502 98.0462L101.85 96.9958C101.588 97.166 101.287 97.2673 100.975 97.2904L95.7721 97.451C95.5896 97.4609 95.4093 97.4066 95.2627 97.2974Z" fill="#EBEBEB"/>
<path d="M95.2632 97.2974L95.1808 97.1644C95.1451 97.1011 95.1224 97.0313 95.114 96.959C95.1055 96.8868 95.1116 96.8137 95.1317 96.7438C95.0949 96.8385 95.0877 96.9422 95.1112 97.0411C95.1347 97.14 95.1877 97.2294 95.2632 97.2974Z" fill="#FAFAFA"/>
<path d="M84.2906 98.8547L89.4996 98.69C89.8093 98.6616 90.1081 98.5616 90.3723 98.3977C90.6366 98.2338 90.8591 98.0107 91.0222 97.7459L93.4906 93.1317C93.5523 93.0445 93.5887 92.9418 93.5957 92.8351C93.6026 92.7284 93.5799 92.6219 93.5301 92.5273L92.8457 91.4237C92.7825 91.3364 92.6966 91.268 92.5975 91.2257C92.4983 91.1834 92.3895 91.1689 92.2827 91.1837L87.1136 91.3237C86.8027 91.3527 86.5028 91.4534 86.2375 91.618C85.9722 91.7825 85.7486 92.0063 85.5844 92.2719L83.116 96.8861C83.0574 96.9747 83.0229 97.077 83.016 97.183C83.009 97.289 83.0299 97.395 83.0765 97.4905L83.7608 98.5941C83.8188 98.6799 83.8982 98.7491 83.9911 98.7948C84.084 98.8405 84.1873 98.8612 84.2906 98.8547Z" fill="#E0E0E0"/>
<path d="M87.113 91.3236L92.3154 91.163C92.426 91.1388 92.5414 91.1495 92.6457 91.1936C92.75 91.2378 92.8381 91.3131 92.8978 91.4094C92.9575 91.5056 92.9858 91.618 92.979 91.7311C92.9721 91.8441 92.9304 91.9523 92.8595 92.0406L90.3911 96.6548C90.228 96.9196 90.0055 97.1427 89.7413 97.3066C89.477 97.4704 89.1782 97.5705 88.8686 97.5989L83.6596 97.7636C83.5489 97.7878 83.4335 97.7771 83.3292 97.733C83.2249 97.6889 83.1368 97.6135 83.0771 97.5173C83.0175 97.421 82.9891 97.3086 82.9959 97.1956C83.0028 97.0825 83.0445 96.9744 83.1154 96.886L85.5838 92.2718C85.748 92.0063 85.9716 91.7824 86.2369 91.6179C86.5023 91.4534 86.8021 91.3526 87.113 91.3236Z" fill="#FAFAFA"/>
<path d="M86.41 91.9713C86.6139 91.8373 86.8477 91.7555 87.0908 91.7333L92.2931 91.5727C92.4474 91.5691 92.5244 91.6042 92.5409 91.6307C92.5574 91.6573 92.5587 91.7486 92.4828 91.8785L90.0143 96.4927C89.8884 96.7024 89.7126 96.8779 89.5025 97.0033C89.2993 97.1353 89.0659 97.2135 88.8243 97.2306L83.6152 97.3954C83.461 97.399 83.384 97.3639 83.3675 97.3373C83.351 97.3107 83.3497 97.2195 83.4256 97.0895L85.894 92.4753C86.022 92.2675 86.1992 92.0944 86.41 91.9713ZM86.2038 91.6389C85.9352 91.7992 85.7107 92.0238 85.5506 92.2925L83.0821 96.9067C83.0112 96.9951 82.9695 97.1032 82.9627 97.2162C82.9558 97.3293 82.9842 97.4417 83.0439 97.5379C83.1036 97.6342 83.1916 97.7096 83.2959 97.7537C83.4002 97.7978 83.5156 97.8085 83.6263 97.7843L88.8353 97.6196C89.145 97.598 89.4441 97.4981 89.7045 97.3291C89.9738 97.1696 90.1985 96.9448 90.3578 96.6755L92.8263 92.0613C92.8971 91.973 92.9389 91.8648 92.9457 91.7518C92.9526 91.6387 92.9242 91.5263 92.8645 91.4301C92.8048 91.3338 92.7168 91.2585 92.6125 91.2143C92.5082 91.1702 92.3927 91.1595 92.2821 91.1837L87.113 91.3237C86.8011 91.3477 86.5001 91.449 86.2371 91.6183L86.2038 91.6389Z" fill="#EBEBEB"/>
<path d="M83.125 97.644L83.7269 98.6147C83.7902 98.702 83.876 98.7704 83.9751 98.8127C84.0743 98.855 84.1831 98.8695 84.2899 98.8547L89.4989 98.69C89.8121 98.6723 90.1146 98.5705 90.3748 98.3954L89.7111 97.325C89.449 97.4961 89.1475 97.5975 88.8352 97.6196L83.6262 97.7843C83.4476 97.8002 83.2694 97.7503 83.125 97.644Z" fill="#EBEBEB"/>
<path d="M83.1237 97.6441L83.0454 97.5177C83.0084 97.4541 82.9855 97.3832 82.9782 97.31C82.9709 97.2367 82.9793 97.1628 83.0029 97.093C82.9631 97.186 82.9533 97.2891 82.9749 97.3879C82.9966 97.4867 83.0486 97.5763 83.1237 97.6441Z" fill="#FAFAFA"/>
<path d="M72.1627 99.2038L77.365 99.0432C77.6747 99.0148 77.9735 98.9147 78.2377 98.7509C78.502 98.587 78.7245 98.3639 78.8875 98.0991L81.3626 93.4808C81.425 93.3924 81.4614 93.2883 81.4677 93.1803C81.4739 93.0723 81.4498 92.9647 81.398 92.8698L80.7136 91.7661C80.6483 91.6825 80.5626 91.6171 80.4647 91.5763C80.3668 91.5354 80.2601 91.5204 80.1547 91.5328L74.9457 91.6975C74.6361 91.7259 74.3373 91.8259 74.073 91.9898C73.8088 92.1537 73.5863 92.3768 73.4232 92.6416L70.9548 97.2558C70.893 97.343 70.8567 97.4457 70.8497 97.5524C70.8427 97.6591 70.8654 97.7656 70.9153 97.8602L71.5996 98.9638C71.6629 99.0511 71.7487 99.1196 71.8479 99.1618C71.9471 99.2041 72.0559 99.2186 72.1627 99.2038Z" fill="#E0E0E0"/>
<path d="M74.9461 91.6975L80.1551 91.5328C80.2658 91.5086 80.3812 91.5193 80.4855 91.5634C80.5898 91.6075 80.6779 91.6829 80.7376 91.7791C80.7972 91.8754 80.8256 91.9878 80.8188 92.1008C80.8119 92.2139 80.7702 92.322 80.6993 92.4104L78.2242 97.0287C78.0612 97.2935 77.8387 97.5166 77.5744 97.6805C77.3101 97.8443 77.0113 97.9444 76.7017 97.9728L71.4994 98.1334C70.9213 98.1512 70.6616 97.7324 70.9552 97.2558L73.4236 92.6416C73.5867 92.3768 73.8092 92.1537 74.0734 91.9898C74.3377 91.8259 74.6365 91.7259 74.9461 91.6975Z" fill="#FAFAFA"/>
<path d="M74.2811 92.3204C74.483 92.1877 74.7146 92.1073 74.9553 92.0865L80.1643 91.9218C80.3119 91.9223 80.3889 91.9574 80.4054 91.984C80.4219 92.0106 80.4232 92.1018 80.3539 92.2276L77.8789 96.8459C77.754 97.0529 77.5788 97.2248 77.3696 97.3458C77.1656 97.4799 76.9318 97.5616 76.6888 97.5839L71.4797 97.7486C71.3321 97.7481 71.2552 97.713 71.2387 97.6864C71.2222 97.6598 71.2208 97.5685 71.2901 97.4428L73.7652 92.8244C73.8924 92.616 74.0698 92.4427 74.2811 92.3204ZM74.075 91.988C73.8058 92.1475 73.5811 92.3723 73.4217 92.6416L70.9533 97.2558C70.6762 97.759 70.9194 98.1513 71.4975 98.1334L76.6998 97.9728C77.0119 97.9498 77.3131 97.8485 77.5757 97.6782C77.8428 97.5201 78.0653 97.2966 78.2223 97.0287L80.6974 92.4104C80.7683 92.3221 80.81 92.2139 80.8169 92.1009C80.8237 91.9878 80.7953 91.8754 80.7357 91.7792C80.676 91.6829 80.5879 91.6075 80.4836 91.5634C80.3793 91.5193 80.2639 91.5086 80.1533 91.5328L74.9442 91.6975C74.6346 91.7191 74.3354 91.819 74.075 91.988Z" fill="#EBEBEB"/>
<path d="M70.998 97.9931L71.5999 98.9638C71.6632 99.0511 71.749 99.1196 71.8482 99.1619C71.9474 99.2041 72.0562 99.2186 72.163 99.2038L77.372 99.0391C77.682 99.0193 77.9815 98.9192 78.2412 98.7486L77.5775 97.6782C77.3174 97.8478 77.0181 97.9478 76.7082 97.9687L71.4993 98.1334C71.3207 98.1493 71.1424 98.0994 70.998 97.9931Z" fill="#EBEBEB"/>
<path d="M70.9978 97.9931L70.9195 97.8668C70.8825 97.8031 70.8597 97.7323 70.8523 97.659C70.845 97.5858 70.8534 97.5118 70.8771 97.4421C70.836 97.5348 70.8256 97.6382 70.8473 97.7373C70.869 97.8364 70.9217 97.926 70.9978 97.9931Z" fill="#FAFAFA"/>
<path d="M91.2673 108.105L96.4764 107.94C96.787 107.915 97.0872 107.817 97.3521 107.652C97.6169 107.488 97.8386 107.263 97.9989 106.996L100.478 102.384C100.536 102.295 100.57 102.191 100.575 102.085C100.58 101.978 100.556 101.872 100.507 101.777L99.8225 100.674C99.7597 100.587 99.675 100.519 99.5773 100.476C99.4795 100.433 99.3721 100.417 99.2661 100.429L94.0571 100.594C93.7474 100.623 93.4486 100.723 93.1844 100.887C92.9201 101.05 92.6976 101.274 92.5346 101.538L90.0594 106.157C90.0011 106.245 89.9674 106.347 89.9616 106.452C89.9558 106.558 89.9783 106.663 90.0266 106.757C90.0555 106.803 90.6862 107.821 90.7151 107.867C90.7788 107.951 90.8632 108.017 90.96 108.059C91.0567 108.1 91.1626 108.116 91.2673 108.105Z" fill="#E0E0E0"/>
<path d="M94.0582 100.594L99.2673 100.43C99.3794 100.402 99.4971 100.411 99.6038 100.455C99.7105 100.499 99.8007 100.575 99.8615 100.673C99.9223 100.771 99.9505 100.886 99.9423 101.001C99.934 101.116 99.8897 101.225 99.8156 101.314L97.3363 105.925C97.1761 106.193 96.9544 106.418 96.6895 106.582C96.4247 106.746 96.1245 106.845 95.8138 106.87L90.6048 107.034C90.4942 107.058 90.3788 107.048 90.2745 107.004C90.1702 106.96 90.0821 106.884 90.0224 106.788C89.9627 106.692 89.9344 106.579 89.9412 106.466C89.9481 106.353 89.9898 106.245 90.0606 106.157L92.5357 101.538C92.6988 101.274 92.9213 101.05 93.1856 100.887C93.4498 100.723 93.7486 100.623 94.0582 100.594Z" fill="#FAFAFA"/>
<path d="M93.3886 101.221C93.5927 101.086 93.8289 101.006 94.0735 100.99L99.2825 100.825C99.426 100.819 99.5071 100.861 99.5236 100.887C99.5401 100.914 99.5373 100.999 99.468 101.124L96.9929 105.743C96.8655 105.95 96.6916 106.124 96.485 106.252C96.2785 106.38 96.0449 106.459 95.8028 106.481L90.5938 106.645C90.4503 106.651 90.3692 106.61 90.3527 106.583C90.3362 106.557 90.339 106.472 90.4042 106.34L92.8834 101.728C93.0039 101.517 93.1783 101.342 93.3886 101.221ZM93.1824 100.889C92.9153 101.047 92.6928 101.271 92.5358 101.538L90.0607 106.157C89.9898 106.245 89.9481 106.353 89.9413 106.466C89.9344 106.579 89.9628 106.692 90.0225 106.788C90.0821 106.884 90.1702 106.96 90.2745 107.004C90.3788 107.048 90.4942 107.059 90.6049 107.034L95.8139 106.87C96.1249 106.846 96.4256 106.748 96.6906 106.584C96.9557 106.419 97.1772 106.194 97.3364 105.926L99.8156 101.314C99.8898 101.225 99.9341 101.116 99.9424 101.001C99.9506 100.886 99.9223 100.771 99.8616 100.673C99.8008 100.575 99.7106 100.499 99.6039 100.455C99.4972 100.411 99.3794 100.402 99.2673 100.43L94.0583 100.594C93.7462 100.617 93.445 100.719 93.1824 100.889Z" fill="#EBEBEB"/>
<path d="M90.1143 106.897L90.712 107.861C90.7742 107.948 90.8588 108.016 90.9567 108.059C91.0546 108.102 91.1623 108.118 91.2684 108.105L96.4774 107.94C96.7912 107.924 97.095 107.825 97.3574 107.652L96.6896 106.575C96.4287 106.749 96.1265 106.85 95.8137 106.87L90.6047 107.034C90.4304 107.044 90.2578 106.996 90.1143 106.897Z" fill="#EBEBEB"/>
<path d="M90.1138 106.897L90.0314 106.764C89.9939 106.701 89.9702 106.631 89.9617 106.558C89.9533 106.486 89.9603 106.413 89.9823 106.343C89.9454 106.438 89.9383 106.541 89.9618 106.64C89.9853 106.739 90.0383 106.828 90.1138 106.897Z" fill="#FAFAFA"/>
<path d="M79.1421 108.454L84.3512 108.289C84.6618 108.264 84.962 108.166 85.2269 108.002C85.4917 107.837 85.7135 107.612 85.8737 107.345L88.3463 102.737C88.407 102.648 88.4424 102.544 88.4486 102.437C88.4548 102.329 88.4317 102.222 88.3816 102.126L87.6973 101.023C87.634 100.935 87.5482 100.867 87.449 100.825C87.3498 100.782 87.241 100.768 87.1342 100.783L81.9252 100.948C81.6156 100.976 81.3168 101.076 81.0525 101.24C80.7882 101.404 80.5658 101.627 80.4027 101.892L77.9342 106.506C77.8756 106.594 77.8412 106.697 77.8342 106.803C77.8273 106.909 77.8482 107.015 77.8948 107.11L78.5791 108.214C78.6418 108.302 78.7275 108.371 78.8269 108.413C78.9262 108.455 79.0353 108.47 79.1421 108.454Z" fill="#E0E0E0"/>
<path d="M81.9314 100.943L87.1337 100.783C87.2458 100.756 87.3636 100.765 87.4703 100.808C87.577 100.852 87.6672 100.928 87.7279 101.026C87.7887 101.124 87.817 101.239 87.8087 101.354C87.8005 101.469 87.7561 101.579 87.682 101.667L85.2094 106.275C85.0492 106.542 84.8275 106.767 84.5626 106.931C84.2978 107.095 83.9976 107.194 83.6869 107.219L78.4779 107.383C78.3673 107.408 78.2519 107.397 78.1475 107.353C78.0432 107.309 77.9552 107.233 77.8955 107.137C77.8358 107.041 77.8074 106.928 77.8143 106.815C77.8211 106.702 77.8629 106.594 77.9337 106.506L80.4022 101.892C80.5664 101.626 80.7899 101.402 81.0553 101.238C81.3206 101.073 81.6205 100.972 81.9314 100.943Z" fill="#FAFAFA"/>
<path d="M81.2615 101.57C81.4656 101.435 81.7018 101.355 81.9465 101.339L87.1447 101.172C87.299 101.168 87.376 101.203 87.3924 101.23C87.4089 101.256 87.4103 101.348 87.3343 101.478L84.8659 106.092C84.7399 106.301 84.5641 106.477 84.3541 106.602C84.1509 106.734 83.9175 106.813 83.6758 106.83L78.4668 106.994C78.3125 106.998 78.2356 106.963 78.2191 106.936C78.2026 106.91 78.2054 106.825 78.2772 106.689L80.7456 102.074C80.8736 101.867 81.0508 101.693 81.2615 101.57ZM81.0554 101.238C80.7868 101.398 80.5623 101.623 80.4021 101.892L77.9337 106.506C77.8628 106.594 77.8211 106.702 77.8142 106.815C77.8074 106.928 77.8358 107.041 77.8954 107.137C77.9551 107.233 78.0432 107.309 78.1475 107.353C78.2518 107.397 78.3672 107.408 78.4778 107.383L83.6869 107.219C83.9973 107.199 84.2978 107.102 84.5602 106.935C84.8285 106.773 85.0518 106.546 85.2094 106.275L87.6819 101.667C87.7561 101.579 87.8004 101.469 87.8087 101.354C87.8169 101.239 87.7887 101.124 87.7279 101.026C87.6671 100.928 87.577 100.852 87.4702 100.808C87.3635 100.765 87.2457 100.756 87.1337 100.783L81.9313 100.943C81.6194 100.967 81.3184 101.069 81.0554 101.238Z" fill="#EBEBEB"/>
<path d="M77.9795 107.25L78.5773 108.214C78.6399 108.302 78.7256 108.371 78.825 108.413C78.9243 108.455 79.0334 108.469 79.1403 108.454L84.3493 108.289C84.6632 108.274 84.9673 108.175 85.2293 108.001L84.5615 106.924C84.3009 107.099 83.9986 107.2 83.6856 107.219L78.4766 107.383C78.3005 107.396 78.1254 107.349 77.9795 107.25Z" fill="#EBEBEB"/>
<path d="M77.9809 107.25L77.8984 107.117C77.8624 107.053 77.8401 106.982 77.8328 106.909C77.8255 106.836 77.8334 106.762 77.856 106.692C77.8163 106.787 77.807 106.891 77.8294 106.991C77.8517 107.091 77.9047 107.181 77.9809 107.25Z" fill="#FAFAFA"/>
<path d="M67.0142 108.803L72.2166 108.642C72.5272 108.618 72.8275 108.519 73.0923 108.355C73.3571 108.191 73.5789 107.966 73.7391 107.698L76.2142 103.08C76.2759 102.993 76.3123 102.89 76.3193 102.783C76.3262 102.677 76.3035 102.57 76.2537 102.476L75.5693 101.372C75.5034 101.288 75.4172 101.221 75.3187 101.179C75.2203 101.137 75.1128 101.121 75.0063 101.132L69.7973 101.297C69.4876 101.325 69.1889 101.425 68.9246 101.589C68.6603 101.753 68.4378 101.976 68.2748 102.241L65.8063 106.855C65.7446 106.942 65.7082 107.045 65.7013 107.152C65.6943 107.258 65.717 107.365 65.7669 107.459L66.4512 108.563C66.5145 108.65 66.6003 108.719 66.6995 108.761C66.7986 108.803 66.9074 108.818 67.0142 108.803Z" fill="#E0E0E0"/>
<path d="M69.7977 101.297L75.0067 101.132C75.1173 101.108 75.2327 101.118 75.337 101.162C75.4413 101.207 75.5294 101.282 75.5891 101.378C75.6488 101.474 75.6771 101.587 75.6703 101.7C75.6635 101.813 75.6217 101.921 75.5509 102.009L73.0758 106.628C72.9155 106.895 72.6938 107.12 72.429 107.284C72.1641 107.449 71.8639 107.547 71.5532 107.572L66.3509 107.732C66.2391 107.762 66.1207 107.755 66.0132 107.712C65.9057 107.67 65.8148 107.593 65.7538 107.495C65.6929 107.397 65.6651 107.282 65.6746 107.166C65.6842 107.051 65.7305 106.942 65.8067 106.855L68.2751 102.241C68.4382 101.976 68.6607 101.753 68.925 101.589C69.1892 101.425 69.488 101.325 69.7977 101.297Z" fill="#FAFAFA"/>
<path d="M69.1346 101.919C69.3364 101.787 69.5681 101.706 69.8088 101.686L75.0178 101.521C75.1654 101.521 75.2424 101.556 75.2589 101.583C75.2754 101.61 75.2767 101.701 75.2074 101.827L72.7323 106.445C72.6095 106.654 72.4357 106.828 72.2272 106.951C72.0214 107.084 71.7861 107.163 71.5422 107.183L66.3332 107.348C66.1856 107.347 66.1086 107.312 66.0922 107.285C66.0757 107.259 66.0785 107.174 66.1436 107.042L68.6187 102.423C68.7459 102.215 68.9233 102.042 69.1346 101.919ZM68.9285 101.587C68.6593 101.747 68.4346 101.971 68.2752 102.241L65.8068 106.855C65.7305 106.942 65.6842 107.051 65.6747 107.166C65.6652 107.282 65.693 107.397 65.7539 107.495C65.8149 107.593 65.9058 107.67 66.0133 107.712C66.1208 107.755 66.2391 107.762 66.351 107.732L71.5533 107.572C71.8654 107.549 72.1666 107.448 72.4292 107.277C72.6963 107.119 72.9188 106.896 73.0758 106.628L75.5509 102.009C75.6218 101.921 75.6635 101.813 75.6704 101.7C75.6772 101.587 75.6488 101.474 75.5892 101.378C75.5295 101.282 75.4414 101.207 75.3371 101.162C75.2328 101.118 75.1174 101.108 75.0067 101.132L69.7977 101.297C69.488 101.318 69.1889 101.418 68.9285 101.587Z" fill="#EBEBEB"/>
<path d="M65.8535 107.599L66.4513 108.563C66.514 108.651 66.5997 108.72 66.699 108.762C66.7984 108.805 66.9075 108.819 67.0143 108.803L72.2233 108.638C72.5341 108.622 72.8346 108.522 73.0926 108.348L72.4288 107.277C72.1687 107.447 71.8694 107.547 71.5596 107.568L66.3506 107.733C66.1746 107.745 65.9994 107.698 65.8535 107.599Z" fill="#EBEBEB"/>
<path d="M65.853 107.599L65.7705 107.466C65.7345 107.402 65.7121 107.331 65.7048 107.258C65.6975 107.185 65.7054 107.111 65.7281 107.041C65.6884 107.136 65.679 107.24 65.7014 107.34C65.7238 107.44 65.7768 107.53 65.853 107.599Z" fill="#FAFAFA"/>
<path d="M86.1204 117.704L91.3295 117.539C91.6401 117.514 91.9403 117.416 92.2052 117.252C92.47 117.088 92.6918 116.862 92.852 116.595L95.3312 111.983C95.3893 111.894 95.4226 111.791 95.4277 111.684C95.4327 111.577 95.4093 111.471 95.3599 111.377L94.6756 110.273C94.6108 110.194 94.5268 110.134 94.4317 110.098C94.3366 110.061 94.2337 110.051 94.1331 110.066L88.9241 110.231C88.6135 110.256 88.3133 110.354 88.0484 110.518C87.7836 110.683 87.5618 110.908 87.4016 111.175L84.9224 115.787C84.8645 115.875 84.8304 115.978 84.8235 116.084C84.8166 116.189 84.8371 116.295 84.8829 116.391L85.5714 117.501C85.6386 117.578 85.7241 117.637 85.82 117.673C85.916 117.708 86.0193 117.719 86.1204 117.704Z" fill="#E0E0E0"/>
<path d="M88.9124 110.2L94.1313 110.066C94.2419 110.042 94.3574 110.053 94.4617 110.097C94.566 110.141 94.654 110.216 94.7137 110.313C94.7734 110.409 94.8018 110.521 94.7949 110.634C94.7881 110.747 94.7463 110.855 94.6755 110.944L92.1963 115.555C92.0361 115.823 91.8143 116.048 91.5494 116.212C91.2846 116.376 90.9844 116.475 90.6737 116.499L85.4647 116.664C85.3541 116.688 85.2387 116.678 85.1344 116.634C85.0301 116.589 84.942 116.514 84.8823 116.418C84.8226 116.322 84.7943 116.209 84.8011 116.096C84.808 115.983 84.8497 115.875 84.9206 115.787L87.3998 111.175C87.5555 110.903 87.7741 110.673 88.0373 110.503C88.3006 110.334 88.6007 110.23 88.9124 110.2Z" fill="#FAFAFA"/>
<path d="M88.2392 110.82C88.445 110.688 88.6803 110.609 88.9241 110.589L94.1332 110.424C94.2767 110.418 94.3578 110.46 94.3743 110.487C94.3907 110.513 94.388 110.598 94.3228 110.73L91.8436 115.342C91.7162 115.549 91.5423 115.723 91.3357 115.851C91.1291 115.979 90.8956 116.058 90.6535 116.08L85.4445 116.244C85.301 116.251 85.2199 116.209 85.2034 116.182C85.1869 116.156 85.1897 116.071 85.2548 115.939L87.7341 111.327C87.8577 111.119 88.0313 110.945 88.2392 110.82ZM88.0331 110.488C87.7644 110.646 87.5426 110.872 87.3906 111.144L84.9114 115.756C84.8405 115.844 84.7987 115.952 84.7919 116.065C84.7851 116.178 84.8134 116.291 84.8731 116.387C84.9328 116.483 85.0209 116.559 85.1252 116.603C85.2295 116.647 85.3449 116.658 85.4555 116.633L90.6646 116.469C90.9755 116.445 91.2763 116.347 91.5413 116.183C91.8063 116.019 92.0278 115.793 92.1871 115.525L94.6663 110.913C94.7372 110.825 94.7789 110.716 94.7857 110.603C94.7926 110.49 94.7642 110.378 94.7045 110.282C94.6448 110.185 94.5568 110.11 94.4525 110.066C94.3482 110.022 94.2328 110.011 94.1221 110.035L88.9131 110.2C88.5995 110.217 88.296 110.316 88.0331 110.488Z" fill="#EBEBEB"/>
<path d="M84.9648 116.496L85.5626 117.46C85.6261 117.547 85.7112 117.616 85.8095 117.66C85.9078 117.704 86.0159 117.721 86.1231 117.71L91.328 117.539C91.6418 117.523 91.9456 117.424 92.208 117.251L91.5443 116.181C91.2814 116.352 90.9779 116.452 90.6643 116.469L85.4553 116.633C85.281 116.643 85.1084 116.595 84.9648 116.496Z" fill="#EBEBEB"/>
<path d="M84.9654 116.496L84.8871 116.369C84.8484 116.306 84.8238 116.235 84.8146 116.162C84.8054 116.088 84.812 116.013 84.8339 115.942C84.797 116.037 84.7899 116.141 84.8134 116.239C84.8368 116.338 84.8899 116.428 84.9654 116.496Z" fill="#FAFAFA"/>
<path d="M73.9936 118.053L79.2026 117.888C79.5132 117.864 79.8135 117.765 80.0783 117.601C80.3431 117.437 80.5649 117.211 80.7251 116.944L83.1977 112.337C83.2584 112.248 83.2938 112.144 83.3 112.036C83.3062 111.928 83.2831 111.821 83.233 111.726L82.5487 110.622C82.4854 110.535 82.3996 110.466 82.3004 110.424C82.2012 110.382 82.0924 110.367 81.9857 110.382L76.7808 110.553C76.4701 110.578 76.1699 110.677 75.905 110.841C75.6402 111.005 75.4185 111.23 75.2582 111.497L72.7857 116.105C72.7278 116.194 72.6937 116.296 72.6868 116.402C72.6799 116.508 72.7004 116.614 72.7462 116.709L73.4347 117.82C73.4972 117.906 73.5825 117.974 73.6812 118.015C73.7798 118.056 73.8879 118.069 73.9936 118.053Z" fill="#E0E0E0"/>
<path d="M76.7792 110.553L81.9841 110.382C82.0962 110.355 82.214 110.364 82.3207 110.408C82.4274 110.451 82.5176 110.528 82.5783 110.626C82.6391 110.724 82.6674 110.838 82.6591 110.953C82.6509 111.068 82.6065 111.178 82.5324 111.266L80.0598 115.874C79.8996 116.141 79.6779 116.366 79.413 116.53C79.1482 116.695 78.848 116.793 78.5373 116.818L73.3283 116.983C73.2177 117.007 73.1023 116.996 72.998 116.952C72.8937 116.908 72.8056 116.832 72.7459 116.736C72.6862 116.64 72.6579 116.528 72.6647 116.415C72.6716 116.301 72.7133 116.193 72.7841 116.105L75.2567 111.497C75.4169 111.23 75.6387 111.005 75.9035 110.841C76.1683 110.677 76.4686 110.578 76.7792 110.553Z" fill="#FAFAFA"/>
<path d="M76.1124 111.17C76.3182 111.037 76.5535 110.958 76.7974 110.938L81.9997 110.778C82.1499 110.767 82.231 110.809 82.2475 110.836C82.264 110.862 82.2612 110.947 82.1894 111.083L79.7168 115.691C79.5908 115.901 79.415 116.076 79.205 116.202C79.0018 116.334 78.7684 116.412 78.5267 116.429L73.3244 116.59C73.1742 116.6 73.0931 116.558 73.0766 116.531C73.0601 116.505 73.0629 116.42 73.1347 116.284L75.6073 111.676C75.7333 111.466 75.9091 111.291 76.1191 111.166M75.913 110.833C75.6427 110.993 75.4189 111.22 75.2638 111.493L72.7912 116.101C72.7204 116.189 72.6786 116.297 72.6718 116.41C72.6649 116.523 72.6933 116.636 72.753 116.732C72.8127 116.828 72.9007 116.904 73.0051 116.948C73.1094 116.992 73.2248 117.003 73.3354 116.979L78.5444 116.814C78.8556 116.798 79.1571 116.7 79.4178 116.53C79.6885 116.371 79.9124 116.143 80.0669 115.87L82.5395 111.262C82.6137 111.174 82.658 111.064 82.6662 110.949C82.6745 110.834 82.6462 110.72 82.5854 110.622C82.5247 110.524 82.4345 110.447 82.3278 110.403C82.2211 110.36 82.1033 110.351 81.9912 110.378L76.7863 110.549C76.4751 110.565 76.1737 110.663 75.913 110.833Z" fill="#EBEBEB"/>
<path d="M72.8232 116.836L73.421 117.8C73.4837 117.888 73.5694 117.956 73.6687 117.999C73.7681 118.041 73.8772 118.055 73.984 118.04L79.1931 117.875C79.507 117.86 79.811 117.76 80.0731 117.587L79.4135 116.523C79.1529 116.698 78.8505 116.799 78.5376 116.818L73.3285 116.982C73.1482 116.993 72.9697 116.941 72.8232 116.836Z" fill="#EBEBEB"/>
<path d="M72.8227 116.836L72.7402 116.703C72.7042 116.639 72.6819 116.568 72.6746 116.495C72.6672 116.422 72.6752 116.348 72.6978 116.278C72.6581 116.372 72.6488 116.477 72.6712 116.577C72.6935 116.677 72.7465 116.767 72.8227 116.836Z" fill="#FAFAFA"/>
<path d="M61.8647 118.402L67.0671 118.241C67.3777 118.217 67.6779 118.118 67.9428 117.954C68.2076 117.79 68.4294 117.565 68.5896 117.297L71.0688 112.686C71.1272 112.596 71.1612 112.492 71.1674 112.385C71.1736 112.278 71.1518 112.171 71.1041 112.075L70.4157 110.964C70.3497 110.88 70.2635 110.814 70.1651 110.772C70.0666 110.73 69.9591 110.714 69.8526 110.724L64.6313 110.869C64.3216 110.898 64.0228 110.998 63.7586 111.161C63.4943 111.325 63.2718 111.548 63.1088 111.813L60.6403 116.427C60.5786 116.515 60.5422 116.617 60.5352 116.724C60.5283 116.831 60.551 116.937 60.6008 117.032L61.2852 118.135C61.3458 118.231 61.4327 118.307 61.5356 118.354C61.6384 118.402 61.7527 118.418 61.8647 118.402Z" fill="#37474F"/>
<path d="M64.6317 110.869L69.8406 110.705C69.9527 110.677 70.0705 110.686 70.1772 110.73C70.2839 110.774 70.3741 110.85 70.4349 110.948C70.4957 111.046 70.5239 111.161 70.5157 111.276C70.5074 111.391 70.4631 111.5 70.389 111.589L67.9097 116.2C67.7495 116.468 67.5278 116.693 67.2629 116.857C66.9981 117.021 66.6979 117.12 66.3872 117.145L61.1849 117.305C61.073 117.335 60.9547 117.328 60.8472 117.285C60.7397 117.242 60.6488 117.166 60.5878 117.068C60.5269 116.97 60.4991 116.854 60.5086 116.739C60.5181 116.624 60.5644 116.515 60.6407 116.428L63.1091 111.813C63.2722 111.549 63.4947 111.325 63.759 111.162C64.0232 110.998 64.322 110.898 64.6317 110.869Z" fill="#455A64"/>
<g opacity="0.3">
<path d="M69.8573 110.731C68.1153 110.891 66.2329 110.898 64.5036 111.004C64.1431 111.089 63.8096 111.263 63.5334 111.51C63.2572 111.756 63.0471 112.068 62.9222 112.417L62.1909 113.791C61.7076 114.689 61.2027 115.582 60.683 116.466C61.1483 115.564 61.6181 114.659 62.0923 113.751L62.8037 112.389C62.9271 112.007 63.1499 111.664 63.4494 111.396C63.7489 111.127 64.1143 110.944 64.5082 110.863C66.2955 110.776 68.1323 110.77 69.8994 110.769L69.8573 110.731Z" fill="white"/>
</g>
<path d="M60.7041 117.198L61.3019 118.162C61.3645 118.25 61.4503 118.319 61.5496 118.361C61.6489 118.404 61.758 118.418 61.8649 118.402L67.0739 118.237C67.3854 118.224 67.6874 118.126 67.9473 117.954L67.2794 116.876C67.0211 117.05 66.7208 117.15 66.4102 117.167L61.2011 117.332C61.0251 117.344 60.85 117.297 60.7041 117.198Z" fill="#263238"/>
<path d="M65.1784 89.9579L70.3874 89.7932C70.697 89.7648 70.9958 89.6647 71.2601 89.5009C71.5243 89.337 71.7468 89.1139 71.9099 88.8491L74.385 84.2308C74.4431 84.1412 74.4764 84.0378 74.4814 83.9312C74.4865 83.8246 74.4631 83.7185 74.4137 83.6239L73.7293 82.5202C73.6673 82.4345 73.5832 82.3672 73.4859 82.3254C73.3887 82.2836 73.282 82.2689 73.1771 82.2828L67.9681 82.4475C67.6574 82.4722 67.3572 82.5707 67.0924 82.7349C66.8275 82.8992 66.6058 83.1243 66.4456 83.3915L63.9663 88.0032C63.9084 88.0921 63.8744 88.1944 63.8675 88.3003C63.8606 88.4061 63.881 88.5119 63.9269 88.6076L64.6112 89.7113C64.6768 89.7974 64.7634 89.8653 64.8626 89.9085C64.9619 89.9517 65.0706 89.9687 65.1784 89.9579Z" fill="#BA68C8"/>
<path opacity="0.2" d="M65.1784 89.9579L70.3874 89.7932C70.697 89.7648 70.9958 89.6647 71.2601 89.5009C71.5243 89.337 71.7468 89.1139 71.9099 88.8491L74.385 84.2308C74.4431 84.1412 74.4764 84.0378 74.4814 83.9312C74.4865 83.8246 74.4631 83.7185 74.4137 83.6239L73.7293 82.5202C73.6673 82.4345 73.5832 82.3672 73.4859 82.3254C73.3887 82.2836 73.282 82.2689 73.1771 82.2828L67.9681 82.4475C67.6574 82.4722 67.3572 82.5707 67.0924 82.7349C66.8275 82.8992 66.6058 83.1243 66.4456 83.3915L63.9663 88.0032C63.9084 88.0921 63.8744 88.1944 63.8675 88.3003C63.8606 88.4061 63.881 88.5119 63.9269 88.6076L64.6112 89.7113C64.6768 89.7974 64.7634 89.8653 64.8626 89.9085C64.9619 89.9517 65.0706 89.9687 65.1784 89.9579Z" fill="white"/>
<path d="M67.9681 82.4474L73.2104 82.2621C73.321 82.2379 73.4364 82.2486 73.5407 82.2927C73.645 82.3368 73.7331 82.4122 73.7928 82.5085C73.8524 82.6047 73.8808 82.7171 73.874 82.8302C73.8671 82.9432 73.8254 83.0513 73.7545 83.1397L71.2794 87.758C71.1164 88.0228 70.8939 88.2459 70.6296 88.4098C70.3653 88.5736 70.0666 88.6737 69.7569 88.7021L64.4982 88.8608C64.3861 88.888 64.2683 88.879 64.1616 88.8353C64.0549 88.7915 63.9647 88.7152 63.9039 88.6172C63.8432 88.5192 63.8149 88.4045 63.8231 88.2894C63.8314 88.1744 63.8757 88.0649 63.9499 87.9766L66.4291 83.3649C66.594 83.1004 66.8196 82.8791 67.0873 82.7196C67.3551 82.56 67.657 82.4667 67.9681 82.4474Z" fill="#BA68C8"/>
<path opacity="0.4" d="M67.9681 82.4474L73.2104 82.2621C73.321 82.2379 73.4364 82.2486 73.5407 82.2927C73.645 82.3368 73.7331 82.4122 73.7928 82.5085C73.8524 82.6047 73.8808 82.7171 73.874 82.8302C73.8671 82.9432 73.8254 83.0513 73.7545 83.1397L71.2794 87.758C71.1164 88.0228 70.8939 88.2459 70.6296 88.4098C70.3653 88.5736 70.0666 88.6737 69.7569 88.7021L64.4982 88.8608C64.3861 88.888 64.2683 88.879 64.1616 88.8353C64.0549 88.7915 63.9647 88.7152 63.9039 88.6172C63.8432 88.5192 63.8149 88.4045 63.8231 88.2894C63.8314 88.1744 63.8757 88.0649 63.9499 87.9766L66.4291 83.3649C66.594 83.1004 66.8196 82.8791 67.0873 82.7196C67.3551 82.56 67.657 82.4667 67.9681 82.4474Z" fill="white"/>
<path opacity="0.1" d="M64.0127 88.7472L64.6105 89.7112C64.6755 89.7979 64.762 89.8663 64.8614 89.9095C64.9608 89.9527 65.0698 89.9694 65.1776 89.9579L70.3866 89.7932C70.6989 89.7711 71.0004 89.6697 71.2625 89.4986L70.5988 88.4281C70.3359 88.5999 70.0323 88.6992 69.7188 88.7161L64.4974 88.8609C64.3278 88.8768 64.1576 88.8368 64.0127 88.7472Z" fill="white"/>
<path d="M60.0085 99.5694L65.2175 99.4047C65.5271 99.3763 65.8259 99.2762 66.0902 99.1124C66.3544 98.9485 66.5769 98.7254 66.74 98.4606L69.2084 93.8464C69.27 93.7577 69.3059 93.6537 69.3121 93.5459C69.3183 93.4381 69.2947 93.3306 69.2438 93.2354L68.5594 92.1317C68.4963 92.0457 68.4109 91.9785 68.3124 91.9374C68.2139 91.8963 68.1061 91.8828 68.0005 91.8984L62.7982 92.059C62.4875 92.0837 62.1873 92.1822 61.9225 92.3465C61.6576 92.5107 61.4359 92.7358 61.2756 93.0031L58.8006 97.6214C58.7419 97.71 58.7075 97.8124 58.7006 97.9184C58.6936 98.0244 58.7145 98.1303 58.7611 98.2258L59.4578 99.3494C59.5247 99.4282 59.6098 99.4894 59.7058 99.5278C59.8018 99.5661 59.9057 99.5804 60.0085 99.5694Z" fill="#BA68C8"/>
<path opacity="0.2" d="M60.0085 99.5694L65.2175 99.4047C65.5271 99.3763 65.8259 99.2762 66.0902 99.1124C66.3544 98.9485 66.5769 98.7254 66.74 98.4606L69.2084 93.8464C69.27 93.7577 69.3059 93.6537 69.3121 93.5459C69.3183 93.4381 69.2947 93.3306 69.2438 93.2354L68.5594 92.1317C68.4963 92.0457 68.4109 91.9785 68.3124 91.9374C68.2139 91.8963 68.1061 91.8828 68.0005 91.8984L62.7982 92.059C62.4875 92.0837 62.1873 92.1822 61.9225 92.3465C61.6576 92.5107 61.4359 92.7358 61.2756 93.0031L58.8006 97.6214C58.7419 97.71 58.7075 97.8124 58.7006 97.9184C58.6936 98.0244 58.7145 98.1303 58.7611 98.2258L59.4578 99.3494C59.5247 99.4282 59.6098 99.4894 59.7058 99.5278C59.8018 99.5661 59.9057 99.5804 60.0085 99.5694Z" fill="white"/>
<path d="M62.8188 92.0466L68.0212 91.8859C68.133 91.8563 68.2513 91.8634 68.3588 91.9061C68.4663 91.9488 68.5572 92.025 68.6182 92.1233C68.6791 92.2216 68.7069 92.3368 68.6974 92.4521C68.6879 92.5674 68.6416 92.6766 68.5653 92.7636L66.0969 97.3778C65.9338 97.6425 65.7113 97.8657 65.4471 98.0295C65.1828 98.1934 64.884 98.2935 64.5743 98.3218L59.3454 98.4989C59.2348 98.5231 59.1193 98.5124 59.015 98.4683C58.9107 98.4242 58.8227 98.3488 58.763 98.2526C58.7033 98.1563 58.6749 98.0439 58.6818 97.9309C58.6886 97.8178 58.7304 97.7097 58.8012 97.6213L61.2763 93.003C61.437 92.7308 61.6613 92.5016 61.9299 92.335C62.1985 92.1685 62.5035 92.0695 62.8188 92.0466Z" fill="#BA68C8"/>
<path opacity="0.4" d="M62.8188 92.0466L68.0212 91.8859C68.133 91.8563 68.2513 91.8634 68.3588 91.9061C68.4663 91.9488 68.5572 92.025 68.6182 92.1233C68.6791 92.2216 68.7069 92.3368 68.6974 92.4521C68.6879 92.5674 68.6416 92.6766 68.5653 92.7636L66.0969 97.3778C65.9338 97.6425 65.7113 97.8657 65.4471 98.0295C65.1828 98.1934 64.884 98.2935 64.5743 98.3218L59.3454 98.4989C59.2348 98.5231 59.1193 98.5124 59.015 98.4683C58.9107 98.4242 58.8227 98.3488 58.763 98.2526C58.7033 98.1563 58.6749 98.0439 58.6818 97.9309C58.6886 97.8178 58.7304 97.7097 58.8012 97.6213L61.2763 93.003C61.437 92.7308 61.6613 92.5016 61.9299 92.335C62.1985 92.1685 62.5035 92.0695 62.8188 92.0466Z" fill="white"/>
<path opacity="0.1" d="M58.8633 98.3464L59.4775 99.337C59.543 99.4218 59.6291 99.4885 59.7277 99.5305C59.8263 99.5725 59.934 99.5885 60.0406 99.577L65.2496 99.4122C65.5619 99.3902 65.8634 99.2888 66.1255 99.1176L65.4494 98.0273C65.1868 98.1975 64.8856 98.2988 64.5735 98.3219L59.3445 98.499C59.1717 98.5027 59.0024 98.449 58.8633 98.3464Z" fill="white"/>
<path d="M54.9 109.144L60.109 108.979C60.4186 108.951 60.7174 108.851 60.9817 108.687C61.246 108.523 61.4684 108.3 61.6315 108.035L64.1 103.421C64.1617 103.333 64.1981 103.231 64.205 103.124C64.212 103.017 64.1893 102.911 64.1394 102.816L63.451 101.706C63.3878 101.62 63.3024 101.553 63.2039 101.512C63.1055 101.471 62.9976 101.457 62.8921 101.473L57.6897 101.633C57.3801 101.662 57.0813 101.762 56.817 101.926C56.5527 102.09 56.3302 102.313 56.1672 102.577L53.6921 107.196C53.6335 107.284 53.599 107.387 53.5921 107.493C53.5852 107.599 53.606 107.705 53.6526 107.8L54.337 108.904C54.4002 108.991 54.486 109.06 54.5852 109.102C54.6844 109.144 54.7932 109.159 54.9 109.144Z" fill="#BA68C8"/>
<path opacity="0.2" d="M54.9 109.144L60.109 108.979C60.4186 108.951 60.7174 108.851 60.9817 108.687C61.246 108.523 61.4684 108.3 61.6315 108.035L64.1 103.421C64.1617 103.333 64.1981 103.231 64.205 103.124C64.212 103.017 64.1893 102.911 64.1394 102.816L63.451 101.706C63.3878 101.62 63.3024 101.553 63.2039 101.512C63.1055 101.471 62.9976 101.457 62.8921 101.473L57.6897 101.633C57.3801 101.662 57.0813 101.762 56.817 101.926C56.5527 102.09 56.3302 102.313 56.1672 102.577L53.6921 107.196C53.6335 107.284 53.599 107.387 53.5921 107.493C53.5852 107.599 53.606 107.705 53.6526 107.8L54.337 108.904C54.4002 108.991 54.486 109.06 54.5852 109.102C54.6844 109.144 54.7932 109.159 54.9 109.144Z" fill="white"/>
<path d="M57.6698 101.646L62.8721 101.485C63.4502 101.467 63.7099 101.886 63.4163 102.363L60.9279 106.989C60.7648 107.254 60.5424 107.477 60.2781 107.641C60.0138 107.805 59.715 107.905 59.4054 107.933L54.2528 108.1C54.1421 108.124 54.0267 108.113 53.9224 108.069C53.8181 108.025 53.73 107.95 53.6703 107.854C53.6107 107.757 53.5823 107.645 53.5891 107.532C53.596 107.419 53.6377 107.311 53.7086 107.222L56.1837 102.604C56.3415 102.341 56.5576 102.118 56.8152 101.952C57.0729 101.786 57.3652 101.681 57.6698 101.646Z" fill="#BA68C8"/>
<path opacity="0.4" d="M57.6698 101.646L62.8721 101.485C63.4502 101.467 63.7099 101.886 63.4163 102.363L60.9279 106.989C60.7648 107.254 60.5424 107.477 60.2781 107.641C60.0138 107.805 59.715 107.905 59.4054 107.933L54.2528 108.1C54.1421 108.124 54.0267 108.113 53.9224 108.069C53.8181 108.025 53.73 107.95 53.6703 107.854C53.6107 107.757 53.5823 107.645 53.5891 107.532C53.596 107.419 53.6377 107.311 53.7086 107.222L56.1837 102.604C56.3415 102.341 56.5576 102.118 56.8152 101.952C57.0729 101.786 57.3652 101.681 57.6698 101.646Z" fill="white"/>
<path opacity="0.1" d="M53.7158 107.946L54.3177 108.916C54.3826 109.002 54.4687 109.069 54.5674 109.111C54.6662 109.153 54.7741 109.169 54.8807 109.156L60.0897 108.991C60.402 108.969 60.7035 108.868 60.9657 108.697L60.3019 107.626C60.0394 107.797 59.7381 107.898 59.426 107.921L54.2535 108.1C54.0613 108.117 53.8699 108.062 53.7158 107.946Z" fill="white"/>
<path d="M49.731 118.755L54.94 118.591C55.2507 118.566 55.5509 118.467 55.8158 118.303C56.0806 118.139 56.3023 117.914 56.4626 117.646L58.931 113.032C58.9928 112.945 59.0291 112.842 59.0361 112.736C59.0431 112.629 59.0203 112.522 58.9705 112.428L58.2861 111.324C58.2229 111.237 58.137 111.169 58.0379 111.126C57.9387 111.084 57.8299 111.069 57.7231 111.084L52.5207 111.245C52.2111 111.273 51.9123 111.373 51.6481 111.537C51.3838 111.701 51.1613 111.924 50.9982 112.189L48.5231 116.807C48.4645 116.896 48.43 116.998 48.4231 117.104C48.4162 117.21 48.4371 117.316 48.4837 117.412L49.168 118.515C49.2313 118.603 49.3171 118.671 49.4163 118.713C49.5154 118.756 49.6242 118.77 49.731 118.755Z" fill="#BA68C8"/>
<path opacity="0.2" d="M49.731 118.755L54.94 118.591C55.2507 118.566 55.5509 118.467 55.8158 118.303C56.0806 118.139 56.3023 117.914 56.4626 117.646L58.931 113.032C58.9928 112.945 59.0291 112.842 59.0361 112.736C59.0431 112.629 59.0203 112.522 58.9705 112.428L58.2861 111.324C58.2229 111.237 58.137 111.169 58.0379 111.126C57.9387 111.084 57.8299 111.069 57.7231 111.084L52.5207 111.245C52.2111 111.273 51.9123 111.373 51.6481 111.537C51.3838 111.701 51.1613 111.924 50.9982 112.189L48.5231 116.807C48.4645 116.896 48.43 116.998 48.4231 117.104C48.4162 117.21 48.4371 117.316 48.4837 117.412L49.168 118.515C49.2313 118.603 49.3171 118.671 49.4163 118.713C49.5154 118.756 49.6242 118.77 49.731 118.755Z" fill="white"/>
<path d="M52.5216 111.245L57.7239 111.084C58.302 111.066 58.5617 111.485 58.2681 111.962L55.8196 116.564C55.6594 116.831 55.4376 117.056 55.1728 117.22C54.908 117.384 54.6077 117.483 54.2971 117.508L49.0881 117.672C48.9774 117.697 48.862 117.686 48.7577 117.642C48.6534 117.598 48.5653 117.522 48.5057 117.426C48.446 117.33 48.4176 117.217 48.4244 117.104C48.4313 116.991 48.473 116.883 48.5439 116.795L51.019 112.177C51.1814 111.917 51.4014 111.697 51.6619 111.536C51.9224 111.374 52.2165 111.275 52.5216 111.245Z" fill="#BA68C8"/>
<path opacity="0.4" d="M52.5216 111.245L57.7239 111.084C58.302 111.066 58.5617 111.485 58.2681 111.962L55.8196 116.564C55.6594 116.831 55.4376 117.056 55.1728 117.22C54.908 117.384 54.6077 117.483 54.2971 117.508L49.0881 117.672C48.9774 117.697 48.862 117.686 48.7577 117.642C48.6534 117.598 48.5653 117.522 48.5057 117.426C48.446 117.33 48.4176 117.217 48.4244 117.104C48.4313 116.991 48.473 116.883 48.5439 116.795L51.019 112.177C51.1814 111.917 51.4014 111.697 51.6619 111.536C51.9224 111.374 52.2165 111.275 52.5216 111.245Z" fill="white"/>
<path opacity="0.1" d="M48.5703 117.551L49.1681 118.515C49.2308 118.603 49.3165 118.672 49.4158 118.715C49.5152 118.757 49.6243 118.771 49.7311 118.755L54.9401 118.591C55.2532 118.573 55.5558 118.471 55.816 118.296L55.1523 117.226C54.8902 117.397 54.5887 117.498 54.2764 117.52L49.0674 117.685C48.8918 117.694 48.7179 117.647 48.5703 117.551Z" fill="white"/>
<path d="M88.1758 10.9916H96.362L94.7861 9.80462C95.98 13.6931 97.1738 17.5815 98.3676 21.4699C100.271 27.6096 102.171 33.7833 104.067 39.9912C104.497 41.4136 104.937 42.8359 105.377 44.2685C105.481 44.6074 105.689 44.9048 105.972 45.118C106.255 45.3312 106.599 45.4494 106.953 45.4555L130.161 45.3839H133.476C133.884 45.3514 134.265 45.1665 134.542 44.8659C134.82 44.5653 134.974 44.1712 134.974 43.762C134.974 43.3528 134.82 42.9586 134.542 42.658C134.265 42.3574 133.884 42.1725 133.476 42.1401L110.279 42.2117H106.953L108.529 43.3987C107.335 39.5103 106.141 35.6218 104.947 31.7334C103.044 25.5528 101.147 19.379 99.2578 13.2121L97.9378 8.93482C97.8356 8.59509 97.6276 8.29683 97.3442 8.08336C97.0608 7.8699 96.7168 7.75236 96.362 7.74783H88.1758C87.7679 7.78026 87.3872 7.96519 87.1096 8.26578C86.8319 8.56637 86.6777 8.96052 86.6777 9.36971C86.6777 9.7789 86.8319 10.1731 87.1096 10.4736C87.3872 10.7742 87.7679 10.9592 88.1758 10.9916Z" fill="white"/>
<path d="M138.623 15.1052C137.095 21.8793 135.567 28.6499 134.039 35.4172C133.824 36.3893 133.599 37.3614 133.384 38.3335L134.571 37.4433L124.635 37.3409L108.702 37.1874H105.06L106.247 38.0777C104.118 31.3718 101.986 24.6694 99.8511 17.9704L98.9506 15.1359L97.7636 16.6708H139.81C140.112 16.643 140.393 16.5032 140.598 16.2789C140.803 16.0546 140.916 15.7619 140.916 15.4582C140.916 15.1546 140.803 14.8619 140.598 14.6376C140.393 14.4132 140.112 14.2735 139.81 14.2457H97.7636C97.5772 14.2475 97.3937 14.2917 97.227 14.375C97.0603 14.4583 96.9147 14.5785 96.8013 14.7264C96.6879 14.8743 96.6096 15.0461 96.5725 15.2287C96.5353 15.4114 96.5403 15.6001 96.5869 15.7806L102.972 35.8879C103.279 36.8293 103.576 37.7809 103.873 38.7223C103.951 38.9774 104.108 39.201 104.321 39.361C104.534 39.521 104.793 39.6091 105.06 39.6126L114.996 39.7047L130.928 39.8684H134.571C134.837 39.8676 135.096 39.7803 135.308 39.6198C135.52 39.4592 135.674 39.234 135.748 38.9782C137.276 32.2041 138.804 25.4334 140.332 18.6662C140.557 17.6941 140.772 16.722 140.987 15.7499C141.386 14.2661 138.971 13.5805 138.623 15.1052Z" fill="white"/>
<path d="M106.134 16.1386C107.423 23.5472 109.061 30.8943 110.36 38.2926C110.626 39.8275 112.99 39.1828 112.724 37.6479C111.435 30.2496 109.787 22.9025 108.498 15.494C108.232 13.9591 105.868 14.614 106.134 16.1386Z" fill="white"/>
<path d="M119.088 15.8214C119.211 23.4141 119.354 31.0068 119.477 38.5995C119.477 38.9252 119.606 39.2375 119.836 39.4678C120.067 39.6981 120.379 39.8275 120.705 39.8275C121.03 39.8275 121.343 39.6981 121.573 39.4678C121.803 39.2375 121.933 38.9252 121.933 38.5995C121.81 31.0068 121.667 23.4141 121.544 15.8214C121.544 15.4958 121.414 15.1834 121.184 14.9532C120.954 14.7229 120.641 14.5935 120.316 14.5935C119.99 14.5935 119.678 14.7229 119.448 14.9532C119.217 15.1834 119.088 15.4958 119.088 15.8214Z" fill="white"/>
<path d="M131.06 38.8759C132.091 32.1291 133.114 25.3857 134.13 18.6457C134.284 17.6839 134.427 16.7118 134.581 15.7499C134.657 15.4381 134.61 15.109 134.45 14.8308C134.29 14.5526 134.029 14.3467 133.721 14.2559C133.409 14.1736 133.077 14.2163 132.796 14.3749C132.515 14.5335 132.307 14.7956 132.217 15.1052C131.173 21.852 130.133 28.5954 129.096 35.3353C128.953 36.3586 128.799 37.2693 128.656 38.2312C128.595 38.5363 128.652 38.8531 128.815 39.1178C128.979 39.3825 129.237 39.5752 129.537 39.6571C129.837 39.7389 130.157 39.7038 130.432 39.5588C130.707 39.4138 130.917 39.1697 131.02 38.8759H131.06Z" fill="white"/>
<path d="M100.456 23.7417H137.57C137.872 23.7138 138.153 23.5741 138.358 23.3497C138.563 23.1254 138.676 22.8327 138.676 22.5291C138.676 22.2254 138.563 21.9327 138.358 21.7084C138.153 21.4841 137.872 21.3443 137.57 21.3165H100.456C100.153 21.3443 99.8723 21.4841 99.6677 21.7084C99.4631 21.9327 99.3496 22.2254 99.3496 22.5291C99.3496 22.8327 99.4631 23.1254 99.6677 23.3497C99.8723 23.5741 100.153 23.7138 100.456 23.7417Z" fill="white"/>
<path d="M103.925 32.2654H136.076C136.378 32.2376 136.659 32.0979 136.864 31.8735C137.069 31.6492 137.182 31.3565 137.182 31.0529C137.182 30.7492 137.069 30.4565 136.864 30.2322C136.659 30.0079 136.378 29.8681 136.076 29.8403H103.925C103.622 29.8681 103.341 30.0079 103.136 30.2322C102.932 30.4565 102.818 30.7492 102.818 31.0529C102.818 31.3565 102.932 31.6492 103.136 31.8735C103.341 32.0979 103.622 32.2376 103.925 32.2654Z" fill="white"/>
<path d="M133.436 56.0976C135.849 56.0976 137.805 54.1642 137.805 51.7794C137.805 49.3945 135.849 47.4611 133.436 47.4611C131.023 47.4611 129.066 49.3945 129.066 51.7794C129.066 54.1642 131.023 56.0976 133.436 56.0976Z" fill="white"/>
<path d="M109.43 56.0976C111.843 56.0976 113.799 54.1642 113.799 51.7794C113.799 49.3945 111.843 47.4611 109.43 47.4611C107.017 47.4611 105.061 49.3945 105.061 51.7794C105.061 54.1642 107.017 56.0976 109.43 56.0976Z" fill="white"/>
</svg>
