<svg width="136" height="20" viewBox="0 0 136 20" fill="none" xmlns="http://www.w3.org/2000/svg">
<g clip-path="url(#clip0_1543_4875)">
<path d="M15.3125 0H4.6875C2.09867 0 0 2.09867 0 4.6875V15.3125C0 17.9013 2.09867 20 4.6875 20H15.3125C17.9013 20 20 17.9013 20 15.3125V4.6875C20 2.09867 17.9013 0 15.3125 0Z" fill="url(#paint0_radial_1543_4875)"/>
<path d="M15.3125 0H4.6875C2.09867 0 0 2.09867 0 4.6875V15.3125C0 17.9013 2.09867 20 4.6875 20H15.3125C17.9013 20 20 17.9013 20 15.3125V4.6875C20 2.09867 17.9013 0 15.3125 0Z" fill="url(#paint1_radial_1543_4875)"/>
<path d="M10.0007 2.1875C7.87898 2.1875 7.61266 2.1968 6.77938 2.23469C5.94766 2.27281 5.37992 2.40445 4.8832 2.59766C4.3693 2.79719 3.93344 3.06414 3.49922 3.49852C3.06461 3.93281 2.79766 4.36867 2.5975 4.88234C2.40375 5.37922 2.27195 5.94719 2.23453 6.77852C2.19727 7.61187 2.1875 7.87828 2.1875 10.0001C2.1875 12.1219 2.19688 12.3873 2.23469 13.2206C2.27297 14.0523 2.40461 14.6201 2.59766 15.1168C2.79734 15.6307 3.0643 16.0666 3.49867 16.5008C3.93281 16.9354 4.36867 17.203 4.88219 17.4025C5.3793 17.5957 5.94711 17.7273 6.77867 17.7655C7.61203 17.8034 7.87813 17.8127 9.99977 17.8127C12.1217 17.8127 12.3872 17.8034 13.2205 17.7655C14.0522 17.7273 14.6205 17.5957 15.1177 17.4025C15.6313 17.203 16.0666 16.9354 16.5006 16.5008C16.9352 16.0666 17.2021 15.6307 17.4023 15.117C17.5944 14.6201 17.7262 14.0522 17.7653 13.2208C17.8027 12.3875 17.8125 12.1219 17.8125 10.0001C17.8125 7.87828 17.8027 7.61203 17.7653 6.77867C17.7262 5.94695 17.5944 5.3793 17.4023 4.88258C17.2021 4.36867 16.9352 3.93281 16.5006 3.49852C16.0661 3.06398 15.6315 2.79703 15.1172 2.59773C14.6191 2.40445 14.0511 2.27273 13.2194 2.23469C12.386 2.1968 12.1207 2.1875 9.99828 2.1875H10.0007ZM9.29984 3.59539C9.50789 3.59508 9.74 3.59539 10.0007 3.59539C12.0867 3.59539 12.3339 3.60289 13.1577 3.64031C13.9194 3.67516 14.3328 3.80242 14.6082 3.90938C14.9728 4.05094 15.2327 4.22023 15.506 4.49375C15.7795 4.76719 15.9487 5.02758 16.0906 5.39219C16.1976 5.66719 16.325 6.08063 16.3597 6.84234C16.3971 7.66594 16.4052 7.91328 16.4052 9.99828C16.4052 12.0833 16.3971 12.3307 16.3597 13.1542C16.3248 13.9159 16.1976 14.3294 16.0906 14.6045C15.9491 14.9691 15.7795 15.2287 15.506 15.502C15.2326 15.7754 14.973 15.9446 14.6082 16.0863C14.3331 16.1937 13.9194 16.3206 13.1577 16.3555C12.3341 16.3929 12.0867 16.401 10.0007 16.401C7.91461 16.401 7.66734 16.3929 6.84383 16.3555C6.08211 16.3203 5.66867 16.193 5.39305 16.0861C5.02852 15.9445 4.76805 15.7752 4.49461 15.5018C4.22117 15.2284 4.05195 14.9686 3.91 14.6038C3.80305 14.3288 3.67563 13.9153 3.64094 13.1536C3.60352 12.33 3.59602 12.0827 3.59602 9.99633C3.59602 7.91 3.60352 7.66398 3.64094 6.84039C3.67578 6.07867 3.80305 5.66523 3.91 5.38984C4.05164 5.02523 4.22117 4.76484 4.49469 4.49141C4.7682 4.21797 5.02852 4.04867 5.39312 3.9068C5.66852 3.79937 6.08211 3.67242 6.84383 3.63742C7.56453 3.60484 7.84383 3.59508 9.29984 3.59344V3.59539ZM14.171 4.89258C13.6534 4.89258 13.2335 5.31211 13.2335 5.82977C13.2335 6.34734 13.6534 6.76727 14.171 6.76727C14.6886 6.76727 15.1085 6.34734 15.1085 5.82977C15.1085 5.31219 14.6886 4.89227 14.171 4.89227V4.89258ZM10.0007 5.98797C7.78508 5.98797 5.98867 7.78438 5.98867 10.0001C5.98867 12.2158 7.78508 14.0113 10.0007 14.0113C12.2164 14.0113 14.0122 12.2158 14.0122 10.0001C14.0122 7.78445 12.2163 5.98797 10.0005 5.98797H10.0007ZM10.0007 7.39586C11.4389 7.39586 12.6049 8.56172 12.6049 10.0001C12.6049 11.4383 11.4389 12.6043 10.0007 12.6043C8.5625 12.6043 7.39656 11.4383 7.39656 10.0001C7.39656 8.56172 8.56242 7.39586 10.0007 7.39586Z" fill="white"/>
</g>
<g clip-path="url(#clip1_1543_4875)">
<mask id="mask0_1543_4875" style="mask-type:luminance" maskUnits="userSpaceOnUse" x="40" y="2" width="16" height="16">
<path d="M40 2H56V18H40V2Z" fill="white"/>
</mask>
<g mask="url(#mask0_1543_4875)">
<path d="M52.6 2.74976H55.0537L49.6937 8.89147L56 17.2503H51.0629L47.1931 12.1818L42.7703 17.2503H40.3143L46.0469 10.6789L40 2.7509H45.0629L48.5554 7.3829L52.6 2.74976ZM51.7371 15.7783H53.0971L44.32 4.14518H42.8617L51.7371 15.7783Z" fill="black"/>
</g>
</g>
<g clip-path="url(#clip2_1543_4875)">
<path d="M96 10C96 4.47719 91.5228 0 86 0C80.4772 0 76 4.47719 76 10C76 14.9913 79.6569 19.1284 84.4375 19.8785V12.8906H81.8984V10H84.4375V7.79688C84.4375 5.29063 85.9305 3.90625 88.2147 3.90625C89.3088 3.90625 90.4531 4.10156 90.4531 4.10156V6.5625H89.1922C87.9499 6.5625 87.5625 7.33336 87.5625 8.12422V10H90.3359L89.8926 12.8906H87.5625V19.8785C92.3431 19.1284 96 14.9913 96 10Z" fill="#1877F2"/>
<path d="M89.8926 12.8906L90.3359 10H87.5625V8.12422C87.5625 7.33328 87.9499 6.5625 89.1922 6.5625H90.4531V4.10156C90.4531 4.10156 89.3088 3.90625 88.2146 3.90625C85.9305 3.90625 84.4375 5.29063 84.4375 7.79688V10H81.8984V12.8906H84.4375V19.8785C84.9544 19.9595 85.4768 20.0001 86 20C86.5232 20.0001 87.0456 19.9595 87.5625 19.8785V12.8906H89.8926Z" fill="white"/>
</g>
<g clip-path="url(#clip3_1543_4875)">
<path d="M116.424 9.88041C116.423 11.5608 116.862 13.2016 117.697 14.6478L116.344 19.589L121.4 18.2631C122.799 19.0245 124.366 19.4235 125.959 19.4236H125.963C131.22 19.4236 135.499 15.1458 135.501 9.88793C135.502 7.3401 134.511 4.94428 132.71 3.1418C130.909 1.33948 128.514 0.346378 125.962 0.345215C120.705 0.345215 116.426 4.62273 116.424 9.88041" fill="url(#paint2_linear_1543_4875)"/>
<path d="M116.083 9.87721C116.082 11.6181 116.537 13.3175 117.402 14.8155L116 19.9339L121.238 18.5605C122.681 19.3474 124.306 19.7622 125.96 19.7629H125.964C131.41 19.7629 135.843 15.3312 135.845 9.88512C135.846 7.24574 134.819 4.7638 132.953 2.89674C131.088 1.02992 128.607 0.00108527 125.964 0C120.518 0 116.085 4.43101 116.083 9.87721ZM119.202 14.5575L119.007 14.2471C118.185 12.9398 117.751 11.4291 117.751 9.87783C117.753 5.35109 121.437 1.66822 125.967 1.66822C128.161 1.66915 130.223 2.52434 131.773 4.07597C133.324 5.62775 134.177 7.69054 134.177 9.8845C134.175 14.4112 130.491 18.0946 125.964 18.0946H125.961C124.487 18.0938 123.041 17.698 121.781 16.95L121.481 16.7721L118.372 17.5871L119.202 14.5575Z" fill="#F6F1F1"/>
<path d="M123.495 5.74801C123.31 5.33692 123.115 5.32863 122.939 5.32142C122.795 5.31522 122.63 5.31568 122.466 5.31568C122.301 5.31568 122.034 5.37762 121.808 5.62452C121.581 5.87165 120.943 6.46886 120.943 7.68351C120.943 8.89816 121.828 10.0721 121.951 10.237C122.075 10.4016 123.659 12.974 126.169 13.9636C128.254 14.786 128.679 14.6224 129.131 14.5812C129.584 14.5401 130.592 13.9841 130.798 13.4076C131.004 12.8312 131.004 12.3371 130.942 12.2338C130.88 12.131 130.716 12.0692 130.469 11.9458C130.222 11.8223 129.008 11.225 128.782 11.1426C128.555 11.0603 128.391 11.0192 128.226 11.2664C128.061 11.5132 127.589 12.0692 127.445 12.2338C127.301 12.3989 127.157 12.4194 126.91 12.2959C126.663 12.172 125.868 11.9117 124.924 11.0706C124.19 10.4162 123.695 9.60808 123.551 9.36088C123.407 9.11405 123.535 8.98026 123.659 8.85723C123.77 8.74661 123.906 8.56894 124.03 8.42483C124.153 8.28064 124.194 8.17777 124.276 8.01312C124.359 7.84832 124.317 7.70413 124.256 7.58064C124.194 7.45715 123.714 6.23615 123.495 5.74801Z" fill="#F4EBEB"/>
</g>
<defs>
<radialGradient id="paint0_radial_1543_4875" cx="0" cy="0" r="1" gradientUnits="userSpaceOnUse" gradientTransform="translate(5.3125 21.5404) rotate(-90) scale(19.8215 18.4355)">
<stop stop-color="#FFDD55"/>
<stop offset="0.1" stop-color="#FFDD55"/>
<stop offset="0.5" stop-color="#FF543E"/>
<stop offset="1" stop-color="#C837AB"/>
</radialGradient>
<radialGradient id="paint1_radial_1543_4875" cx="0" cy="0" r="1" gradientUnits="userSpaceOnUse" gradientTransform="translate(-3.35008 1.4407) rotate(78.681) scale(8.86031 36.5225)">
<stop stop-color="#3771C8"/>
<stop offset="0.128" stop-color="#3771C8"/>
<stop offset="1" stop-color="#6600FF" stop-opacity="0"/>
</radialGradient>
<linearGradient id="paint2_linear_1543_4875" x1="1074.22" y1="1924.73" x2="1074.22" y2="0.345215" gradientUnits="userSpaceOnUse">
<stop stop-color="#1FAF38"/>
<stop offset="1" stop-color="#60D669"/>
</linearGradient>
<clipPath id="clip0_1543_4875">
<rect width="20" height="20" fill="white"/>
</clipPath>
<clipPath id="clip1_1543_4875">
<rect width="16" height="16" fill="white" transform="translate(40 2)"/>
</clipPath>
<clipPath id="clip2_1543_4875">
<rect width="20" height="20" fill="white" transform="translate(76)"/>
</clipPath>
<clipPath id="clip3_1543_4875">
<rect width="19.845" height="20" fill="white" transform="translate(116)"/>
</clipPath>
</defs>
</svg>
