<svg width="50" height="51" viewBox="0 0 50 51" fill="none" xmlns="http://www.w3.org/2000/svg">
<path d="M43.1604 42.0829C46.4115 38.6218 48.605 34.3033 49.4824 29.6366C50.3598 24.9699 49.8844 20.1497 48.1123 15.7443C46.3403 11.3388 43.3454 7.53204 39.4809 4.77276C35.6164 2.01348 31.0435 0.416811 26.3014 0.171044C21.5593 -0.0747235 16.8458 1.04066 12.7168 3.38566C8.58773 5.73066 5.21537 9.20748 2.99738 13.4061C0.779381 17.6047 -0.191759 22.35 0.198503 27.0824C0.588766 31.8148 2.32415 36.3369 5.19999 40.1155L4.92048 45.5768L9.87652 44.8081C14.7759 48.5588 20.8935 50.3566 27.0431 49.853C33.1927 49.3495 38.9363 46.5805 43.1604 42.0829Z" fill="white"/>
<path d="M43.1617 42.0829C43.1617 42.0829 42.5435 42.7441 41.3018 43.9105C39.4282 45.5234 37.3317 46.8577 35.0772 47.8721C34.3093 48.2199 33.5213 48.5214 32.7174 48.7752L31.422 49.1837L30.0352 49.4847L29.3202 49.646C29.0784 49.6944 28.8257 49.7105 28.5784 49.7481L27.0519 49.9416C26.5143 49.9739 25.9768 49.9793 25.4393 50.0008C25.1651 50.0008 24.9017 50.0276 24.6168 50.0008L23.7837 49.9578L22.9398 49.9094C22.6533 49.9039 22.3676 49.8769 22.0851 49.8288L20.3381 49.5761C19.1329 49.3382 17.9456 49.0167 16.785 48.6139C14.2757 47.7418 11.918 46.4831 9.79712 44.8835H9.88851L4.9271 45.6575H4.78197V45.507C4.86797 43.7977 4.96472 41.9432 5.06148 40.0457L5.08837 40.1317C1.87751 35.8718 0.0974656 30.7048 0.00331306 25.3711C-0.0915625 19.5499 1.85388 13.879 5.50226 9.34194C7.22488 7.1964 9.29427 5.35413 11.6247 3.89138C13.8696 2.44018 16.3428 1.37715 18.9405 0.746824C21.444 0.139683 24.0226 -0.0993427 26.595 0.0372837C29.0585 0.224337 31.4853 0.745125 33.8086 1.58537C34.9169 2.01458 35.9945 2.51925 37.0338 3.09583C40.0084 4.70563 42.6123 6.92136 44.6775 9.59996C45.9605 11.2256 47.0433 12.9996 47.9027 14.8839L48.4402 16.26C48.6232 16.7035 48.7794 17.1576 48.9079 17.6199C49.1859 18.5006 49.4068 19.3984 49.569 20.3076C50.1746 23.5311 50.1417 26.8421 49.4723 30.053C49.3491 30.7395 49.1785 31.4166 48.9616 32.0795C48.7466 32.7138 48.5907 33.3427 48.3488 33.9125C48.1069 34.4823 47.8704 35.0252 47.65 35.5251C47.5478 35.7815 47.4256 36.0295 47.2845 36.2669L46.9029 36.9495C46.6502 37.3903 46.4406 37.8257 46.188 38.1966C45.9353 38.5675 45.6934 38.9115 45.4677 39.234L44.828 40.1801L44.2421 40.8627L43.4465 41.7765C43.2638 41.9862 43.167 42.0829 43.167 42.0829L43.4251 41.7604L44.1991 40.8251L44.7742 40.1424C44.957 39.8683 45.1613 39.5727 45.3817 39.2502C45.602 38.9276 45.8332 38.5782 46.0858 38.2127C46.3385 37.8472 46.5374 37.401 46.7846 36.9603L47.1609 36.2776C47.3005 36.043 47.4192 35.7966 47.5157 35.5412C47.736 35.0037 47.9672 34.4661 48.2037 33.9286C48.4402 33.3911 48.5907 32.7353 48.8057 32.101C49.014 31.4423 49.1792 30.7708 49.3003 30.0906C49.9477 26.8997 49.9659 23.613 49.354 20.4151C49.1877 19.5067 48.9669 18.6092 48.6928 17.7274C48.5642 17.268 48.4062 16.8174 48.2198 16.3782C48.0424 15.9267 47.8704 15.4698 47.6823 15.0129C45.9191 11.1373 43.2137 7.76483 39.8129 5.20295C38.8905 4.52267 37.9225 3.90664 36.9156 3.35922C35.8834 2.79295 34.815 2.29554 33.7172 1.87026C31.4165 1.04545 29.0157 0.532044 26.5788 0.343676C24.0414 0.210214 21.498 0.441926 19.0265 1.03171C16.4609 1.66167 14.0177 2.71342 11.7967 4.14402C8.2176 6.39751 5.27817 9.53361 3.26086 13.251C1.24356 16.9684 0.216187 21.1421 0.277459 25.3711C0.361682 30.6639 2.12123 35.7939 5.30337 40.0242L5.33562 40.0618V40.1102C5.23887 42.0023 5.13674 43.8729 5.05073 45.5661L4.90561 45.4425L9.88851 44.7222H9.93688L9.9799 44.7545C12.0729 46.3322 14.3999 47.5728 16.8764 48.4312C18.026 48.8355 19.2025 49.1588 20.3972 49.3987L22.1281 49.6567C22.4091 49.7025 22.6928 49.7294 22.9774 49.7374L23.8159 49.7858L24.6437 49.8341C24.9179 49.8341 25.1813 49.8341 25.4554 49.8341C25.9929 49.8341 26.5305 49.8341 27.0411 49.7804L28.557 49.5922C28.8042 49.56 29.0569 49.5439 29.2934 49.4955L30.0083 49.3396L31.3897 49.0225L32.6798 48.6193C33.4826 48.3759 34.269 48.0814 35.0342 47.7378C37.2838 46.7405 39.3813 45.4303 41.2642 43.846C41.9038 43.3085 42.3392 42.8194 42.6833 42.5237C43.0273 42.2281 43.1617 42.0829 43.1617 42.0829Z" fill="#263238"/>
<path d="M11.2756 16.663L17.4142 25.9731L18.285 27.2954C18.4685 27.5991 18.763 27.8194 19.1062 27.9098C19.4494 28.0001 19.8142 27.9532 20.1234 27.7792L27.966 22.6834L26.1276 22.1996L31.8308 31.644L32.6371 32.9771C33.5294 34.4553 35.8623 33.1061 34.9593 31.6225C33.0564 28.4618 31.1499 25.3029 29.2399 22.1458L28.4336 20.8128C28.2521 20.5069 27.9575 20.2848 27.6136 20.1943C27.2696 20.1037 26.9038 20.1521 26.5953 20.329L18.7473 25.4409L20.5857 25.9247L14.4524 16.6093L13.5816 15.287C12.6302 13.8517 10.3027 15.1956 11.2595 16.6469L11.2756 16.663Z" fill="#FF725E"/>
<path d="M27.6602 33.1921L37.7012 26.8654V37.014L27.6602 33.1921Z" fill="#FF725E"/>
</svg>
