<svg width="299" height="66" viewBox="0 0 299 66" fill="none" xmlns="http://www.w3.org/2000/svg">
<path d="M19.0712 16.4278C20.0056 15.0692 22.0118 15.0692 22.9462 16.4278L36.6691 36.381C37.7421 37.9412 36.6252 40.0651 34.7316 40.0651H7.28585C5.39228 40.0651 4.27531 37.9412 5.34834 36.381L19.0712 16.4278Z" fill="#6404E0"/>
<path d="M49.0751 2.81716C50.0095 1.45852 52.0157 1.45852 52.9501 2.81716L66.673 22.7704C67.746 24.3306 66.6291 26.4544 64.7355 26.4544H37.2898C35.3962 26.4544 34.2792 24.3306 35.3522 22.7704L49.0751 2.81716Z" fill="#DC14E0"/>
<path d="M49.0751 33.4463C50.0095 32.0877 52.0157 32.0877 52.9501 33.4463L66.673 53.3996C67.746 54.9598 66.6291 57.0836 64.7355 57.0836H37.2898C35.3962 57.0836 34.2792 54.9598 35.3522 53.3996L49.0751 33.4463Z" fill="#F1F463"/>
<path d="M115.736 24.057H106.618V47.9508H99.6946V24.057H90.5339V17.9781H115.736V24.057ZM131.266 31.5713C129.634 31.5713 128.156 31.8387 126.833 32.3734C125.511 32.88 124.554 33.6399 123.963 34.6531V47.9508H117.208V25.7879H123.414V30.2627C124.174 28.7711 125.159 27.6031 126.369 26.7588C127.579 25.9145 128.846 25.4783 130.168 25.4501C130.478 25.4501 130.703 25.4501 130.844 25.4501C131.013 25.4501 131.153 25.4642 131.266 25.4924V31.5713ZM132.553 41.3231C132.553 39.8596 132.961 38.5791 133.777 37.4815C134.593 36.3839 135.719 35.5255 137.154 34.9063C138.59 34.259 140.236 33.9354 142.093 33.9354C142.994 33.9354 143.881 34.0198 144.753 34.1887C145.625 34.3294 146.385 34.5405 147.033 34.8219V33.851C147.033 32.6408 146.667 31.7121 145.935 31.0648C145.203 30.4175 144.092 30.0938 142.6 30.0938C141.362 30.0938 140.194 30.3049 139.096 30.727C138.027 31.1492 136.887 31.7543 135.677 32.5423L133.65 28.2364C135.114 27.2795 136.634 26.5618 138.21 26.0834C139.814 25.6049 141.502 25.3657 143.276 25.3657C146.596 25.3657 149.172 26.1678 151.001 27.772C152.858 29.348 153.787 31.6417 153.787 34.6531V40.4365C153.787 41.112 153.886 41.5904 154.083 41.8719C154.308 42.1251 154.688 42.2799 155.222 42.3362V47.9508C154.66 48.0634 154.125 48.1478 153.618 48.2041C153.14 48.2604 152.718 48.2886 152.352 48.2886C151.085 48.2886 150.114 48.0353 149.439 47.5287C148.792 47.0221 148.384 46.3326 148.215 45.4601L148.088 44.4892C147.103 45.7556 145.921 46.7266 144.542 47.402C143.191 48.0493 141.77 48.373 140.278 48.373C138.815 48.373 137.492 48.0634 136.31 47.4443C135.156 46.8251 134.241 45.9808 133.566 44.9113C132.891 43.8419 132.553 42.6458 132.553 41.3231ZM145.977 42.1674C146.287 41.9141 146.54 41.6326 146.737 41.3231C146.934 41.0135 147.033 40.718 147.033 40.4365V38.4524C146.47 38.2273 145.837 38.0584 145.133 37.9458C144.458 37.8051 143.824 37.7348 143.233 37.7348C141.995 37.7348 140.968 38.0162 140.152 38.5791C139.335 39.1138 138.927 39.8315 138.927 40.732C138.927 41.2386 139.068 41.703 139.35 42.1251C139.631 42.5473 140.011 42.885 140.489 43.1383C140.996 43.3916 141.587 43.5182 142.262 43.5182C142.938 43.5182 143.613 43.3916 144.289 43.1383C144.964 42.885 145.527 42.5614 145.977 42.1674ZM173.583 47.9508L167.8 39.0856L165.436 41.4919V47.9508H158.681V17.1338H165.436V34.9486L172.95 25.7879H180.085L172.106 35.3285L180.76 47.9508H173.583ZM183.986 47.9508V32.7112H181.158V27.6031H183.986V25.7879C183.986 23.9304 184.296 22.3262 184.915 20.9753C185.562 19.6245 186.463 18.5831 187.617 17.8514C188.799 17.0915 190.164 16.7116 191.712 16.7116C192.669 16.7116 193.626 16.8242 194.582 17.0493C195.539 17.2745 196.51 17.5981 197.495 18.0203L196.271 23.0861C195.849 22.8891 195.356 22.7343 194.794 22.6217C194.231 22.481 193.71 22.4107 193.232 22.4107C192.415 22.4107 191.796 22.678 191.374 23.2127C190.952 23.7193 190.741 24.4933 190.741 25.5346V27.6031H195.891V32.7112H190.741V47.9508H183.986ZM198.583 39.9722V25.7879H205.337V38.4946C205.337 39.8455 205.605 40.8868 206.14 41.6186C206.674 42.3221 207.434 42.6739 208.419 42.6739C209.038 42.6739 209.629 42.5754 210.192 42.3784C210.755 42.1533 211.304 41.8015 211.839 41.3231C212.373 40.8446 212.852 40.2255 213.274 39.4656V25.7879H220.028V40.4365C220.028 41.112 220.127 41.5904 220.324 41.8719C220.549 42.1251 220.929 42.2799 221.464 42.3362V47.9508C220.844 48.0634 220.296 48.1478 219.817 48.2041C219.367 48.2604 218.959 48.2886 218.593 48.2886C217.411 48.2886 216.468 48.0493 215.765 47.5709C215.061 47.0643 214.625 46.3607 214.456 45.4601L214.329 44.1093C213.316 45.5727 212.05 46.6562 210.53 47.3598C209.038 48.0353 207.364 48.373 205.506 48.373C203.255 48.373 201.538 47.6553 200.356 46.22C199.174 44.7847 198.583 42.7021 198.583 39.9722ZM246.622 47.9508H239.867V35.4974C239.867 34.0339 239.586 32.9785 239.023 32.3312C238.488 31.6558 237.771 31.3181 236.87 31.3181C236.251 31.3181 235.618 31.4869 234.971 31.8246C234.323 32.1624 233.732 32.6267 233.197 33.2177C232.691 33.8088 232.297 34.4842 232.015 35.2441V47.9508H225.261V25.7879H231.34V29.5028C231.903 28.6304 232.606 27.8846 233.451 27.2654C234.295 26.6462 235.266 26.1819 236.364 25.8723C237.461 25.5346 238.657 25.3657 239.952 25.3657C241.387 25.3657 242.541 25.6331 243.414 26.1678C244.314 26.6744 244.99 27.3498 245.44 28.1941C245.918 29.0384 246.228 29.9531 246.369 30.9381C246.537 31.895 246.622 32.8378 246.622 33.7665V47.9508ZM249.843 36.8482C249.843 34.6812 250.265 32.7393 251.11 31.0226C251.954 29.2777 253.108 27.8986 254.571 26.8855C256.035 25.8723 257.723 25.3657 259.637 25.3657C261.185 25.3657 262.592 25.7457 263.859 26.5055C265.125 27.2373 266.082 28.2082 266.729 29.4184V17.1338H273.484V40.4365C273.484 41.112 273.596 41.5904 273.821 41.8719C274.046 42.1251 274.412 42.2799 274.919 42.3362V47.9508C273.737 48.176 272.78 48.2886 272.048 48.2886C270.894 48.2886 269.952 48.0353 269.22 47.5287C268.516 47.0221 268.08 46.3185 267.911 45.4179L267.785 44.2781C266.997 45.6571 265.927 46.6844 264.576 47.3598C263.225 48.0353 261.804 48.373 260.312 48.373C258.793 48.373 257.386 48.0916 256.091 47.5287C254.824 46.9377 253.713 46.1215 252.756 45.0802C251.827 44.0389 251.11 42.8147 250.603 41.4075C250.096 40.0003 249.843 38.4806 249.843 36.8482ZM266.771 39.5922V34.9486C266.49 34.1887 266.082 33.5273 265.547 32.9644C265.041 32.4016 264.45 31.9513 263.774 31.6136C263.127 31.2758 262.465 31.107 261.79 31.107C261.058 31.107 260.383 31.2618 259.764 31.5713C259.173 31.8809 258.652 32.3172 258.202 32.88C257.751 33.4147 257.4 34.0339 257.146 34.7375C256.921 35.4411 256.809 36.1869 256.809 36.9749C256.809 37.7911 256.935 38.5509 257.189 39.2545C257.47 39.93 257.85 40.535 258.328 41.0698C258.807 41.5763 259.37 41.9704 260.017 42.2518C260.664 42.5332 261.368 42.6739 262.128 42.6739C262.606 42.6739 263.071 42.6036 263.521 42.4629C263.971 42.294 264.393 42.0829 264.787 41.8296C265.209 41.5763 265.589 41.2527 265.927 40.8587C266.265 40.4647 266.546 40.0425 266.771 39.5922ZM277.422 43.8982L288.694 30.4738H278.013V25.7879H295.786V29.8405L284.641 43.265H296.081V47.9508H277.422V43.8982Z" fill="white"/>
</svg>
