<svg width="844" height="187" viewBox="0 0 844 187" fill="none" xmlns="http://www.w3.org/2000/svg">
<path d="M54.0873 46.5903C56.7373 42.7372 62.4271 42.7372 65.0771 46.5903L103.996 103.179C107.039 107.604 103.871 113.627 98.5012 113.627H20.6631C15.2929 113.627 12.1251 107.604 15.1682 103.179L54.0873 46.5903Z" fill="#6404E0"/>
<path d="M139.181 7.98966C141.831 4.13648 147.521 4.13647 150.171 7.98966L189.09 64.5783C192.133 69.0032 188.965 75.0265 183.595 75.0265H105.757C100.386 75.0265 97.2186 69.0032 100.262 64.5784L139.181 7.98966Z" fill="#DC14E0"/>
<path d="M139.181 94.856C141.831 91.0028 147.521 91.0028 150.171 94.856L189.09 151.445C192.133 155.869 188.965 161.893 183.595 161.893H105.757C100.386 161.893 97.2186 155.87 100.262 151.445L139.181 94.856Z" fill="#F1F463"/>
<path d="M328.235 68.1864H302.374V135.951H282.739V68.1864H256.759V50.946H328.235V68.1864ZM372.278 89.4975C367.649 89.4975 363.458 90.2557 359.707 91.7723C355.955 93.209 353.242 95.364 351.565 98.2374V135.951H332.409V73.0951H350.009V85.786C352.164 81.5557 354.958 78.2433 358.39 75.8488C361.822 73.4543 365.414 72.2172 369.165 72.1373C370.043 72.1373 370.682 72.1373 371.081 72.1373C371.56 72.1373 371.959 72.1772 372.278 72.2571V89.4975ZM375.928 117.154C375.928 113.004 377.085 109.372 379.4 106.259C381.714 103.146 384.907 100.712 388.978 98.9558C393.048 97.12 397.718 96.2021 402.986 96.2021C405.54 96.2021 408.054 96.4415 410.528 96.9204C413.003 97.3195 415.158 97.9182 416.993 98.7163V95.9626C416.993 92.5305 415.956 89.8966 413.881 88.0608C411.805 86.225 408.653 85.3071 404.422 85.3071C400.91 85.3071 397.598 85.9057 394.485 87.103C391.452 88.3002 388.219 90.0163 384.787 92.2512L379.041 80.0392C383.191 77.3254 387.501 75.2901 391.971 73.9332C396.52 72.5763 401.309 71.8979 406.338 71.8979C415.756 71.8979 423.059 74.1727 428.248 78.7222C433.515 83.192 436.149 89.697 436.149 98.2374V114.64C436.149 116.555 436.429 117.912 436.988 118.71C437.626 119.429 438.704 119.868 440.22 120.027V135.951C438.624 136.27 437.107 136.51 435.671 136.669C434.314 136.829 433.116 136.909 432.079 136.909C428.487 136.909 425.733 136.19 423.818 134.754C421.982 133.317 420.825 131.361 420.346 128.887L419.987 126.133C417.193 129.725 413.841 132.479 409.93 134.394C406.098 136.23 402.068 137.148 397.837 137.148C393.687 137.148 389.936 136.27 386.583 134.514C383.311 132.758 380.717 130.364 378.801 127.331C376.885 124.298 375.928 120.905 375.928 117.154ZM414 119.548C414.878 118.83 415.597 118.032 416.155 117.154C416.714 116.276 416.993 115.438 416.993 114.64V109.013C415.397 108.374 413.601 107.895 411.606 107.576C409.69 107.177 407.894 106.977 406.218 106.977C402.706 106.977 399.793 107.776 397.478 109.372C395.164 110.888 394.006 112.924 394.006 115.478C394.006 116.915 394.405 118.232 395.203 119.429C396.002 120.626 397.079 121.584 398.436 122.302C399.873 123.021 401.549 123.38 403.464 123.38C405.38 123.38 407.296 123.021 409.211 122.302C411.127 121.584 412.723 120.666 414 119.548ZM492.293 135.951L475.891 110.809L469.186 117.633V135.951H450.03V48.5515H469.186V99.0755L490.497 73.0951H510.731L488.103 100.153L512.646 135.951H492.293ZM521.797 135.951V92.7301H513.775V78.2433H521.797V73.0951C521.797 67.8272 522.675 63.2777 524.431 59.4465C526.267 55.6153 528.821 52.6621 532.093 50.5868C535.446 48.4318 539.317 47.3542 543.707 47.3542C546.42 47.3542 549.134 47.6735 551.848 48.312C554.562 48.9506 557.315 49.8685 560.109 51.0657L556.637 65.4327C555.44 64.874 554.043 64.435 552.446 64.1158C550.85 63.7167 549.374 63.5171 548.017 63.5171C545.702 63.5171 543.946 64.2754 542.749 65.7919C541.551 67.2286 540.953 69.4236 540.953 72.3768V78.2433H555.559V92.7301H540.953V135.951H521.797ZM563.194 113.323V73.0951H582.35V109.132C582.35 112.964 583.108 115.917 584.624 117.992C586.141 119.987 588.296 120.985 591.09 120.985C592.846 120.985 594.522 120.706 596.118 120.147C597.714 119.509 599.271 118.511 600.787 117.154C602.304 115.797 603.661 114.041 604.858 111.886V73.0951H624.014V114.64C624.014 116.555 624.293 117.912 624.852 118.71C625.491 119.429 626.568 119.868 628.085 120.027V135.951C626.329 136.27 624.772 136.51 623.415 136.669C622.138 136.829 620.981 136.909 619.943 136.909C616.591 136.909 613.917 136.23 611.922 134.873C609.926 133.437 608.689 131.441 608.21 128.887L607.851 125.056C604.978 129.206 601.386 132.279 597.076 134.275C592.846 136.19 588.097 137.148 582.829 137.148C576.443 137.148 571.574 135.113 568.222 131.042C564.87 126.971 563.194 121.065 563.194 113.323ZM699.435 135.951H680.279V100.632C680.279 96.4815 679.481 93.4883 677.885 91.6525C676.368 89.7369 674.333 88.7791 671.779 88.7791C670.023 88.7791 668.227 89.258 666.391 90.2158C664.555 91.1736 662.879 92.4906 661.363 94.1668C659.926 95.8429 658.809 97.7585 658.01 99.9136V135.951H638.854V73.0951H656.095V83.631C657.691 81.1566 659.687 79.0415 662.081 77.2855C664.476 75.5296 667.229 74.2126 670.342 73.3346C673.455 72.3768 676.847 71.8979 680.519 71.8979C684.589 71.8979 687.862 72.6561 690.336 74.1727C692.89 75.6094 694.806 77.525 696.083 79.9195C697.44 82.314 698.318 84.908 698.717 87.7016C699.196 90.4154 699.435 93.0892 699.435 95.7232V135.951ZM708.571 104.463C708.571 98.3172 709.768 92.8099 712.163 87.9411C714.557 82.9924 717.83 79.0814 721.98 76.208C726.131 73.3346 730.92 71.8979 736.347 71.8979C740.737 71.8979 744.728 72.9754 748.32 75.1305C751.911 77.2057 754.625 79.9594 756.461 83.3915V48.5515H775.617V114.64C775.617 116.555 775.936 117.912 776.575 118.71C777.213 119.429 778.251 119.868 779.688 120.027V135.951C776.335 136.589 773.622 136.909 771.546 136.909C768.274 136.909 765.6 136.19 763.525 134.754C761.529 133.317 760.292 131.321 759.813 128.767L759.454 125.535C757.219 129.446 754.186 132.359 750.355 134.275C746.524 136.19 742.493 137.148 738.263 137.148C733.953 137.148 729.962 136.35 726.29 134.754C722.698 133.077 719.546 130.763 716.832 127.81C714.198 124.856 712.163 121.384 710.726 117.393C709.289 113.403 708.571 109.092 708.571 104.463ZM756.581 112.245V99.0755C755.782 96.9204 754.625 95.0447 753.109 93.4484C751.672 91.8521 749.996 90.575 748.08 89.6172C746.244 88.6594 744.369 88.1805 742.453 88.1805C740.378 88.1805 738.462 88.6195 736.706 89.4975C735.03 90.3755 733.554 91.6126 732.276 93.209C730.999 94.7255 730.002 96.4814 729.283 98.4769C728.645 100.472 728.326 102.587 728.326 104.822C728.326 107.137 728.685 109.292 729.403 111.287C730.201 113.203 731.279 114.919 732.636 116.436C733.992 117.872 735.589 118.99 737.425 119.788C739.26 120.586 741.256 120.985 743.411 120.985C744.768 120.985 746.085 120.786 747.362 120.387C748.639 119.908 749.836 119.309 750.954 118.591C752.151 117.872 753.228 116.954 754.186 115.837C755.144 114.72 755.942 113.522 756.581 112.245ZM786.787 124.457L818.754 86.3846H788.463V73.0951H838.867V84.5888L807.26 122.661H839.705V135.951H786.787V124.457Z" fill="white"/>
</svg>
